<svg width="106" height="28" viewBox="0 0 106 28" fill="none" xmlns="http://www.w3.org/2000/svg">
<path d="M5.30268 27.8083C8.38329 27.8083 10.6054 25.6521 10.6054 22.6232C10.6054 19.5942 8.38329 17.4381 5.30268 17.4381C2.22208 17.4381 0 19.5942 0 22.6232C0 25.6521 2.22208 27.8083 5.30268 27.8083Z" fill="#2B2B2B"/>
<path d="M27.0713 27.9109C34.4951 27.9109 39.9492 23.9579 40.8078 17.3354L32.071 16.2573C31.566 18.5675 29.5459 20.2103 27.1723 20.2103C24.1927 20.2103 22.0211 17.6434 22.0211 13.9984C22.0211 10.3535 24.2432 7.78658 27.2228 7.78658C29.4954 7.78658 31.566 9.42939 32.071 11.7909L40.8078 10.6615C39.9997 4.03894 34.5456 0.0859375 27.0713 0.0859375C18.385 0.0859375 12.5773 5.47639 12.5773 13.9984C12.5773 22.4178 18.5365 27.9109 27.0713 27.9109Z" fill="#2B2B2B"/>
<path d="M58.1958 27.9109C67.1346 27.9109 72.8918 22.6745 72.8918 13.9984C72.8918 5.37371 67.1346 0.0859375 58.1958 0.0859375C49.1559 0.0859375 43.4492 5.32238 43.4492 13.9984C43.4492 22.6232 49.2065 27.9109 58.1958 27.9109ZM58.1958 19.8509C55.0647 19.8509 52.9436 17.4381 52.9436 13.9984C52.9436 10.5588 55.0647 8.14595 58.1958 8.14595C61.2764 8.14595 63.4479 10.5588 63.4479 13.9984C63.4479 17.4381 61.2764 19.8509 58.1958 19.8509Z" fill="#2B2B2B"/>
<path d="M85.6663 27.2435V12.561C85.6663 9.89143 87.0299 8.14595 89.252 8.14595C91.373 8.14595 92.7871 9.89143 92.7871 12.561V27.2435H102.281V12.561C102.281 9.94276 103.746 8.14595 106.019 8.14595C108.342 8.24862 109.756 10.1481 109.756 12.561V27.2435H119.25V10.4048C119.25 4.29562 115.311 0.137278 109.857 0.137278C106.12 0.137278 103.291 2.03677 101.928 5.16836H101.423C100.16 2.13944 97.0292 0.0859375 93.6961 0.0859375C90.4135 0.0859375 87.6864 2.03677 86.1714 5.01435H85.6158V0.753327H76.2225V27.2435H85.6663Z" fill="#2B2B2B"/>
</svg>
