<svg width="160" height="42" viewBox="0 0 160 42" fill="none" xmlns="http://www.w3.org/2000/svg">
<path d="M8.00405 41.845C12.654 41.845 16.0081 38.5904 16.0081 34.0185C16.0081 29.4465 12.654 26.1919 8.00405 26.1919C3.35408 26.1919 0 29.4465 0 34.0185C0 38.5904 3.35408 41.845 8.00405 41.845Z" fill="#2B2B2B"/>
<path d="M40.8623 42C52.068 42 60.3007 36.0332 61.5966 26.0369L48.409 24.4096C47.6467 27.8967 44.5976 30.3764 41.0148 30.3764C36.5173 30.3764 33.2394 26.5018 33.2394 21C33.2394 15.4982 36.5935 11.6236 41.091 11.6236C44.5213 11.6236 47.6467 14.1033 48.409 17.6679L61.5966 15.9631C60.377 5.96679 52.1442 0 40.8623 0C27.7509 0 18.9846 8.13653 18.9846 21C18.9846 33.7085 27.9796 42 40.8623 42Z" fill="#2B2B2B"/>
<path d="M87.8427 42C101.335 42 110.025 34.0959 110.025 21C110.025 7.98155 101.335 0 87.8427 0C74.1977 0 65.5838 7.90406 65.5838 21C65.5838 34.0185 74.2739 42 87.8427 42ZM87.8427 29.834C83.1165 29.834 79.9148 26.1919 79.9148 21C79.9148 15.8081 83.1165 12.1661 87.8427 12.1661C92.4926 12.1661 95.7705 15.8081 95.7705 21C95.7705 26.1919 92.4926 29.834 87.8427 29.834Z" fill="#2B2B2B"/>
<path d="M129.308 40.9926V18.8303C129.308 14.8007 131.366 12.1661 134.72 12.1661C137.922 12.1661 140.056 14.8007 140.056 18.8303V40.9926H154.387V18.8303C154.387 14.8782 156.598 12.1661 160.028 12.1661C163.535 12.321 165.669 15.1882 165.669 18.8303V40.9926H180V15.5756C180 6.35424 174.054 0.0774944 165.821 0.0774944C160.18 0.0774944 155.912 2.94465 153.853 7.67159H153.091C151.185 3.09963 146.459 0 141.428 0C136.473 0 132.357 2.94465 130.07 7.43912H129.231V1.00738H115.053V40.9926H129.308Z" fill="#2B2B2B"/>
</svg>
