<svg width="817" height="122" viewBox="0 0 817 122" fill="none" xmlns="http://www.w3.org/2000/svg">
<path d="M40.2507 61.2947H72.3625C77.2459 61.2947 81.3647 59.723 84.7189 56.5797C88.1225 53.4364 89.8243 48.967 89.8243 43.1715C89.8243 38.8986 88.0485 35.0676 84.497 31.6787C80.9454 28.2407 76.9006 26.5217 72.3625 26.5217H26.6365V122H21.3092V21.2174H72.3625C78.3804 21.2174 83.6831 23.4521 88.2705 27.9215C92.8579 32.3418 95.1516 37.4251 95.1516 43.1715C95.1516 50.244 92.9319 55.9167 88.4924 60.1896C84.053 64.4626 78.6764 66.599 72.3625 66.599H40.2507V61.2947ZM40.2507 71.9034H72.3625C80.0575 71.9034 86.6673 69.2266 92.1919 63.8732C97.7166 58.4706 100.479 51.57 100.479 43.1715C100.479 35.9517 97.6426 29.6159 91.97 24.1642C86.3467 18.6634 79.8109 15.913 72.3625 15.913H15.9819V122H10.6546V10.6087H72.3625C78.2324 10.6087 83.7324 12.1067 88.8624 15.1027C94.0417 18.0986 98.1605 22.126 101.219 27.1848C104.277 32.1944 105.806 37.5233 105.806 43.1715C105.806 52.847 102.501 60.9509 95.8915 67.4831C89.331 73.9662 81.488 77.2077 72.3625 77.2077H40.2507V71.9034ZM40.2507 82.5121H72.3625C79.2683 82.5121 85.6808 80.8176 91.6 77.4287C97.5193 74.0399 102.255 69.3249 105.806 63.2838C109.358 57.1936 111.133 50.4895 111.133 43.1715C111.133 36.5411 109.358 30.3281 105.806 24.5326C102.304 18.688 97.5686 14.0221 91.6 10.535C85.6315 7.04791 79.219 5.30435 72.3625 5.30435H5.3273V122H0V0H72.3625C80.1069 0 87.3826 1.98913 94.1897 5.96739C100.997 9.89654 106.398 15.2009 110.394 21.8804C114.438 28.5109 116.461 35.6079 116.461 43.1715C116.461 51.9138 114.562 59.6002 110.764 66.2307C107.015 72.8611 101.909 78.0427 95.4475 81.7754L109.21 122H103.586L90.4162 84.2802C88.4431 85.066 86.9386 85.6063 85.9028 85.901L98.2592 122H92.6359L80.5755 87.1534C80.1315 87.2516 78.5531 87.4235 75.8401 87.6691L87.3086 122H81.6853L70.3648 87.8164H65.5554L76.358 122H70.7348L59.8582 87.8164H40.2507V82.5121ZM37.2911 122H31.9638V31.8261H72.3625C75.6674 31.8261 78.5037 32.9557 80.8714 35.215C83.2884 37.4251 84.497 40.0773 84.497 43.1715C84.497 51.7174 80.4521 55.9903 72.3625 55.9903H40.2507V50.686H72.3625C74.4836 50.686 76.1361 50.1457 77.3199 49.0652C78.5531 47.9356 79.1697 45.971 79.1697 43.1715C79.1697 41.4525 78.5037 40.0282 77.1719 38.8985C75.8894 37.7198 74.2863 37.1304 72.3625 37.1304H37.2911V122Z" fill="#ECEAEA"/>
<path d="M154.492 122H149.165V0H154.492V122ZM143.837 122H138.51V0H143.837V122ZM133.183 122H127.855V0H133.183V122ZM165.146 95.4783H221.823V100.783H165.146V106.087H221.823V111.391H165.146V116.696H221.823V122H159.819V0H221.823V5.30435H165.146V10.6087H221.823V15.913H165.146V21.2174H221.823V26.5217H165.146V47.7391H194.225V53.0435H165.146V58.3478H194.225V63.6522H165.146V68.9565H194.225V74.2609H165.146V95.4783Z" fill="#ECEAEA"/>
<path d="M327.628 79.4915C327.628 77.5761 327.036 76.2991 325.852 75.6606C324.717 75.0221 323.04 74.7029 320.821 74.7029H286.489V69.3985H320.821C328.91 69.3985 332.955 72.7629 332.955 79.4915C332.955 83.2733 331.845 85.9992 329.625 87.6691C327.406 89.339 324.471 90.1739 320.821 90.1739H286.489V84.8696H320.821C325.359 84.8696 327.628 83.0769 327.628 79.4915ZM283.529 122H278.202V31.8261H320.821C324.175 31.8261 327.036 32.8575 329.403 34.9203C331.771 36.934 332.955 39.4634 332.955 42.5085C332.955 46.5358 331.845 49.4581 329.625 51.2754C327.406 53.0435 324.471 53.9275 320.821 53.9275H286.489V48.6232H320.821C325.359 48.6232 327.628 46.5849 327.628 42.5085C327.628 40.8386 326.986 39.537 325.704 38.6039C324.421 37.6216 322.794 37.1304 320.821 37.1304H283.529V122ZM286.489 59.2319H320.821C325.704 59.2319 329.823 57.783 333.177 54.8853C336.58 51.9384 338.282 47.8128 338.282 42.5085C338.282 38.2355 336.506 34.5028 332.955 31.3104C329.453 28.118 325.408 26.5217 320.821 26.5217H272.875V122H267.547V21.2174H320.821C326.888 21.2174 332.19 23.3539 336.728 27.6268C341.316 31.8506 343.61 36.8112 343.61 42.5085C343.61 46.9779 342.549 50.8824 340.428 54.2222C338.356 57.562 335.545 60.1405 331.993 61.9577C339.737 64.7081 343.61 70.3072 343.61 78.7548C343.61 85.4344 341.39 90.7878 336.95 94.8152C332.511 98.7935 327.134 100.783 320.821 100.783H286.489V95.4783H320.821C325.704 95.4783 329.823 94.0294 333.177 91.1316C336.58 88.1848 338.282 84.0592 338.282 78.7548C338.282 75.1695 337 72.0016 334.435 69.2512C331.87 66.5008 328.096 64.9046 323.114 64.4626C322.621 64.5117 321.856 64.5362 320.821 64.5362H286.489V59.2319ZM354.264 42.5085C354.264 49.3845 351.822 55.5974 346.939 61.1473C351.822 66.5499 354.264 72.4191 354.264 78.7548C354.264 84.8941 352.71 90.4931 349.603 95.5519C346.544 100.562 342.45 104.466 337.32 107.266C332.24 110.016 326.74 111.391 320.821 111.391H286.489V106.087H320.821C328.516 106.087 335.125 103.533 340.65 98.4251C346.175 93.2681 348.937 86.7113 348.937 78.7548C348.937 75.9062 348.197 72.7629 346.717 69.3249C345.287 65.8378 343.289 63.1856 340.724 61.3684C346.199 56.2605 348.937 49.9738 348.937 42.5085C348.937 35.3378 346.125 29.1248 340.502 23.8696C334.879 18.5652 328.318 15.913 320.821 15.913H262.22V122H256.893V10.6087H320.821C326.69 10.6087 332.19 12.0576 337.32 14.9553C342.5 17.8039 346.618 21.7085 349.677 26.6691C352.735 31.5805 354.264 36.8603 354.264 42.5085ZM353.006 61.442C357.396 55.5974 359.591 49.2862 359.591 42.5085C359.591 35.878 357.816 29.7142 354.264 24.0169C350.762 18.2705 346.027 13.7275 340.058 10.3877C334.089 6.99879 327.677 5.30435 320.821 5.30435H251.566V122H246.238V0H320.821C328.614 0 335.89 1.91546 342.648 5.74638C349.455 9.57729 354.856 14.7834 358.852 21.3647C362.896 27.8969 364.919 34.9448 364.919 42.5085C364.919 49.7283 362.872 56.064 358.778 61.5157C362.872 67.1638 364.919 72.9102 364.919 78.7548C364.919 85.3362 363.735 91.3772 361.367 96.878C359 102.33 355.793 106.873 351.748 110.507C347.753 114.142 343.092 116.966 337.764 118.979C332.437 120.993 326.789 122 320.821 122H286.489V116.696H320.821C326 116.696 330.957 115.738 335.693 113.822C340.428 111.858 344.547 109.206 348.049 105.866C351.551 102.526 354.338 98.4988 356.41 93.7838C358.531 89.0688 359.591 84.0592 359.591 78.7548C359.591 76.3973 359.024 73.5733 357.89 70.2826C356.804 66.9428 355.177 63.996 353.006 61.442Z" fill="#ECEAEA"/>
<path d="M417.156 61.2947H449.268C454.151 61.2947 458.27 59.723 461.624 56.5797C465.028 53.4364 466.729 48.967 466.729 43.1715C466.729 38.8986 464.954 35.0676 461.402 31.6787C457.851 28.2407 453.806 26.5217 449.268 26.5217H403.542V122H398.214V21.2174H449.268C455.286 21.2174 460.588 23.4521 465.176 27.9215C469.763 32.3418 472.057 37.4251 472.057 43.1715C472.057 50.244 469.837 55.9167 465.398 60.1896C460.958 64.4626 455.582 66.599 449.268 66.599H417.156V61.2947ZM417.156 71.9034H449.268C456.963 71.9034 463.572 69.2266 469.097 63.8732C474.622 58.4706 477.384 51.57 477.384 43.1715C477.384 35.9517 474.548 29.6159 468.875 24.1642C463.252 18.6634 456.716 15.913 449.268 15.913H392.887V122H387.56V10.6087H449.268C455.138 10.6087 460.638 12.1067 465.768 15.1027C470.947 18.0986 475.066 22.126 478.124 27.1848C481.182 32.1944 482.711 37.5233 482.711 43.1715C482.711 52.847 479.406 60.9509 472.797 67.4831C466.236 73.9662 458.393 77.2077 449.268 77.2077H417.156V71.9034ZM417.156 82.5121H449.268C456.173 82.5121 462.586 80.8176 468.505 77.4287C474.424 74.0399 479.16 69.3249 482.711 63.2838C486.263 57.1936 488.039 50.4895 488.039 43.1715C488.039 36.5411 486.263 30.3281 482.711 24.5326C479.209 18.688 474.474 14.0221 468.505 10.535C462.537 7.04791 456.124 5.30435 449.268 5.30435H382.232V122H376.905V0H449.268C457.012 0 464.288 1.98913 471.095 5.96739C477.902 9.89654 483.303 15.2009 487.299 21.8804C491.344 28.5109 493.366 35.6079 493.366 43.1715C493.366 51.9138 491.467 59.6002 487.669 66.2307C483.92 72.8611 478.814 78.0427 472.353 81.7754L486.115 122H480.492L467.321 84.2802C465.348 85.066 463.844 85.6063 462.808 85.901L475.164 122H469.541L457.481 87.1534C457.037 87.2516 455.458 87.4235 452.745 87.6691L464.214 122H458.59L447.27 87.8164H442.461L453.263 122H447.64L436.763 87.8164H417.156V82.5121ZM414.196 122H408.869V31.8261H449.268C452.573 31.8261 455.409 32.9557 457.777 35.215C460.194 37.4251 461.402 40.0773 461.402 43.1715C461.402 51.7174 457.357 55.9903 449.268 55.9903H417.156V50.686H449.268C451.389 50.686 453.041 50.1457 454.225 49.0652C455.458 47.9356 456.075 45.971 456.075 43.1715C456.075 41.4525 455.409 40.0282 454.077 38.8985C452.795 37.7198 451.191 37.1304 449.268 37.1304H414.196V122Z" fill="#ECEAEA"/>
<path d="M557.663 86.1957L559.809 80.8913H578.011L580.157 86.1957H557.663ZM553.52 96.8043L555.592 91.5H582.154L584.448 96.8043H553.52ZM549.377 107.413L551.448 102.109H586.372L588.591 107.413H549.377ZM506.092 122H500.321L548.785 0H554.556L602.946 122H597.248L551.67 7.14613L506.092 122ZM552.336 19.744L555.37 26.5217L517.487 122H511.789L552.336 19.744ZM558.255 33.7415L561.067 41.035L529.029 122H523.258L558.255 33.7415ZM563.879 48.3285L566.69 55.7693L540.424 122H534.727L563.879 48.3285ZM637.351 122H631.58L583.19 0H588.887L637.351 122ZM577.419 0L625.883 122H620.185L571.722 0H577.419ZM565.95 0L614.414 122H608.643L560.253 0H565.95Z" fill="#ECEAEA"/>
<path d="M678.638 0H683.965V122H678.638V0ZM667.983 0H673.31V122H667.983V0ZM657.328 0H662.656V122H657.328V0ZM646.674 0H652.001V122H646.674V0Z" fill="#ECEAEA"/>
<path d="M785.036 63.2838L779.708 54.5169V0H785.036V63.2838ZM795.69 80.6703L790.363 71.756V0H795.69V80.6703ZM806.345 98.2778L801.018 89.2898V0H806.345V98.2778ZM729.987 58.7162L735.314 67.4831V122H729.987V58.7162ZM719.332 41.3297L724.66 50.244V122H719.332V41.3297ZM708.678 23.7222L714.005 32.7101V122H708.678V23.7222ZM710.527 0H716.743L792.065 122H785.85L710.527 0ZM723.106 0H729.395L804.643 122H798.28L723.106 0ZM735.61 0H741.825L811.672 113.38V0H817V122C817 122 814.903 122 810.71 122L735.61 0ZM703.35 8.61957V122H698.023V0C698.023 0 700.144 0 704.386 0L779.486 122H773.345L703.35 8.61957Z" fill="#ECEAEA"/>
</svg>
