<svg width="72" height="72" viewBox="0 0 72 72" fill="none" xmlns="http://www.w3.org/2000/svg">
<path d="M71.7746 36.0016C71.7746 55.7583 55.7564 71.7766 35.9996 71.7766C16.2429 71.7766 0.224609 55.7583 0.224609 36.0016C0.224609 16.2448 16.2429 0.226562 35.9996 0.226562C55.7564 0.226562 71.7746 16.2448 71.7746 36.0016Z" fill="#2B2B2B"/>
<path d="M15.5239 33.7042C28.0273 28.2038 44.2065 21.4977 46.4407 20.5694C52.2988 18.1403 54.0965 18.6053 53.2003 23.9859C52.5564 27.8532 50.6997 40.6553 49.2186 48.6241C48.3403 53.35 46.3691 53.9099 43.271 51.8653C41.781 50.8815 34.2593 45.907 32.6261 44.739C31.1361 43.6747 29.0808 42.3939 31.6584 39.8718C32.5761 38.9738 38.588 33.2319 43.2728 28.7636C43.8863 28.1769 43.1154 27.2128 42.407 27.6832C36.0927 31.8707 27.3386 37.6824 26.2242 38.439C24.541 39.582 22.924 40.1061 20.0226 39.2726C17.8296 38.6429 15.6885 37.8916 14.8549 37.6054C11.6441 36.5036 12.4061 35.0761 15.5239 33.7042Z" fill="#363636"/>
</svg>
