<svg width="108" height="108" viewBox="0 0 108 108" fill="none" xmlns="http://www.w3.org/2000/svg">
<path d="M108 54C108 83.8215 83.8215 108 54 108C24.1785 108 0 83.8215 0 54C0 24.1785 24.1785 0 54 0C83.8215 0 108 24.1785 108 54Z" fill="#2B2B2B"/>
<path d="M23.0934 50.5333C41.9664 42.2308 66.3879 32.1085 69.7602 30.7072C78.6027 27.0406 81.3162 27.7426 79.9635 35.8642C78.9915 41.7016 76.1889 61.0255 73.9533 73.054C72.6276 80.1874 69.6522 81.0325 64.9758 77.9464C62.7267 76.4614 51.3732 68.9527 48.9081 67.1896C46.659 65.5831 43.5567 63.6499 47.4474 59.8429C48.8325 58.4875 57.9072 49.8205 64.9785 43.0759C65.9046 42.1903 64.7409 40.735 63.6717 41.4451C54.1407 47.7658 40.9269 56.5381 39.2448 57.6802C36.7041 59.4055 34.2633 60.1966 29.8839 58.9384C26.5737 57.988 23.3418 56.854 22.0836 56.422C17.2371 54.7588 18.3873 52.6042 23.0934 50.5333Z" fill="#363636"/>
</svg>
