<svg width="72" height="54" viewBox="0 0 72 54" fill="none" xmlns="http://www.w3.org/2000/svg">
<path d="M70.6605 12.2025C70.6605 5.9917 66.12 0.995481 60.5095 0.995481C52.91 0.638017 45.1596 0.5 37.2391 0.5H34.7699C26.8686 0.5 19.1045 0.638017 11.5049 0.996861C5.90818 0.996861 1.36767 6.02068 1.36767 12.2315C1.02473 17.1435 0.879322 22.0569 0.887553 26.9703C0.873835 31.8837 1.0293 36.8017 1.35395 41.7243C1.35395 47.9351 5.89446 52.9727 11.4912 52.9727C19.4748 53.3454 27.6642 53.511 35.9908 53.4972C44.331 53.5248 52.4976 53.35 60.4903 52.9727C66.1008 52.9727 70.6413 47.9351 70.6413 41.7243C70.9705 36.7971 71.1214 31.8837 71.1077 26.9565C71.1388 22.0431 70.9897 17.1251 70.6605 12.2025ZM29.2829 40.5098V13.3894L49.1733 26.9427L29.2829 40.5098Z" fill="#2B2B2B"/>
</svg>
