<svg width="108" height="108" viewBox="0 0 108 108" fill="none" xmlns="http://www.w3.org/2000/svg">
<path d="M79 54C79 67.8063 67.8063 79 54 79C40.1938 79 29 67.8063 29 54C29 40.1938 40.1938 29 54 29C67.8063 29 79 40.1938 79 54Z" fill="#363636"/>
<path d="M106.319 31.6641C106.319 22.2894 99.4653 14.7479 90.9967 14.7479C79.5257 14.2083 67.827 14 55.8715 14H52.1444C40.2179 14 28.4985 14.2083 17.0275 14.75C8.57956 14.75 1.72596 22.3331 1.72596 31.7079C1.20832 39.1222 0.988836 46.5387 1.00126 53.9552C0.980553 61.3716 1.21522 68.795 1.70525 76.2254C1.70525 85.6001 8.55885 93.2041 17.0068 93.2041C29.0575 93.7666 41.4189 94.0166 53.9872 93.9957C66.5763 94.0374 78.9031 93.7735 90.9677 93.2041C99.4363 93.2041 106.29 85.6001 106.29 76.2254C106.787 68.7881 107.015 61.3716 106.994 53.9343C107.041 46.5179 106.816 39.0945 106.319 31.6641ZM43.8621 74.3921V33.4557L73.8855 53.9135L43.8621 74.3921Z" fill="#2B2B2B"/>
</svg>
