<svg width="160" height="160" viewBox="0 0 160 160" fill="none" xmlns="http://www.w3.org/2000/svg">
<g clip-path="url(#clip0_1_130794)">
<rect width="160" height="160" fill="#363636"/>
<path d="M80.1693 30.0056C79.2484 30.0598 78.3477 30.2985 77.5208 30.7077L41.6546 47.8275C39.7816 48.7195 38.4203 50.4167 37.9537 52.4391L29.1746 90.862C28.7563 92.6655 29.0942 94.5559 30.1401 96.1017C30.2623 96.2885 30.3911 96.4688 30.5262 96.6427L55.3059 127.475C56.6157 129.085 58.582 130.01 60.6545 130H100.399C102.477 130.003 104.447 129.034 105.754 127.446L130.52 96.6073C131.821 94.9971 132.306 92.8716 131.808 90.8556L122.971 52.4005C122.504 50.378 121.136 48.6809 119.27 47.7888L83.4615 30.7109C82.4296 30.2016 81.2867 29.9591 80.1371 30.0056H80.1693Z" fill="#2B2B2B"/>
<path d="M80.5272 42C79.2985 42.0883 78.3673 43.1641 78.4313 44.4198V45.0346C78.4889 45.7311 78.5913 46.4211 78.7257 47.1045C78.922 48.4132 78.9927 49.7384 78.9369 51.0612C78.8153 51.4961 78.5721 51.8885 78.2393 52.1894L78.1913 53.1115C76.8954 53.2227 75.6091 53.4255 74.3419 53.7198C69.011 54.9493 64.1569 57.7746 60.4099 61.8458L59.642 61.2899C59.2196 61.4207 58.7652 61.3716 58.378 61.1591C57.3394 60.3735 56.3781 59.4864 55.5078 58.5103C55.0706 57.9765 54.6037 57.4688 54.1095 56.9898L53.6359 56.6039C53.2135 56.2573 52.6951 56.0578 52.1544 56.0317C51.8317 56.0142 51.5095 56.075 51.2142 56.2091C50.9189 56.3432 50.6588 56.5469 50.4553 56.8034C49.7321 57.84 49.9689 59.2755 50.98 60.0178L51.4216 60.3775C51.99 60.764 52.5798 61.1167 53.1879 61.4337C54.3207 62.0779 55.3894 62.8333 56.3813 63.7228C56.6351 64.0925 56.7825 64.5275 56.8069 64.9784L57.5045 65.6325C53.7383 71.4073 52.1928 78.4019 53.1591 85.2722L52.2632 85.5338C52.0296 85.9131 51.7192 86.2369 51.348 86.4756C50.098 86.8167 48.8184 87.0325 47.5274 87.1198C46.8423 87.134 46.1585 87.1886 45.4795 87.2833L44.9132 87.4141H44.8492C44.4561 87.4698 44.0859 87.6359 43.7798 87.894C43.4737 88.152 43.2436 88.4917 43.1153 88.8754C42.9869 89.2592 42.9653 89.6717 43.0528 90.0673C43.1403 90.4628 43.3335 90.8258 43.6108 91.1157C43.8908 91.4042 44.2438 91.6075 44.6303 91.7028C45.0168 91.798 45.4216 91.7816 45.7995 91.6553H45.8411L46.4171 91.5899C47.0667 91.3937 47.7066 91.1517 48.3306 90.877C49.5305 90.3865 50.7752 90.0105 52.0488 89.7652C52.4904 89.7914 52.9127 89.9451 53.2711 90.2067L54.2311 90.0432C56.3109 96.6388 60.6819 102.227 66.5184 105.749L66.128 106.583C66.3072 106.966 66.3744 107.391 66.32 107.812C65.792 109.062 65.1457 110.258 64.3905 111.383C63.9762 111.941 63.5938 112.523 63.245 113.126L62.973 113.715C62.7756 114.065 62.6767 114.463 62.6872 114.867C62.6977 115.271 62.8171 115.664 63.0323 116.002C63.2475 116.341 63.55 116.612 63.9066 116.786C64.2632 116.96 64.6599 117.03 65.0529 116.988C65.4468 116.943 65.8207 116.787 66.1331 116.538C66.4454 116.288 66.684 115.955 66.8224 115.576L67.0879 115.02C67.3311 114.366 67.5359 113.699 67.7023 113.025C68.2687 111.596 68.5759 110.062 69.3502 109.114C69.6033 108.871 69.9222 108.711 70.2654 108.656L70.7454 107.763C77.0722 110.249 84.0728 110.266 90.4114 107.812L90.837 108.646C91.2722 108.712 91.6626 108.957 91.9249 109.317C92.5265 110.487 93.0129 111.714 93.3841 112.979C93.5533 113.657 93.7606 114.324 94.0048 114.977L94.2704 115.533C94.4101 115.911 94.6494 116.242 94.9619 116.49C95.2744 116.738 95.6479 116.893 96.041 116.937C96.4342 116.981 96.8316 116.914 97.1895 116.742C97.5473 116.569 97.8516 116.299 98.0686 115.961C98.2835 115.621 98.402 115.227 98.4111 114.823C98.4201 114.418 98.3193 114.019 98.1198 113.669L97.8414 113.08C97.4926 112.48 97.1101 111.9 96.6959 111.344C95.9599 110.258 95.3264 109.101 94.776 107.888C94.7246 107.666 94.7174 107.436 94.7548 107.211C94.7922 106.986 94.8734 106.772 94.9936 106.58C94.8571 106.294 94.7384 106.001 94.6384 105.7C100.462 102.152 104.814 96.544 106.871 89.9385L107.78 90.102C108.106 89.7979 108.535 89.6377 108.974 89.6508C110.244 89.8993 111.489 90.3048 112.692 90.7626C113.316 91.0569 113.956 91.3054 114.605 91.5147C114.759 91.5572 114.983 91.5932 115.156 91.6357H115.197C115.575 91.7603 115.979 91.7754 116.365 91.6792C116.75 91.583 117.102 91.3793 117.381 91.0908C117.66 90.8023 117.855 90.4404 117.945 90.0452C118.034 89.6501 118.015 89.2373 117.888 88.8529C117.759 88.4688 117.528 88.129 117.22 87.8714C116.913 87.6139 116.542 87.4487 116.148 87.3945L115.527 87.244C114.848 87.1493 114.164 87.0947 113.479 87.0805C112.186 86.9955 110.906 86.7797 109.658 86.4363C109.274 86.2172 108.954 85.8902 108.737 85.4946L107.873 85.233C108.794 78.3659 107.216 71.3922 103.438 65.6357L104.193 64.9229C104.161 64.4749 104.305 64.0301 104.59 63.6868C105.572 62.8235 106.638 62.0616 107.758 61.4109C108.366 61.0936 108.955 60.741 109.524 60.3546L109.991 59.9688C110.335 59.7506 110.612 59.4374 110.789 59.0653C110.966 58.6932 111.036 58.2775 110.991 57.8663C110.947 57.4551 110.789 57.0652 110.537 56.7417C110.285 56.4181 109.948 56.1743 109.566 56.0382C109.184 55.9023 108.772 55.8796 108.378 55.9728C107.984 56.066 107.623 56.2712 107.339 56.5647L106.865 56.9505C106.371 57.4297 105.904 57.9374 105.467 58.4711C104.622 59.4587 103.688 60.3579 102.673 61.1623C102.264 61.3326 101.816 61.3825 101.38 61.3062L100.571 61.8948C95.8991 56.8917 89.6051 53.7852 82.8599 53.1639C82.8599 52.8369 82.8183 52.3463 82.8119 52.1927C82.4503 51.9376 82.1975 51.5485 82.1143 51.107C82.0699 49.7864 82.1514 48.4646 82.3575 47.1601C82.4951 46.4734 82.5911 45.7867 82.6519 45.0902V44.4362C82.7159 43.1805 81.7879 42.1046 80.556 42.0164L80.5272 42ZM77.8586 58.8929L77.2186 70.3151H77.1706C77.1386 71.0214 76.7322 71.6231 76.1082 71.9632C75.4843 72.3033 74.7451 72.2019 74.1884 71.7866L65.0209 65.1485C67.9388 62.2196 71.5994 60.1821 75.5899 59.2657C76.3386 59.1022 77.0938 58.978 77.8522 58.8929H77.8586ZM83.1959 58.8929C88.0116 59.5044 92.4945 61.715 95.9631 65.1845L86.882 71.7801C86.3221 72.2379 85.5541 72.3295 84.9046 72.0155C84.255 71.7016 83.839 71.0345 83.8294 70.302L83.1959 58.8929ZM61.693 69.4453L70.0766 77.0906V77.1397C70.5982 77.604 70.8253 78.3267 70.6718 79.0167C70.5182 79.7066 69.9998 80.2527 69.3374 80.4391V80.4718L58.5796 83.6339C58.0473 78.6809 59.1438 73.6876 61.6962 69.442L61.693 69.4453ZM99.3005 69.4453C101.848 73.68 102.974 78.6471 102.507 83.5947L91.733 80.4228V80.3803C91.061 80.1939 90.549 79.6478 90.3986 78.9578C90.2482 78.2678 90.4722 77.5517 90.9938 77.0808L99.3133 69.4715L99.3005 69.4453ZM78.8089 77.6858H82.2391L84.335 80.4064L83.5734 83.8072L80.492 85.3213L77.4042 83.8072L76.6778 80.4064L78.8089 77.6858ZM89.7971 86.9661C89.9411 86.9497 90.1171 86.9497 90.2291 86.9661L101.323 88.879C99.7229 93.5879 96.5647 97.61 92.4433 100.301L88.1556 89.6933C88.0377 89.4087 87.9884 89.0993 88.0119 88.7912C88.0354 88.4831 88.131 88.1853 88.2906 87.9228C88.4503 87.6603 88.6693 87.4408 88.9292 87.2829C89.1891 87.1249 89.4824 87.0331 89.7843 87.0151L89.7971 86.9661ZM71.1645 87.0151C71.7917 87.0249 72.3709 87.3552 72.7132 87.8915C73.0556 88.4278 73.11 89.1014 72.8636 89.69V89.7325L68.6015 100.255C64.5217 97.5838 61.4243 93.6108 59.7764 88.951L70.7741 87.0446C70.8957 87.0315 71.0205 87.0315 71.1453 87.0446L71.1645 87.0151ZM80.4568 91.5932C80.8064 91.5819 81.1522 91.6701 81.4556 91.8479C81.759 92.0258 82.0081 92.2863 82.1751 92.6003H82.2167L87.6372 102.597L85.4709 103.251C81.484 104.183 77.321 103.964 73.446 102.616L78.8857 92.6199C79.2153 92.0313 79.8232 91.6716 80.4856 91.6553L80.4568 91.5932Z" fill="#363636"/>
</g>
<defs>
<clipPath id="clip0_1_130794">
<rect width="160" height="160" fill="white"/>
</clipPath>
</defs>
</svg>
