<svg width="650" height="880" viewBox="0 0 650 880" fill="none" xmlns="http://www.w3.org/2000/svg">
<path d="M0 22.4C0 14.5593 0 10.6389 1.52591 7.64413C2.86814 5.00986 5.00986 2.86814 7.64413 1.52591C10.6389 0 14.5593 0 22.4 0H650V880H22.4C14.5593 880 10.6389 880 7.64413 878.474C5.00986 877.132 2.86814 874.99 1.52591 872.356C0 869.361 0 865.441 0 857.6V22.4Z" fill="#F8F7F7"/>
<g opacity="0.2">
<path d="M209.998 440C209.998 362.68 272.678 300 349.998 300C427.317 300 489.997 362.68 489.997 440C489.997 517.319 427.317 579.999 349.998 579.999C272.678 579.999 209.998 517.319 209.998 440Z" fill="#F8F7F7"/>
<path d="M349.999 649.999C297.815 648.739 277.157 613.854 270.852 580.164C267.429 561.85 268.93 531.397 270.852 520.528C273.974 502.813 279.019 477.351 284.603 447.806C292.59 405.47 313.788 381.389 359.548 372.802L434.396 358.508C436.378 347.398 440.136 317.975 436.713 299.84C430.348 265.791 404.106 230.54 350.84 230C234.821 230 140 323.98 140 439.999C140 556.019 233.98 649.999 349.999 649.999Z" fill="url(#paint0_linear_2002_1169)"/>
<path d="M350.001 230C402.185 231.261 428.007 266.211 434.313 299.9C437.736 318.216 431.07 348.601 429.148 359.471C426.025 377.186 420.981 402.648 415.396 432.193C407.41 474.529 386.212 498.61 340.452 507.197L270.8 520.872C268.818 531.982 262.273 562.007 265.696 580.143C272.061 614.19 295.894 649.46 349.16 649.999C465.179 649.999 560.001 556.019 560.001 439.999C560.001 323.98 466.02 230 350.001 230Z" fill="url(#paint1_linear_2002_1169)"/>
</g>
<defs>
<linearGradient id="paint0_linear_2002_1169" x1="139.999" y1="649.999" x2="470.512" y2="253.54" gradientUnits="userSpaceOnUse">
<stop stop-color="#E9E9E9"/>
<stop offset="1" stop-color="#A7A7A7"/>
</linearGradient>
<linearGradient id="paint1_linear_2002_1169" x1="560.001" y1="230" x2="224.313" y2="614.743" gradientUnits="userSpaceOnUse">
<stop stop-color="#E9E9E9"/>
<stop offset="1" stop-color="#A7A7A7"/>
</linearGradient>
</defs>
</svg>
