<svg width="160" height="160" viewBox="0 0 160 160" fill="none" xmlns="http://www.w3.org/2000/svg">
<rect x="0.5" y="0.5" width="159" height="159" fill="#F8F7F7" stroke="#ECEAEA"/>
<path d="M44.0828 92.125L40.7668 97.761V102.078H39.4572V97.8027L36.1143 92.125H37.5878L40.1528 96.6505L42.7727 92.125H44.0828Z" fill="#6D6969"/>
<path d="M48.821 99.3036V98.7762H47.6203C46.9019 98.7762 46.3789 98.8825 46.0512 99.0954C45.7329 99.3083 45.5737 99.6181 45.5737 100.026C45.5737 100.349 45.6693 100.613 45.86 100.817C46.0605 101.02 46.3603 101.122 46.7608 101.122C47.1335 101.122 47.4519 101.048 47.7159 100.9C47.9796 100.743 48.1935 100.558 48.3573 100.345C48.5207 100.123 48.639 99.9145 48.7119 99.7201C48.7848 99.5255 48.821 99.3867 48.821 99.3036ZM47.1293 95.8194C46.7014 95.8194 46.2879 95.8932 45.8874 96.0415C45.4962 96.1803 45.1462 96.3422 44.8367 96.5273V95.4305C45.0915 95.2732 45.4326 95.1207 45.86 94.9725C46.2967 94.8152 46.7743 94.7364 47.2927 94.7364C48.1842 94.7364 48.8618 94.9262 49.3259 95.3058C49.79 95.685 50.0216 96.2634 50.0216 97.041V100.914C50.0216 101.071 50.0262 101.275 50.0355 101.525C50.0536 101.765 50.0717 101.95 50.0898 102.08H48.9982C48.9713 101.95 48.9439 101.77 48.9166 101.538C48.8985 101.298 48.8892 101.09 48.8892 100.914L48.8757 100.705C48.7667 100.928 48.6163 101.159 48.4255 101.4C48.2343 101.631 47.9795 101.825 47.6612 101.983C47.3521 102.14 46.9655 102.219 46.5014 102.219C45.8647 102.219 45.3509 102.034 44.9597 101.663C44.5684 101.293 44.373 100.771 44.373 100.095C44.373 99.3083 44.6459 98.7299 45.1917 98.3598C45.7375 97.9896 46.506 97.8045 47.4974 97.8045H48.821V97.2076C48.821 96.7077 48.6938 96.3516 48.439 96.1387C48.1842 95.9258 47.7475 95.8194 47.1293 95.8194Z" fill="#6D6969"/>
<path d="M55.4033 95.8176C54.8575 95.8176 54.4119 95.9471 54.0662 96.2063C53.7297 96.4561 53.4568 96.78 53.2475 97.178V102.078H52.0469V94.8734H53.1793L53.2202 96.1647H53.2475C53.4383 95.7573 53.7386 95.4197 54.1479 95.151C54.5573 94.8734 55.0757 94.7346 55.7035 94.7346C56.4039 94.7346 56.9589 94.9244 57.3682 95.304C57.7865 95.6832 57.9958 96.2572 57.9958 97.025V102.078H56.7951V97.1502C56.7951 96.6596 56.6675 96.3173 56.4131 96.1227C56.1672 95.9192 55.8308 95.8176 55.4033 95.8176Z" fill="#6D6969"/>
<path d="M62.8823 101.122C63.5008 101.122 64.0193 100.905 64.4377 100.47C64.8562 100.035 65.0654 99.3683 65.0654 98.4707C65.0654 97.5731 64.8562 96.9068 64.4377 96.4716C64.0193 96.0367 63.5008 95.8194 62.8823 95.8194C62.2641 95.8194 61.755 96.0462 61.3545 96.4995C60.9544 96.9438 60.7544 97.6009 60.7544 98.4707C60.7544 99.3499 60.9544 100.011 61.3545 100.456C61.755 100.9 62.2641 101.122 62.8823 101.122ZM62.7049 102.219C62.1416 102.219 61.6139 102.085 61.1225 101.816C60.6407 101.538 60.2541 101.122 59.9627 100.567C59.6716 100.011 59.5264 99.313 59.5264 98.4707C59.5264 97.6284 59.6716 96.9343 59.9627 96.3885C60.2541 95.8332 60.6407 95.4215 61.1225 95.1528C61.6139 94.8752 62.1458 94.7364 62.7185 94.7364C63.2552 94.7364 63.7191 94.8521 64.1103 95.0834C64.5014 95.3058 64.8152 95.625 65.0517 96.0415V92.1268H66.2524V102.08H65.2018L65.1063 100.664C64.888 101.136 64.5787 101.515 64.1785 101.802C63.7874 102.08 63.2962 102.219 62.7049 102.219Z" fill="#6D6969"/>
<path d="M71.173 95.8194C70.6545 95.8194 70.2088 95.9814 69.8358 96.3053C69.4629 96.6292 69.2264 97.1194 69.1263 97.7767H72.9331C72.9695 97.1104 72.8194 96.6199 72.4829 96.3053C72.1463 95.9814 71.7097 95.8194 71.173 95.8194ZM71.4868 102.219C70.3043 102.219 69.3992 101.89 68.7716 101.233C68.153 100.567 67.8438 99.6459 67.8438 98.4707C67.8438 97.6841 67.9893 97.0132 68.2804 96.4579C68.5715 95.9026 68.9717 95.4768 69.4811 95.1807C69.9905 94.8847 70.5635 94.7364 71.2003 94.7364C71.8825 94.7364 72.4601 94.894 72.9331 95.2086C73.4152 95.5141 73.7609 95.9673 73.9701 96.5689C74.1793 97.1704 74.2157 97.9155 74.0793 98.804H69.0854C69.1855 100.349 70.0223 101.122 71.596 101.122C72.1418 101.122 72.6102 101.044 73.0014 100.886C73.4016 100.72 73.7291 100.548 73.9838 100.373V101.469C73.7927 101.608 73.4926 101.77 73.0832 101.955C72.6739 102.131 72.1418 102.219 71.4868 102.219Z" fill="#6D6969"/>
<path d="M75.1762 94.8734H76.5679L78.2598 97.414L79.9654 94.8734H81.207L78.8602 98.3163L81.3298 102.078H79.9381L78.0415 99.2186L76.1313 102.078H74.876L77.4411 98.3438L75.1762 94.8734Z" fill="#6D6969"/>
<path d="M89.9278 102.219C88.9636 102.219 88.1177 102.015 87.3899 101.608C86.6713 101.201 86.1119 100.618 85.7117 99.8589C85.3114 99.0907 85.1113 98.1747 85.1113 97.1104C85.1113 95.5093 85.5252 94.26 86.353 93.3624C87.1807 92.4554 88.3633 92.002 89.9005 92.002C90.5646 92.002 91.1467 92.0758 91.647 92.224C92.1564 92.3628 92.5658 92.5295 92.875 92.7236V93.9729C92.4657 93.7047 91.9927 93.5058 91.456 93.3761C90.9284 93.2467 90.4054 93.1819 89.8869 93.1819C88.7408 93.1819 87.8902 93.5102 87.3354 94.1674C86.7805 94.8246 86.5031 95.8054 86.5031 97.1104C86.5031 98.4245 86.8032 99.4099 87.4036 100.067C88.004 100.715 88.8818 101.039 90.037 101.039C90.5373 101.039 91.0239 100.969 91.4969 100.831C91.979 100.692 92.4384 100.456 92.875 100.123V101.372C92.6112 101.585 92.2246 101.779 91.7153 101.955C91.215 102.131 90.6191 102.219 89.9278 102.219Z" fill="#6D6969"/>
<path d="M94.8115 92.125H96.0122V102.078H94.8115V92.125Z" fill="#6D6969"/>
<path d="M101.013 101.122C101.649 101.122 102.177 100.909 102.595 100.484C103.014 100.049 103.223 99.3778 103.223 98.4707C103.223 97.5637 103.014 96.8975 102.595 96.4716C102.177 96.0367 101.649 95.8194 101.013 95.8194C100.385 95.8194 99.862 96.0367 99.4436 96.4716C99.0342 96.8975 98.8296 97.5637 98.8296 98.4707C98.8296 99.3778 99.0342 100.049 99.4436 100.484C99.862 100.909 100.385 101.122 101.013 101.122ZM101.013 102.219C100.367 102.219 99.7847 102.075 99.2662 101.789C98.7568 101.492 98.352 101.067 98.0509 100.511C97.7507 99.9467 97.6016 99.2667 97.6016 98.4707C97.6016 97.6747 97.7507 96.9994 98.0509 96.4441C98.352 95.8888 98.7568 95.4678 99.2662 95.1807C99.7847 94.8847 100.367 94.7364 101.013 94.7364C101.668 94.7364 102.254 94.8847 102.773 95.1807C103.291 95.4678 103.7 95.8888 104.001 96.4441C104.301 96.9994 104.451 97.6747 104.451 98.4707C104.451 99.2667 104.301 99.9467 104.001 100.511C103.7 101.067 103.291 101.492 102.773 101.789C102.254 102.075 101.668 102.219 101.013 102.219Z" fill="#6D6969"/>
<path d="M110.593 100.789C110.402 101.187 110.107 101.525 109.706 101.802C109.315 102.08 108.801 102.219 108.165 102.219C107.51 102.219 106.977 102.029 106.568 101.65C106.168 101.27 105.968 100.692 105.968 99.9145V94.8752H107.182V99.9145C107.182 100.386 107.309 100.705 107.564 100.872C107.819 101.039 108.133 101.122 108.506 101.122C109.033 101.122 109.456 101.002 109.775 100.761C110.093 100.52 110.366 100.192 110.593 99.7757V94.8752H111.794V102.08H110.73L110.621 100.789H110.593Z" fill="#6D6969"/>
<path d="M116.753 101.122C117.372 101.122 117.89 100.905 118.308 100.47C118.727 100.035 118.936 99.3683 118.936 98.4707C118.936 97.5731 118.727 96.9068 118.308 96.4716C117.89 96.0367 117.372 95.8194 116.753 95.8194C116.134 95.8194 115.625 96.0462 115.225 96.4995C114.825 96.9438 114.624 97.6009 114.624 98.4707C114.624 99.3499 114.825 100.011 115.225 100.456C115.625 100.9 116.134 101.122 116.753 101.122ZM116.576 102.219C116.012 102.219 115.484 102.085 114.993 101.816C114.511 101.538 114.124 101.122 113.833 100.567C113.542 100.011 113.396 99.313 113.396 98.4707C113.396 97.6284 113.542 96.9343 113.833 96.3885C114.124 95.8332 114.511 95.4215 114.993 95.1528C115.484 94.8752 116.016 94.7364 116.589 94.7364C117.126 94.7364 117.59 94.8521 117.981 95.0834C118.372 95.3058 118.686 95.625 118.922 96.0415V92.1268H120.123V102.08H119.073L118.977 100.664C118.759 101.136 118.449 101.515 118.049 101.802C117.658 102.08 117.167 102.219 116.576 102.219Z" fill="#6D6969"/>
<path d="M45.9274 112.756C46.6189 112.756 47.1781 112.603 47.6055 112.298C48.033 111.992 48.2469 111.479 48.2469 110.757C48.2469 110.155 48.0557 109.72 47.6738 109.452C47.2918 109.184 46.746 109.049 46.0364 109.049H44.1944V112.756H45.9274ZM42.9121 107.855H46.0364C47.1461 107.855 48.006 108.092 48.6154 108.564C49.2341 109.026 49.5431 109.753 49.5431 110.743C49.5431 111.492 49.3886 112.103 49.079 112.575C48.7792 113.047 48.356 113.394 47.8102 113.616C47.2737 113.829 46.6458 113.935 45.9274 113.935H44.1944V117.809H42.9121V107.855Z" fill="#6D6969"/>
<path d="M54.6522 111.826C54.1519 111.863 53.6925 111.992 53.274 112.214C52.8557 112.436 52.5463 112.774 52.3461 113.228V117.809H51.1455V110.604H52.1962L52.3188 112.173H52.3461C52.5463 111.747 52.833 111.377 53.2057 111.062C53.5877 110.738 54.0699 110.539 54.6522 110.465V111.826Z" fill="#6D6969"/>
<path d="M58.8115 116.852C59.4482 116.852 59.9759 116.64 60.3945 116.214C60.8127 115.779 61.022 115.108 61.022 114.201C61.022 113.294 60.8127 112.628 60.3945 112.202C59.9759 111.767 59.4482 111.55 58.8115 111.55C58.184 111.55 57.661 111.767 57.2424 112.202C56.8331 112.628 56.6284 113.294 56.6284 114.201C56.6284 115.108 56.8331 115.779 57.2424 116.214C57.661 116.64 58.184 116.852 58.8115 116.852ZM58.8115 117.949C58.1659 117.949 57.5835 117.806 57.0651 117.519C56.556 117.223 56.1508 116.797 55.851 116.242C55.5508 115.677 55.4004 114.997 55.4004 114.201C55.4004 113.405 55.5508 112.73 55.851 112.175C56.1508 111.619 56.556 111.198 57.0651 110.911C57.5835 110.615 58.1659 110.467 58.8115 110.467C59.4668 110.467 60.0534 110.615 60.5718 110.911C61.0902 111.198 61.4996 111.619 61.7998 112.175C62.1001 112.73 62.25 113.405 62.25 114.201C62.25 114.997 62.1001 115.677 61.7998 116.242C61.4996 116.797 61.0902 117.223 60.5718 117.519C60.0534 117.806 59.4668 117.949 58.8115 117.949Z" fill="#6D6969"/>
<path d="M64.1402 117.809V111.645H63.2803V110.604H64.1402V110.424C64.1402 109.572 64.363 108.911 64.8085 108.439C65.2545 107.966 65.8639 107.731 66.6371 107.731C66.9828 107.731 67.2826 107.772 67.5374 107.855V108.966C67.4558 108.929 67.3374 108.897 67.1829 108.869C67.0283 108.841 66.8645 108.827 66.6914 108.827C66.2732 108.827 65.9409 108.957 65.6954 109.216C65.4592 109.475 65.3409 109.878 65.3409 110.424V110.604H67.3875V111.645H65.3409V117.809H64.1402Z" fill="#6D6969"/>
<path d="M71.3413 111.55C70.8228 111.55 70.3771 111.712 70.0042 112.036C69.6312 112.36 69.3947 112.85 69.2946 113.507H73.1014C73.1378 112.841 72.9877 112.35 72.6512 112.036C72.3146 111.712 71.878 111.55 71.3413 111.55ZM71.6551 117.949C70.4726 117.949 69.5675 117.621 68.9399 116.964C68.3218 116.297 68.0127 115.376 68.0127 114.201C68.0127 113.415 68.1581 112.744 68.4487 112.188C68.7398 111.633 69.14 111.207 69.6494 110.911C70.1588 110.615 70.7319 110.467 71.3686 110.467C72.0508 110.467 72.6284 110.624 73.1014 110.939C73.5835 111.245 73.9292 111.698 74.1384 112.299C74.3476 112.901 74.384 113.646 74.2476 114.534H69.2537C69.3538 116.08 70.1906 116.852 71.7643 116.852C72.3101 116.852 72.7785 116.774 73.1697 116.617C73.5699 116.45 73.8974 116.279 74.1521 116.103V117.199C73.9611 117.338 73.6609 117.5 73.2515 117.685C72.8422 117.861 72.3101 117.949 71.6551 117.949Z" fill="#6D6969"/>
<path d="M78.1549 117.949C77.6637 117.949 77.2407 117.903 76.886 117.81C76.5403 117.708 76.2583 117.593 76.04 117.463C75.8217 117.325 75.6534 117.204 75.5352 117.103V116.006C75.6625 116.126 75.8399 116.26 76.0673 116.408C76.3038 116.547 76.5949 116.667 76.9405 116.769C77.2862 116.871 77.6864 116.922 78.1413 116.922C78.6506 116.922 79.0554 116.839 79.3556 116.672C79.6558 116.505 79.8059 116.223 79.8059 115.825C79.8059 115.538 79.724 115.325 79.5603 115.187C79.3965 115.039 79.1782 114.932 78.9053 114.867C78.6416 114.803 78.3505 114.738 78.0321 114.673C77.7319 114.608 77.4363 114.534 77.1452 114.451C76.8541 114.368 76.5903 114.257 76.3538 114.118C76.1173 113.97 75.9263 113.771 75.7808 113.521C75.6352 113.271 75.5624 112.947 75.5624 112.549C75.5624 111.901 75.8126 111.392 76.3129 111.022C76.8132 110.652 77.5045 110.467 78.3868 110.467C78.8871 110.467 79.3329 110.518 79.724 110.62C80.1152 110.721 80.4108 110.833 80.6109 110.953V112.05C80.3835 111.892 80.0924 111.762 79.7376 111.661C79.3829 111.55 78.9463 111.494 78.4278 111.494C77.9002 111.494 77.4909 111.573 77.1998 111.73C76.9087 111.878 76.7632 112.142 76.7632 112.522C76.7632 112.78 76.8314 112.975 76.9678 113.104C77.1134 113.225 77.2998 113.313 77.5273 113.368C77.7638 113.424 78.0139 113.484 78.2777 113.549C78.5961 113.613 78.9144 113.687 79.2328 113.771C79.5512 113.845 79.8423 113.956 80.1061 114.104C80.3789 114.252 80.5973 114.46 80.761 114.729C80.9247 114.997 81.0066 115.353 81.0066 115.798C81.0066 116.353 80.8656 116.788 80.5836 117.103C80.3016 117.408 79.9423 117.625 79.5057 117.755C79.0782 117.885 78.6279 117.949 78.1549 117.949Z" fill="#6D6969"/>
<path d="M84.8863 117.949C84.3951 117.949 83.9722 117.903 83.6174 117.81C83.2717 117.708 82.9898 117.593 82.7715 117.463C82.5531 117.325 82.3849 117.204 82.2666 117.103V116.006C82.3939 116.126 82.5713 116.26 82.7987 116.408C83.0352 116.547 83.3263 116.667 83.672 116.769C84.0176 116.871 84.4179 116.922 84.8727 116.922C85.3821 116.922 85.7869 116.839 86.0871 116.672C86.3872 116.505 86.5373 116.223 86.5373 115.825C86.5373 115.538 86.4555 115.325 86.2917 115.187C86.128 115.039 85.9097 114.932 85.6368 114.867C85.373 114.803 85.0819 114.738 84.7635 114.673C84.4634 114.608 84.1677 114.534 83.8766 114.451C83.5856 114.368 83.3218 114.257 83.0853 114.118C82.8488 113.97 82.6577 113.771 82.5122 113.521C82.3667 113.271 82.2939 112.947 82.2939 112.549C82.2939 111.901 82.544 111.392 83.0443 111.022C83.5446 110.652 84.236 110.467 85.1183 110.467C85.6186 110.467 86.0643 110.518 86.4555 110.62C86.8466 110.721 87.1422 110.833 87.3423 110.953V112.05C87.1149 111.892 86.8239 111.762 86.4691 111.661C86.1143 111.55 85.6777 111.494 85.1592 111.494C84.6316 111.494 84.2223 111.573 83.9312 111.73C83.6401 111.878 83.4946 112.142 83.4946 112.522C83.4946 112.78 83.5628 112.975 83.6993 113.104C83.8448 113.225 84.0313 113.313 84.2587 113.368C84.4952 113.424 84.7453 113.484 85.0091 113.549C85.3275 113.613 85.6459 113.687 85.9643 113.771C86.2826 113.845 86.5737 113.956 86.8375 114.104C87.1104 114.252 87.3287 114.46 87.4924 114.729C87.6562 114.997 87.738 115.353 87.738 115.798C87.738 116.353 87.597 116.788 87.3151 117.103C87.0331 117.408 86.6738 117.625 86.2371 117.755C85.8096 117.885 85.3594 117.949 84.8863 117.949Z" fill="#6D6969"/>
<path d="M89.3531 110.604H90.5538V117.809H89.3531V110.604ZM89.9671 109.549C89.7215 109.549 89.526 109.475 89.3804 109.327C89.2349 109.169 89.1621 108.98 89.1621 108.758C89.1621 108.536 89.2349 108.346 89.3804 108.189C89.526 108.031 89.7215 107.953 89.9671 107.953C90.2036 107.953 90.3901 108.031 90.5266 108.189C90.663 108.346 90.7312 108.536 90.7312 108.758C90.7312 108.98 90.663 109.169 90.5266 109.327C90.3901 109.475 90.2036 109.549 89.9671 109.549Z" fill="#6D6969"/>
<path d="M95.5537 116.852C96.1904 116.852 96.718 116.64 97.1365 116.214C97.5549 115.779 97.7641 115.108 97.7641 114.201C97.7641 113.294 97.5549 112.628 97.1365 112.202C96.718 111.767 96.1904 111.55 95.5537 111.55C94.9261 111.55 94.403 111.767 93.9846 112.202C93.5752 112.628 93.3706 113.294 93.3706 114.201C93.3706 115.108 93.5752 115.779 93.9846 116.214C94.403 116.64 94.9261 116.852 95.5537 116.852ZM95.5537 117.949C94.9079 117.949 94.3257 117.806 93.8072 117.519C93.2978 117.223 92.893 116.797 92.5929 116.242C92.2927 115.677 92.1426 114.997 92.1426 114.201C92.1426 113.405 92.2927 112.73 92.5929 112.175C92.893 111.619 93.2978 111.198 93.8072 110.911C94.3257 110.615 94.9079 110.467 95.5537 110.467C96.2086 110.467 96.7954 110.615 97.3138 110.911C97.8323 111.198 98.2417 111.619 98.5418 112.175C98.842 112.73 98.9921 113.405 98.9921 114.201C98.9921 114.997 98.842 115.677 98.5418 116.242C98.2417 116.797 97.8323 117.223 97.3138 117.519C96.7954 117.806 96.2086 117.949 95.5537 117.949Z" fill="#6D6969"/>
<path d="M103.949 111.548C103.404 111.548 102.958 111.678 102.612 111.937C102.276 112.187 102.003 112.51 101.793 112.908V117.809H100.593V110.604H101.725L101.766 111.895H101.793C101.985 111.488 102.285 111.15 102.694 110.882C103.103 110.604 103.622 110.465 104.249 110.465C104.95 110.465 105.505 110.655 105.914 111.034C106.333 111.414 106.542 111.988 106.542 112.756V117.809H105.341V112.881C105.341 112.39 105.214 112.048 104.959 111.853C104.713 111.65 104.377 111.548 103.949 111.548Z" fill="#6D6969"/>
<path d="M112.671 115.034V114.507H111.47C110.751 114.507 110.228 114.613 109.901 114.826C109.583 115.039 109.423 115.349 109.423 115.756C109.423 116.08 109.519 116.343 109.71 116.547C109.91 116.751 110.21 116.852 110.61 116.852C110.983 116.852 111.302 116.779 111.566 116.63C111.829 116.473 112.043 116.288 112.207 116.075C112.371 115.853 112.489 115.645 112.562 115.451C112.634 115.256 112.671 115.117 112.671 115.034ZM110.979 111.55C110.551 111.55 110.137 111.624 109.737 111.772C109.346 111.911 108.996 112.073 108.687 112.258V111.161C108.941 111.004 109.282 110.851 109.71 110.703C110.147 110.546 110.624 110.467 111.143 110.467C112.034 110.467 112.712 110.657 113.176 111.036C113.64 111.415 113.871 111.994 113.871 112.771V116.644C113.871 116.802 113.876 117.005 113.885 117.255C113.903 117.496 113.921 117.681 113.94 117.81H112.848C112.821 117.681 112.794 117.5 112.766 117.269C112.748 117.029 112.739 116.82 112.739 116.644L112.725 116.436C112.616 116.658 112.466 116.89 112.275 117.13C112.084 117.361 111.829 117.556 111.511 117.713C111.202 117.87 110.815 117.949 110.351 117.949C109.714 117.949 109.201 117.764 108.809 117.394C108.418 117.024 108.223 116.501 108.223 115.825C108.223 115.039 108.496 114.46 109.041 114.09C109.587 113.72 110.356 113.535 111.347 113.535H112.671V112.938C112.671 112.438 112.543 112.082 112.289 111.869C112.034 111.656 111.597 111.55 110.979 111.55Z" fill="#6D6969"/>
<path d="M115.896 107.855H117.097V117.809H115.896V107.855Z" fill="#6D6969"/>
<path d="M36 123.59H37.2823V133.543H36V123.59Z" fill="#6D6969"/>
<path d="M42.8861 127.282C42.3403 127.282 41.8943 127.412 41.5486 127.671C41.2121 127.921 40.9392 128.245 40.7299 128.643V133.543H39.5293V126.338H40.6617L40.703 127.63H40.7299C40.9211 127.222 41.2214 126.885 41.6307 126.616C42.0401 126.338 42.5585 126.199 43.1859 126.199C43.8867 126.199 44.4413 126.389 44.8506 126.769C45.2693 127.148 45.4786 127.722 45.4786 128.49V133.543H44.2775V128.615C44.2775 128.124 44.1503 127.782 43.8955 127.588C43.65 127.384 43.3135 127.282 42.8861 127.282Z" fill="#6D6969"/>
<path d="M47.9376 133.543V127.379H47.0781V126.338H47.9376V126.158C47.9376 125.307 48.1608 124.645 48.6063 124.173C49.0519 123.701 49.6617 123.465 50.4349 123.465C50.7802 123.465 51.0805 123.507 51.3352 123.59V124.7C51.2535 124.663 51.1352 124.631 50.9806 124.603C50.8257 124.576 50.6623 124.562 50.4892 124.562C50.071 124.562 49.7388 124.691 49.4932 124.95C49.2566 125.209 49.1386 125.612 49.1386 126.158V126.338H51.1853V127.379H49.1386V133.543H47.9376Z" fill="#6D6969"/>
<path d="M56.2343 127.56C55.734 127.597 55.2745 127.726 54.8563 127.949C54.4377 128.171 54.1286 128.508 53.9282 128.962V133.543H52.7275V126.338H53.7783L53.9011 127.907H53.9282C54.1286 127.481 54.415 127.111 54.788 126.797C55.1701 126.473 55.6522 126.274 56.2343 126.199V127.56Z" fill="#6D6969"/>
<path d="M61.7944 130.768V130.241H60.5934C59.8746 130.241 59.3515 130.347 59.0243 130.56C58.706 130.773 58.5468 131.083 58.5468 131.49C58.5468 131.814 58.6419 132.078 58.8331 132.281C59.0332 132.485 59.3334 132.587 59.7335 132.587C60.1066 132.587 60.425 132.513 60.6886 132.365C60.9527 132.208 61.1662 132.023 61.33 131.81C61.4938 131.587 61.6125 131.379 61.6853 131.185C61.758 130.99 61.7944 130.852 61.7944 130.768ZM60.102 127.284C59.6745 127.284 59.2606 127.358 58.8605 127.506C58.4693 127.645 58.1189 127.807 57.8098 127.992V126.895C58.0646 126.738 58.4057 126.586 58.8331 126.437C59.2698 126.28 59.7474 126.201 60.2658 126.201C61.1573 126.201 61.8354 126.391 62.2993 126.771C62.7632 127.15 62.9952 127.728 62.9952 128.506V132.379C62.9952 132.536 62.9997 132.74 63.0088 132.99C63.027 133.23 63.0452 133.415 63.0634 133.545H61.9718C61.9445 133.415 61.9172 133.235 61.8899 133.003C61.8718 132.763 61.8627 132.555 61.8627 132.379L61.849 132.17C61.739 132.393 61.5898 132.624 61.3982 132.864C61.2074 133.096 60.9527 133.29 60.6343 133.448C60.3247 133.605 59.9382 133.684 59.4745 133.684C58.8378 133.684 58.3236 133.499 57.9328 133.128C57.5415 132.758 57.3457 132.235 57.3457 131.56C57.3457 130.773 57.6186 130.195 58.1644 129.825C58.7102 129.454 59.4792 129.269 60.4705 129.269H61.7944V128.672C61.7944 128.173 61.6671 127.816 61.4121 127.604C61.1573 127.391 60.7206 127.284 60.102 127.284Z" fill="#6D6969"/>
<path d="M65.6646 130.81C65.6646 131.347 65.8556 131.777 66.2376 132.101C66.6288 132.425 67.1973 132.587 67.9432 132.587C68.3889 132.587 68.7937 132.527 69.1575 132.406C69.5214 132.286 69.8534 132.129 70.1536 131.934C69.9717 131.768 69.7852 131.597 69.5942 131.421C69.4031 131.245 69.203 131.06 68.9938 130.866L67.0699 128.992C66.6424 129.177 66.3013 129.413 66.0466 129.699C65.7919 129.987 65.6646 130.357 65.6646 130.81ZM66.5378 125.91C66.5378 126.28 66.647 126.622 66.8653 126.937C67.0836 127.242 67.3337 127.534 67.6157 127.812C68.1706 127.58 68.6299 127.321 68.9938 127.034C69.3667 126.748 69.5532 126.368 69.5532 125.896C69.5532 125.48 69.4168 125.156 69.1439 124.924C68.871 124.684 68.4981 124.563 68.0251 124.563C67.552 124.563 67.1836 124.688 66.9198 124.938C66.6651 125.179 66.5378 125.503 66.5378 125.91ZM73.1008 133.42C72.7278 133.42 72.3731 133.35 72.0365 133.211C71.7091 133.073 71.3725 132.883 71.0268 132.642C70.6357 132.957 70.1763 133.211 69.6487 133.406C69.1303 133.591 68.5435 133.684 67.8886 133.684C67.1245 133.684 66.4878 133.558 65.9784 133.309C65.469 133.059 65.0869 132.721 64.8322 132.295C64.5775 131.87 64.4502 131.388 64.4502 130.852C64.4502 130.167 64.6276 129.621 64.9823 129.214C65.3371 128.807 65.7828 128.483 66.3195 128.242C65.6373 127.474 65.2962 126.697 65.2962 125.91C65.2962 125.466 65.4008 125.059 65.61 124.688C65.8192 124.318 66.1239 124.022 66.5242 123.8C66.9335 123.578 67.4292 123.467 68.0114 123.467C68.6027 123.467 69.103 123.578 69.5123 123.8C69.9216 124.013 70.2309 124.304 70.4401 124.674C70.6584 125.035 70.7676 125.442 70.7676 125.896C70.7676 126.414 70.6539 126.84 70.4265 127.173C70.1991 127.506 69.9034 127.784 69.5396 128.006C69.1757 128.219 68.7937 128.409 68.3934 128.575L70.1399 130.269C70.3037 130.417 70.4583 130.56 70.6039 130.699C70.7494 130.838 70.8904 130.972 71.0268 131.102C71.3179 130.741 71.5499 130.347 71.7227 129.922C71.8955 129.487 72.0138 129.066 72.0775 128.658L73.1554 128.964C73.0553 129.436 72.9007 129.922 72.6915 130.421C72.4822 130.912 72.2093 131.375 71.8728 131.81C72.1002 131.967 72.3322 132.092 72.5687 132.184C72.8052 132.277 73.0553 132.323 73.3191 132.323C73.5465 132.323 73.7421 132.3 73.9058 132.254C74.0695 132.208 74.1514 132.184 74.1514 132.184V133.211C74.0514 133.249 73.9149 133.295 73.7421 133.35C73.5783 133.397 73.3646 133.42 73.1008 133.42Z" fill="#6D6969"/>
<path d="M78.8238 132.363C79.4969 132.363 80.0882 132.224 80.5976 131.947C81.1069 131.66 81.5026 131.22 81.7846 130.628C82.0757 130.026 82.2212 129.258 82.2212 128.324C82.2212 127.389 82.0803 126.667 81.7983 126.158C81.5163 125.649 81.1297 125.293 80.6385 125.089C80.1564 124.885 79.6015 124.784 78.9739 124.784H76.9681V132.363H78.8238ZM75.6855 123.59H78.9739C79.6288 123.59 80.2383 123.669 80.8022 123.826C81.3662 123.983 81.8574 124.242 82.2758 124.603C82.6943 124.955 83.0217 125.427 83.2582 126.019C83.4947 126.611 83.613 127.347 83.613 128.226C83.613 129.392 83.4038 130.373 82.9853 131.169C82.576 131.956 82.012 132.548 81.2934 132.946C80.5748 133.344 79.7516 133.543 78.8238 133.543H75.6855V123.59Z" fill="#6D6969"/>
<path d="M88.1838 127.284C87.6653 127.284 87.2195 127.446 86.8466 127.77C86.4736 128.094 86.2371 128.584 86.1371 129.241H89.9439C89.9803 128.575 89.8302 128.085 89.4936 127.77C89.157 127.446 88.7204 127.284 88.1838 127.284ZM88.4976 133.684C87.315 133.684 86.41 133.355 85.7823 132.698C85.1638 132.032 84.8545 131.111 84.8545 129.936C84.8545 129.149 85 128.478 85.2911 127.923C85.5822 127.367 85.9824 126.942 86.4918 126.646C87.0012 126.35 87.5743 126.201 88.211 126.201C88.8933 126.201 89.4709 126.359 89.9439 126.673C90.426 126.979 90.7717 127.432 90.9809 128.034C91.1901 128.635 91.2265 129.38 91.09 130.269H86.0961C86.1962 131.814 87.0331 132.587 88.6067 132.587C89.1525 132.587 89.621 132.508 90.0121 132.351C90.4123 132.184 90.7398 132.013 90.9945 131.837V132.934C90.8035 133.073 90.5033 133.235 90.094 133.42C89.6846 133.596 89.1525 133.684 88.4976 133.684Z" fill="#6D6969"/>
<path d="M91.8857 126.338H93.182L95.3378 132.89L97.48 126.338H98.6807L96.252 133.543H94.3145L91.8857 126.338Z" fill="#6D6969"/>
<path d="M104.201 132.504C104.828 132.504 105.392 132.374 105.892 132.115C106.393 131.856 106.784 131.439 107.066 130.866C107.357 130.283 107.503 129.519 107.503 128.575C107.503 127.622 107.357 126.858 107.066 126.285C106.784 125.711 106.393 125.295 105.892 125.035C105.392 124.776 104.828 124.647 104.201 124.647C103.573 124.647 103.009 124.776 102.509 125.035C102.017 125.295 101.626 125.711 101.335 126.285C101.044 126.858 100.899 127.622 100.899 128.575C100.899 129.519 101.044 130.283 101.335 130.866C101.626 131.439 102.017 131.856 102.509 132.115C103.009 132.374 103.573 132.504 104.201 132.504ZM104.201 133.684C103.327 133.684 102.536 133.485 101.826 133.087C101.117 132.689 100.553 132.11 100.135 131.352C99.7252 130.583 99.5205 129.644 99.5205 128.534C99.5205 127.423 99.7252 126.493 100.135 125.743C100.553 124.984 101.117 124.415 101.826 124.036C102.536 123.656 103.327 123.467 104.201 123.467C105.092 123.467 105.888 123.661 106.588 124.05C107.298 124.429 107.857 124.994 108.267 125.743C108.676 126.493 108.881 127.427 108.881 128.547C108.881 129.649 108.676 130.583 108.267 131.352C107.857 132.11 107.298 132.689 106.588 133.087C105.888 133.485 105.092 133.684 104.201 133.684Z" fill="#6D6969"/>
<path d="M113.949 132.585C114.568 132.585 115.073 132.363 115.464 131.919C115.855 131.474 116.051 130.813 116.051 129.934C116.051 129.064 115.855 128.407 115.464 127.962C115.073 127.509 114.568 127.282 113.949 127.282C113.331 127.282 112.808 127.504 112.38 127.949C111.962 128.384 111.753 129.045 111.753 129.934C111.753 130.831 111.962 131.497 112.38 131.932C112.808 132.368 113.331 132.585 113.949 132.585ZM111.766 136H110.565V126.338H111.616L111.739 127.74C111.966 127.278 112.28 126.908 112.68 126.63C113.09 126.343 113.59 126.199 114.181 126.199C114.736 126.199 115.245 126.338 115.709 126.616C116.182 126.884 116.564 127.296 116.856 127.851C117.147 128.397 117.292 129.091 117.292 129.934C117.292 130.776 117.142 131.474 116.842 132.03C116.551 132.585 116.164 133.001 115.682 133.279C115.209 133.548 114.691 133.682 114.127 133.682C113.59 133.682 113.122 133.552 112.721 133.293C112.321 133.034 112.003 132.677 111.766 132.224V136Z" fill="#6D6969"/>
<path d="M121.148 133.684C120.657 133.684 120.234 133.637 119.879 133.545C119.533 133.443 119.251 133.327 119.033 133.198C118.815 133.059 118.647 132.939 118.528 132.837V131.74C118.656 131.861 118.833 131.995 119.06 132.143C119.297 132.282 119.588 132.402 119.934 132.504C120.279 132.606 120.68 132.656 121.134 132.656C121.644 132.656 122.049 132.573 122.349 132.406C122.649 132.24 122.799 131.958 122.799 131.56C122.799 131.273 122.717 131.06 122.553 130.921C122.39 130.773 122.171 130.666 121.899 130.602C121.635 130.537 121.344 130.472 121.025 130.408C120.725 130.343 120.429 130.269 120.138 130.185C119.847 130.102 119.583 129.991 119.347 129.852C119.11 129.704 118.919 129.505 118.774 129.255C118.628 129.005 118.556 128.682 118.556 128.283C118.556 127.636 118.806 127.127 119.306 126.757C119.806 126.386 120.498 126.201 121.38 126.201C121.88 126.201 122.326 126.252 122.717 126.354C123.108 126.456 123.404 126.567 123.604 126.687V127.784C123.377 127.627 123.086 127.497 122.731 127.395C122.376 127.284 121.939 127.229 121.421 127.229C120.893 127.229 120.484 127.307 120.193 127.465C119.902 127.613 119.756 127.876 119.756 128.256C119.756 128.515 119.825 128.709 119.961 128.839C120.107 128.959 120.293 129.047 120.52 129.103C120.757 129.158 121.007 129.218 121.271 129.283C121.589 129.348 121.908 129.422 122.226 129.505C122.544 129.579 122.835 129.69 123.099 129.838C123.372 129.987 123.59 130.195 123.754 130.463C123.918 130.732 124 131.088 124 131.532C124 132.087 123.859 132.522 123.577 132.837C123.295 133.142 122.935 133.36 122.499 133.489C122.071 133.619 121.621 133.684 121.148 133.684Z" fill="#6D6969"/>
<path fill-rule="evenodd" clip-rule="evenodd" d="M86.5602 44.2648L81.5368 45.2507C77.2544 46.0719 75.2777 48.0432 74.4543 52.3143C74.2627 53.2692 74.0964 54.1743 73.9349 55.0497C73.8883 55.304 73.842 55.5557 73.7959 55.8047C73.6721 56.462 73.5488 57.1191 73.4249 57.7352L78.4075 56.7493C82.6895 55.9281 84.7073 53.9568 85.5308 49.6857C85.7115 48.7841 85.8784 47.8799 86.0453 46.9757C86.2126 46.0715 86.3794 45.1673 86.5602 44.2648ZM105 51C105 64.7917 93.7915 76 79.9997 76C66.2084 76 55 64.7917 55 51C55 37.2083 66.2084 26 79.9997 26C93.7915 26 105 37.2083 105 51ZM79.9997 30.4167C68.625 30.4167 59.4165 39.6248 59.4165 51C59.4165 58.7131 63.6505 65.43 69.9229 68.9555C68.3984 66.9393 67.8472 64.042 68.5254 60.117C68.6707 59.3181 68.8452 58.3766 69.0394 57.3264C69.1748 56.5943 69.3201 55.8095 69.4722 54.9835C69.5318 54.6732 69.5955 54.3532 69.6601 54.0251C69.818 53.2239 69.9849 52.3792 70.1311 51.534C71.2842 45.4558 74.6194 42.0884 80.6721 40.9795L87.3527 39.6652C87.7357 36.462 87.4227 34.2444 86.3112 32.8892C85.1993 31.534 82.9765 30.4167 79.9997 30.4167ZM100.583 51C100.583 62.3752 91.3749 71.5833 79.9997 71.5833C77.0234 71.5833 74.8006 70.466 73.6886 69.1108C72.5768 67.7556 72.2642 65.538 72.6468 62.3348L79.2718 61.0205C85.3249 59.9116 88.6601 56.5442 89.854 50.5073C90.0003 49.6622 90.1671 48.8169 90.325 48.0161C90.39 47.6881 90.4532 47.3676 90.513 47.0574C90.6932 46.0777 90.8677 45.1464 91.0273 44.2924C91.1956 43.3926 91.3476 42.5785 91.4746 41.883C92.1522 37.958 91.6014 35.0607 90.077 33.0445C96.3495 36.57 100.583 43.2869 100.583 51Z" fill="#6D6969"/>
</svg>
