<svg width="1100" height="464" viewBox="0 0 1100 464" fill="none" xmlns="http://www.w3.org/2000/svg">
<path d="M0 22.82C0 14.5826 0 10.464 1.67911 7.35201C2.97618 4.94813 4.94813 2.97618 7.35201 1.67911C10.464 0 14.5826 0 22.82 0H1100V464H22.8199C14.5826 464 10.464 464 7.35201 462.321C4.94813 461.024 2.97618 459.052 1.67911 456.648C0 453.536 0 449.417 0 441.18V22.82Z" fill="#F8F7F7"/>
<g opacity="0.2">
<path d="M369.998 232C369.998 154.68 432.678 92 509.998 92C587.317 92 649.997 154.68 649.997 232C649.997 309.319 587.317 371.999 509.998 371.999C432.678 371.999 369.998 309.319 369.998 232Z" fill="#F8F7F7"/>
<path d="M509.999 441.999C457.815 440.739 437.157 405.854 430.852 372.164C427.429 353.85 428.93 323.397 430.852 312.528C433.974 294.813 439.019 269.351 444.603 239.806C452.59 197.47 473.788 173.389 519.548 164.802L594.396 150.508C596.378 139.398 600.136 109.975 596.713 91.8395C590.348 57.7906 564.106 22.5405 510.84 22C394.821 22 300 115.98 300 231.999C300 348.019 393.98 441.999 509.999 441.999Z" fill="url(#paint0_linear_2001_1169)"/>
<path d="M510 22C562.184 23.2611 588.006 58.2109 594.312 91.8997C597.735 110.216 591.069 140.601 589.147 151.471C586.024 169.186 580.98 194.648 575.395 224.193C567.409 266.529 546.211 290.61 500.451 299.197L430.799 312.872C428.817 323.982 422.272 354.007 425.695 372.143C432.06 406.19 455.893 441.46 509.159 441.999C625.178 441.999 720 348.019 720 231.999C720 115.98 626.019 22 510 22Z" fill="url(#paint1_linear_2001_1169)"/>
</g>
<defs>
<linearGradient id="paint0_linear_2001_1169" x1="299.999" y1="441.999" x2="630.512" y2="45.5404" gradientUnits="userSpaceOnUse">
<stop stop-color="#E9E9E9"/>
<stop offset="1" stop-color="#A7A7A7"/>
</linearGradient>
<linearGradient id="paint1_linear_2001_1169" x1="720" y1="22" x2="384.312" y2="406.743" gradientUnits="userSpaceOnUse">
<stop stop-color="#E9E9E9"/>
<stop offset="1" stop-color="#A7A7A7"/>
</linearGradient>
</defs>
</svg>
