<svg width="160" height="160" viewBox="0 0 160 160" fill="none" xmlns="http://www.w3.org/2000/svg">
<g clip-path="url(#clip0_1_130794)">
<rect width="160" height="160" fill="#363636"/>
<path d="M80.1693 30.0056C79.2484 30.0598 78.3477 30.2985 77.5208 30.7077L41.6546 47.8275C39.7816 48.7195 38.4203 50.4167 37.9537 52.4391L29.1746 90.862C28.7563 92.6655 29.0942 94.5559 30.1401 96.1017C30.2623 96.2885 30.3911 96.4688 30.5262 96.6427L55.3059 127.475C56.6157 129.085 58.582 130.01 60.6545 130H100.399C102.477 130.003 104.447 129.034 105.754 127.446L130.52 96.6073C131.821 94.9971 132.306 92.8716 131.808 90.8556L122.971 52.4005C122.504 50.378 121.136 48.6809 119.27 47.7888L83.4615 30.7109C82.4296 30.2016 81.2867 29.9591 80.1371 30.0056H80.1693Z" fill="#2B2B2B"/>
<path d="M80.5272 42C79.2985 42.0883 78.3673 43.1641 78.4313 44.4198V45.0346C78.4889 45.7311 78.5913 46.4211 78.7257 47.1045C78.922 48.4132 78.9927 49.7384 78.9369 51.0612C78.8153 51.4961 78.5721 51.8885 78.2393 52.1894L78.1913 53.1115C76.8954 53.2227 75.6091 53.4255 74.3419 53.7198C69.011 54.9493 64.1569 57.7746 60.4099 61.8458L59.642 61.2899C59.2196 61.4207 58.7652 61.3716 58.378 61.1591C57.3394 60.3735 56.3781 59.4864 55.5078 58.5103C55.0706 57.9765 54.6037 57.4688 54.1095 56.9898L53.6359 56.6039C53.2135 56.2573 52.6951 56.0578 52.1544 56.0317C51.8317 56.0142 51.5095 56.075 51.2142 56.2091C50.9189 56.3432 50.6588 56.5469 50.4553 56.8034C49.7321 57.84 49.9689 59.2755 50.98 60.0178L51.4216 60.3775C51.99 60.764 52.5798 61.1167 53.1879 61.4337C54.3207 62.0779 55.3894 62.8333 56.3813 63.7228C56.6351 64.0925 56.7825 64.5275 56.8069 64.9784L57.5045 65.6325C53.7383 71.4073 52.1928 78.4019 53.1591 85.2722L52.2632 85.5338C52.0296 85.9131 51.7192 86.2369 51.348 86.4756C50.098 86.8167 48.8184 87.0325 47.5274 87.1198C46.8423 87.134 46.1585 87.1886 45.4795 87.2833L44.9132 87.4141H44.8492C44.4561 87.4698 44.0859 87.6359 43.7798 87.894C43.4737 88.152 43.2436 88.4917 43.1153 88.8754C42.9869 89.2592 42.9653 89.6717 43.0528 90.0673C43.1403 90.4628 43.3335 90.8258 43.6108 91.1157C43.8908 91.4042 44.2438 91.6075 44.6303 91.7028C45.0168 91.798 45.4216 91.7816 45.7995 91.6553H45.8411L46.4171 91.5899C47.0667 91.3937 47.7066 91.1517 48.3306 90.877C49.5305 90.3865 50.7752 90.0105 52.0488 89.7652C52.4904 89.7914 52.9127 89.9451 53.2711 90.2067L54.2311 90.0432C56.3109 96.6388 60.6819 102.227 66.5184 105.749L66.128 106.583C66.3072 106.966 66.3744 107.391 66.32 107.812C65.792 109.062 65.1457 110.258 64.3905 111.383C63.9762 111.941 63.5938 112.523 63.245 113.126L62.973 113.715C62.7756 114.065 62.6767 114.463 62.6872 114.867C62.6977 115.271 62.8171 115.664 63.0323 116.002C63.2475 116.341 63.55 116.612 63.9066 116.786C64.2632 116.96 64.6599 117.03 65.0529 116.988C65.4468 116.943 65.8207 116.787 66.1331 116.538C66.4454 116.288 66.684 115.955 66.8224 115.576L67.0879 115.02C67.3311 114.366 67.5359 113.699 67.7023 113.025C68.2687 111.596 68.5759 110.062 69.3502 109.114C69.6033 108.871 69.9222 108.711 70.2654 108.656L70.7454 107.763C77.0722 110.249 84.0728 110.266 90.4114 107.812L90.837 108.646C91.2722 108.712 91.6626 108.957 91.9249 109.317C92.5265 110.487 93.0129 111.714 93.3841 112.979C93.5533 113.657 93.7606 114.324 94.0048 114.977L94.2704 115.533C94.4101 115.911 94.6494 116.242 94.9619 116.49C95.2744 116.738 95.6479 116.893 96.041 116.937C96.4342 116.981 96.8316 116.914 97.1895 116.742C97.5473 116.569 97.8516 116.299 98.0686 115.961C98.2835 115.621 98.402 115.227 98.4111 114.823C98.4201 114.418 98.3193 114.019 98.1198 113.669L97.8414 113.08C97.4926 112.48 97.1101 111.9 96.6959 111.344C95.9599 110.258 95.3264 109.101 94.776 107.888C94.7246 107.666 94.7174 107.436 94.7548 107.211C94.7922 106.986 94.8734 106.772 94.9936 106.58C94.8571 106.294 94.7384 106.001 94.6384 105.7C100.462 102.152 104.814 96.544 106.871 89.9385L107.78 90.102C108.106 89.7979 108.535 89.6377 108.974 89.6508C110.244 89.8993 111.489 90.3048 112.692 90.7626C113.316 91.0569 113.956 91.3054 114.605 91.5147C114.759 91.5572 114.983 91.5932 115.156 91.6357H115.197C115.575 91.7603 115.979 91.7754 116.365 91.6792C116.75 91.583 117.102 91.3793 117.381 91.0908C117.66 90.8023 117.855 90.4404 117.945 90.0452C118.034 89.6501 118.015 89.2373 117.888 88.8529C117.759 88.4688 117.528 88.129 117.22 87.8714C116.913 87.6139 116.542 87.4487 116.148 87.3945L115.527 87.244C114.848 87.1493 114.164 87.0947 113.479 87.0805C112.186 86.9955 110.906 86.7797 109.658 86.4363C109.274 86.2172 108.954 85.8902 108.737 85.4946L107.873 85.233C108.794 78.3659 107.216 71.3922 103.438 65.6357L104.193 64.9229C104.161 64.4749 104.305 64.0301 104.59 63.6868C105.572 62.8235 106.638 62.0616 107.758 61.4109C108.366 61.0936 108.955 60.741 109.524 60.3546L109.991 59.9688C110.335 59.7506 110.612 59.4374 110.789 59.0653C110.966 58.6932 111.036 58.2775 110.991 57.8663C110.947 57.4551 110.789 57.0652 110.537 56.7417C110.285 56.4181 109.948 56.1743 109.566 56.0382C109.184 55.9023 108.772 55.8796 108.378 55.9728C107.984 56.066 107.623 56.2712 107.339 56.5647L106.865 56.9505C106.371 57.4297 105.904 57.9374 105.467 58.4711C104.622 59.4587 103.688 60.3579 102.673 61.1623C102.264 61.3326 101.816 61.3825 101.38 61.3062L100.571 61.8948C95.8991 56.8917 89.6051 53.7852 82.8599 53.1639C82.8599 52.8369 82.8183 52.3463 82.8119 52.1927C82.4503 51.9376 82.1975 51.5485 82.1143 51.107C82.0699 49.7864 82.1514 48.4646 82.3575 47.1601C82.4951 46.4734 82.5911 45.7867 82.6519 45.0902V44.4362C82.7159 43.1805 81.7879 42.1046 80.556 42.0164L80.5272 42ZM77.8586 58.8929L77.2186 70.3151H77.1706C77.1386 71.0214 76.7322 71.6231 76.1082 71.9632C75.4843 72.3033 74.7451 72.2019 74.1884 71.7866L65.0209 65.1485C67.9388 62.2196 71.5994 60.1821 75.5899 59.2657C76.3386 59.1022 77.0938 58.978 77.8522 58.8929H77.8586ZM83.1959 58.8929C88.0116 59.5044 92.4945 61.715 95.9631 65.1845L86.882 71.7801C86.3221 72.2379 85.5541 72.3295 84.9046 72.0155C84.255 71.7016 83.839 71.0345 83.8294 70.302L83.1959 58.8929ZM61.693 69.4453L70.0766 77.0906V77.1397C70.5982 77.604 70.8253 78.3267 70.6718 79.0167C70.5182 79.7066 69.9998 80.2527 69.3374 80.4391V80.4718L58.5796 83.6339C58.0473 78.6809 59.1438 73.6876 61.6962 69.442L61.693 69.4453ZM99.3005 69.4453C101.848 73.68 102.974 78.6471 102.507 83.5947L91.733 80.4228V80.3803C91.061 80.1939 90.549 79.6478 90.3986 78.9578C90.2482 78.2678 90.4722 77.5517 90.9938 77.0808L99.3133 69.4715L99.3005 69.4453ZM78.8089 77.6858H82.2391L84.335 80.4064L83.5734 83.8072L80.492 85.3213L77.4042 83.8072L76.6778 80.4064L78.8089 77.6858ZM89.7971 86.9661C89.9411 86.9497 90.1171 86.9497 90.2291 86.9661L101.323 88.879C99.7229 93.5879 96.5647 97.61 92.4433 100.301L88.1556 89.6933C88.0377 89.4087 87.9884 89.0993 88.0119 88.7912C88.0354 88.4831 88.131 88.1853 88.2906 87.9228C88.4503 87.6603 88.6693 87.4408 88.9292 87.2829C89.1891 87.1249 89.4824 87.0331 89.7843 87.0151L89.7971 86.9661ZM71.1645 87.0151C71.7917 87.0249 72.3709 87.3552 72.7132 87.8915C73.0556 88.4278 73.11 89.1014 72.8636 89.69V89.7325L68.6015 100.255C64.5217 97.5838 61.4243 93.6108 59.7764 88.951L70.7741 87.0446C70.8957 87.0315 71.0205 87.0315 71.1453 87.0446L71.1645 87.0151ZM80.4568 91.5932C80.8064 91.5819 81.1522 91.6701 81.4556 91.8479C81.759 92.0258 82.0081 92.2863 82.1751 92.6003H82.2167L87.6372 102.597L85.4709 103.251C81.484 104.183 77.321 103.964 73.446 102.616L78.8857 92.6199C79.2153 92.0313 79.8232 91.6716 80.4856 91.6553L80.4568 91.5932Z" fill="#363636"/>
<path d="M28.8714 59.92L22.7114 62.64V59.968L26.7594 58.464V58.304L22.7114 56.816V54.144L28.8714 56.848V59.92ZM35.4808 59.92L29.3208 62.64V59.968L33.3688 58.464V58.304L29.3208 56.816V54.144L35.4808 56.848V59.92Z" fill="#F3585B"/>
<path d="M43.7568 64H40.3808V52.544H50.9248V64H47.5487V55.168H43.7568V64ZM58.0838 55.536C60.2758 55.536 61.7478 57.216 61.7478 59.872C61.7478 62.496 60.2598 64.208 58.0998 64.208C57.0438 64.208 56.2438 63.792 55.6998 63.04H55.5398V67.68H52.5478V55.744H55.5398V56.704H55.6998C56.2438 55.952 57.0118 55.536 58.0838 55.536ZM57.0758 58.048C56.1158 58.048 55.4118 58.832 55.4118 59.872C55.4118 60.912 56.1158 61.696 57.0758 61.696C58.0518 61.696 58.7398 60.912 58.7398 59.872C58.7398 58.832 58.0518 58.048 57.0758 58.048ZM67.2428 64.208C64.3948 64.208 62.5708 62.56 62.5708 59.872C62.5708 57.168 64.3788 55.536 67.2428 55.536C70.0748 55.536 71.8988 57.184 71.8988 59.872C71.8988 62.576 70.0748 64.208 67.2428 64.208ZM67.2428 61.696C68.2188 61.696 68.9068 60.944 68.9068 59.872C68.9068 58.8 68.2188 58.048 67.2428 58.048C66.2508 58.048 65.5788 58.8 65.5788 59.872C65.5788 60.944 66.2508 61.696 67.2428 61.696ZM75.946 64H72.954V55.744H79.69V58.144H75.946V64ZM86.1931 55.536C88.3851 55.536 89.8571 57.216 89.8571 59.872C89.8571 62.496 88.3691 64.208 86.2091 64.208C85.1531 64.208 84.3531 63.792 83.8091 63.04H83.6491V67.68H80.6571V55.744H83.6491V56.704H83.8091C84.3531 55.952 85.1211 55.536 86.1931 55.536ZM85.1851 58.048C84.2251 58.048 83.5211 58.832 83.5211 59.872C83.5211 60.912 84.2251 61.696 85.1851 61.696C86.1611 61.696 86.8491 60.912 86.8491 59.872C86.8491 58.832 86.1611 58.048 85.1851 58.048ZM94.3281 64.208C92.1201 64.208 90.6801 62.528 90.6801 59.872C90.6801 57.248 92.1521 55.536 94.3281 55.536C95.5281 55.536 96.2801 56.08 96.8721 56.992H97.0321V55.744H100.024V64H97.0321V62.784H96.8721C96.2801 63.712 95.5281 64.208 94.3281 64.208ZM95.3521 61.696C96.3281 61.696 97.0161 60.928 97.0161 59.872C97.0161 58.816 96.3281 58.048 95.3521 58.048C94.3761 58.048 93.6881 58.816 93.6881 59.872C93.6881 60.928 94.3761 61.696 95.3521 61.696ZM104.446 64H101.454V55.744H105.246L107.278 61.184H107.438L109.486 55.744H113.278V64H110.286V59.376H110.126L108.382 64H106.35L104.606 59.392H104.446V64ZM117.68 64H114.688V55.744H118.48L120.512 61.184H120.672L122.72 55.744H126.512V64H123.52V59.376H123.36L121.616 64H119.584L117.84 59.392H117.68V64ZM131.219 64.208C129.011 64.208 127.571 62.528 127.571 59.872C127.571 57.248 129.043 55.536 131.219 55.536C132.419 55.536 133.171 56.08 133.763 56.992H133.923V55.744H136.915V64H133.923V62.784H133.763C133.171 63.712 132.419 64.208 131.219 64.208ZM132.243 61.696C133.219 61.696 133.907 60.928 133.907 59.872C133.907 58.816 133.219 58.048 132.243 58.048C131.267 58.048 130.579 58.816 130.579 59.872C130.579 60.928 131.267 61.696 132.243 61.696ZM30.5614 85H27.1854V73.544H30.5614V78.008H30.7214L33.8734 73.544H37.8574L33.6494 79L37.9054 85H33.9214L30.7214 80.12H30.5614V85ZM43.8672 76.744H46.8592V85H43.8672V83.784H43.7072C43.0512 84.76 42.3632 85.192 41.3872 85.192C39.6752 85.192 38.4752 83.816 38.4752 81.896V76.744H41.4672V81.336C41.4672 82.136 41.9152 82.696 42.6192 82.696C43.3232 82.696 43.8672 82.12 43.8672 81.288V76.744ZM53.8103 85.208C52.7383 85.208 51.9703 84.792 51.4263 84.04H51.2663V85H48.2743V73.064H51.2663V77.704H51.4263C51.9703 76.952 52.7703 76.536 53.8263 76.536C55.9863 76.536 57.4743 78.248 57.4743 80.872C57.4743 83.528 56.0023 85.208 53.8103 85.208ZM52.8023 82.696C53.7783 82.696 54.4663 81.912 54.4663 80.872C54.4663 79.832 53.7783 79.048 52.8023 79.048C51.8423 79.048 51.1383 79.832 51.1383 80.872C51.1383 81.912 51.8423 82.696 52.8023 82.696ZM62.9373 85.208C60.2013 85.208 58.3133 83.496 58.3133 80.84C58.3133 78.216 60.2333 76.536 62.9693 76.536C65.6893 76.536 67.4813 78.232 67.4813 80.872C67.4813 81.112 67.4653 81.528 67.4333 81.688H61.4013C61.5933 82.584 62.2013 83.144 63.0973 83.144C63.8173 83.144 64.3293 82.776 64.5853 82.248L67.1613 82.712C66.7453 84.264 65.0493 85.208 62.9373 85.208ZM61.3693 80.088H64.4573C64.3773 79.272 63.7533 78.6 62.9053 78.6C62.0733 78.6 61.5293 79.176 61.3693 80.088ZM71.5319 85H68.5399V76.744H71.5159V77.912H71.6919C72.0439 77.096 72.7799 76.584 73.6119 76.584C73.9319 76.584 74.2679 76.664 74.5239 76.792V79.448C74.0439 79.24 73.4679 79.112 73.0839 79.112C72.1719 79.112 71.5319 79.832 71.5319 80.904V85ZM78.4851 85H75.4931V76.744H78.4851V77.96H78.6451C79.3011 77 79.9891 76.552 80.9651 76.552C82.6771 76.552 83.8771 77.944 83.8771 79.848V85H80.8851V80.408C80.8851 79.608 80.4371 79.064 79.7331 79.064C79.0291 79.064 78.4851 79.64 78.4851 80.456V85ZM89.4842 85.208C86.7482 85.208 84.8602 83.496 84.8602 80.84C84.8602 78.216 86.7802 76.536 89.5162 76.536C92.2362 76.536 94.0282 78.232 94.0282 80.872C94.0282 81.112 94.0122 81.528 93.9802 81.688H87.9482C88.1402 82.584 88.7482 83.144 89.6442 83.144C90.3642 83.144 90.8762 82.776 91.1322 82.248L93.7082 82.712C93.2922 84.264 91.5962 85.208 89.4842 85.208ZM87.9162 80.088H91.0042C90.9242 79.272 90.3002 78.6 89.4522 78.6C88.6202 78.6 88.0762 79.176 87.9162 80.088ZM98.5291 85.208C96.7211 85.208 95.5531 83.928 95.5531 82.024V78.872H94.4971V76.744H95.6651L96.2091 74.168H98.5611V76.744H100.289V78.872H98.5611V81.88C98.5611 82.52 98.9451 82.952 99.5371 82.952C99.7611 82.952 100.081 82.904 100.337 82.84V84.92C99.8091 85.112 99.0411 85.208 98.5291 85.208ZM105.594 85.208C102.858 85.208 100.97 83.496 100.97 80.84C100.97 78.216 102.89 76.536 105.626 76.536C108.346 76.536 110.138 78.232 110.138 80.872C110.138 81.112 110.122 81.528 110.09 81.688H104.058C104.25 82.584 104.858 83.144 105.754 83.144C106.474 83.144 106.986 82.776 107.242 82.248L109.818 82.712C109.402 84.264 107.706 85.208 105.594 85.208ZM104.026 80.088H107.114C107.034 79.272 106.41 78.6 105.562 78.6C104.73 78.6 104.186 79.176 104.026 80.088ZM114.908 85.272C112.428 85.272 110.876 84.136 110.876 82.28H113.42C113.42 82.984 114.028 83.448 114.972 83.448C115.676 83.448 116.172 83.144 116.172 82.648C116.172 82.056 115.468 81.96 114.604 81.88C113.116 81.736 110.924 81.608 110.924 79.32C110.924 77.576 112.476 76.488 114.828 76.488C117.116 76.488 118.812 77.56 118.812 79.256H116.156C116.14 78.68 115.596 78.296 114.828 78.296C114.156 78.296 113.676 78.6 113.676 79.048C113.676 79.672 114.652 79.704 115.756 79.832C117.26 79.992 119.148 80.36 119.148 82.312C119.148 84.152 117.532 85.272 114.908 85.272ZM127.046 85H123.558L126.358 80.712L123.67 76.744H127.078L128.502 79.064H128.662L130.102 76.744H133.494L130.806 80.712L133.622 85H130.134L128.662 82.44H128.502L127.046 85ZM32.3481 106H28.9721V102.096L24.9881 94.544H28.4921L30.5721 99.152H30.7321L32.6841 94.544H36.2361L32.3481 102.096V106ZM38.2812 106.208C36.0733 106.208 34.6333 104.528 34.6333 101.872C34.6333 99.248 36.1053 97.536 38.2812 97.536C39.4813 97.536 40.2333 98.08 40.8253 98.992H40.9853V97.744H43.9773V106H40.9853V104.784H40.8253C40.2333 105.712 39.4813 106.208 38.2812 106.208ZM39.3053 103.696C40.2813 103.696 40.9693 102.928 40.9693 101.872C40.9693 100.816 40.2813 100.048 39.3053 100.048C38.3293 100.048 37.6413 100.816 37.6413 101.872C37.6413 102.928 38.3293 103.696 39.3053 103.696ZM48.3991 106H45.4071V97.744H48.3991V98.96H48.5591C49.2151 98 49.9031 97.552 50.8791 97.552C52.5911 97.552 53.7911 98.944 53.7911 100.848V106H50.7991V101.408C50.7991 100.608 50.3511 100.064 49.6471 100.064C48.9431 100.064 48.3991 100.64 48.3991 101.456V106ZM58.4383 106.208C56.2463 106.208 54.7743 104.528 54.7743 101.872C54.7743 99.248 56.2623 97.536 58.4223 97.536C59.4783 97.536 60.2783 97.952 60.8223 98.704H60.9823V94.064H63.9743V106H60.9823V105.04H60.8223C60.2783 105.792 59.5103 106.208 58.4383 106.208ZM59.4463 103.696C60.4063 103.696 61.1103 102.912 61.1103 101.872C61.1103 100.832 60.4063 100.048 59.4463 100.048C58.4703 100.048 57.7823 100.832 57.7823 101.872C57.7823 102.912 58.4703 103.696 59.4463 103.696ZM69.6639 106.208C66.9279 106.208 65.0399 104.496 65.0399 101.84C65.0399 99.216 66.9599 97.536 69.6959 97.536C72.4159 97.536 74.2079 99.232 74.2079 101.872C74.2079 102.112 74.1919 102.528 74.1599 102.688H68.1279C68.3199 103.584 68.9279 104.144 69.8239 104.144C70.5439 104.144 71.0559 103.776 71.3119 103.248L73.8879 103.712C73.4719 105.264 71.7759 106.208 69.6639 106.208ZM68.0959 101.088H71.1839C71.1039 100.272 70.4799 99.6 69.6319 99.6C68.7999 99.6 68.2559 100.176 68.0959 101.088ZM77.4598 106H73.9718L76.7718 101.712L74.0838 97.744H77.4918L78.9158 100.064H79.0758L80.5158 97.744H83.9078L81.2198 101.712L84.0358 106H80.5478L79.0758 103.44H78.9158L77.4598 106ZM86.0633 106.176C85.0872 106.176 84.3833 105.504 84.3833 104.56C84.3833 103.616 85.0872 102.944 86.0633 102.944C87.0393 102.944 87.7433 103.616 87.7433 104.56C87.7433 105.504 87.0393 106.176 86.0633 106.176ZM94.4228 106.24C90.8068 106.24 88.1828 103.824 88.1828 100.272C88.1828 96.72 90.8068 94.32 94.4228 94.32C97.4948 94.32 99.9108 96.144 100.263 98.832L97.1267 99.168C96.8708 97.952 95.7828 97.072 94.5188 97.072C92.7588 97.072 91.5588 98.352 91.5588 100.272C91.5748 102.192 92.7748 103.472 94.5028 103.472C95.7508 103.472 96.8708 102.608 97.1428 101.408L100.279 101.776C99.9908 104.432 97.5588 106.24 94.4228 106.24ZM104.462 106H101.47V94.064H104.462V106ZM110.196 106.208C107.348 106.208 105.524 104.56 105.524 101.872C105.524 99.168 107.332 97.536 110.196 97.536C113.028 97.536 114.852 99.184 114.852 101.872C114.852 104.576 113.028 106.208 110.196 106.208ZM110.196 103.696C111.172 103.696 111.86 102.944 111.86 101.872C111.86 100.8 111.172 100.048 110.196 100.048C109.204 100.048 108.532 100.8 108.532 101.872C108.532 102.944 109.204 103.696 110.196 103.696ZM121.203 97.744H124.195V106H121.203V104.784H121.043C120.387 105.76 119.699 106.192 118.723 106.192C117.011 106.192 115.811 104.816 115.811 102.896V97.744H118.803V102.336C118.803 103.136 119.251 103.696 119.955 103.696C120.659 103.696 121.203 103.12 121.203 102.288V97.744ZM128.938 106.208C126.746 106.208 125.274 104.528 125.274 101.872C125.274 99.248 126.762 97.536 128.922 97.536C129.978 97.536 130.778 97.952 131.322 98.704H131.482V94.064H134.474V106H131.482V105.04H131.322C130.778 105.792 130.01 106.208 128.938 106.208ZM129.946 103.696C130.906 103.696 131.61 102.912 131.61 101.872C131.61 100.832 130.906 100.048 129.946 100.048C128.97 100.048 128.282 100.832 128.282 101.872C128.282 102.912 128.97 103.696 129.946 103.696Z" fill="#F8F7F7"/>
</g>
<defs>
<clipPath id="clip0_1_130794">
<rect width="160" height="160" fill="white"/>
</clipPath>
</defs>
</svg>
