<svg width="350" height="875" viewBox="0 0 350 875" fill="none" xmlns="http://www.w3.org/2000/svg">
<path d="M0 22.4C0 14.5593 0 10.6389 1.52591 7.64413C2.86814 5.00986 5.00986 2.86814 7.64413 1.52591C10.6389 0 14.5593 0 22.4 0H350V875H22.4C14.5593 875 10.6389 875 7.64413 873.474C5.00986 872.132 2.86814 869.99 1.52591 867.356C0 864.361 0 860.441 0 852.6V22.4Z" fill="#F8F7F7"/>
<g opacity="0.2">
<path d="M63.332 244.998C63.332 186.088 111.088 138.332 169.998 138.332C228.908 138.332 276.664 186.088 276.664 244.998C276.664 303.908 228.908 351.665 169.998 351.665C111.088 351.665 63.332 303.908 63.332 244.998Z" fill="#F8F7F7"/>
<path d="M169.999 404.999C130.24 404.039 114.501 377.46 109.696 351.791C107.089 337.838 108.232 314.636 109.696 306.355C112.076 292.857 115.919 273.458 120.174 250.947C126.259 218.691 142.41 200.344 177.274 193.802L234.301 182.911C235.811 174.446 238.675 152.029 236.067 138.211C231.217 112.269 211.223 85.4118 170.64 85C82.2445 85 9.99999 156.604 10 244.999C10 333.395 81.604 404.999 169.999 404.999Z" fill="url(#paint0_linear_2003_1169)"/>
<path d="M170 85C209.759 85.9608 229.433 112.589 234.237 138.257C236.845 152.212 231.767 175.363 230.303 183.644C227.923 197.141 224.08 216.541 219.825 239.051C213.74 271.308 197.589 289.655 162.725 296.197L109.656 306.617C108.147 315.081 103.159 337.958 105.767 351.775C110.617 377.716 128.776 404.588 169.359 404.999C257.755 404.999 330 333.395 330 244.999C330 156.604 258.395 85 170 85Z" fill="url(#paint1_linear_2003_1169)"/>
</g>
<defs>
<linearGradient id="paint0_linear_2003_1169" x1="9.99941" y1="404.999" x2="261.818" y2="102.936" gradientUnits="userSpaceOnUse">
<stop stop-color="#E9E9E9"/>
<stop offset="1" stop-color="#A7A7A7"/>
</linearGradient>
<linearGradient id="paint1_linear_2003_1169" x1="330" y1="85" x2="74.2376" y2="378.137" gradientUnits="userSpaceOnUse">
<stop stop-color="#E9E9E9"/>
<stop offset="1" stop-color="#A7A7A7"/>
</linearGradient>
</defs>
</svg>
