<svg width="160" height="160" viewBox="0 0 160 160" fill="none" xmlns="http://www.w3.org/2000/svg">
<g clip-path="url(#clip0_1_130793)">
<rect width="160" height="160" fill="#363636"/>
<path d="M105 80C105 93.8063 93.8063 105 80 105C66.1938 105 55 93.8063 55 80C55 66.1938 66.1938 55 80 55C93.8063 55 105 66.1938 105 80Z" fill="#363636"/>
<path d="M132.319 57.6641C132.319 48.2894 125.465 40.7479 116.997 40.7479C105.526 40.2083 93.827 40 81.8715 40H78.1444C66.2179 40 54.4985 40.2083 43.0275 40.75C34.5796 40.75 27.726 48.3331 27.726 57.7079C27.2083 65.1222 26.9888 72.5387 27.0013 79.9552C26.9806 87.3716 27.2152 94.795 27.7053 102.225C27.7053 111.6 34.5589 119.204 43.0068 119.204C55.0575 119.767 67.4189 120.017 79.9872 119.996C92.5763 120.037 104.903 119.774 116.968 119.204C125.436 119.204 132.29 111.6 132.29 102.225C132.787 94.7881 133.015 87.3716 132.994 79.9343C133.041 72.5179 132.816 65.0945 132.319 57.6641ZM69.8621 100.392V59.4557L99.8855 79.9135L69.8621 100.392Z" fill="#2B2B2B"/>
<path d="M28.6839 59.92L22.5239 62.64V59.968L26.5719 58.464V58.304L22.5239 56.816V54.144L28.6839 56.848V59.92ZM35.2933 59.92L29.1333 62.64V59.968L33.1813 58.464V58.304L29.1333 56.816V54.144L35.2933 56.848V59.92Z" fill="#F3585B"/>
<path d="M43.5693 64H40.1933V52.544H50.7373V64H47.3612V55.168H43.5693V64ZM57.8963 55.536C60.0883 55.536 61.5603 57.216 61.5603 59.872C61.5603 62.496 60.0723 64.208 57.9123 64.208C56.8563 64.208 56.0563 63.792 55.5123 63.04H55.3523V67.68H52.3603V55.744H55.3523V56.704H55.5123C56.0563 55.952 56.8243 55.536 57.8963 55.536ZM56.8883 58.048C55.9283 58.048 55.2243 58.832 55.2243 59.872C55.2243 60.912 55.9283 61.696 56.8883 61.696C57.8643 61.696 58.5523 60.912 58.5523 59.872C58.5523 58.832 57.8643 58.048 56.8883 58.048ZM66.0312 64.208C63.8233 64.208 62.3833 62.528 62.3833 59.872C62.3833 57.248 63.8553 55.536 66.0312 55.536C67.2313 55.536 67.9833 56.08 68.5753 56.992H68.7353V55.744H71.7273V64H68.7353V62.784H68.5753C67.9833 63.712 67.2313 64.208 66.0312 64.208ZM67.0553 61.696C68.0313 61.696 68.7193 60.928 68.7193 59.872C68.7193 58.816 68.0313 58.048 67.0553 58.048C66.0793 58.048 65.3913 58.816 65.3913 59.872C65.3913 60.928 66.0793 61.696 67.0553 61.696ZM76.1491 64H73.1571V55.744H76.1491V58.768H76.3091L78.4531 55.744H81.9731L78.9011 59.712L82.0211 64H78.4691L76.3091 60.688H76.1491V64ZM88.074 64H85.066V58.144H82.458V55.744H90.666V58.144H88.074V64ZM94.667 64H91.579V55.744H94.571V60.08H94.731L97.227 55.744H100.315V64H97.307V59.728H97.147L94.667 64ZM104.696 64H101.704V55.744H104.696V58.768H104.856L107 55.744H110.52L107.448 59.712L110.568 64H107.016L104.856 60.688H104.696V64ZM113.901 67.76C113.293 67.76 112.445 67.648 111.981 67.456V65.136C112.333 65.28 112.877 65.376 113.293 65.376C114.205 65.376 114.685 64.768 114.909 64.128L110.861 55.744H114.109L115.965 60.304H116.125L117.565 55.744H120.637L117.501 64.384C116.653 66.688 115.645 67.76 113.901 67.76ZM124.399 64H121.407V55.744H125.199L127.231 61.184H127.391L129.439 55.744H133.231V64H130.239V59.376H130.079L128.335 64H126.303L124.559 59.392H124.399V64ZM19.9216 85H16.6576V77.192H16.4976L13.9216 79.08V75.912L17.0896 73.544H19.9216V85ZM26.7399 85.24C23.5879 85.24 21.3479 82.824 21.3479 79.272C21.3479 75.72 23.5879 73.32 26.7399 73.32C29.8919 73.32 32.1159 75.72 32.1159 79.272C32.1159 82.824 29.8919 85.24 26.7399 85.24ZM26.7399 82.36C27.9239 82.36 28.7399 81.16 28.7399 79.272C28.7399 77.384 27.9239 76.184 26.7399 76.184C25.5399 76.184 24.7399 77.384 24.7399 79.272C24.7399 81.16 25.5399 82.36 26.7399 82.36ZM42.4431 85.24C39.2911 85.24 37.0511 82.824 37.0511 79.272C37.0511 75.72 39.2911 73.32 42.4431 73.32C45.5951 73.32 47.8191 75.72 47.8191 79.272C47.8191 82.824 45.5951 85.24 42.4431 85.24ZM42.4431 82.36C43.6271 82.36 44.4431 81.16 44.4431 79.272C44.4431 77.384 43.6271 76.184 42.4431 76.184C41.2431 76.184 40.4431 77.384 40.4431 79.272C40.4431 81.16 41.2431 82.36 42.4431 82.36ZM54.2556 85.24C51.1036 85.24 48.8636 82.824 48.8636 79.272C48.8636 75.72 51.1036 73.32 54.2556 73.32C57.4076 73.32 59.6316 75.72 59.6316 79.272C59.6316 82.824 57.4076 85.24 54.2556 85.24ZM54.2556 82.36C55.4396 82.36 56.2556 81.16 56.2556 79.272C56.2556 77.384 55.4396 76.184 54.2556 76.184C53.0556 76.184 52.2556 77.384 52.2556 79.272C52.2556 81.16 53.0556 82.36 54.2556 82.36ZM66.0681 85.24C62.9161 85.24 60.6761 82.824 60.6761 79.272C60.6761 75.72 62.9161 73.32 66.0681 73.32C69.2201 73.32 71.4441 75.72 71.4441 79.272C71.4441 82.824 69.2201 85.24 66.0681 85.24ZM66.0681 82.36C67.2521 82.36 68.0681 81.16 68.0681 79.272C68.0681 77.384 67.2521 76.184 66.0681 76.184C64.8681 76.184 64.0681 77.384 64.0681 79.272C64.0681 81.16 64.8681 82.36 66.0681 82.36ZM79.6592 85H76.5712V76.744H79.5632V81.08H79.7232L82.2192 76.744H85.3072V85H82.2992V80.728H82.1392L79.6592 85ZM91.6402 85H86.6962V76.744H91.4322C93.2882 76.744 94.4402 77.672 94.4402 78.92C94.4402 79.752 93.9282 80.456 93.2402 80.68V80.84C94.2162 81.096 94.7922 81.72 94.7922 82.664C94.7922 84.088 93.5282 85 91.6402 85ZM89.4642 78.568V79.96H90.7922C91.3042 79.96 91.6562 79.672 91.6562 79.272C91.6562 78.872 91.3042 78.568 90.7922 78.568H89.4642ZM89.4642 81.672V83.176H90.7922C91.3522 83.176 91.7202 82.856 91.7202 82.408C91.7202 81.976 91.3522 81.672 90.7922 81.672H89.4642ZM100.11 85.208C97.3736 85.208 95.4696 83.496 95.4696 80.84C95.4696 78.216 97.3896 76.536 100.126 76.536C102.846 76.536 104.638 78.232 104.638 80.872C104.638 81.112 104.622 81.528 104.606 81.688H98.5576C98.7656 82.584 99.3576 83.144 100.27 83.144C100.99 83.144 101.502 82.776 101.742 82.248L104.334 82.712C103.902 84.248 102.206 85.208 100.11 85.208ZM98.5416 80.088H101.614C101.55 79.272 100.926 78.6 100.062 78.6C99.2456 78.6 98.7016 79.176 98.5416 80.088ZM108.688 85H105.696V76.76H108.688V79.656H111.072V76.76H114.08V85H111.072V82.056H108.688V85ZM120.613 85H117.605V79.144H114.997V76.744H123.205V79.144H120.613V85ZM128.391 85.208C125.543 85.208 123.719 83.56 123.719 80.872C123.719 78.168 125.527 76.536 128.391 76.536C131.223 76.536 133.047 78.184 133.047 80.872C133.047 83.576 131.223 85.208 128.391 85.208ZM128.391 82.696C129.367 82.696 130.055 81.944 130.055 80.872C130.055 79.8 129.367 79.048 128.391 79.048C127.399 79.048 126.727 79.8 126.727 80.872C126.727 81.944 127.399 82.696 128.391 82.696ZM139.046 85H134.102V76.744H138.838C140.694 76.744 141.846 77.672 141.846 78.92C141.846 79.752 141.334 80.456 140.646 80.68V80.84C141.622 81.096 142.198 81.72 142.198 82.664C142.198 84.088 140.934 85 139.046 85ZM136.87 78.568V79.96H138.198C138.71 79.96 139.062 79.672 139.062 79.272C139.062 78.872 138.71 78.568 138.198 78.568H136.87ZM136.87 81.672V83.176H138.198C138.758 83.176 139.126 82.856 139.126 82.408C139.126 81.976 138.758 81.672 138.198 81.672H136.87ZM36.7507 106H33.7587V97.76H36.7507V100.656H39.1347V97.76H42.1427V106H39.1347V103.056H36.7507V106ZM46.8516 106.208C44.6436 106.208 43.2036 104.528 43.2036 101.872C43.2036 99.248 44.6756 97.536 46.8516 97.536C48.0516 97.536 48.8036 98.08 49.3956 98.992H49.5556V97.744H52.5476V106H49.5556V104.784H49.3956C48.8036 105.712 48.0516 106.208 46.8516 106.208ZM47.8756 103.696C48.8516 103.696 49.5396 102.928 49.5396 101.872C49.5396 100.816 48.8516 100.048 47.8756 100.048C46.8996 100.048 46.2116 100.816 46.2116 101.872C46.2116 102.928 46.8996 103.696 47.8756 103.696ZM64.6841 106H61.3081V102.096L57.3241 94.544H60.8281L62.9081 99.152H63.0681L65.0201 94.544H68.5721L64.6841 102.096V106ZM71.6412 106.208C68.7932 106.208 66.9692 104.56 66.9692 101.872C66.9692 99.168 68.7772 97.536 71.6412 97.536C74.4732 97.536 76.2972 99.184 76.2972 101.872C76.2972 104.576 74.4732 106.208 71.6412 106.208ZM71.6412 103.696C72.6172 103.696 73.3052 102.944 73.3052 101.872C73.3052 100.8 72.6172 100.048 71.6412 100.048C70.6492 100.048 69.9772 100.8 69.9772 101.872C69.9772 102.944 70.6492 103.696 71.6412 103.696ZM82.6484 97.744H85.6404V106H82.6484V104.784H82.4884C81.8324 105.76 81.1444 106.192 80.1684 106.192C78.4564 106.192 77.2564 104.816 77.2564 102.896V97.744H80.2484V102.336C80.2484 103.136 80.6964 103.696 81.4004 103.696C82.1044 103.696 82.6484 103.12 82.6484 102.288V97.744ZM93.4716 106H90.0956V97.312H86.5116V94.544H97.0556V97.312H93.4716V106ZM102.977 97.744H105.969V106H102.977V104.784H102.817C102.161 105.76 101.473 106.192 100.497 106.192C98.7846 106.192 97.5846 104.816 97.5846 102.896V97.744H100.577V102.336C100.577 103.136 101.025 103.696 101.729 103.696C102.433 103.696 102.977 103.12 102.977 102.288V97.744ZM112.92 106.208C111.848 106.208 111.08 105.792 110.536 105.04H110.376V106H107.384V94.064H110.376V98.704H110.536C111.08 97.952 111.88 97.536 112.936 97.536C115.096 97.536 116.584 99.248 116.584 101.872C116.584 104.528 115.112 106.208 112.92 106.208ZM111.912 103.696C112.888 103.696 113.576 102.912 113.576 101.872C113.576 100.832 112.888 100.048 111.912 100.048C110.952 100.048 110.248 100.832 110.248 101.872C110.248 102.912 110.952 103.696 111.912 103.696ZM122.047 106.208C119.311 106.208 117.423 104.496 117.423 101.84C117.423 99.216 119.343 97.536 122.079 97.536C124.799 97.536 126.591 99.232 126.591 101.872C126.591 102.112 126.575 102.528 126.543 102.688H120.511C120.703 103.584 121.311 104.144 122.207 104.144C122.927 104.144 123.439 103.776 123.695 103.248L126.271 103.712C125.855 105.264 124.159 106.208 122.047 106.208ZM120.479 101.088H123.567C123.487 100.272 122.863 99.6 122.015 99.6C121.183 99.6 120.639 100.176 120.479 101.088Z" fill="#F8F7F7"/>
</g>
<defs>
<clipPath id="clip0_1_130793">
<rect width="160" height="160" fill="white"/>
</clipPath>
</defs>
</svg>
