<svg width="160" height="160" viewBox="0 0 160 160" fill="none" xmlns="http://www.w3.org/2000/svg">
<rect x="0.5" y="0.5" width="159" height="159" fill="#F8F7F7" stroke="#ECEAEA"/>
<path d="M41.6621 97.8062V102.156H40.3497V97.8482L37 92.1271H38.4765L41.0468 96.6872L43.672 92.1271H44.9848L41.6621 97.8062Z" fill="#6D6969"/>
<path d="M47.669 101.192C48.0424 101.192 48.3615 101.113 48.6261 100.954C48.8902 100.795 49.1046 100.614 49.2688 100.409C49.4325 100.194 49.551 99.9889 49.6241 99.7929C49.6971 99.5879 49.7333 99.4432 49.7333 99.3595V98.828H48.5303C47.8104 98.828 47.2863 98.9351 46.958 99.1497C46.6389 99.3547 46.4794 99.6673 46.4794 100.087C46.4794 100.413 46.5752 100.679 46.7664 100.884C46.958 101.089 47.2588 101.192 47.669 101.192ZM49.7882 100.772C49.7059 100.94 49.6013 101.117 49.4738 101.304C49.346 101.481 49.1864 101.644 48.9953 101.793C48.8037 101.942 48.5758 102.064 48.3117 102.157C48.0564 102.25 47.7555 102.297 47.4091 102.297C46.771 102.297 46.2562 102.115 45.8642 101.751C45.4722 101.378 45.2764 100.847 45.2764 100.157C45.2764 99.3642 45.5452 98.7814 46.0828 98.4084C46.6296 98.0354 47.4044 97.8489 48.407 97.8489H49.7333V97.2474C49.7333 96.7437 49.6059 96.3849 49.3506 96.1704C49.0953 95.9558 48.6577 95.8487 48.0383 95.8487C47.6006 95.8487 47.1858 95.923 46.7938 96.0724C46.4018 96.2123 46.0511 96.3755 45.7409 96.562V95.4568C45.9963 95.2983 46.3381 95.1446 46.7664 94.9953C47.204 94.8368 47.6825 94.7574 48.202 94.7574C49.0953 94.7574 49.7743 94.9486 50.2393 95.3312C50.7043 95.7042 50.9364 96.287 50.9364 97.0796V100.982C50.9364 101.066 50.9364 101.164 50.9364 101.276C50.9457 101.378 50.9504 101.486 50.9504 101.597C50.9592 101.709 50.9685 101.817 50.9778 101.919C50.9866 102.012 50.9959 102.092 51.0048 102.157H49.911C49.884 102.027 49.8566 101.844 49.8291 101.611C49.811 101.369 49.8017 101.159 49.8017 100.982L49.7882 100.772Z" fill="#6D6969"/>
<path d="M56.3291 95.8479C55.7822 95.8479 55.3357 95.9784 54.9892 96.2396C54.6521 96.4913 54.3786 96.8177 54.1689 97.2187V102.156H52.9658V94.8965H54.1005L54.1415 96.1976H54.1689C54.3601 95.778 54.661 95.4327 55.0712 95.1625C55.4813 94.8921 56.0008 94.7566 56.6299 94.7566C57.3317 94.7566 57.8878 94.9479 58.298 95.3304C58.7171 95.7034 58.9268 96.2815 58.9268 97.0646V102.156H57.7237V97.1907C57.7237 96.6872 57.6005 96.3375 57.3545 96.1416C57.1084 95.9456 56.7666 95.8479 56.3291 95.8479Z" fill="#6D6969"/>
<path d="M63.8237 101.192C64.1336 101.192 64.4207 101.141 64.685 101.038C64.9494 100.926 65.1772 100.758 65.3686 100.535C65.5692 100.311 65.7241 100.031 65.8335 99.6953C65.952 99.3595 66.0112 98.9679 66.0112 98.5202C66.0112 98.0725 65.952 97.681 65.8335 97.3451C65.7241 97.0097 65.5692 96.7299 65.3686 96.5058C65.1772 96.2822 64.9494 96.119 64.685 96.0163C64.4207 95.9045 64.1336 95.8487 63.8237 95.8487C63.1954 95.8487 62.6801 96.0772 62.2793 96.5339C61.8872 96.9816 61.6914 97.6438 61.6914 98.5202C61.6914 99.4061 61.8919 100.073 62.2927 100.52C62.6941 100.968 63.2042 101.192 63.8237 101.192ZM66.0522 100.73C65.8335 101.206 65.5281 101.588 65.1362 101.877C64.7443 102.157 64.2475 102.297 63.6459 102.297C63.2182 102.297 62.8123 102.222 62.4295 102.073C62.0467 101.914 61.7096 101.681 61.418 101.374C61.126 101.057 60.8939 100.665 60.7204 100.199C60.5474 99.723 60.4609 99.1635 60.4609 98.5202C60.4609 97.886 60.5474 97.336 60.7204 96.8698C60.8939 96.394 61.126 96.0025 61.418 95.6946C61.7096 95.3778 62.0467 95.1447 62.4295 94.9953C62.8215 94.8368 63.2317 94.7574 63.6596 94.7574C64.1974 94.7574 64.6622 94.8739 65.0542 95.1071C65.4461 95.3311 65.7606 95.6528 65.9976 96.0724V92.1278H67.2007V102.157H66.148L66.0522 100.73Z" fill="#6D6969"/>
<path d="M72.1319 95.8487C71.6124 95.8487 71.1658 96.0119 70.7921 96.3383C70.4183 96.6646 70.1814 97.1586 70.0811 97.8209H73.8957C73.9321 97.1495 73.7817 96.6552 73.4445 96.3383C73.1072 96.0119 72.6697 95.8487 72.1319 95.8487ZM74.9484 101.541C74.8482 101.616 74.7251 101.696 74.5793 101.779C74.4334 101.863 74.2557 101.947 74.0461 102.031C73.8364 102.106 73.5994 102.166 73.3351 102.213C73.0708 102.269 72.7745 102.297 72.4464 102.297C71.2524 102.297 70.3454 101.966 69.7256 101.304C69.1058 100.642 68.7959 99.7139 68.7959 98.5202C68.7959 97.9327 68.8779 97.406 69.042 96.9397C69.2152 96.4735 69.4522 96.0818 69.753 95.7646C70.0537 95.4382 70.4092 95.1913 70.8194 95.0233C71.2296 94.8463 71.6762 94.7574 72.1593 94.7574C72.6697 94.7574 73.1254 94.8463 73.5265 95.0233C73.9276 95.2003 74.2557 95.4615 74.5109 95.8064C74.7752 96.1518 74.953 96.5805 75.0441 97.0934C75.1444 97.5971 75.1444 98.1843 75.0441 98.856H70.0401C70.0857 99.6392 70.3135 100.227 70.7237 100.618C71.1339 101.001 71.7445 101.192 72.5558 101.192C73.1027 101.192 73.5721 101.113 73.964 100.954C74.356 100.795 74.6841 100.623 74.9484 100.437V101.541Z" fill="#6D6969"/>
<path d="M79.0128 99.2749L77.0987 102.156H75.8408L78.4112 98.3934L76.1416 94.8965H77.5362L79.2315 97.4565L80.9406 94.8965H82.1847L79.8331 98.3657L82.3078 102.156H80.9132L79.0128 99.2749Z" fill="#6D6969"/>
<path d="M91.1906 102.297C90.4614 102.297 89.8006 102.18 89.2081 101.947C88.6156 101.714 88.1052 101.378 87.6768 100.94C87.2575 100.492 86.9339 99.9517 86.7061 99.3176C86.4782 98.6739 86.3643 97.9512 86.3643 97.1495C86.3643 96.3383 86.4691 95.6156 86.6787 94.9815C86.8884 94.3473 87.1983 93.8111 87.6084 93.3729C88.0186 92.9252 88.5199 92.5849 89.1124 92.3518C89.714 92.1187 90.3976 92.0021 91.1632 92.0021C91.8286 92.0021 92.412 92.0764 92.9133 92.2258C93.4146 92.3657 93.8248 92.5336 94.1438 92.7292V93.9881C93.7336 93.7178 93.2596 93.5174 92.7219 93.3867C92.1932 93.2563 91.6691 93.1911 91.1495 93.1911C89.992 93.1911 89.1352 93.5218 88.5792 94.1841C88.0323 94.8368 87.7588 95.8254 87.7588 97.1495C87.7588 98.483 88.0551 99.476 88.6475 100.129C89.2491 100.782 90.1332 101.108 91.2999 101.108C91.8013 101.108 92.2889 101.038 92.7629 100.898C93.246 100.758 93.7063 100.52 94.1438 100.185V101.444C93.8795 101.658 93.4921 101.854 92.9816 102.031C92.4803 102.208 91.8833 102.297 91.1906 102.297Z" fill="#6D6969"/>
<path d="M97.2879 92.1271V102.156H96.085V92.1271H97.2879Z" fill="#6D6969"/>
<path d="M102.297 101.192C102.616 101.192 102.908 101.141 103.172 101.038C103.445 100.926 103.682 100.763 103.883 100.548C104.083 100.325 104.238 100.045 104.348 99.7092C104.457 99.3733 104.512 98.977 104.512 98.5202C104.512 98.0634 104.457 97.6671 104.348 97.3313C104.238 96.9954 104.083 96.7204 103.883 96.5058C103.682 96.2822 103.445 96.119 103.172 96.0163C102.908 95.9045 102.616 95.8487 102.297 95.8487C101.978 95.8487 101.686 95.9045 101.422 96.0163C101.158 96.119 100.925 96.2822 100.725 96.5058C100.533 96.7204 100.383 96.9954 100.273 97.3313C100.164 97.6671 100.109 98.0634 100.109 98.5202C100.109 98.977 100.164 99.3733 100.273 99.7092C100.383 100.045 100.533 100.325 100.725 100.548C100.925 100.763 101.158 100.926 101.422 101.038C101.686 101.141 101.978 101.192 102.297 101.192ZM102.297 102.297C101.814 102.297 101.363 102.213 100.943 102.045C100.524 101.877 100.16 101.635 99.8496 101.318C99.5488 100.991 99.3119 100.595 99.1387 100.129C98.9655 99.6625 98.8789 99.1264 98.8789 98.5202C98.8789 97.9235 98.9655 97.3917 99.1387 96.9255C99.3119 96.4502 99.5488 96.0538 99.8496 95.7365C100.16 95.4196 100.524 95.177 100.943 95.0094C101.363 94.8416 101.814 94.7574 102.297 94.7574C102.789 94.7574 103.245 94.8416 103.664 95.0094C104.083 95.177 104.444 95.4196 104.744 95.7365C105.054 96.0538 105.296 96.4502 105.469 96.9255C105.651 97.3917 105.742 97.9235 105.742 98.5202C105.742 99.1264 105.651 99.6625 105.469 100.129C105.296 100.595 105.054 100.991 104.744 101.318C104.444 101.635 104.083 101.877 103.664 102.045C103.245 102.213 102.789 102.297 102.297 102.297Z" fill="#6D6969"/>
<path d="M111.899 100.856C111.707 101.266 111.411 101.611 111.01 101.891C110.618 102.162 110.103 102.297 109.465 102.297C108.809 102.297 108.275 102.11 107.865 101.737C107.464 101.355 107.264 100.768 107.264 99.975V94.8973H108.481V99.975C108.481 100.217 108.512 100.418 108.576 100.576C108.649 100.725 108.745 100.847 108.863 100.94C108.982 101.033 109.119 101.098 109.273 101.136C109.438 101.173 109.615 101.192 109.807 101.192C110.335 101.192 110.759 101.071 111.078 100.828C111.397 100.586 111.671 100.255 111.899 99.8352V94.8973H113.102V102.157H112.035L111.926 100.856H111.899Z" fill="#6D6969"/>
<path d="M118.071 101.192C118.381 101.192 118.668 101.141 118.933 101.038C119.197 100.926 119.425 100.758 119.616 100.535C119.817 100.311 119.972 100.031 120.081 99.6953C120.2 99.3595 120.259 98.9679 120.259 98.5202C120.259 98.0725 120.2 97.681 120.081 97.3451C119.972 97.0097 119.817 96.7299 119.616 96.5058C119.425 96.2822 119.197 96.119 118.933 96.0163C118.668 95.9045 118.381 95.8487 118.071 95.8487C117.442 95.8487 116.927 96.0772 116.526 96.5339C116.134 96.9816 115.939 97.6438 115.939 98.5202C115.939 99.4061 116.139 100.073 116.54 100.52C116.941 100.968 117.452 101.192 118.071 101.192ZM120.3 100.73C120.081 101.206 119.776 101.588 119.384 101.877C118.992 102.157 118.495 102.297 117.894 102.297C117.465 102.297 117.06 102.222 116.677 102.073C116.294 101.914 115.957 101.681 115.665 101.374C115.373 101.057 115.141 100.665 114.968 100.199C114.795 99.723 114.708 99.1635 114.708 98.5202C114.708 97.886 114.795 97.336 114.968 96.8698C115.141 96.394 115.373 96.0025 115.665 95.6946C115.957 95.3778 116.294 95.1447 116.677 94.9953C117.069 94.8368 117.479 94.7574 117.907 94.7574C118.445 94.7574 118.91 94.8739 119.302 95.1071C119.694 95.3311 120.008 95.6528 120.245 96.0724V92.1278H121.448V102.157H120.396L120.3 100.73Z" fill="#6D6969"/>
<path d="M44.1472 109.182V112.916H45.8837C46.2301 112.916 46.5445 112.879 46.8273 112.804C47.1095 112.73 47.3514 112.613 47.5518 112.455C47.7615 112.296 47.921 112.091 48.0303 111.839C48.1489 111.578 48.208 111.266 48.208 110.902C48.208 110.296 48.0164 109.858 47.6336 109.587C47.2509 109.317 46.704 109.182 45.993 109.182H44.1472ZM42.8623 107.979H45.993C47.1049 107.979 47.9666 108.217 48.5772 108.692C49.1971 109.158 49.5068 109.89 49.5068 110.888C49.5068 111.457 49.4157 111.947 49.2334 112.357C49.0604 112.758 48.8139 113.089 48.4949 113.35C48.1759 113.611 47.7932 113.802 47.3467 113.923C46.9091 114.045 46.4213 114.105 45.8837 114.105H44.1472V118.008H42.8623V107.979Z" fill="#6D6969"/>
<path d="M54.6937 111.979C54.1837 112.026 53.7187 112.161 53.2995 112.385C52.8894 112.599 52.5843 112.935 52.3839 113.392V118.008H51.1807V110.748H52.2332L52.3564 112.329H52.3839C52.5843 111.9 52.8711 111.527 53.245 111.21C53.6276 110.883 54.1107 110.683 54.6937 110.608V111.979Z" fill="#6D6969"/>
<path d="M59.0089 117.043C59.3279 117.043 59.6199 116.992 59.8841 116.89C60.1575 116.778 60.3946 116.615 60.5951 116.4C60.7956 116.176 60.9504 115.897 61.0597 115.561C61.1694 115.225 61.2239 114.829 61.2239 114.372C61.2239 113.915 61.1694 113.519 61.0597 113.183C60.9504 112.847 60.7956 112.572 60.5951 112.357C60.3946 112.134 60.1575 111.971 59.8841 111.868C59.6199 111.756 59.3279 111.7 59.0089 111.7C58.6899 111.7 58.3983 111.756 58.1341 111.868C57.8695 111.971 57.6374 112.134 57.4366 112.357C57.2454 112.572 57.0948 112.847 56.9855 113.183C56.8762 113.519 56.8213 113.915 56.8213 114.372C56.8213 114.829 56.8762 115.225 56.9855 115.561C57.0948 115.897 57.2454 116.176 57.4366 116.4C57.6374 116.615 57.8695 116.778 58.1341 116.89C58.3983 116.992 58.6899 117.043 59.0089 117.043ZM59.0089 118.148C58.5261 118.148 58.0746 118.065 57.6556 117.897C57.2361 117.729 56.8715 117.486 56.5618 117.169C56.2609 116.843 56.0238 116.447 55.8508 115.98C55.6777 115.514 55.5908 114.978 55.5908 114.372C55.5908 113.775 55.6777 113.243 55.8508 112.777C56.0238 112.302 56.2609 111.905 56.5618 111.588C56.8715 111.271 57.2361 111.029 57.6556 110.861C58.0746 110.693 58.5261 110.609 59.0089 110.609C59.5014 110.609 59.9571 110.693 60.3761 110.861C60.7956 111.029 61.1555 111.271 61.4564 111.588C61.7661 111.905 62.0079 112.302 62.1809 112.777C62.3632 113.243 62.4544 113.775 62.4544 114.372C62.4544 114.978 62.3632 115.514 62.1809 115.98C62.0079 116.447 61.7661 116.843 61.4564 117.169C61.1555 117.486 60.7956 117.729 60.3761 117.897C59.9571 118.065 59.5014 118.148 59.0089 118.148Z" fill="#6D6969"/>
<path d="M65.5507 111.797V118.008H64.3478V111.797H63.4863V110.748H64.3478V110.566C64.3478 109.709 64.5711 109.042 65.0174 108.566C65.4641 108.09 66.0747 107.853 66.8493 107.853C67.1864 107.853 67.4872 107.895 67.7513 107.979V109.098C67.6695 109.061 67.5509 109.028 67.3961 109C67.2412 108.972 67.0771 108.958 66.9037 108.958C66.4848 108.958 66.1519 109.088 65.9059 109.349C65.6692 109.611 65.5507 110.016 65.5507 110.566V110.748H67.6012V111.797H65.5507Z" fill="#6D6969"/>
<path d="M71.711 111.7C71.1915 111.7 70.7449 111.863 70.3712 112.19C69.9974 112.516 69.7605 113.01 69.6602 113.672H73.4747C73.5112 113.001 73.3608 112.507 73.0236 112.19C72.6863 111.863 72.2488 111.7 71.711 111.7ZM74.5275 117.393C74.4273 117.468 74.3042 117.547 74.1584 117.631C74.0125 117.715 73.8348 117.799 73.6251 117.882C73.4155 117.957 73.1785 118.018 72.9142 118.065C72.6499 118.12 72.3536 118.148 72.0255 118.148C70.8315 118.148 69.9245 117.817 69.3047 117.155C68.6849 116.493 68.375 115.565 68.375 114.372C68.375 113.784 68.457 113.258 68.6211 112.791C68.7943 112.325 69.0313 111.933 69.3321 111.616C69.6328 111.29 69.9883 111.043 70.3985 110.875C70.8087 110.698 71.2553 110.609 71.7384 110.609C72.2488 110.609 72.7046 110.698 73.1056 110.875C73.5067 111.052 73.8348 111.313 74.09 111.658C74.3543 112.003 74.5321 112.432 74.6232 112.945C74.7235 113.448 74.7235 114.036 74.6232 114.708H69.6192C69.6648 115.491 69.8926 116.078 70.3028 116.47C70.713 116.852 71.3237 117.043 72.1349 117.043C72.6818 117.043 73.1512 116.964 73.5431 116.806C73.935 116.647 74.2632 116.475 74.5275 116.288V117.393Z" fill="#6D6969"/>
<path d="M78.5372 118.148C78.1635 118.148 77.8308 118.116 77.5391 118.05C77.2566 117.995 77.0059 117.925 76.7871 117.841C76.5775 117.747 76.3998 117.654 76.2539 117.561C76.1081 117.458 75.9941 117.37 75.9121 117.295V116.19C76.0033 116.283 76.1263 116.386 76.2813 116.498C76.4362 116.6 76.6231 116.698 76.8418 116.792C77.0606 116.885 77.3067 116.964 77.5801 117.029C77.8627 117.085 78.1771 117.113 78.5235 117.113C79.0339 117.113 79.4396 117.029 79.7403 116.861C80.0411 116.694 80.1915 116.409 80.1915 116.008C80.1915 115.794 80.1414 115.621 80.0411 115.491C79.95 115.36 79.8224 115.258 79.6583 115.183C79.4942 115.099 79.3028 115.034 79.0841 114.987C78.8744 114.941 78.6511 114.894 78.4141 114.847C78.1133 114.782 77.8171 114.712 77.5254 114.638C77.2338 114.554 76.9694 114.437 76.7324 114.288C76.4955 114.129 76.3041 113.929 76.1582 113.686C76.0124 113.435 75.9395 113.108 75.9395 112.707C75.9395 112.054 76.1856 111.541 76.6778 111.168C77.1791 110.795 77.8764 110.609 78.7696 110.609C79.2709 110.609 79.713 110.66 80.0958 110.763C80.4878 110.865 80.7886 110.978 80.9982 111.099V112.204C80.7612 112.045 80.465 111.914 80.1095 111.812C79.7631 111.7 79.3302 111.644 78.8106 111.644C78.2729 111.644 77.8581 111.719 77.5665 111.868C77.2839 112.017 77.1426 112.287 77.1426 112.679C77.1426 112.875 77.1836 113.033 77.2657 113.155C77.3477 113.267 77.4571 113.36 77.5938 113.435C77.7396 113.5 77.9037 113.551 78.086 113.589C78.2683 113.626 78.4597 113.668 78.6602 113.714C78.9701 113.779 79.2892 113.849 79.6173 113.924C79.9454 113.999 80.2371 114.115 80.4923 114.274C80.7566 114.432 80.9708 114.647 81.1349 114.917C81.3081 115.178 81.3947 115.533 81.3947 115.98C81.3947 116.4 81.3127 116.75 81.1486 117.029C80.9845 117.309 80.7658 117.533 80.4923 117.701C80.228 117.859 79.9226 117.971 79.5763 118.037C79.239 118.111 78.8927 118.148 78.5372 118.148Z" fill="#6D6969"/>
<path d="M85.2833 118.148C84.9096 118.148 84.5769 118.116 84.2852 118.05C84.0027 117.995 83.752 117.925 83.5332 117.841C83.3236 117.747 83.1458 117.654 83 117.561C82.8542 117.458 82.7402 117.37 82.6582 117.295V116.19C82.7494 116.283 82.8724 116.386 83.0274 116.498C83.1823 116.6 83.3692 116.698 83.5879 116.792C83.8067 116.885 84.0528 116.964 84.3262 117.029C84.6088 117.085 84.9232 117.113 85.2696 117.113C85.78 117.113 86.1856 117.029 86.4864 116.861C86.7872 116.694 86.9376 116.409 86.9376 116.008C86.9376 115.794 86.8875 115.621 86.7872 115.491C86.6961 115.36 86.5685 115.258 86.4044 115.183C86.2403 115.099 86.0489 115.034 85.8302 114.987C85.6205 114.941 85.3972 114.894 85.1602 114.847C84.8594 114.782 84.5632 114.712 84.2715 114.638C83.9799 114.554 83.7155 114.437 83.4785 114.288C83.2416 114.129 83.0501 113.929 82.9043 113.686C82.7585 113.435 82.6856 113.108 82.6856 112.707C82.6856 112.054 82.9317 111.541 83.4239 111.168C83.9252 110.795 84.6225 110.609 85.5157 110.609C86.017 110.609 86.4591 110.66 86.8419 110.763C87.2339 110.865 87.5346 110.978 87.7443 111.099V112.204C87.5073 112.045 87.2111 111.914 86.8556 111.812C86.5092 111.7 86.0763 111.644 85.5567 111.644C85.019 111.644 84.6042 111.719 84.3125 111.868C84.03 112.017 83.8887 112.287 83.8887 112.679C83.8887 112.875 83.9297 113.033 84.0118 113.155C84.0938 113.267 84.2032 113.36 84.3399 113.435C84.4857 113.5 84.6498 113.551 84.8321 113.589C85.0144 113.626 85.2058 113.668 85.4063 113.714C85.7162 113.779 86.0353 113.849 86.3634 113.924C86.6915 113.999 86.9832 114.115 87.2384 114.274C87.5027 114.432 87.7169 114.647 87.881 114.917C88.0542 115.178 88.1408 115.533 88.1408 115.98C88.1408 116.4 88.0588 116.75 87.8947 117.029C87.7306 117.309 87.5119 117.533 87.2384 117.701C86.9741 117.859 86.6687 117.971 86.3224 118.037C85.9851 118.111 85.6388 118.148 85.2833 118.148Z" fill="#6D6969"/>
<path d="M90.9617 110.748V118.008H89.7588V110.748H90.9617ZM90.3739 109.685C90.1278 109.685 89.9319 109.611 89.7861 109.461C89.6403 109.303 89.5674 109.112 89.5674 108.888C89.5674 108.664 89.6403 108.473 89.7861 108.315C89.9319 108.156 90.1278 108.077 90.3739 108.077C90.6108 108.077 90.7976 108.156 90.9343 108.315C91.071 108.473 91.1394 108.664 91.1394 108.888C91.1394 109.112 91.071 109.303 90.9343 109.461C90.7976 109.611 90.6108 109.685 90.3739 109.685Z" fill="#6D6969"/>
<path d="M95.9728 117.043C96.2918 117.043 96.5834 116.992 96.8478 116.89C97.1212 116.778 97.3582 116.615 97.5587 116.4C97.7593 116.176 97.9142 115.897 98.0236 115.561C98.133 115.225 98.1877 114.829 98.1877 114.372C98.1877 113.915 98.133 113.519 98.0236 113.183C97.9142 112.847 97.7593 112.572 97.5587 112.357C97.3582 112.134 97.1212 111.971 96.8478 111.868C96.5834 111.756 96.2918 111.7 95.9728 111.7C95.6537 111.7 95.3621 111.756 95.0977 111.868C94.8334 111.971 94.601 112.134 94.4004 112.357C94.209 112.572 94.0586 112.847 93.9493 113.183C93.8399 113.519 93.7852 113.915 93.7852 114.372C93.7852 114.829 93.8399 115.225 93.9493 115.561C94.0586 115.897 94.209 116.176 94.4004 116.4C94.601 116.615 94.8334 116.778 95.0977 116.89C95.3621 116.992 95.6537 117.043 95.9728 117.043ZM95.9728 118.148C95.4897 118.148 95.0385 118.065 94.6192 117.897C94.1999 117.729 93.8353 117.486 93.5254 117.169C93.2246 116.843 92.9876 116.447 92.8145 115.98C92.6413 115.514 92.5547 114.978 92.5547 114.372C92.5547 113.775 92.6413 113.243 92.8145 112.777C92.9876 112.302 93.2246 111.905 93.5254 111.588C93.8353 111.271 94.1999 111.029 94.6192 110.861C95.0385 110.693 95.4897 110.609 95.9728 110.609C96.465 110.609 96.9207 110.693 97.34 110.861C97.7593 111.029 98.1193 111.271 98.4201 111.588C98.73 111.905 98.9715 112.302 99.1447 112.777C99.327 113.243 99.4182 113.775 99.4182 114.372C99.4182 114.978 99.327 115.514 99.1447 115.98C98.9715 116.447 98.73 116.843 98.4201 117.169C98.1193 117.486 97.7593 117.729 97.34 117.897C96.9207 118.065 96.465 118.148 95.9728 118.148Z" fill="#6D6969"/>
<path d="M104.385 111.699C103.838 111.699 103.391 111.83 103.045 112.091C102.708 112.343 102.434 112.669 102.225 113.07V118.008H101.021V110.748H102.156L102.197 112.049H102.225C102.416 111.629 102.717 111.284 103.127 111.014C103.537 110.744 104.057 110.608 104.686 110.608C105.387 110.608 105.943 110.799 106.354 111.182C106.773 111.555 106.983 112.133 106.983 112.916V118.008H105.779V113.042C105.779 112.539 105.656 112.189 105.41 111.993C105.164 111.797 104.822 111.699 104.385 111.699Z" fill="#6D6969"/>
<path d="M111.061 117.043C111.434 117.043 111.753 116.964 112.018 116.806C112.282 116.647 112.496 116.465 112.66 116.26C112.824 116.046 112.943 115.84 113.016 115.644C113.089 115.439 113.125 115.295 113.125 115.211V114.68H111.922C111.202 114.68 110.678 114.787 110.35 115.001C110.031 115.206 109.871 115.519 109.871 115.938C109.871 116.265 109.967 116.53 110.158 116.736C110.35 116.941 110.65 117.043 111.061 117.043ZM113.18 116.624C113.098 116.792 112.993 116.969 112.865 117.155C112.738 117.332 112.578 117.496 112.387 117.645C112.195 117.794 111.968 117.915 111.703 118.009C111.448 118.102 111.147 118.148 110.801 118.148C110.163 118.148 109.648 117.967 109.256 117.603C108.864 117.23 108.668 116.698 108.668 116.008C108.668 115.216 108.937 114.633 109.475 114.26C110.022 113.887 110.796 113.7 111.799 113.7H113.125V113.099C113.125 112.595 112.998 112.236 112.742 112.022C112.487 111.807 112.05 111.7 111.43 111.7C110.992 111.7 110.578 111.775 110.186 111.924C109.794 112.064 109.443 112.227 109.133 112.414V111.308C109.388 111.15 109.73 110.996 110.158 110.847C110.596 110.688 111.074 110.609 111.594 110.609C112.487 110.609 113.166 110.8 113.631 111.183C114.096 111.556 114.328 112.139 114.328 112.931V116.833C114.328 116.918 114.328 117.016 114.328 117.127C114.337 117.23 114.342 117.337 114.342 117.449C114.351 117.561 114.36 117.668 114.369 117.771C114.378 117.864 114.388 117.943 114.397 118.009H113.303C113.276 117.878 113.248 117.696 113.221 117.463C113.203 117.221 113.193 117.011 113.193 116.833L113.18 116.624Z" fill="#6D6969"/>
<path d="M117.559 107.979V118.008H116.356V107.979H117.559Z" fill="#6D6969"/>
<path d="M39.1609 125.033V132.67H41.0206C41.5219 132.67 41.9818 132.591 42.4013 132.433C42.8208 132.274 43.1807 132.031 43.4816 131.705C43.782 131.37 44.0145 130.945 44.1787 130.432C44.3429 129.92 44.4247 129.309 44.4247 128.6C44.4247 127.901 44.3429 127.322 44.1787 126.866C44.0145 126.399 43.7867 126.031 43.4951 125.76C43.2123 125.49 42.8705 125.304 42.4697 125.201C42.0688 125.089 41.6358 125.033 41.1708 125.033H39.1609ZM37.876 123.83H41.1708C41.827 123.83 42.4376 123.91 43.0031 124.068C43.5681 124.226 44.0601 124.488 44.4796 124.851C44.8986 125.215 45.2269 125.695 45.4641 126.292C45.7008 126.889 45.8194 127.625 45.8194 128.502C45.8194 129.388 45.6961 130.166 45.4501 130.838C45.2134 131.5 44.8805 132.055 44.4521 132.502C44.0327 132.95 43.5272 133.29 42.9347 133.523C42.3511 133.748 41.713 133.859 41.0206 133.859H37.876V123.83Z" fill="#6D6969"/>
<path d="M49.5391 132.895C49.9126 132.895 50.2316 132.816 50.4962 132.657C50.7603 132.498 50.9747 132.317 51.1388 132.112C51.3026 131.897 51.4212 131.692 51.4942 131.496C51.5672 131.291 51.6035 131.146 51.6035 131.063V130.531H50.4004C49.6804 130.531 49.1563 130.638 48.8281 130.853C48.5091 131.058 48.3495 131.37 48.3495 131.79C48.3495 132.116 48.4453 132.382 48.6365 132.587C48.8281 132.792 49.129 132.895 49.5391 132.895ZM51.6583 132.475C51.576 132.643 51.4714 132.82 51.3439 133.007C51.2161 133.184 51.0566 133.347 50.8653 133.497C50.6738 133.646 50.446 133.767 50.1817 133.86C49.9265 133.953 49.6256 134 49.2792 134C48.6411 134 48.1263 133.818 47.7343 133.454C47.3423 133.081 47.1465 132.55 47.1465 131.86C47.1465 131.067 47.4153 130.485 47.9529 130.112C48.4998 129.739 49.2745 129.552 50.2772 129.552H51.6035V128.951C51.6035 128.447 51.476 128.088 51.2207 127.874C50.9654 127.659 50.5278 127.552 49.9083 127.552C49.4708 127.552 49.0559 127.626 48.6639 127.776C48.2719 127.915 47.9212 128.079 47.6111 128.265V127.16C47.8664 127.001 48.2082 126.848 48.6365 126.698C49.0741 126.54 49.5526 126.461 50.0721 126.461C50.9654 126.461 51.6444 126.652 52.1094 127.034C52.5744 127.407 52.8065 127.99 52.8065 128.783V132.685C52.8065 132.769 52.8065 132.867 52.8065 132.979C52.8158 133.081 52.8205 133.189 52.8205 133.301C52.8293 133.412 52.8386 133.52 52.8478 133.622C52.8567 133.715 52.866 133.795 52.8749 133.86H51.7811C51.754 133.73 51.7267 133.548 51.6993 133.314C51.6811 133.072 51.6718 132.862 51.6718 132.685L51.6583 132.475Z" fill="#6D6969"/>
<path d="M58.3078 133.706C58.1622 133.79 57.9753 133.86 57.7475 133.916C57.5196 133.972 57.2783 134 57.0231 134C56.6767 134 56.3805 133.949 56.1345 133.846C55.8975 133.744 55.7017 133.608 55.5468 133.44C55.3917 133.263 55.2777 133.067 55.2051 132.853C55.141 132.629 55.1093 132.401 55.1093 132.168V127.649H54.2617V126.6H55.1093V125.076H56.3122V126.6H58.3762V127.649H56.3122V132.014C56.3122 132.321 56.3852 132.545 56.5308 132.685C56.686 132.825 56.9547 132.895 57.3374 132.895C57.6927 132.895 58.0163 132.792 58.3078 132.587V133.706Z" fill="#6D6969"/>
<path d="M62.0831 132.895C62.4569 132.895 62.7759 132.816 63.0401 132.657C63.3046 132.498 63.519 132.317 63.6831 132.112C63.8472 131.897 63.9657 131.692 64.0386 131.496C64.1115 131.291 64.1479 131.146 64.1479 131.063V130.531H62.9447C62.2244 130.531 61.7003 130.638 61.3724 130.853C61.0534 131.058 60.8939 131.37 60.8939 131.79C60.8939 132.116 60.9893 132.382 61.1808 132.587C61.3724 132.792 61.6729 132.895 62.0831 132.895ZM64.2026 132.475C64.1206 132.643 64.0158 132.82 63.8882 133.007C63.7606 133.184 63.6011 133.347 63.4094 133.497C63.2181 133.646 62.9903 133.767 62.7258 133.86C62.4705 133.953 62.1699 134 61.8235 134C61.1854 134 60.6703 133.818 60.2786 133.454C59.8866 133.081 59.6904 132.55 59.6904 131.86C59.6904 131.067 59.9596 130.485 60.4972 130.112C61.0441 129.739 61.8188 129.552 62.8215 129.552H64.1479V128.951C64.1479 128.447 64.0203 128.088 63.7651 127.874C63.5099 127.659 63.0721 127.552 62.4523 127.552C62.0147 127.552 61.6003 127.626 61.2082 127.776C60.8162 127.915 60.4652 128.079 60.1554 128.265V127.16C60.4107 127.001 60.7525 126.848 61.1808 126.698C61.6184 126.54 62.0969 126.461 62.6164 126.461C63.5099 126.461 64.189 126.652 64.6538 127.034C65.1187 127.407 65.3511 127.99 65.3511 128.783V132.685C65.3511 132.769 65.3511 132.867 65.3511 132.979C65.3602 133.081 65.3648 133.189 65.3648 133.301C65.3739 133.412 65.383 133.52 65.3921 133.622C65.4012 133.715 65.4104 133.795 65.4195 133.86H64.3257C64.2983 133.73 64.271 133.548 64.2437 133.314C64.2254 133.072 64.2163 132.862 64.2163 132.685L64.2026 132.475Z" fill="#6D6969"/>
<path d="M71.9688 125.033V128.768H73.7052C74.0515 128.768 74.366 128.731 74.6485 128.656C74.9311 128.581 75.1726 128.465 75.3732 128.306C75.5828 128.148 75.7423 127.943 75.8517 127.691C75.9702 127.43 76.0294 127.117 76.0294 126.754C76.0294 126.148 75.838 125.709 75.4552 125.439C75.0724 125.169 74.5255 125.033 73.8145 125.033H71.9688ZM70.6836 123.83H73.8145C74.9265 123.83 75.7879 124.068 76.3986 124.543C77.0184 125.01 77.3283 125.742 77.3283 126.74C77.3283 127.309 77.2372 127.798 77.0549 128.208C76.8817 128.609 76.6356 128.94 76.3166 129.202C75.9975 129.463 75.6147 129.654 75.1681 129.775C74.7306 129.896 74.2429 129.957 73.7052 129.957H71.9688V133.859H70.6836V123.83Z" fill="#6D6969"/>
<path d="M80.2039 123.83V133.859H79.001V123.83H80.2039Z" fill="#6D6969"/>
<path d="M84.3399 132.895C84.7136 132.895 85.0326 132.816 85.297 132.657C85.5613 132.498 85.7755 132.317 85.9396 132.112C86.1036 131.897 86.2221 131.692 86.295 131.496C86.368 131.291 86.4044 131.146 86.4044 131.063V130.531H85.2013C84.4812 130.531 83.9571 130.638 83.629 130.853C83.3099 131.058 83.1504 131.37 83.1504 131.79C83.1504 132.116 83.2461 132.382 83.4375 132.587C83.629 132.792 83.9297 132.895 84.3399 132.895ZM86.4591 132.475C86.3771 132.643 86.2723 132.82 86.1447 133.007C86.017 133.184 85.8575 133.347 85.6661 133.497C85.4747 133.646 85.2468 133.767 84.9825 133.86C84.7273 133.953 84.4265 134 84.0801 134C83.4421 134 82.9271 133.818 82.5352 133.454C82.1432 133.081 81.9473 132.55 81.9473 131.86C81.9473 131.067 82.2162 130.485 82.7539 130.112C83.3008 129.739 84.0756 129.552 85.0782 129.552H86.4044V128.951C86.4044 128.447 86.2768 128.088 86.0216 127.874C85.7664 127.659 85.3289 127.552 84.7091 127.552C84.2716 127.552 83.8568 127.626 83.4649 127.776C83.073 127.915 82.722 128.079 82.4121 128.265V127.16C82.6673 127.001 83.0091 126.848 83.4375 126.698C83.8751 126.54 84.3536 126.461 84.8731 126.461C85.7664 126.461 86.4454 126.652 86.9103 127.034C87.3752 127.407 87.6076 127.99 87.6076 128.783V132.685C87.6076 132.769 87.6076 132.867 87.6076 132.979C87.6167 133.081 87.6213 133.189 87.6213 133.301C87.6304 133.412 87.6395 133.52 87.6486 133.622C87.6577 133.715 87.6668 133.795 87.6759 133.86H86.5822C86.5548 133.73 86.5275 133.548 86.5001 133.314C86.4819 133.072 86.4728 132.862 86.4728 132.685L86.4591 132.475Z" fill="#6D6969"/>
<path d="M93.1077 133.706C92.9619 133.79 92.7751 133.86 92.5473 133.916C92.3194 133.972 92.0779 134 91.8228 134C91.4765 134 91.1803 133.949 90.9343 133.846C90.6973 133.744 90.5014 133.608 90.3465 133.44C90.1915 133.263 90.0776 133.067 90.0047 132.853C89.9409 132.629 89.909 132.401 89.909 132.168V127.649H89.0615V126.6H89.909V125.076H91.112V126.6H93.1761V127.649H91.112V132.014C91.112 132.321 91.1849 132.545 91.3307 132.685C91.4856 132.825 91.7544 132.895 92.1372 132.895C92.4926 132.895 92.8161 132.792 93.1077 132.587V133.706Z" fill="#6D6969"/>
<path d="M96.4069 127.649V133.859H95.204V127.649H94.3428V126.6H95.204V126.418C95.204 125.56 95.4272 124.893 95.8738 124.418C96.3203 123.942 96.9309 123.704 97.7055 123.704C98.0427 123.704 98.3434 123.746 98.6077 123.83V124.949C98.5257 124.912 98.4072 124.879 98.2523 124.851C98.0974 124.823 97.9333 124.809 97.7602 124.809C97.341 124.809 97.0083 124.94 96.7623 125.201C96.5254 125.462 96.4069 125.868 96.4069 126.418V126.6H98.4573V127.649H96.4069Z" fill="#6D6969"/>
<path d="M102.65 132.895C102.969 132.895 103.26 132.844 103.525 132.741C103.798 132.629 104.035 132.466 104.235 132.252C104.436 132.028 104.591 131.748 104.7 131.412C104.81 131.076 104.864 130.68 104.864 130.223C104.864 129.766 104.81 129.37 104.7 129.034C104.591 128.699 104.436 128.424 104.235 128.209C104.035 127.985 103.798 127.822 103.525 127.719C103.26 127.608 102.969 127.552 102.65 127.552C102.33 127.552 102.039 127.608 101.774 127.719C101.51 127.822 101.278 127.985 101.077 128.209C100.886 128.424 100.735 128.699 100.626 129.034C100.517 129.37 100.462 129.766 100.462 130.223C100.462 130.68 100.517 131.076 100.626 131.412C100.735 131.748 100.886 132.028 101.077 132.252C101.278 132.466 101.51 132.629 101.774 132.741C102.039 132.844 102.33 132.895 102.65 132.895ZM102.65 134C102.166 134 101.715 133.916 101.296 133.748C100.877 133.58 100.512 133.338 100.202 133.021C99.9014 132.694 99.6644 132.298 99.4912 131.832C99.318 131.366 99.2314 130.829 99.2314 130.223C99.2314 129.627 99.318 129.095 99.4912 128.629C99.6644 128.153 99.9014 127.757 100.202 127.44C100.512 127.123 100.877 126.88 101.296 126.713C101.715 126.545 102.166 126.461 102.65 126.461C103.142 126.461 103.597 126.545 104.017 126.713C104.436 126.88 104.796 127.123 105.097 127.44C105.407 127.757 105.648 128.153 105.821 128.629C106.004 129.095 106.095 129.627 106.095 130.223C106.095 130.829 106.004 131.366 105.821 131.832C105.648 132.298 105.407 132.694 105.097 133.021C104.796 133.338 104.436 133.58 104.017 133.748C103.597 133.916 103.142 134 102.65 134Z" fill="#6D6969"/>
<path d="M111.211 127.831C110.701 127.877 110.236 128.013 109.817 128.236C109.407 128.451 109.102 128.786 108.901 129.243V133.859H107.698V126.6H108.751L108.874 128.181H108.901C109.102 127.751 109.389 127.378 109.762 127.062C110.145 126.735 110.628 126.534 111.211 126.46V127.831Z" fill="#6D6969"/>
<path d="M114.018 133.859H112.814V126.6H113.867L113.99 127.901H114.018C114.209 127.49 114.496 127.15 114.879 126.879C115.262 126.6 115.763 126.46 116.383 126.46C116.93 126.46 117.376 126.595 117.723 126.866C118.078 127.127 118.315 127.523 118.434 128.055C118.634 127.56 118.94 127.173 119.35 126.894C119.769 126.604 120.275 126.46 120.867 126.46C121.524 126.46 122.043 126.651 122.426 127.034C122.809 127.407 123 127.985 123 128.768V133.859H121.783V128.922C121.783 128.446 121.67 128.101 121.442 127.887C121.214 127.663 120.904 127.551 120.512 127.551C120.248 127.551 120.015 127.593 119.815 127.677C119.614 127.751 119.436 127.859 119.281 127.998C119.126 128.138 118.985 128.301 118.858 128.488C118.73 128.674 118.611 128.87 118.502 129.076V133.859H117.299V128.782C117.299 128.316 117.185 127.994 116.957 127.817C116.729 127.64 116.419 127.551 116.027 127.551C115.772 127.551 115.544 127.584 115.344 127.649C115.143 127.714 114.961 127.807 114.797 127.928C114.642 128.05 114.501 128.199 114.373 128.376C114.245 128.544 114.127 128.731 114.018 128.936V133.859Z" fill="#6D6969"/>
<path fill-rule="evenodd" clip-rule="evenodd" d="M86.5602 44.2648L81.5368 45.2507C77.2544 46.0719 75.2777 48.0432 74.4543 52.3143C74.2627 53.2692 74.0964 54.1743 73.9349 55.0497C73.8883 55.304 73.842 55.5557 73.7959 55.8047C73.6721 56.462 73.5488 57.1191 73.4249 57.7352L78.4075 56.7493C82.6895 55.9281 84.7073 53.9568 85.5308 49.6857C85.7115 48.7841 85.8784 47.8799 86.0453 46.9757C86.2126 46.0715 86.3794 45.1673 86.5602 44.2648ZM105 51C105 64.7917 93.7915 76 79.9997 76C66.2084 76 55 64.7917 55 51C55 37.2083 66.2084 26 79.9997 26C93.7915 26 105 37.2083 105 51ZM79.9997 30.4167C68.625 30.4167 59.4165 39.6248 59.4165 51C59.4165 58.7131 63.6505 65.43 69.9229 68.9555C68.3984 66.9393 67.8472 64.042 68.5254 60.117C68.6707 59.3181 68.8452 58.3766 69.0394 57.3264C69.1748 56.5943 69.3201 55.8095 69.4722 54.9835C69.5318 54.6732 69.5955 54.3532 69.6601 54.0251C69.818 53.2239 69.9849 52.3792 70.1311 51.534C71.2842 45.4558 74.6194 42.0884 80.6721 40.9795L87.3527 39.6652C87.7357 36.462 87.4227 34.2444 86.3112 32.8892C85.1993 31.534 82.9765 30.4167 79.9997 30.4167ZM100.583 51C100.583 62.3752 91.3749 71.5833 79.9997 71.5833C77.0234 71.5833 74.8006 70.466 73.6886 69.1108C72.5768 67.7556 72.2642 65.538 72.6468 62.3348L79.2718 61.0205C85.3249 59.9116 88.6601 56.5442 89.854 50.5073C90.0003 49.6622 90.1671 48.8169 90.325 48.0161C90.39 47.6881 90.4532 47.3676 90.513 47.0574C90.6932 46.0777 90.8677 45.1464 91.0273 44.2924C91.1956 43.3926 91.3476 42.5785 91.4746 41.883C92.1522 37.958 91.6014 35.0607 90.077 33.0445C96.3495 36.57 100.583 43.2869 100.583 51Z" fill="#6D6969"/>
</svg>
