<svg width="160" height="160" viewBox="0 0 160 160" fill="none" xmlns="http://www.w3.org/2000/svg">
<g clip-path="url(#clip0_1_130993)">
<rect x="0.5" y="0.5" width="159" height="159" fill="#F8F7F7" stroke="#ECEAEA"/>
<path d="M23.7103 101.034C39.4732 101.034 49.9817 91.8201 49.9817 77.9678C49.9817 64.1154 39.4732 54.902 23.7103 54.902H5V101.034H23.7103ZM18.0716 65.1463H23.7103C31.3995 65.1463 36.4616 70.1718 36.4616 77.9678C36.4616 85.7638 31.3995 90.7893 23.7103 90.7893H18.0716V65.1463Z" fill="#ECEAEA"/>
<path d="M71.8999 101.871C80.358 101.871 87.1501 98.0698 88.8161 91.8201L78.4997 89.9517C77.4745 92.0779 75.4241 93.5597 72.5406 93.5597C68.9523 93.5597 66.5174 91.3047 65.7485 87.6966H89.9054C90.0335 87.0523 90.0976 85.3772 90.0976 84.4107C90.0976 73.7799 82.921 66.9503 72.028 66.9503C61.0709 66.9503 53.3818 73.7154 53.3818 84.2819C53.3818 94.9772 60.9428 101.871 71.8999 101.871ZM65.6204 81.2537C66.2611 77.5812 68.4397 75.2617 71.7717 75.2617C75.1678 75.2617 77.6667 77.9678 77.9871 81.2537H65.6204Z" fill="#ECEAEA"/>
<path d="M118.596 101.034L129.489 67.7879H116.737L110.138 91.047H109.497L102.897 67.7879H90.2097L101.103 101.034H118.596Z" fill="#ECEAEA"/>
<path d="M157.305 102C172.62 102 183 92.6577 183 77.9678C183 63.2779 172.62 54 157.305 54C141.927 54 131.547 63.2779 131.547 77.9678C131.547 92.6577 141.927 102 157.305 102ZM157.305 90.8537C150.065 90.8537 145.067 85.7638 145.067 77.9678C145.067 70.2362 150.065 65.0819 157.305 65.0819C164.546 65.0819 169.48 70.2362 169.48 77.9678C169.48 85.7638 164.546 90.8537 157.305 90.8537Z" fill="#ECEAEA"/>
</g>
<defs>
<clipPath id="clip0_1_130993">
<rect width="160" height="160" fill="white"/>
</clipPath>
</defs>
</svg>
