<svg width="160" height="160" viewBox="0 0 160 160" fill="none" xmlns="http://www.w3.org/2000/svg">
<g clip-path="url(#clip0_1_130995)">
<rect x="0.5" y="0.5" width="159" height="159" fill="#F8F7F7" stroke="#ECEAEA"/>
<path d="M34.4505 101.178V85.747L50.008 55.8972H35.795L27.9842 74.1107H27.344L19.021 55.8972H5L20.9417 85.747V101.178H34.4505Z" fill="#ECEAEA"/>
<path d="M58.1914 102C62.9931 102 66.0022 100.04 68.371 96.3715H69.0113V101.178H80.9835V68.5455H69.0113V73.4783H68.371C66.0022 69.8735 62.9931 67.7233 58.1914 67.7233C49.4843 67.7233 43.5942 74.4901 43.5942 84.8617C43.5942 95.3597 49.3563 102 58.1914 102ZM62.2889 92.0711C58.3835 92.0711 55.6305 89.0356 55.6305 84.8617C55.6305 80.6877 58.3835 77.6522 62.2889 77.6522C66.1943 77.6522 68.9472 80.6877 68.9472 84.8617C68.9472 89.0356 66.1943 92.0711 62.2889 92.0711Z" fill="#ECEAEA"/>
<path d="M98.6773 101.178V83.2174C98.6773 79.9921 100.854 77.7154 103.671 77.7154C106.488 77.7154 108.281 79.8656 108.281 83.0277V101.178H120.253V80.8142C120.253 73.2885 115.451 67.7866 108.601 67.7866C104.695 67.7866 101.942 69.5573 99.3176 73.3518H98.6773V68.5455H86.7051V101.178H98.6773Z" fill="#ECEAEA"/>
<path d="M138.848 102C143.138 102 146.211 100.356 148.388 97.3834H149.028V101.178H161V54H149.028V72.3399H148.388C146.211 69.3676 143.01 67.7233 138.784 67.7233C130.141 67.7233 124.187 74.4901 124.187 84.8617C124.187 95.3597 130.077 102 138.848 102ZM142.882 92.0711C138.976 92.0711 136.223 88.9723 136.223 84.8617C136.223 80.751 138.976 77.6522 142.882 77.6522C146.723 77.6522 149.54 80.751 149.54 84.8617C149.54 88.9723 146.723 92.0711 142.882 92.0711Z" fill="#ECEAEA"/>
</g>
<defs>
<clipPath id="clip0_1_130995">
<rect width="160" height="160" fill="white"/>
</clipPath>
</defs>
</svg>
