<svg width="160" height="160" viewBox="0 0 160 160" fill="none" xmlns="http://www.w3.org/2000/svg">
<rect x="0.5" y="0.5" width="159" height="159" fill="#F8F7F7" stroke="#ECEAEA"/>
<path d="M18.5515 100.162V84.9465H21.827L33.259 100.162H48.3519L34.8004 83.915L35.3142 83.786C41.9936 82.561 46.8747 77.2743 46.8747 69.7311C46.8747 60.3182 39.4246 54 28.1852 54H5V100.162H18.5515ZM18.5515 63.7997H25.8089C30.112 63.7997 33.3232 66.1207 33.3232 69.9246C33.3232 73.7929 30.112 76.1139 25.8089 76.1139H18.5515V63.7997Z" fill="#ECEAEA"/>
<path d="M68.2947 101C79.6626 101 86.9842 94.4239 86.9842 83.5281C86.9842 72.6968 79.6626 66.0562 68.2947 66.0562C56.7985 66.0562 49.541 72.6324 49.541 83.5281C49.541 94.3594 56.8627 101 68.2947 101ZM68.2947 90.8779C64.3128 90.8779 61.6153 87.8477 61.6153 83.5281C61.6153 79.2085 64.3128 76.1783 68.2947 76.1783C72.2125 76.1783 74.9741 79.2085 74.9741 83.5281C74.9741 87.8477 72.2125 90.8779 68.2947 90.8779Z" fill="#ECEAEA"/>
<path d="M109 101C120.368 101 127.689 94.4239 127.689 83.5281C127.689 72.6968 120.368 66.0562 109 66.0562C97.5036 66.0562 90.2461 72.6324 90.2461 83.5281C90.2461 94.3594 97.5678 101 109 101ZM109 90.8779C105.018 90.8779 102.32 87.8477 102.32 83.5281C102.32 79.2085 105.018 76.1783 109 76.1783C112.918 76.1783 115.679 79.2085 115.679 83.5281C115.679 87.8477 112.918 90.8779 109 90.8779Z" fill="#ECEAEA"/>
<path d="M145.743 101C147.798 101 150.881 100.613 153 99.8395V91.4582C151.972 91.716 150.688 91.9095 149.789 91.9095C147.412 91.9095 145.871 90.1687 145.871 87.5899V75.4691H152.807V66.8944H145.871V56.5144H136.43L134.246 66.8944H129.558V75.4691H133.797V88.1701C133.797 95.8423 138.485 101 145.743 101Z" fill="#ECEAEA"/>
</svg>
