<svg width="160" height="160" viewBox="0 0 160 160" fill="none" xmlns="http://www.w3.org/2000/svg">
<g clip-path="url(#clip0_1_130994)">
<rect x="0.5" y="0.5" width="159" height="159" fill="#F8F7F7" stroke="#ECEAEA"/>
<path d="M18.5144 103.158V56.785H5V103.158H18.5144Z" fill="#ECEAEA"/>
<path d="M36.9731 103.158V84.7642C36.9731 81.4611 39.1508 79.1295 41.969 79.1295C44.7871 79.1295 46.5805 81.3316 46.5805 84.5699V103.158H58.5578V82.3031C58.5578 74.5959 53.7541 68.9611 46.9008 68.9611C42.9938 68.9611 40.2396 70.7746 37.6136 74.6606H36.9731V69.7383H24.9959V103.158H36.9731Z" fill="#ECEAEA"/>
<path d="M78.5056 103.158V78.3523H85.4229V69.7383H78.5056V67.5363C78.5056 65.5285 80.0428 64.1684 82.4126 64.1684C83.3734 64.1684 84.4622 64.3627 85.4229 64.557V55.1658C83.2453 54.4534 80.6192 54 78.1854 54C71.204 54 66.5284 59.3756 66.5284 67.4067V69.7383H62.3011V78.3523H66.5284V103.158H78.5056Z" fill="#ECEAEA"/>
<path d="M101.523 103.158V86.5777C101.523 82.2383 104.085 79.3238 107.736 79.3238C109.273 79.3238 111.579 79.842 113.5 80.6839V69.9326C112.475 69.4145 111.13 69.0907 109.849 69.0907C106.519 69.0907 103.572 71.1632 102.163 74.4663H101.459V69.7383H89.5456V103.158H101.523Z" fill="#ECEAEA"/>
<path d="M130.198 104C135.002 104 138.012 101.992 140.382 98.2358H141.023V103.158H153V69.7383H141.023V74.7902H140.382C138.012 71.0984 135.002 68.8964 130.198 68.8964C121.488 68.8964 115.595 75.8264 115.595 86.4482C115.595 97.1995 121.36 104 130.198 104ZM134.298 93.8316C130.391 93.8316 127.636 90.7228 127.636 86.4482C127.636 82.1736 130.391 79.0648 134.298 79.0648C138.205 79.0648 140.959 82.1736 140.959 86.4482C140.959 90.7228 138.205 93.8316 134.298 93.8316Z" fill="#ECEAEA"/>
</g>
<defs>
<clipPath id="clip0_1_130994">
<rect width="160" height="160" fill="white"/>
</clipPath>
</defs>
</svg>
