<svg width="160" height="160" viewBox="0 0 160 160" fill="none" xmlns="http://www.w3.org/2000/svg">
<g clip-path="url(#clip0_1_130996)">
<rect x="0.5" y="0.5" width="159" height="159" fill="#F8F7F7" stroke="#ECEAEA"/>
<path d="M23.7402 100.162C39.5283 100.162 50.0536 90.9424 50.0536 77.0809C50.0536 63.2195 39.5283 54 23.7402 54H5V100.162H23.7402ZM18.0925 64.251H23.7402C31.4417 64.251 36.5118 69.2798 36.5118 77.0809C36.5118 84.882 31.4417 89.9108 23.7402 89.9108H18.0925V64.251Z" fill="#ECEAEA"/>
<path d="M68.0277 101C72.8411 101 75.8575 99.0014 78.2321 95.262H78.8739V100.162H90.8754V66.8944H78.8739V71.9232H78.2321C75.8575 68.2483 72.8411 66.0562 68.0277 66.0562C59.2994 66.0562 53.3949 72.9547 53.3949 83.5281C53.3949 94.2305 59.171 101 68.0277 101ZM72.1351 90.8779C68.2202 90.8779 65.4605 87.7833 65.4605 83.5281C65.4605 79.273 68.2202 76.1783 72.1351 76.1783C76.0501 76.1783 78.8098 79.273 78.8098 83.5281C78.8098 87.7833 76.0501 90.8779 72.1351 90.8779Z" fill="#ECEAEA"/>
<path d="M110.794 101C112.848 101 115.929 100.613 118.047 99.8395V91.4582C117.02 91.716 115.736 91.9095 114.838 91.9095C112.463 91.9095 110.923 90.1687 110.923 87.5899V75.4691H117.854V66.8944H110.923V56.5144H101.488L99.3064 66.8944H94.6213V75.4691H98.8571V88.1701C98.8571 95.8423 103.542 101 110.794 101Z" fill="#ECEAEA"/>
<path d="M135.152 101C139.966 101 142.982 99.0014 145.357 95.262H145.999V100.162H158V66.8944H145.999V71.9232H145.357C142.982 68.2483 139.966 66.0562 135.152 66.0562C126.424 66.0562 120.52 72.9547 120.52 83.5281C120.52 94.2305 126.296 101 135.152 101ZM139.26 90.8779C135.345 90.8779 132.585 87.7833 132.585 83.5281C132.585 79.273 135.345 76.1783 139.26 76.1783C143.175 76.1783 145.934 79.273 145.934 83.5281C145.934 87.7833 143.175 90.8779 139.26 90.8779Z" fill="#ECEAEA"/>
</g>
<defs>
<clipPath id="clip0_1_130996">
<rect width="160" height="160" fill="white"/>
</clipPath>
</defs>
</svg>
