<svg width="160" height="160" viewBox="0 0 160 160" fill="none" xmlns="http://www.w3.org/2000/svg">
<g clip-path="url(#clip0_1_130999)">
<rect width="160" height="160" fill="#363636"/>
<path d="M134 80C134 109.822 109.822 134 80 134C50.1785 134 26 109.822 26 80C26 50.1785 50.1785 26 80 26C109.822 26 134 50.1785 134 80Z" fill="#2B2B2B"/>
<path d="M49.0934 76.5333C67.9664 68.2308 92.3879 58.1085 95.7602 56.7072C104.603 53.0406 107.316 53.7426 105.964 61.8642C104.992 67.7016 102.189 87.0255 99.9533 99.054C98.6276 106.187 95.6522 107.032 90.9758 103.946C88.7267 102.461 77.3732 94.9527 74.9081 93.1896C72.659 91.5831 69.5567 89.6499 73.4474 85.8429C74.8325 84.4875 83.9072 75.8205 90.9785 69.0759C91.9046 68.1903 90.7409 66.735 89.6717 67.4451C80.1407 73.7658 66.9269 82.5381 65.2448 83.6802C62.7041 85.4055 60.2633 86.1966 55.8839 84.9384C52.5737 83.988 49.3418 82.854 48.0836 82.422C43.2371 80.7588 44.3873 78.6042 49.0934 76.5333Z" fill="#363636"/>
</g>
<defs>
<clipPath id="clip0_1_130999">
<rect width="160" height="160" fill="white"/>
</clipPath>
</defs>
</svg>
