<svg width="160" height="160" viewBox="0 0 160 160" fill="none" xmlns="http://www.w3.org/2000/svg">
<g clip-path="url(#clip0_1_131002)">
<rect width="160" height="160" fill="#363636"/>
<path d="M105 80C105 93.8063 93.8063 105 80 105C66.1938 105 55 93.8063 55 80C55 66.1938 66.1938 55 80 55C93.8063 55 105 66.1938 105 80Z" fill="#363636"/>
<path d="M132.319 57.6641C132.319 48.2894 125.465 40.7479 116.997 40.7479C105.526 40.2083 93.827 40 81.8715 40H78.1444C66.2179 40 54.4985 40.2083 43.0275 40.75C34.5796 40.75 27.726 48.3331 27.726 57.7079C27.2083 65.1222 26.9888 72.5387 27.0013 79.9552C26.9806 87.3716 27.2152 94.795 27.7053 102.225C27.7053 111.6 34.5589 119.204 43.0068 119.204C55.0575 119.767 67.4189 120.017 79.9872 119.996C92.5763 120.037 104.903 119.774 116.968 119.204C125.436 119.204 132.29 111.6 132.29 102.225C132.787 94.7881 133.015 87.3716 132.994 79.9343C133.041 72.5179 132.816 65.0945 132.319 57.6641ZM69.8621 100.392V59.4557L99.8855 79.9135L69.8621 100.392Z" fill="#2B2B2B"/>
</g>
<defs>
<clipPath id="clip0_1_131002">
<rect width="160" height="160" fill="white"/>
</clipPath>
</defs>
</svg>
