<svg width="160" height="160" viewBox="0 0 160 160" fill="none" xmlns="http://www.w3.org/2000/svg">
<g clip-path="url(#clip0_1_131000)">
<rect width="160" height="160" fill="#363636"/>
<path d="M20.4334 102.214L29.3348 85.5H29.9752L38.9406 102.214H54.6302L39.6451 77.9143L54.4381 56.1857H38.7485L29.9752 70.8429H29.3348L20.6255 56.1857H5.25616L19.2807 77.9143L5 102.214H20.4334Z" fill="#2B2B2B"/>
<path d="M68.0083 103.05C72.8112 103.05 75.8211 101.057 78.1905 97.3286H78.8309V102.214H90.8062V69.0429H78.8309V74.0571H78.1905C75.8211 70.3929 72.8112 68.2071 68.0083 68.2071C59.299 68.2071 53.4074 75.0857 53.4074 85.6286C53.4074 96.3 59.1709 103.05 68.0083 103.05ZM72.1068 92.9571C68.2004 92.9571 65.4467 89.8714 65.4467 85.6286C65.4467 81.3857 68.2004 78.3 72.1068 78.3C76.0132 78.3 78.7668 81.3857 78.7668 85.6286C78.7668 89.8714 76.0132 92.9571 72.1068 92.9571Z" fill="#2B2B2B"/>
<path d="M113.435 103.114C123.938 103.114 130.982 96.6214 130.982 86.9786C130.982 77.5929 124.898 71.0357 115.549 71.0357C111.706 71.0357 109.081 72.1929 106.967 74.6357H106.327C106.519 68.9143 109.209 66.6 116.509 66.0857C125.731 65.3143 130.021 61.5857 130.021 54H119.903C119.903 56.6357 118.11 57.7286 113.307 58.1786C100.884 59.2714 95.8887 66.15 95.8887 82.6714C95.8887 95.7214 102.293 103.114 113.435 103.114ZM113.435 93.0214C110.105 93.0214 107.736 90.45 107.736 86.7857C107.736 83.0571 110.105 80.6786 113.435 80.6786C116.765 80.6786 118.943 83.1214 118.943 86.7857C118.943 90.45 116.765 93.0214 113.435 93.0214Z" fill="#2B2B2B"/>
<path d="M157.335 68.2071C153.044 68.2071 149.971 69.8786 147.793 72.9H147.153V69.0429H135.178V117H147.153V98.3571H147.793C149.971 101.379 153.173 103.05 157.399 103.05C166.044 103.05 172 96.1714 172 85.6286C172 74.9571 166.108 68.2071 157.335 68.2071ZM153.301 78.3C157.207 78.3 159.961 81.45 159.961 85.6286C159.961 89.8071 157.207 92.9571 153.301 92.9571C149.458 92.9571 146.641 89.8071 146.641 85.6286C146.641 81.45 149.458 78.3 153.301 78.3Z" fill="#2B2B2B"/>
</g>
<defs>
<clipPath id="clip0_1_131000">
<rect width="160" height="160" fill="white"/>
</clipPath>
</defs>
</svg>
