<svg width="160" height="160" viewBox="0 0 160 160" fill="none" xmlns="http://www.w3.org/2000/svg">
<g clip-path="url(#clip0_1_131001)">
<rect width="160" height="160" fill="#363636"/>
<path d="M39.5434 99.1797L53.1048 54H39.1596L29.3723 89.3992H28.7326L18.8173 54H5L18.4975 99.1797H39.5434Z" fill="#2B2B2B"/>
<path d="M68.4819 100C77.8854 100 84.7941 95.1413 85.8816 87.0014L74.8149 85.6763C74.1752 88.5158 71.6164 90.535 68.6099 90.535C64.8357 90.535 62.085 87.38 62.085 82.8999C62.085 78.4198 64.8997 75.2647 68.6738 75.2647C71.5525 75.2647 74.1752 77.284 74.8149 80.1866L85.8816 78.7984C84.8581 70.6584 77.9494 65.7997 68.4819 65.7997C57.4792 65.7997 50.1228 72.4252 50.1228 82.8999C50.1228 93.2483 57.6711 100 68.4819 100Z" fill="#2B2B2B"/>
<path d="M95.1321 99.8738C99.0342 99.8738 101.849 97.2236 101.849 93.5007C101.849 89.7778 99.0342 87.1276 95.1321 87.1276C91.23 87.1276 88.4153 89.7778 88.4153 93.5007C88.4153 97.2236 91.23 99.8738 95.1321 99.8738Z" fill="#2B2B2B"/>
<path d="M118.027 99.1797V83.0261C118.027 78.7984 120.586 75.9588 124.232 75.9588C125.767 75.9588 128.07 76.4636 129.989 77.284V66.8093C128.966 66.3045 127.622 65.989 126.343 65.989C123.017 65.989 120.074 68.0082 118.667 71.2263H117.963V66.62H106.065V99.1797H118.027Z" fill="#2B2B2B"/>
<path d="M155.038 66.62V84.5405C155.038 87.8217 152.863 90.0933 150.048 90.0933C147.234 90.0933 145.442 87.8848 145.442 84.7298V66.62H133.48V86.9383C133.48 94.5103 138.278 99.9369 145.123 99.9369C149.025 99.9369 151.775 98.2332 154.398 94.3841H155.038V99.1797H167V66.62H155.038Z" fill="#2B2B2B"/>
</g>
<defs>
<clipPath id="clip0_1_131001">
<rect width="160" height="160" fill="white"/>
</clipPath>
</defs>
</svg>
