<svg width="180" height="180" viewBox="0 0 180 180" fill="none" xmlns="http://www.w3.org/2000/svg">
<g clip-path="url(#clip0_1_128919)">
<path fill-rule="evenodd" clip-rule="evenodd" d="M150.75 22.5H30.7505C22.5005 22.5 15.7505 29.25 15.7505 37.5V142.5C15.7505 150.75 22.5005 157.5 30.7505 157.5H150.75C159 157.5 165.75 150.75 165.75 142.5V37.5C165.75 29.25 159 22.5 150.75 22.5ZM75.7505 127.5H38.2505V112.5H75.7505V127.5ZM75.7505 97.5H38.2505V82.5H75.7505V97.5ZM75.7505 67.5H38.2505V52.5H75.7505V67.5ZM111.9 112.5L90.7505 91.2L101.325 80.625L111.9 91.275L135.675 67.5L146.325 78.15L111.9 112.5Z" fill="#363636"/>
</g>
<defs>
<clipPath id="clip0_1_128919">
<rect width="180" height="180" fill="white"/>
</clipPath>
</defs>
</svg>
