<svg width="180" height="180" viewBox="0 0 180 180" fill="none" xmlns="http://www.w3.org/2000/svg">
<path d="M48.75 71.25H71.25C73.375 71.25 75.1575 70.53 76.5975 69.09C78.0325 67.655 78.75 65.875 78.75 63.75C78.75 61.625 78.0325 59.8425 76.5975 58.4025C75.1575 56.9675 73.375 56.25 71.25 56.25H48.75C46.625 56.25 44.8425 56.9675 43.4025 58.4025C41.9675 59.8425 41.25 61.625 41.25 63.75C41.25 65.875 41.9675 67.655 43.4025 69.09C44.8425 70.53 46.625 71.25 48.75 71.25ZM26.25 138.75C22.125 138.75 18.595 137.283 15.66 134.348C12.72 131.408 11.25 127.875 11.25 123.75V33.75C11.25 29.625 12.72 26.095 15.66 23.16C18.595 20.22 22.125 18.75 26.25 18.75H146.25C149.5 18.75 152.438 19.7175 155.062 21.6525C157.688 23.5925 159.5 26.0625 160.5 29.0625C158.375 28.0625 156.095 27.345 153.66 26.91C151.22 26.47 148.75 26.25 146.25 26.25C135.875 26.25 127.03 29.9075 119.715 37.2225C112.405 44.5325 108.75 53.375 108.75 63.75C108.75 66.5 109 69.125 109.5 71.625C110 74.125 110.75 76.5 111.75 78.75H101.25C95 78.75 89.6875 80.9375 85.3125 85.3125C80.9375 89.6875 78.75 95 78.75 101.25V108.75C74 112.125 70.3125 116.405 67.6875 121.59C65.0625 126.78 63.75 132.5 63.75 138.75H26.25ZM101.25 146.25C103.375 146.25 105.158 145.53 106.598 144.09C108.033 142.655 108.75 140.875 108.75 138.75C108.75 136.625 108.033 134.845 106.598 133.41C105.158 131.97 103.375 131.25 101.25 131.25C99.125 131.25 97.345 131.97 95.91 133.41C94.47 134.845 93.75 136.625 93.75 138.75C93.75 140.875 94.47 142.655 95.91 144.09C97.345 145.53 99.125 146.25 101.25 146.25ZM146.25 71.25C148.375 71.25 150.155 70.53 151.59 69.09C153.03 67.655 153.75 65.875 153.75 63.75C153.75 61.625 153.03 59.8425 151.59 58.4025C150.155 56.9675 148.375 56.25 146.25 56.25C144.125 56.25 142.345 56.9675 140.91 58.4025C139.47 59.8425 138.75 61.625 138.75 63.75C138.75 65.875 139.47 67.655 140.91 69.09C142.345 70.53 144.125 71.25 146.25 71.25ZM101.25 161.25C95 161.25 89.6875 159.062 85.3125 154.688C80.9375 150.312 78.75 145 78.75 138.75C78.75 133.875 80.155 129.5 82.965 125.625C85.78 121.75 89.375 119.062 93.75 117.562V101.25C93.75 99.125 94.47 97.3425 95.91 95.9025C97.345 94.4675 99.125 93.75 101.25 93.75H138.75V84.9375C134.375 83.4375 130.78 80.75 127.965 76.875C125.155 73 123.75 68.625 123.75 63.75C123.75 57.5 125.938 52.1875 130.312 47.8125C134.688 43.4375 140 41.25 146.25 41.25C152.5 41.25 157.812 43.4375 162.188 47.8125C166.562 52.1875 168.75 57.5 168.75 63.75C168.75 68.625 167.345 73 164.535 76.875C161.72 80.75 158.125 83.4375 153.75 84.9375V101.25C153.75 103.375 153.03 105.155 151.59 106.59C150.155 108.03 148.375 108.75 146.25 108.75H108.75V117.562C113.125 119.062 116.72 121.75 119.535 125.625C122.345 129.5 123.75 133.875 123.75 138.75C123.75 145 121.562 150.312 117.188 154.688C112.812 159.062 107.5 161.25 101.25 161.25ZM71.25 101.25C73.375 101.25 75.1575 100.53 76.5975 99.09C78.0325 97.655 78.75 95.875 78.75 93.75C78.75 91.625 78.0325 89.8425 76.5975 88.4025C75.1575 86.9675 73.375 86.25 71.25 86.25H48.75C46.625 86.25 44.8425 86.9675 43.4025 88.4025C41.9675 89.8425 41.25 91.625 41.25 93.75C41.25 95.875 41.9675 97.655 43.4025 99.09C44.8425 100.53 46.625 101.25 48.75 101.25H71.25Z" fill="#363636"/>
</svg>
