<svg width="180" height="180" viewBox="0 0 180 180" fill="none" xmlns="http://www.w3.org/2000/svg">
<path d="M120.483 15C119.516 15 118.706 15.7246 118.594 16.6846L117.715 24.2725C114.085 25.5323 110.804 27.4485 107.959 29.9121L100.928 26.8799C100.043 26.4974 99.0201 26.8309 98.5401 27.6709L91.5089 39.8291C91.0213 40.6616 91.249 41.7272 92.0215 42.3047L98.086 46.8018C97.7303 48.6488 97.5001 50.5492 97.5001 52.5C97.5001 54.4508 97.7303 56.3512 98.086 58.1982L92.0215 62.6953C91.249 63.2653 91.0288 64.3309 91.5089 65.1709L98.5401 77.3291C99.0201 78.1691 100.043 78.5173 100.928 78.1348L107.959 75.0879C110.804 77.5515 114.085 79.4677 117.715 80.7275L118.594 88.3154C118.706 89.2754 119.516 90 120.483 90H134.517C135.484 90 136.294 89.2754 136.406 88.3154L137.285 80.7275C140.919 79.4665 144.209 77.555 147.056 75.0879L154.072 78.1055C154.957 78.488 155.98 78.1545 156.46 77.3145L163.491 65.1562C163.979 64.3237 163.751 63.2582 162.979 62.6807L156.929 58.1836C157.283 56.3414 157.5 54.4453 157.5 52.5C157.5 50.5492 157.27 48.6488 156.914 46.8018L162.979 42.3047C163.751 41.7347 163.971 40.6691 163.491 39.8291L156.46 27.6709C155.98 26.8309 154.957 26.4827 154.072 26.8652L147.041 29.9121C144.196 27.4485 140.915 25.5323 137.285 24.2725L136.406 16.6846C136.294 15.7246 135.484 15 134.517 15H120.483ZM127.5 39.375C134.745 39.375 140.625 45.255 140.625 52.5C140.625 59.7525 134.745 65.625 127.5 65.625C120.255 65.625 114.375 59.7525 114.375 52.5C114.375 45.255 120.255 39.375 127.5 39.375ZM52.9835 67.5C52.016 67.5 51.2063 68.2246 51.0938 69.1846L49.7901 80.332C43.7356 82.0545 38.2702 85.1428 33.8819 89.4141L23.6866 85.0195C22.8016 84.637 21.7789 84.9706 21.2989 85.8105L14.2676 97.9688C13.7801 98.8012 14.0078 99.8668 14.7803 100.444L23.7598 107.095C23.016 110.04 22.5001 113.074 22.5001 116.25C22.5001 119.426 23.016 122.46 23.7598 125.405L14.7803 132.07C14.0078 132.64 13.7876 133.706 14.2676 134.546L21.2989 146.704C21.7789 147.544 22.8016 147.878 23.6866 147.495L33.8819 143.086C38.2702 147.357 43.7356 150.446 49.7901 152.168L51.0938 163.315C51.2063 164.275 52.016 165 52.9835 165H67.0167C67.9842 165 68.7938 164.275 68.9063 163.315L70.21 152.168C76.2645 150.446 81.7299 147.357 86.1182 143.086L96.3135 147.48C97.1985 147.863 98.2212 147.529 98.7012 146.689L105.732 134.531C106.22 133.699 105.992 132.633 105.22 132.056L96.2403 125.405C96.9841 122.46 97.5001 119.426 97.5001 116.25C97.5001 113.074 96.9841 110.04 96.2403 107.095L105.22 100.43C105.992 99.8597 106.212 98.7941 105.732 97.9541L98.7012 85.7959C98.2212 84.9559 97.1985 84.6224 96.3135 85.0049L86.1182 89.4141C81.7299 85.1428 76.2645 82.0545 70.21 80.332L68.9063 69.1846C68.7938 68.2246 67.9842 67.5 67.0167 67.5H52.9835ZM60.0001 101.25C68.2876 101.25 75.0001 107.963 75.0001 116.25C75.0001 124.537 68.2876 131.25 60.0001 131.25C51.7126 131.25 45.0001 124.537 45.0001 116.25C45.0001 107.963 51.7126 101.25 60.0001 101.25Z" fill="#363636"/>
</svg>
