<svg width="180" height="180" viewBox="0 0 180 180" fill="none" xmlns="http://www.w3.org/2000/svg">
<path d="M156.518 58.4625L153.578 44.4225L131.768 67.5H112.5V48.225L135.585 26.31L121.508 23.415C118.568 22.8075 115.53 22.5 112.5 22.5C87.6825 22.5 67.5 42.8775 67.5 67.92C67.5 71.07 67.8825 74.2575 68.6475 77.5575L22.0425 123.33C12.6525 132.848 12.6525 148.32 22.05 157.837C26.625 162.45 32.7225 165 39.2325 165C45.735 165 51.84 162.45 56.3325 157.905L103.05 112.005C106.268 112.5 109.403 112.5 112.5 112.5C137.73 112.5 157.5 92.9175 157.5 67.92C157.5 64.755 157.17 61.5675 156.518 58.4625Z" fill="#363636"/>
</svg>
