<svg width="1440" height="320" viewBox="0 0 1440 320" fill="none" xmlns="http://www.w3.org/2000/svg">
<path d="M908.151 37.4952C891.954 57.6011 878.458 78.2508 878.458 83.1415C878.458 101.074 895.736 96.7265 931.907 70.0997C970.24 42.3858 977.257 33.1478 972.399 19.5627C970.24 13.5851 948.104 0 940.544 0C939.467 0 924.89 16.8455 908.151 37.4952Z" fill="#363636"/>
<path d="M160.429 44.5503C140.453 54.8754 133.434 63.0265 119.937 90.7403C107.52 116.824 101.041 124.975 92.4029 124.975C79.4456 124.975 74.0465 134.213 74.0465 155.406C74.0465 164.644 77.2858 168.447 84.8444 168.447C92.4029 168.447 95.6422 172.252 95.6422 181.489C95.6422 202.139 64.3285 365.161 59.4695 370.052C57.3101 372.224 45.4327 374.943 33.5549 376.031C14.6591 377.661 11.4198 379.833 4.40097 398.308C-6.39651 427.11 0.621892 432.001 48.672 432.001C94.5623 432.001 112.379 422.219 124.256 392.333C128.575 381.464 139.913 329.296 149.091 277.129C167.987 174.425 170.686 168.447 202 168.447C216.577 168.447 220.896 165.731 225.215 154.319C232.773 134.756 223.596 124.975 197.681 124.975C180.404 124.975 176.625 122.801 176.625 114.65C176.625 95.0873 192.282 85.306 218.196 89.1101C239.792 91.8269 241.952 91.2836 250.05 75.5246C260.848 53.7884 257.068 45.094 232.234 38.5731C202 29.8783 186.883 31.5085 160.429 44.5503Z" fill="#363636"/>
<path d="M679.869 44.5683C670.693 53.8064 671.771 75.5426 681.489 79.3467C692.826 83.6937 691.749 99.4527 673.39 199.983C654.497 303.774 653.416 321.163 666.912 333.118C680.411 345.073 729.001 345.617 740.339 333.662C751.677 322.794 751.677 298.883 740.878 298.883C736.019 298.883 731.16 295.623 729.54 291.819C728.459 288.016 736.019 234.761 746.818 173.356C757.613 112.495 766.792 57.6101 767.331 51.6329C767.873 41.8516 764.091 40.7646 727.382 39.1344C700.386 38.0474 684.728 39.6777 679.869 44.5683Z" fill="#363636"/>
<path d="M1044.77 41.8326C1039.91 42.9191 1034.51 50.527 1032.35 58.1348C1029.65 69.5464 1031.81 74.9804 1039.91 81.5013L1051.25 89.6524L1032.35 198.334C1022.09 258.109 1011.83 313.536 1010.21 321.688L1006.97 336.903H1042.07H1076.62L1084.18 297.234C1093.89 247.784 1103.61 245.611 1118.73 289.627C1134.93 334.729 1143.02 342.337 1174.88 342.337C1204.03 342.337 1211.59 336.36 1214.29 312.45C1215.37 299.408 1213.75 295.604 1204.57 294.517C1195.93 293.431 1191.07 286.366 1186.22 267.89L1179.2 243.437L1198.63 226.048C1222.39 204.855 1229.41 191.27 1229.41 163.556C1229.41 135.842 1211.05 119.54 1178.66 119.54C1156.52 119.54 1126.29 135.842 1114.95 153.231C1108.47 164.099 1109.55 143.45 1118.73 95.0863C1123.59 71.7199 1125.75 48.8968 1124.67 45.093C1121.97 38.0285 1066.36 35.855 1044.77 41.8326ZM1156.52 184.205C1156.52 199.964 1136.54 215.723 1111.71 220.614L1093.36 224.418L1104.69 202.138C1117.11 177.685 1129.53 167.903 1145.72 170.077C1153.28 170.62 1156.52 174.967 1156.52 184.205Z" fill="#363636"/>
<path d="M309.353 124.994C239.166 146.186 198.675 247.26 234.847 310.839C252.664 341.813 309.353 351.595 362.259 333.662L388.174 324.424L385.477 303.231C383.858 291.276 381.695 280.951 380.618 279.865C379.537 278.778 368.738 280.951 357.4 285.299C328.246 295.623 314.751 295.08 300.174 283.669C280.738 267.366 289.917 255.412 320.691 255.412C352.003 255.412 386.554 240.196 402.212 220.09C415.708 203.244 418.409 155.968 407.071 140.752C391.413 120.646 348.225 113.582 309.353 124.994ZM353.623 183.138C355.781 197.267 336.887 211.939 315.832 211.939C296.396 211.939 295.853 199.984 314.212 181.508C330.947 164.662 351.464 165.749 353.623 183.138Z" fill="#363636"/>
<path d="M453.6 124.959C439.023 130.936 430.925 156.477 441.72 163.541C446.04 166.258 450.899 168.975 453.058 169.518C455.22 170.605 453.058 196.145 448.199 226.576C443.34 257.007 441.181 290.155 443.34 301.567C448.741 328.737 471.417 342.322 513.528 342.322C595.049 342.322 637.699 283.091 634.46 176.039L632.84 127.676H603.148H573.455L570.216 177.126C566.434 229.293 563.737 241.792 550.78 270.049C544.84 283.091 538.9 287.982 529.724 287.982C522.165 287.982 515.147 284.177 513.528 279.83C511.366 274.94 514.066 245.596 519.464 214.078C524.323 183.103 527.024 151.586 525.404 144.522C520.545 123.872 481.673 113.547 453.6 124.959Z" fill="#363636"/>
<path d="M842.799 133.131C809.325 149.977 789.889 177.147 778.013 223.337C760.196 293.436 783.41 342.343 834.162 342.343C850.359 342.343 866.013 337.996 877.893 330.932L895.71 320.063L907.586 330.932C916.223 339.083 927.022 342.343 944.838 342.343C967.513 342.343 971.291 340.713 975.612 328.214C983.71 307.565 982.09 298.87 970.214 298.87C956.714 298.87 956.714 298.327 970.214 224.967C983.71 150.52 983.71 132.587 971.834 127.697C966.432 125.523 941.599 122.806 916.223 121.176C874.654 119.002 867.633 120.089 842.799 133.131ZM907.586 173.343C912.445 180.951 895.71 266.81 886.53 280.938C874.111 299.957 850.898 296.154 844.957 274.417C839.021 251.051 849.816 203.774 866.013 184.755C878.97 168.996 901.107 163.018 907.586 173.343Z" fill="#363636"/>
<path d="M1317.44 133.127C1285.05 149.43 1263.46 175.513 1253.2 210.834C1236.46 265.719 1248.88 314.626 1283.97 332.558C1314.74 348.86 1384.93 343.426 1406.53 323.864C1410.85 319.516 1411.92 310.822 1409.76 299.41C1405.99 279.848 1409.76 280.934 1360.64 291.259C1337.42 296.15 1315.82 285.281 1315.82 268.979C1315.82 255.937 1317.44 255.394 1344.44 255.394C1401.13 254.851 1440 222.79 1440 175.513C1440 159.211 1436.22 148.343 1427.04 138.018C1416.24 124.976 1409.76 122.802 1380.07 120.629C1350.92 118.999 1341.2 121.172 1317.44 133.127ZM1379.53 183.121C1381.69 197.793 1362.26 211.921 1339.04 211.921C1316.91 211.921 1316.36 204.857 1337.42 184.208C1356.32 165.188 1376.83 164.645 1379.53 183.121Z" fill="#363636"/>
</svg>
