<svg width="160" height="56" viewBox="0 0 160 56" fill="none" xmlns="http://www.w3.org/2000/svg">
<g opacity="0.5">
<path d="M32.6816 32.0078C31.8993 32.8683 30.8786 33.4784 29.7484 33.7611C28.6183 34.0437 27.4295 33.9861 26.3322 33.5956C25.2349 33.2051 24.2784 32.4991 23.5835 31.567C22.8887 30.6349 22.4867 29.5185 22.4283 28.3587C22.3699 27.199 22.6578 26.0481 23.2556 25.0514C23.8534 24.0546 24.7342 23.2569 25.7868 22.7589C26.8394 22.2609 28.0165 22.0851 29.1693 22.2536C30.3221 22.4221 31.399 22.9274 32.2637 23.7056C32.8397 24.2224 33.3076 24.8475 33.6405 25.545C33.9734 26.2425 34.1648 26.9987 34.2036 27.7701C34.2424 28.5416 34.1279 29.3131 33.8667 30.0403C33.6055 30.7675 33.2028 31.4361 32.6816 32.0078Z" fill="currentColor"/>
<path d="M29.8529 7.94081C30.3404 8.42662 30.8017 8.92111 31.2109 9.4156C32.6344 11.1081 33.807 12.9954 34.6928 15.0198C36.0899 15.2795 37.5124 15.3784 38.9321 15.3147H39.1846H39.4109C43.2894 14.9616 46.9094 13.224 49.6044 10.4219L49.9613 10.0576C49.4216 9.4156 48.8731 8.79098 48.2725 8.19239C43.4782 3.43133 37.125 0.548469 30.3738 0.0706169C23.6226 -0.407235 16.9243 1.55184 11.5029 5.58982C20.1208 1.40836 26.1011 4.28854 29.8529 7.94081Z" fill="currentColor"/>
<path d="M9.90099 36.4475C10.0751 35.7795 10.2753 35.1375 10.4929 34.5389C11.2562 32.4661 12.3114 30.512 13.6267 28.7352C13.1559 27.4008 12.5307 26.1257 11.7638 24.9355L11.6246 24.7186L11.494 24.5364C9.26051 21.3963 5.97117 19.1586 2.22325 18.2295L1.72707 18.082C1.43981 18.8628 1.17866 19.6522 0.952335 20.4677C-0.791808 26.9838 -0.12544 33.9078 2.8297 39.9747C5.78485 46.0416 10.8315 50.8465 17.0477 53.5116C9.08273 48.133 8.58655 41.5051 9.90099 36.4475Z" fill="currentColor"/>
<path d="M44.7296 39.4575C44.0593 39.6397 43.3977 39.7872 42.7623 39.9C40.5803 40.2765 38.3555 40.3408 36.1552 40.0908C35.2345 41.1528 34.44 42.3172 33.7875 43.5609C33.7875 43.639 33.7092 43.7084 33.6743 43.7865C33.6389 43.8542 33.6069 43.9237 33.5786 43.9947C31.9498 47.4938 31.6407 51.4607 32.7081 55.1684C32.7081 55.3332 32.8039 55.498 32.8561 55.6629C33.6743 55.5154 34.5013 55.3592 35.3196 55.1423C41.8424 53.3833 47.5147 49.3488 51.3043 43.7731C55.0938 38.1973 56.7487 31.451 55.9676 24.7617C55.2712 34.3305 49.761 38.0608 44.7296 39.4575Z" fill="currentColor"/>
<path d="M11.4594 5.5882C7.33247 8.46174 4.10621 12.441 2.15381 17.0655C5.0567 17.6764 7.74591 19.0413 9.94883 21.0218C12.1517 23.0024 13.79 25.5283 14.6976 28.3433C15.4723 27.8488 17.8575 25.9663 19.4592 20.7959C21.4004 14.541 25.0739 9.92581 29.8529 7.91316C29.8529 7.93919 23.8029 -0.64061 11.4594 5.5882Z" fill="currentColor"/>
<path d="M30.8364 50.6206C30.833 46.4293 32.408 42.3892 35.2498 39.2995L35.2933 39.2387C34.7101 38.6228 32.6819 37.1133 27.4589 38.2931C21.0956 39.7419 14.0272 39.5771 9.90109 36.4453C9.90109 36.4453 5.46158 45.9881 17.0478 53.4921C21.6012 55.6179 26.6656 56.415 31.6547 55.7911C31.0991 54.124 30.8226 52.3772 30.8364 50.6206Z" fill="currentColor"/>
<path d="M50.6489 10.9922C49.0903 12.7576 47.1729 14.1726 45.0238 15.1433C42.8747 16.1139 40.543 16.6181 38.1835 16.6224C36.9402 16.618 35.7006 16.4872 34.4839 16.232H34.423C34.1792 17.0995 33.9877 19.572 37.5132 23.3544C41.9788 28.1605 45.3477 34.3372 44.7296 39.4643C44.7296 39.4643 55.1755 38.536 55.9676 24.7684C55.5363 19.7678 53.6922 14.9913 50.6489 10.9922Z" fill="currentColor"/>
<path d="M68.9638 35.1796H66.0303V21.5508H70.7396C74.2216 21.5508 76.3456 22.9735 76.3456 26.1053C76.3456 29.237 74.1171 30.92 70.4959 30.92H68.9638V35.1796ZM68.9029 28.3435H70.4959C72.2369 28.3435 73.3076 27.6668 73.3076 26.2267C73.3076 24.7866 72.3239 24.1273 70.4959 24.1273H68.9029V28.3435Z" fill="currentColor"/>
<path d="M78.4785 28.3694C78.4785 23.7888 81.2728 21.3164 85.042 21.3164C89.2639 21.3164 91.71 23.9884 91.71 28.3694C91.71 33.2188 88.8722 35.4136 85.1204 35.4136C81.1596 35.4136 78.4785 32.9759 78.4785 28.3694ZM88.6023 28.3694C88.6023 25.2723 87.1747 23.8929 85.042 23.8929C83.1095 23.8929 81.5601 25.333 81.5601 28.3694C81.5601 31.4057 83.1444 32.8458 85.1987 32.8458C87.2531 32.8458 88.6023 31.423 88.6023 28.3694Z" fill="currentColor"/>
<path d="M104.75 34.6352C103.608 35.217 102.331 35.4864 101.05 35.416C96.872 35.416 94.0864 33.0216 94.0864 28.5452C94.0864 23.8519 96.8372 21.3187 101.312 21.3187C102.504 21.2912 103.69 21.5098 104.793 21.9607L104.149 24.4158C103.378 24.1652 102.575 24.0279 101.764 24.008C99.0656 24.008 97.2289 25.3527 97.2289 28.3456C97.2289 31.2258 98.9699 32.6833 101.747 32.6833C102.578 32.6565 103.398 32.4802 104.167 32.1627L104.75 34.6352Z" fill="currentColor"/>
<path d="M115.474 31.5446H109.668L108.345 35.1796H106.604L111.827 21.5508H113.568L118.686 35.1796H116.85L115.474 31.5446ZM110.199 29.9484H114.891L112.61 23.5374H112.532L110.199 29.9484Z" fill="currentColor"/>
<path d="M124.727 35.1796H122.986V23.1904H118.938V21.5508H128.784V23.1904H124.727V35.1796Z" fill="currentColor"/>
<path d="M130.63 28.3729C130.63 24.0352 133.154 21.3633 136.723 21.3633C140.789 21.3633 142.973 24.2435 142.973 28.3729C142.973 33.0054 140.362 35.3824 136.784 35.3824C133.032 35.3824 130.63 32.6931 130.63 28.3729ZM141.145 28.3729C141.145 24.6338 139.465 22.9942 136.793 22.9942C134.39 22.9942 132.536 24.7293 132.536 28.3729C132.536 32.0165 134.329 33.7428 137.028 33.7428C139.561 33.7428 141.145 31.895 141.145 28.3729Z" fill="currentColor"/>
<path d="M160 35.1796H158.259L157.388 24.5351L153.906 35.1796H152.07L148.64 24.5698L147.769 35.1796H146.028L147.195 21.5508H149.345L153.036 33.271L156.674 21.5508H158.825L160 35.1796Z" fill="currentColor"/>
</g>
</svg>
