<svg width="148" height="50" viewBox="0 0 148 50" fill="none" xmlns="http://www.w3.org/2000/svg">
<g opacity="0.5">
<path d="M114.51 29.884C113.838 30.6352 113.019 31.2357 112.104 31.6468C111.189 32.0578 110.2 32.2703 109.199 32.2705C107.314 32.2369 105.517 31.4555 104.196 30.0947C102.875 28.7339 102.134 26.9025 102.134 24.9948C102.134 23.0871 102.875 21.2556 104.196 19.8948C105.517 18.534 107.314 17.7527 109.199 17.7191C110.749 17.7191 112.182 18.223 113.359 19.0682L117.279 13.4908C114.921 11.7872 112.096 10.8715 109.199 10.8716C105.497 10.8716 101.946 12.3597 99.3288 15.0085C96.7111 17.6573 95.2405 21.2499 95.2405 24.9959C95.2405 28.7419 96.7111 32.3345 99.3288 34.9833C101.946 37.6321 105.497 39.1202 109.199 39.1202C112.623 39.1175 115.925 37.8383 118.476 35.527L114.51 29.884ZM82.7719 11.71L78.8681 17.2739C80.8295 17.4719 82.6405 18.4262 83.9254 19.9389C85.2103 21.4516 85.8707 23.4066 85.7696 25.3987C85.6685 27.3907 84.8137 29.267 83.3824 30.6386C81.9512 32.0101 80.0532 32.7717 78.0819 32.7654V4.73828H71.5808V10.8716C69.7477 10.8716 67.9327 11.2369 66.2392 11.9468C64.5457 12.6566 63.007 13.697 61.7108 15.0085C60.4147 16.3201 59.3865 17.8771 58.6851 19.5908C57.9836 21.3044 57.6226 23.1411 57.6226 24.9959C57.6226 26.8507 57.9836 28.6874 58.6851 30.401C59.3865 32.1147 60.4147 33.6717 61.7108 34.9833C63.007 36.2948 64.5457 37.3352 66.2392 38.0451C67.9327 38.7549 69.7477 39.1202 71.5808 39.1202V45.4773H78.0819V39.1179C81.3718 39.1235 84.5577 37.952 87.0764 35.8103C89.5951 33.6687 91.2845 30.6949 91.8458 27.4147C92.4071 24.1345 91.8042 20.7591 90.1437 17.8852C88.4832 15.0113 85.8721 12.8241 82.7719 11.71ZM63.9004 24.9959C63.9004 23.976 64.099 22.9661 64.4847 22.0239C64.8705 21.0816 65.436 20.2255 66.1488 19.5044C66.8616 18.7834 67.7078 18.2115 68.639 17.8214C69.5703 17.4313 70.5684 17.2306 71.5763 17.2309V32.7609C70.5685 32.7612 69.5705 32.5605 68.6394 32.1704C67.7082 31.7803 66.8622 31.2083 66.1495 30.4872C65.4369 29.7661 64.8717 28.91 64.4862 27.9678C64.1006 27.0256 63.9023 26.0157 63.9026 24.9959H63.9004ZM129.589 38.553H122.485V11.4343H129.587V38.553H129.589ZM130.489 24.9936L140.099 11.4343H147.491L137.803 24.7993L148 38.553H140.505L130.489 24.9936Z" fill="currentColor"/>
<path d="M19.2913 14.8478H47.268C45.8806 11.6985 43.8656 8.87296 41.3493 6.54797C38.833 4.22297 35.8695 2.44861 32.6443 1.33594L19.2891 14.8478H19.2913Z" fill="currentColor"/>
<path d="M48.6527 18.8249H14.55C14.1606 18.8255 13.7797 18.7091 13.4558 18.4903C13.1318 18.2716 12.8794 17.9604 12.7306 17.5962C12.5817 17.232 12.5432 16.8313 12.6198 16.4449C12.6964 16.0585 12.8848 15.7039 13.1609 15.426L28.1621 0.248588C27.0167 0.0852265 25.8616 0.00216577 24.7049 0C11.0594 0 0 11.191 0 24.9989C0 26.8452 0.205465 28.6441 0.580662 30.3819H35.0474C35.4369 30.3813 35.8177 30.4977 36.1417 30.7164C36.4656 30.9352 36.718 31.2464 36.8669 31.6106C37.0157 31.9748 37.0543 32.3755 36.9776 32.7619C36.901 33.1483 36.7127 33.5029 36.4365 33.7808L20.7319 49.6723C22.0272 49.8848 23.3493 50 24.7005 50C38.346 50 49.4054 38.809 49.4054 25.0034C49.4143 22.8678 49.1485 20.8 48.6527 18.8249Z" fill="currentColor"/>
<path d="M30.3258 34.3594H1.82422C3.12914 37.6151 5.09578 40.5569 7.59658 42.9941C10.0974 45.4312 13.0765 47.3092 16.3408 48.5063L30.3258 34.3594Z" fill="currentColor"/>
</g>
</svg>
