<svg width="172" height="82" viewBox="0 0 172 82" fill="none" xmlns="http://www.w3.org/2000/svg">
<g opacity="0.5">
<path d="M53.1206 53.6172H64.0367V57.1532H58.8438V81.9982H53.1206V53.6172Z" fill="#6D6969"/>
<path d="M70.5235 71.3437L71.5044 57.1532H71.8329L72.8137 71.3437H70.5235ZM64.1855 81.9982H69.7891L70.3194 74.461H73.0179L73.5506 81.9982H79.1517L76.1669 53.6172H67.1703L64.1855 81.9982Z" fill="#6D6969"/>
<path d="M87.3374 72.0648V77.4154C87.3374 78.1365 87.9005 78.3459 88.229 78.3459C88.7687 78.3459 89.1442 77.9039 89.1442 77.4154V70.8087C89.1442 69.9247 88.9799 68.9476 86.8446 68.9476H84.5215V65.8303H86.9384C88.5575 65.8303 89.1442 65.4581 89.1442 63.7134V58.0837C89.1442 57.5952 88.7687 57.1532 88.229 57.1532C87.9005 57.1532 87.3374 57.3393 87.3374 58.0837V62.7131H81.6118V58.6886C81.6118 56.7112 81.8465 53.6172 85.859 53.6172H90.599C94.6116 53.6172 94.8697 56.7112 94.8697 58.6886V63.2249C94.8697 66.3189 92.6874 67.1563 90.9745 67.0865V67.3657C94.8228 67.2727 94.8697 70.2038 94.8697 71.2041V76.9269C94.8697 78.9275 94.6116 81.9982 90.599 81.9982H85.859C81.8465 81.9982 81.6118 78.9275 81.6118 76.9269V72.0648H87.3374Z" fill="#6D6969"/>
<path d="M98.6201 53.6172H111.878V81.9982H106.152V57.1532H104.346V81.9982H98.6201V53.6172Z" fill="#6D6969"/>
<path d="M121.373 69.2268V57.1532H122.124C122.734 57.1532 123.18 57.665 123.18 58.5722V67.8077C123.18 68.715 122.734 69.2268 122.124 69.2268H121.373ZM115.647 81.9982H121.373V72.344H124.658C128.647 72.344 128.905 69.2733 128.905 67.2727V58.6886C128.905 56.7112 128.647 53.6172 124.658 53.6172H115.647V81.9982Z" fill="#6D6969"/>
<path d="M140.187 77.4154C140.187 77.9039 139.812 78.3459 139.272 78.3459C138.943 78.3459 138.38 78.1365 138.38 77.4154V58.0837C138.38 57.3393 138.943 57.1532 139.272 57.1532C139.812 57.1532 140.187 57.5952 140.187 58.0837V77.4154ZM132.655 76.9269C132.655 78.9275 132.913 81.9982 136.902 81.9982H141.665C145.655 81.9982 145.913 78.9275 145.913 76.9269V58.6886C145.913 56.7112 145.655 53.6172 141.665 53.6172H136.902C132.913 53.6172 132.655 56.7112 132.655 58.6886V76.9269Z" fill="#6D6969"/>
<path d="M164.538 53.6172H172V81.9982H166.275V64.2019H166.063L163.107 81.9982H158.531L155.598 64.2019H155.387V81.9982H149.661V53.6172H157.1L160.831 73.577L164.538 53.6172Z" fill="#6D6969"/>
<path d="M45.7028 14.7953C43.9499 7.1883 39.5572 1.00032 38.9518 0C37.9944 1.41905 34.491 6.88588 32.71 12.9343C30.7647 19.7039 30.4784 25.7058 31.1495 31.5913C31.816 37.5001 34.3338 43.5718 34.3338 43.5718C35.6713 46.7356 37.6753 50.1553 38.9799 51.8303C40.8924 49.3644 45.2874 42.0132 46.6578 32.4288C47.4204 27.0783 47.4533 22.4024 45.7028 14.7953ZM38.9518 49.9227C38.0906 48.3175 36.7531 45.2701 36.6264 40.5244C36.5935 35.9648 38.4402 32.0333 38.9799 31.2191C39.461 32.0333 41.0519 35.453 41.242 40.1289C41.3711 44.6885 39.8411 48.2943 38.9518 49.9227ZM45.1936 27.7064C45.1279 30.6143 44.7782 33.685 44.3324 35.5228C44.4919 32.359 44.1095 27.9158 43.3773 24.4263C42.6452 20.9601 40.5732 15.1443 38.9189 12.469C37.3913 15.028 35.5094 20.0528 34.5239 24.403C33.5336 28.7532 33.5055 34.034 33.5055 35.6159C33.2427 34.2899 32.5856 29.5209 32.771 24.752C32.9259 20.8205 33.8551 16.7495 34.3643 14.8884C36.3072 8.67715 38.5059 4.69915 38.9189 4.07104C39.3319 4.69915 42.1008 9.60767 43.5369 14.7488C44.966 19.89 45.2546 24.8218 45.1936 27.7064Z" fill="#6D6969"/>
<path d="M41.9279 53.5649H28.6019V62.4282C28.6136 62.4282 28.623 62.405 28.6348 62.405C31.7744 59.2877 36.8664 59.2877 40.0084 62.405C43.1481 65.4989 43.1481 70.547 40.0084 73.6643C39.9944 73.6876 39.9803 73.6876 39.9662 73.7108C39.9498 73.7108 39.9333 73.7341 39.9193 73.7574C36.7866 76.8281 32.6943 78.3634 28.6019 78.3634C24.4908 78.3634 20.3797 76.8281 17.2447 73.7108C11.7162 68.244 11.0616 59.7529 15.2759 53.5649C15.8438 52.7275 16.4985 51.9365 17.2447 51.1921C20.3797 48.0749 24.4908 46.5395 28.6019 46.5395V25.2305C12.805 25.2305 0 37.9089 0 53.5649C0 69.221 12.805 81.9227 28.6019 81.9227C36.8383 81.9227 44.258 78.4565 49.4767 72.9431V53.5649H41.9279Z" fill="#6D6969"/>
</g>
</svg>
