<svg width="180" height="35" viewBox="0 0 180 35" fill="none" xmlns="http://www.w3.org/2000/svg">
<path fill-rule="evenodd" clip-rule="evenodd" d="M19.8881 25.6615C20.1537 25.96 20.3003 26.3459 20.2997 26.7456C20.2997 27.1846 20.1258 27.6058 19.8162 27.9166C19.5066 28.2276 19.0865 28.403 18.6479 28.4044C11.3966 28.4044 6.45224 26.724 3.51164 24.3118C1.95366 23.0946 0.820134 21.4155 0.27318 19.5145C-0.189362 17.7389 -0.0620022 15.861 0.636018 14.1643C1.58373 11.7737 3.58203 9.57834 6.44141 8.03887C7.13459 5.502 8.4018 3.75111 10.1185 2.71576C11.8352 1.68042 13.9093 1.40396 16.2705 1.81593C18.0234 0.677874 20.0576 0.0492253 22.1463 0C24.1334 0.0109342 26.0634 0.665082 27.6485 1.86472C30.4227 1.61019 33.2003 2.31625 35.517 3.86494C37.7192 5.37282 39.2463 7.68138 39.7737 10.2993C41.2215 11.394 42.276 12.9288 42.7793 14.6738C43.3208 16.5926 43.2612 18.8857 42.5085 21.7206C42.5085 21.7911 42.4652 21.8561 42.438 21.9267C41.4747 24.6285 39.8579 27.0496 37.7321 28.9735C36.1074 30.4967 31.0602 34.134 27.4751 34.8604C24.6591 35.435 24.0687 34.1395 24.0797 32.73C24.0797 30.1877 23.9604 26.3228 24.0797 23.8402C24.0768 23.6265 24.116 23.4146 24.195 23.2161C24.2741 23.0179 24.3912 22.8369 24.5402 22.6839C24.689 22.5308 24.8666 22.4088 25.0625 22.3244C25.2585 22.24 25.4693 22.1951 25.6826 22.1923C26.1135 22.1865 26.529 22.3524 26.8377 22.6532C26.9906 22.8023 27.1127 22.9799 27.197 23.1762C27.2813 23.3724 27.3261 23.5833 27.329 23.7968C27.5238 24.7725 27.329 29.3856 27.513 31.3858C29.0022 31.4942 34.6506 27.3637 35.4792 26.583C37.2059 25.0372 38.5232 23.0873 39.3134 20.9076V20.8696C39.9036 18.6525 39.974 16.9397 39.5949 15.6007C39.2879 14.5506 38.6543 13.6259 37.7862 12.9609C37.2446 12.6465 34.9214 11.3834 32.7227 12.3646C32.3772 12.5191 31.9847 12.53 31.6313 12.3948C31.2779 12.2596 30.9926 11.9894 30.8381 11.6436C30.6837 11.2979 30.6729 10.9049 30.8079 10.5511C30.9431 10.1974 31.2129 9.91178 31.5584 9.75723C32.9505 9.15769 34.4931 9.00064 35.9774 9.30731C35.4485 8.2142 34.6416 7.27952 33.638 6.59697C31.8602 5.42965 29.726 4.93212 27.6159 5.19301C26.7603 6.19585 25.2222 8.16897 25.0761 9.52957C25.4237 9.64034 25.7592 9.78563 26.078 9.96322C26.2391 10.0558 26.3802 10.1792 26.4938 10.3264C26.6072 10.4735 26.6906 10.6417 26.739 10.8211C26.7876 11.0006 26.8004 11.1878 26.7765 11.3722C26.7528 11.5566 26.693 11.7345 26.6006 11.8957C26.508 12.0569 26.3847 12.1984 26.2377 12.3119C26.0907 12.4255 25.9227 12.5089 25.7435 12.5575C25.3814 12.6556 24.9953 12.6057 24.6699 12.4188C23.6355 11.8171 21.1823 11.7358 21.1769 11.7358C20.9913 11.7301 20.8086 11.6879 20.6393 11.6115C20.4701 11.5351 20.3174 11.4261 20.1902 11.2907C20.063 11.1553 19.9635 10.9962 19.8978 10.8223C19.832 10.6485 19.8011 10.4634 19.8068 10.2776C19.8125 10.0918 19.8546 9.90897 19.931 9.73949C20.0073 9.57002 20.1162 9.41725 20.2514 9.2899C20.3867 9.16256 20.5457 9.06313 20.7194 8.99728C20.8931 8.93145 21.078 8.90049 21.2636 8.90618C21.2636 8.90618 21.6968 8.90618 22.3196 8.98749C22.6608 7.22577 23.9442 5.30684 24.9191 4.03299C24.0704 3.56221 23.1165 3.31418 22.1463 3.31204C20.6942 3.36266 19.283 3.80666 18.063 4.59675C18.0462 4.6226 18.0261 4.64627 18.0035 4.66721C17.471 5.26248 17.0574 5.95433 16.785 6.70538C17.0922 6.70027 17.3996 6.71112 17.7056 6.73791C17.8905 6.75463 18.0704 6.80766 18.2348 6.89394C18.3992 6.98023 18.545 7.09808 18.6639 7.24078C18.7829 7.38349 18.8726 7.54824 18.9279 7.72562C18.9833 7.90302 19.0031 8.08959 18.9864 8.27468C18.9696 8.45975 18.9167 8.63973 18.8304 8.80432C18.7443 8.96891 18.6266 9.1149 18.4839 9.23394C18.3414 9.35299 18.1769 9.44276 17.9996 9.49813C17.8224 9.55351 17.636 9.57339 17.451 9.55667C16.2003 9.44419 14.9441 9.70246 13.8389 10.2993C13.6789 10.394 13.5018 10.4562 13.3178 10.4824C13.1338 10.5085 12.9464 10.4982 12.7664 10.4519C12.5864 10.4056 12.4172 10.3242 12.2686 10.2125C12.12 10.1007 11.9948 9.96076 11.9002 9.8006C11.8056 9.64043 11.7435 9.46318 11.7173 9.27897C11.6912 9.09478 11.7015 8.90721 11.7478 8.72701C11.7941 8.54681 11.8753 8.37749 11.987 8.22873C12.0986 8.07997 12.2384 7.95466 12.3984 7.86C12.8889 7.58578 13.406 7.36238 13.9418 7.19325C13.9536 6.41595 14.1386 5.65109 14.4834 4.95451C13.5575 4.89321 12.6338 5.10223 11.8244 5.5562C10.7738 6.19585 9.98312 7.39923 9.54447 9.24227C9.50657 10.5053 9.63653 13.2753 11.2124 15.1508C11.3496 15.2905 11.4565 15.457 11.5263 15.6401C11.5961 15.823 11.6273 16.0184 11.618 16.2141C11.6087 16.4097 11.559 16.6013 11.4722 16.7769C11.3853 16.9524 11.2632 17.108 11.1133 17.234C10.9635 17.3599 10.7892 17.4535 10.6015 17.5089C10.4138 17.5643 10.2167 17.5801 10.0226 17.5555C9.82845 17.5309 9.64149 17.4664 9.47348 17.366C9.30546 17.2656 9.16001 17.1315 9.04625 16.9722C7.84751 15.4337 7.09775 13.5932 6.88005 11.6545C5.47989 12.5588 4.37925 13.8586 3.71742 15.3893C3.29105 16.4199 3.20936 17.5609 3.48456 18.6417C3.85406 19.8763 4.60247 20.9629 5.62367 21.7478C7.67613 23.4336 11.0825 24.6803 16.0701 25.0003C15.4401 22.6951 15.5712 20.2481 16.4438 18.0238C15.9849 17.5679 15.5562 17.0827 15.1604 16.571C15.1332 16.533 15.1604 16.533 15.1982 16.5385H15.155C14.828 16.354 14.5875 16.0472 14.486 15.6855C14.3845 15.3239 14.4303 14.9367 14.6133 14.6087C14.685 14.4224 14.7994 14.2556 14.9473 14.1216C15.0951 13.9877 15.2724 13.8904 15.4649 13.8377C15.6572 13.7849 15.8592 13.7782 16.0547 13.8179C16.2501 13.8577 16.4336 13.9429 16.59 14.0667C16.899 14.2682 17.1642 14.53 17.3699 14.8364C18.0143 15.655 19.5794 17.6335 21.7835 17.2323C21.9693 17.1901 22.1618 17.186 22.3494 17.2201C22.5369 17.2542 22.7156 17.3261 22.8747 17.4312C23.0337 17.5361 23.1699 17.6724 23.2751 17.8314C23.3802 17.9907 23.4522 18.1694 23.4866 18.3571C23.5209 18.5448 23.517 18.7374 23.475 18.9236C23.433 19.1096 23.354 19.2854 23.2424 19.44C23.1309 19.5947 22.9892 19.7253 22.826 19.8238C22.6628 19.9222 22.4813 19.9866 22.2926 20.0131C21.3051 20.2053 20.2854 20.1494 19.3248 19.8505C18.3609 23.103 19.5902 25.217 19.9043 25.6778L19.8881 25.6615ZM29.0943 19.3735C29.3537 19.3319 29.619 19.3459 29.8725 19.4148C30.1262 19.4835 30.3621 19.6056 30.5649 19.7727C30.7679 19.9398 30.9329 20.1482 31.049 20.384C31.1652 20.62 31.2299 20.8779 31.2389 21.1407C31.2054 21.3237 31.2083 21.5113 31.2474 21.6932C31.2864 21.8751 31.361 22.0474 31.4666 22.2004C31.5722 22.3535 31.7069 22.484 31.8629 22.585C32.019 22.6859 32.1933 22.7551 32.3762 22.7886C32.5589 22.822 32.7465 22.8192 32.9282 22.78C33.1098 22.7409 33.2819 22.6664 33.4349 22.5607C33.5877 22.455 33.7182 22.3202 33.819 22.164C33.92 22.0077 33.989 21.8332 34.0224 21.6503C34.4882 19.0646 32.2353 16.6903 29.7767 16.5005C29.3379 16.4644 28.8963 16.4937 28.4661 16.5873C28.2845 16.6289 28.1127 16.7059 27.9608 16.814C27.8088 16.9221 27.6797 17.0591 27.5805 17.2171C27.4815 17.3753 27.4145 17.5513 27.3834 17.7353C27.3522 17.9193 27.3576 18.1075 27.3993 18.2894C27.4409 18.4713 27.5178 18.6432 27.6258 18.7952C27.7338 18.9474 27.8706 19.0767 28.0286 19.1758C28.1865 19.2749 28.3623 19.342 28.5461 19.3732C28.73 19.4043 28.9181 19.399 29.0997 19.3572L29.0943 19.3735Z" fill="#D84F54"/>
<path fill-rule="evenodd" clip-rule="evenodd" d="M57.24 10.2008V24.8366C57.2363 25.0872 57.2823 25.3359 57.3755 25.5684C57.4658 25.7947 57.6023 25.9997 57.7761 26.1701C57.9477 26.3441 58.152 26.4822 58.3773 26.5768C58.848 26.7574 59.3688 26.7574 59.8395 26.5768C60.0657 26.4812 60.2717 26.3432 60.446 26.1701C60.62 25.9997 60.7565 25.7947 60.8468 25.5684C60.9398 25.3359 60.9858 25.0872 60.9821 24.8366V10.2008H64.5293C64.7466 10.2028 64.962 10.1611 65.163 10.0783C65.3639 9.99538 65.5461 9.87301 65.699 9.71838C65.8605 9.56623 65.9879 9.38145 66.0726 9.17631C66.1554 8.97706 66.1979 8.76331 66.1973 8.54751C66.2015 8.31155 66.1572 8.07724 66.0672 7.85908C65.981 7.65478 65.8538 7.4703 65.6936 7.31702C65.5374 7.16449 65.3535 7.04309 65.1521 6.95925C64.9509 6.87752 64.7355 6.83698 64.5185 6.84H53.6874C53.4705 6.83698 53.255 6.87752 53.0538 6.95925C52.8522 7.04285 52.6685 7.16428 52.5123 7.31702C52.355 7.47157 52.2299 7.65581 52.1441 7.85908C52.0602 8.0675 52.0179 8.29031 52.0196 8.51498C52.0295 8.95068 52.2098 9.36509 52.5216 9.66917C52.8335 9.97325 53.2521 10.1427 53.6874 10.1412H57.2346V10.19L57.24 10.2008ZM149.26 25.3787V17.2477C149.259 16.9742 149.242 16.7009 149.211 16.4292C149.179 16.1419 149.135 15.8438 149.07 15.524C149.006 15.2142 148.908 14.9125 148.778 14.6241C148.63 14.3294 148.448 14.0529 148.236 13.8001C148.02 13.5232 147.766 13.277 147.483 13.0684C147.165 12.8358 146.824 12.6361 146.465 12.4721C146.037 12.2794 145.586 12.1445 145.122 12.071C144.553 11.9778 143.977 11.9324 143.4 11.9354C143.043 11.9354 142.669 11.9354 142.279 11.9896C141.889 12.0439 141.489 12.071 141.077 12.1414C140.7 12.2 140.327 12.2851 139.961 12.3962C139.647 12.495 139.343 12.622 139.052 12.7756C138.891 12.8622 138.738 12.9638 138.597 13.0792C138.486 13.1692 138.39 13.2773 138.315 13.399C138.252 13.508 138.203 13.6245 138.169 13.7459C138.136 13.8623 138.12 13.9828 138.12 14.1037C138.12 14.2883 138.151 14.4716 138.212 14.6458C138.281 14.8242 138.378 14.9906 138.499 15.1391C138.627 15.2902 138.788 15.4091 138.97 15.486C139.185 15.5656 139.413 15.6042 139.642 15.5999C139.783 15.599 139.924 15.5881 140.064 15.5672C140.221 15.5435 140.377 15.511 140.53 15.4697L140.942 15.3614L141.483 15.2258C141.635 15.1878 141.781 15.15 141.927 15.1228C142.073 15.0957 142.22 15.0686 142.35 15.047L142.718 15.0036H143.043C143.465 14.9931 143.885 15.0517 144.288 15.1769C144.59 15.2704 144.853 15.4609 145.036 15.7191C145.19 15.9421 145.31 16.1869 145.393 16.4454C145.472 16.7112 145.512 16.9868 145.512 17.264V18.1042H142.967C142.153 18.0919 141.34 18.1885 140.552 18.3914C139.892 18.5582 139.269 18.847 138.716 19.2425C138.221 19.5901 137.821 20.056 137.552 20.5977C137.283 21.1646 137.149 21.7863 137.162 22.4136C137.156 22.9884 137.261 23.5589 137.47 24.0941C137.679 24.6182 137.99 25.0956 138.385 25.4979C138.793 25.9202 139.291 26.2446 139.842 26.4466C140.829 26.7887 141.89 26.8579 142.913 26.6471C143.294 26.5696 143.666 26.4535 144.023 26.3002C144.296 26.1895 144.558 26.0551 144.808 25.8991C145.062 25.7349 145.304 25.5538 145.534 25.357L145.599 25.2974V25.3842C145.659 25.7159 145.827 26.0185 146.075 26.246C146.413 26.522 146.836 26.6732 147.272 26.6743C147.733 26.7008 148.19 26.5793 148.577 26.3274C148.748 26.2241 148.895 26.0863 149.01 25.9231C149.125 25.7597 149.204 25.5744 149.243 25.3787H149.26ZM145.518 20.6518V22.5437C145.31 22.724 145.089 22.8888 144.857 23.037C144.636 23.1753 144.404 23.2951 144.164 23.3948C143.939 23.4908 143.705 23.5653 143.465 23.6171C143.239 23.6661 143.009 23.6914 142.777 23.6929C142.509 23.6949 142.241 23.6603 141.981 23.5899C141.752 23.5397 141.534 23.4438 141.342 23.308C141.171 23.1739 141.034 23.0012 140.942 22.8039C140.851 22.5916 140.807 22.3624 140.812 22.1317C140.806 21.9021 140.858 21.6746 140.963 21.4704C141.071 21.2758 141.228 21.1132 141.418 20.9989C141.641 20.8626 141.887 20.7672 142.144 20.717C142.461 20.6526 142.784 20.6217 143.108 20.6248H145.518V20.6736V20.6518ZM90.881 25.3951V17.264C90.881 17.0038 90.881 16.7219 90.8376 16.4454C90.7943 16.169 90.7563 15.8546 90.6968 15.5402C90.6329 15.2297 90.5328 14.9277 90.399 14.6404C90.2613 14.3471 90.0906 14.0706 89.8899 13.8164C89.6733 13.5394 89.4201 13.2932 89.1372 13.0846C88.8168 12.8521 88.4739 12.6524 88.1136 12.4883C87.6879 12.2949 87.2379 12.16 86.7761 12.0872C86.2053 11.9914 85.6272 11.946 85.0485 11.9517C84.6911 11.9517 84.3228 11.9517 83.933 12.0059C83.543 12.0601 83.1422 12.0872 82.7307 12.1577C82.3532 12.2156 81.9803 12.3007 81.615 12.4124C81.3011 12.5113 80.9966 12.6383 80.7053 12.7919C80.5443 12.8784 80.3921 12.9801 80.2503 13.0955C80.1378 13.1839 80.0423 13.2923 79.9688 13.4153C79.9065 13.5228 79.8573 13.6375 79.8225 13.7568C79.7901 13.8751 79.7736 13.9973 79.7738 14.12C79.7706 14.3048 79.8018 14.4886 79.8659 14.662C79.9292 14.8488 80.0244 15.0231 80.1474 15.1769C80.2725 15.3309 80.4347 15.4503 80.6186 15.524C80.8314 15.6039 81.0575 15.6425 81.2847 15.6377C81.4262 15.6373 81.5673 15.6264 81.7071 15.6052C81.866 15.5821 82.0233 15.5495 82.1783 15.5076L83.1098 15.2637C83.2614 15.2203 83.4075 15.1878 83.5484 15.1607C83.6892 15.1336 83.8409 15.1066 83.9762 15.0848L84.3444 15.0414H84.6639C85.0877 15.0307 85.5102 15.0893 85.9149 15.215C86.2058 15.3014 86.4617 15.4779 86.646 15.7191C86.8008 15.9411 86.9196 16.1863 86.9981 16.4454C87.0794 16.7106 87.1196 16.9867 87.1172 17.264V18.1042H84.561C83.7486 18.0919 82.9382 18.1885 82.1513 18.3914C81.4899 18.5582 80.8656 18.8468 80.31 19.2425C79.8258 19.5956 79.4337 20.0606 79.1673 20.5977C78.9027 21.1658 78.7713 21.7869 78.7827 22.4136C78.7752 22.9881 78.8783 23.5586 79.086 24.0941C79.2968 24.6185 79.6098 25.0957 80.0067 25.4979C80.4123 25.9202 80.9087 26.2446 81.458 26.4466C82.0782 26.6681 82.733 26.7765 83.3913 26.7664C83.7737 26.7676 84.1548 26.7276 84.5286 26.6471C84.9114 26.5705 85.2854 26.4542 85.6442 26.3002C85.9158 26.1905 86.1768 26.0562 86.424 25.8991C86.6805 25.7364 86.9249 25.5552 87.1551 25.357L87.2201 25.2974V25.3842C87.2829 25.715 87.45 26.017 87.6966 26.246C88.0374 26.5209 88.4613 26.6719 88.8989 26.6743C89.3582 26.7023 89.8142 26.5806 90.1986 26.3274C90.3698 26.2248 90.5175 26.0874 90.6323 25.9238C90.747 25.7604 90.8262 25.5747 90.8646 25.3787L90.881 25.3951ZM69.0132 21.8173C69.1197 22.1839 69.2864 22.53 69.5061 22.8419C69.7376 23.1686 70.065 23.4149 70.443 23.5465C70.9211 23.7145 71.4258 23.7936 71.9322 23.7797C72.0893 23.7797 72.2463 23.7797 72.4034 23.7797L72.8853 23.7363C73.1399 23.7037 73.3727 23.6495 73.6002 23.6008L73.7789 23.5574L74.1309 23.4869C74.3583 23.4382 74.5803 23.3948 74.7861 23.3405C74.9409 23.2976 75.0983 23.2651 75.2573 23.243C75.4098 23.2216 75.5636 23.2107 75.7176 23.2104C75.9441 23.2043 76.1697 23.2391 76.3838 23.3134C76.5575 23.3735 76.7126 23.4783 76.8332 23.6171C76.9455 23.7454 77.0354 23.8921 77.0985 24.0507C77.1549 24.2034 77.1842 24.3648 77.1852 24.5277C77.1855 24.6858 77.1617 24.8429 77.1149 24.9939C77.0672 25.1318 76.9958 25.2603 76.9037 25.3733C76.8095 25.4884 76.7022 25.592 76.5842 25.6823C76.4618 25.7825 76.3293 25.8697 76.1888 25.9424C75.8976 26.0987 75.5909 26.2241 75.2736 26.3165C74.9033 26.4314 74.525 26.5185 74.1417 26.5768C73.7247 26.6471 73.3295 26.696 72.9557 26.7285C72.6066 26.7644 72.2561 26.7825 71.9051 26.7826C71.3604 26.7846 70.8167 26.7373 70.2804 26.6418C69.7974 26.5568 69.3252 26.4186 68.8725 26.2297C68.4549 26.0532 68.0588 25.8295 67.6919 25.5631C67.3406 25.3113 67.0206 25.0182 66.7388 24.6902C66.4583 24.3563 66.215 23.9929 66.0131 23.6062C65.7981 23.2004 65.6258 22.7736 65.4986 22.3323C65.3597 21.8586 65.2583 21.3747 65.1954 20.885C65.1246 20.3604 65.0903 19.8315 65.0925 19.3021C65.0777 18.286 65.2164 17.2737 65.5041 16.299C65.754 15.4487 66.17 14.6565 66.728 13.9682C67.26 13.3079 67.9488 12.7916 68.7317 12.4667C69.6215 12.1189 70.571 11.9494 71.526 11.968C72.038 11.9644 72.5492 12.008 73.0532 12.0981C73.4933 12.1766 73.9223 12.3077 74.3313 12.4883C74.6996 12.6531 75.0483 12.8586 75.371 13.1009C75.671 13.3333 75.9404 13.6029 76.1726 13.9031C76.4067 14.2043 76.6082 14.5296 76.7736 14.8734C76.9439 15.2345 77.0816 15.61 77.1852 15.9955C77.2985 16.4029 77.3835 16.8178 77.4398 17.2368C77.4942 17.6702 77.5214 18.1065 77.5209 18.5432C77.5298 18.9074 77.4953 19.2714 77.418 19.6274C77.3805 19.8444 77.2808 20.046 77.1311 20.2074C77.0007 20.3255 76.8479 20.4158 76.6815 20.4729C76.5069 20.5312 76.3241 20.5604 76.14 20.5597H68.8508V20.5977C68.8479 21.0045 68.9025 21.4097 69.0132 21.801V21.8173ZM74.0334 18.1856H74.0822V18.1313C74.0771 17.7218 74.0244 17.3144 73.9251 16.9171C73.8399 16.5662 73.703 16.2302 73.5189 15.9196C73.338 15.6203 73.0695 15.3837 72.75 15.2421C72.3615 15.0845 71.945 15.0089 71.526 15.0198C71.1551 15.0107 70.7862 15.079 70.443 15.2203C70.1265 15.3506 69.8447 15.5529 69.6198 15.8113C69.3753 16.0964 69.191 16.4284 69.0783 16.7869C68.9391 17.2225 68.8572 17.6745 68.8346 18.1313V18.1856H74.0334ZM87.1389 20.6682V22.56C86.9289 22.7378 86.7083 22.9025 86.4782 23.0533C86.2569 23.1905 86.025 23.3101 85.785 23.411C85.5591 23.5055 85.3253 23.5799 85.0863 23.6333C84.8603 23.682 84.6299 23.7074 84.3986 23.7092C84.1281 23.7108 83.8586 23.6762 83.5971 23.6062C83.369 23.5479 83.1539 23.4467 82.9635 23.308C82.7937 23.1737 82.6581 23.0009 82.5683 22.8039C82.4777 22.5916 82.4334 22.3624 82.4382 22.1317C82.4327 21.9021 82.4847 21.6746 82.5899 21.4704C82.6943 21.2736 82.8519 21.1102 83.0448 20.9989C83.2661 20.8623 83.51 20.7669 83.765 20.717C84.0822 20.6529 84.4053 20.6219 84.729 20.6248H87.1389V20.6736V20.6682ZM101.858 15.4426L101.977 16.4345C102 16.6763 102.062 16.9125 102.161 17.1338C102.255 17.3357 102.383 17.5192 102.54 17.6759C102.695 17.8221 102.88 17.933 103.082 18.0011C103.288 18.077 103.507 18.1138 103.726 18.1095C103.971 18.1149 104.213 18.0648 104.436 17.9633C104.65 17.8621 104.836 17.7094 104.977 17.5187C105.126 17.3042 105.228 17.0602 105.275 16.8032C105.338 16.5222 105.351 16.2322 105.313 15.9468L105.194 15.0145C105.166 14.7827 105.124 14.5529 105.069 14.326C105.026 14.1512 104.962 13.982 104.88 13.8218C104.796 13.6763 104.692 13.5432 104.571 13.4261C104.431 13.2832 104.276 13.1543 104.111 13.0413C103.85 12.8602 103.573 12.7041 103.282 12.5751C102.962 12.4382 102.63 12.3276 102.291 12.2444C101.935 12.1533 101.573 12.0845 101.208 12.0384C100.867 11.9911 100.524 11.9675 100.179 11.968C99.1964 11.9532 98.2193 12.1224 97.2983 12.4667C96.4751 12.7999 95.7354 13.3107 95.1321 13.9628C94.4885 14.6372 93.9956 15.441 93.6861 16.3208C93.363 17.3108 93.2057 18.3474 93.2204 19.3889C93.2192 19.9024 93.2571 20.4152 93.3342 20.923C93.4052 21.4051 93.5174 21.8803 93.6699 22.3432C93.8099 22.7804 93.9912 23.2034 94.2114 23.6062C94.4274 23.9932 94.6835 24.3566 94.9751 24.6902C95.2661 25.0155 95.5931 25.3065 95.9498 25.5575C96.3237 25.8192 96.7229 26.0425 97.1412 26.2243C97.5926 26.4144 98.0627 26.5562 98.5439 26.6471C99.0798 26.7442 99.6237 26.7913 100.169 26.7881C100.439 26.7881 100.743 26.7881 101.084 26.7339C101.425 26.6796 101.809 26.6418 102.226 26.5712C102.605 26.5055 102.979 26.4168 103.347 26.3056C103.677 26.2091 103.999 26.0896 104.311 25.948C104.456 25.8795 104.594 25.7978 104.723 25.7039C104.844 25.6133 104.953 25.5078 105.048 25.3895C105.142 25.2721 105.214 25.1379 105.259 24.9939C105.306 24.8354 105.33 24.6712 105.329 24.506C105.331 24.3217 105.302 24.1384 105.243 23.9639C105.179 23.7924 105.09 23.6315 104.977 23.4869C104.859 23.3414 104.706 23.2278 104.533 23.1563C104.33 23.0756 104.113 23.037 103.894 23.0424C103.76 23.0424 103.626 23.055 103.494 23.0804C103.333 23.1065 103.173 23.1427 103.017 23.1888L102.519 23.3243L102.042 23.4489L101.631 23.5357L101.149 23.6224C100.981 23.6549 100.813 23.6767 100.645 23.6929C100.477 23.7092 100.32 23.6929 100.169 23.6929C99.6783 23.7037 99.1925 23.5998 98.7497 23.3893C98.3444 23.1862 98.0033 22.8748 97.764 22.4895C97.5045 22.0731 97.3143 21.6172 97.2008 21.1397C97.0671 20.566 97.0035 19.978 97.0113 19.3889C97.0022 18.7799 97.0658 18.1721 97.2008 17.5784C97.3107 17.0878 97.5048 16.6201 97.7748 16.1962C98.0183 15.8163 98.361 15.5107 98.7659 15.3125C99.2082 15.1072 99.692 15.007 100.179 15.0198C100.319 15.0209 100.458 15.03 100.596 15.047C100.744 15.0647 100.89 15.09 101.035 15.1228C101.176 15.1571 101.315 15.1987 101.452 15.2475C101.582 15.2899 101.709 15.3426 101.831 15.4047H101.858V15.4426ZM107.577 8.72639V24.8095C107.573 25.0601 107.619 25.3087 107.712 25.5413C107.805 25.7679 107.943 25.9727 108.118 26.1431C108.29 26.3171 108.494 26.4553 108.72 26.5496C109.19 26.7303 109.711 26.7303 110.182 26.5496C110.407 26.4553 110.611 26.3171 110.783 26.1431C110.957 25.9726 111.093 25.7676 111.183 25.5413C111.277 25.3087 111.323 25.0601 111.319 24.8095V16.1853C111.507 16.0256 111.706 15.8789 111.915 15.7461C112.136 15.6115 112.363 15.4884 112.597 15.3776C112.819 15.2692 113.051 15.1838 113.29 15.1228C113.503 15.0687 113.721 15.0397 113.94 15.0361C114.248 15.0331 114.554 15.075 114.85 15.1607C115.113 15.2366 115.359 15.3616 115.575 15.5294C115.805 15.7239 115.971 15.9825 116.052 16.272C116.163 16.665 116.214 17.0726 116.204 17.4807V24.8095C116.203 25.0598 116.249 25.3081 116.339 25.5413C116.535 26.0033 116.904 26.3694 117.368 26.5604C117.839 26.7412 118.359 26.7412 118.83 26.5604C119.283 26.3673 119.645 26.006 119.837 25.5522C119.928 25.3189 119.974 25.0707 119.973 24.8204V17.4645C119.991 16.6195 119.879 15.7768 119.643 14.9656C119.466 14.3281 119.132 13.7449 118.673 13.2689C118.239 12.8371 117.716 12.5059 117.141 12.2986C116.493 12.0723 115.811 11.9622 115.126 11.9734C114.794 11.9731 114.462 12.0003 114.135 12.0547C113.809 12.1073 113.489 12.187 113.176 12.2932C112.862 12.3987 112.557 12.533 112.267 12.6943C111.964 12.8637 111.676 13.0577 111.406 13.2743L111.319 13.3394V8.72639C111.323 8.47589 111.277 8.22715 111.183 7.99461C111.093 7.76831 110.957 7.56337 110.783 7.3929C110.611 7.21893 110.407 7.08076 110.182 6.98635C109.711 6.80567 109.19 6.80567 108.72 6.98635C108.494 7.08076 108.29 7.21893 108.118 7.3929C107.943 7.56316 107.805 7.76806 107.712 7.99461C107.619 8.22715 107.573 8.47589 107.577 8.72639ZM126.369 12.4667V8.72639C126.37 8.47611 126.324 8.22786 126.233 7.99461C126.14 7.76834 126.002 7.56356 125.827 7.3929C125.655 7.21893 125.451 7.08076 125.226 6.98635C124.755 6.80567 124.234 6.80567 123.764 6.98635C123.537 7.07876 123.333 7.2172 123.163 7.3929C122.989 7.56462 122.851 7.76913 122.756 7.99461C122.668 8.22822 122.624 8.47647 122.626 8.72639C122.626 9.33892 122.626 9.52865 122.626 9.71838C122.626 9.9081 122.626 10.1087 122.626 10.7104V24.7174C122.585 25.1835 122.683 25.6515 122.908 26.0617C123.07 26.2953 123.287 26.4846 123.541 26.6124C123.794 26.7403 124.076 26.8025 124.359 26.7935C124.82 26.8224 125.276 26.6986 125.659 26.4411C125.839 26.3409 125.995 26.2027 126.117 26.0361C126.239 25.8696 126.323 25.6786 126.363 25.4763V25.3679L126.434 25.4492C126.777 25.8599 127.208 26.1878 127.695 26.4086C128.728 26.7683 129.837 26.8505 130.912 26.6471C131.262 26.5733 131.603 26.4644 131.93 26.322C132.262 26.1781 132.577 25.9963 132.867 25.7798C133.17 25.5476 133.446 25.2821 133.69 24.9884C133.956 24.6709 134.186 24.3254 134.378 23.9586C134.595 23.5522 134.776 23.1278 134.92 22.6901C135.083 22.1941 135.201 21.6842 135.272 21.1669C135.35 20.5756 135.388 19.9798 135.385 19.3835C135.398 18.3707 135.257 17.3619 134.968 16.3913C134.718 15.5377 134.308 14.7395 133.761 14.0387C133.212 13.3625 132.5 12.8381 131.692 12.5154C130.773 12.1574 129.792 11.9842 128.805 12.0059C128.603 12.0049 128.4 12.0176 128.199 12.0439C127.994 12.0705 127.792 12.1104 127.592 12.1631L127.008 12.3257C126.813 12.3799 126.634 12.4396 126.466 12.4992H126.401V12.4667H126.369ZM126.369 22.5546V15.5402C126.541 15.4447 126.722 15.3666 126.91 15.3071C127.114 15.2425 127.322 15.1919 127.533 15.1553C127.755 15.1173 127.966 15.0848 128.166 15.0686C128.346 15.0477 128.527 15.0368 128.708 15.0361C129.173 15.0236 129.634 15.124 130.051 15.3289C130.43 15.5295 130.743 15.8366 130.95 16.2124C131.188 16.6438 131.356 17.1104 131.448 17.5946C131.564 18.1911 131.621 18.7975 131.616 19.4051C131.623 20.009 131.568 20.6119 131.454 21.2047C131.364 21.6846 131.199 22.1473 130.966 22.5762C130.776 22.9347 130.494 23.236 130.149 23.4489C129.799 23.6488 129.403 23.75 129 23.7417C128.796 23.7388 128.593 23.7134 128.394 23.6658C128.161 23.6091 127.933 23.5348 127.712 23.4435C127.47 23.345 127.238 23.2253 127.018 23.0858C126.79 22.9373 126.575 22.7706 126.374 22.5871L126.369 22.5546ZM156.099 14.9656C156.393 14.9003 156.693 14.8694 156.993 14.8734C157.193 14.8734 157.394 14.8734 157.583 14.9005C157.775 14.9216 157.964 14.9523 158.151 14.9927C158.331 15.0307 158.51 15.0795 158.693 15.1336C158.877 15.1878 159.051 15.2528 159.234 15.3125L159.728 15.4751L160.118 15.6052C160.256 15.6514 160.397 15.6877 160.541 15.7136C160.68 15.7352 160.821 15.7461 160.962 15.7461C161.172 15.7536 161.381 15.7166 161.574 15.6377C161.742 15.5698 161.889 15.4596 162.002 15.318C162.108 15.1755 162.195 15.0185 162.257 14.8518C162.311 14.6875 162.339 14.5154 162.338 14.3422C162.339 14.1837 162.314 14.0261 162.263 13.876C162.212 13.7317 162.132 13.599 162.029 13.4858C161.924 13.3643 161.807 13.2519 161.682 13.1497C161.558 13.0553 161.426 12.9719 161.288 12.9003C161.001 12.758 160.701 12.6419 160.394 12.5534C160.047 12.445 159.651 12.3528 159.207 12.2607C158.763 12.1685 158.336 12.1089 157.935 12.0655C157.557 12.0235 157.178 12.0018 156.798 12.0005C156.461 11.9997 156.125 12.0232 155.79 12.071C155.121 12.16 154.466 12.3424 153.846 12.613C153.555 12.7453 153.276 12.9031 153.012 13.0846C152.498 13.4348 152.07 13.8984 151.761 14.4398C151.602 14.7181 151.482 15.0173 151.404 15.3289C151.325 15.6644 151.284 16.0083 151.286 16.3533C151.28 16.7085 151.326 17.0626 151.421 17.4049C151.5 17.7118 151.634 18.0019 151.815 18.2614C151.991 18.511 152.186 18.7449 152.4 18.9606C152.618 19.1615 152.85 19.343 153.099 19.5028C153.347 19.672 153.605 19.8242 153.873 19.958C154.137 20.0876 154.409 20.2016 154.686 20.2996L155.471 20.5652C155.715 20.6465 155.937 20.7115 156.143 20.7657C156.587 20.885 156.987 21.0042 157.34 21.1289C157.653 21.2325 157.961 21.3555 158.261 21.4975C158.493 21.6016 158.7 21.7594 158.861 21.9583C158.994 22.1324 159.065 22.3462 159.062 22.5653C159.063 22.746 159.017 22.9237 158.927 23.0804C158.822 23.2511 158.681 23.3972 158.514 23.5085C158.318 23.6476 158.094 23.747 157.859 23.8013C157.569 23.8703 157.271 23.9031 156.971 23.8989C156.779 23.8984 156.588 23.8875 156.398 23.8663C156.203 23.8663 155.996 23.8122 155.786 23.7688C155.574 23.7254 155.363 23.6767 155.162 23.6224C154.962 23.5682 154.746 23.5194 154.539 23.4598L153.705 23.2104L153.564 23.1671C153.41 23.1206 153.254 23.0844 153.093 23.0586C152.942 23.037 152.787 23.0261 152.633 23.0261C152.412 23.0208 152.193 23.0613 151.989 23.1454C151.805 23.221 151.644 23.3444 151.523 23.5032C151.401 23.651 151.305 23.8176 151.236 23.9964C151.169 24.1691 151.136 24.3532 151.139 24.5385C151.139 24.6966 151.163 24.8538 151.209 25.0046C151.257 25.1427 151.328 25.271 151.421 25.3842C151.52 25.4988 151.632 25.6008 151.757 25.6877C151.901 25.7904 152.055 25.8792 152.216 25.9533C152.369 26.0183 152.531 26.0835 152.715 26.1485C152.892 26.2115 153.074 26.2658 153.257 26.3111C153.467 26.3652 153.678 26.4195 153.896 26.4629C154.112 26.5062 154.317 26.5496 154.535 26.5875C154.751 26.6255 154.973 26.6634 155.195 26.6905L155.823 26.7501L156.425 26.7826H156.966C157.337 26.7813 157.707 26.7577 158.076 26.7123C158.441 26.6689 158.804 26.6 159.159 26.5062C159.498 26.4186 159.83 26.3044 160.151 26.1647C160.455 26.0365 160.746 25.8804 161.022 25.6986C161.286 25.5246 161.529 25.3208 161.748 25.0914C161.955 24.8626 162.137 24.6117 162.29 24.3433C162.455 24.0667 162.579 23.7672 162.657 23.4544C162.74 23.1191 162.78 22.7751 162.777 22.4298C162.779 22.0993 162.741 21.7699 162.663 21.4488C162.591 21.1617 162.477 20.8874 162.321 20.6356C162.164 20.3939 161.982 20.1688 161.78 19.9634C161.586 19.759 161.37 19.5772 161.136 19.4214C160.649 19.0827 160.119 18.8111 159.56 18.6137C159.273 18.5053 158.991 18.4023 158.709 18.3102C158.429 18.2181 158.168 18.1313 157.908 18.0608C157.485 17.9415 157.107 17.8169 156.761 17.6976C156.413 17.5784 156.105 17.4429 155.829 17.3127C155.582 17.2032 155.366 17.0337 155.201 16.8194C155.054 16.6245 154.977 16.3856 154.983 16.1419C154.985 15.9737 155.025 15.8083 155.103 15.6595C155.19 15.4975 155.31 15.3552 155.454 15.2421C155.637 15.1063 155.846 15.0103 156.066 14.9602L156.099 14.9656ZM168.209 21.8444C168.098 21.4529 168.042 21.0479 168.045 20.6411V20.5868H175.292C175.476 20.5877 175.659 20.5585 175.833 20.5001C176 20.4442 176.153 20.3537 176.283 20.2346C176.438 20.0757 176.54 19.8732 176.576 19.6545C176.649 19.2981 176.684 18.9344 176.678 18.5703C176.681 17.7127 176.573 16.8585 176.358 16.028C176.255 15.6425 176.117 15.267 175.947 14.906C175.782 14.5621 175.58 14.2368 175.346 13.9357C175.113 13.6339 174.842 13.3642 174.539 13.1334C173.858 12.6181 173.063 12.2742 172.221 12.1306C171.719 12.0407 171.21 11.9972 170.699 12.0005C169.745 11.982 168.795 12.1514 167.906 12.4992C167.12 12.8243 166.425 13.3381 165.885 13.9953C165.332 14.6863 164.916 15.4776 164.661 16.3262C164.378 17.3015 164.241 18.3136 164.255 19.3292C164.253 19.8585 164.286 20.3871 164.352 20.9121C164.42 21.4015 164.523 21.8853 164.661 22.3595C164.787 22.8004 164.957 23.2274 165.17 23.6333C165.375 24.019 165.621 24.3822 165.902 24.7174C166.182 25.0467 166.502 25.3397 166.854 25.5902C167.222 25.8521 167.618 26.072 168.035 26.246C168.489 26.4348 168.963 26.573 169.449 26.658C169.985 26.7536 170.528 26.8008 171.074 26.7989C171.425 26.7987 171.774 26.7807 172.124 26.7448C172.497 26.7123 172.887 26.6634 173.304 26.593C173.688 26.5347 174.066 26.4477 174.437 26.3327C174.755 26.2403 175.064 26.1149 175.356 25.9587C175.497 25.8848 175.629 25.7977 175.752 25.6986C175.869 25.6067 175.976 25.5033 176.072 25.3895C176.165 25.2776 176.234 25.1488 176.277 25.0101C176.327 24.8599 176.351 24.7022 176.348 24.544C176.349 24.3809 176.321 24.219 176.261 24.067C176.199 23.9086 176.112 23.7619 176.001 23.6333C175.881 23.4945 175.725 23.3897 175.551 23.3296C175.349 23.2506 175.136 23.2066 174.918 23.1996C174.764 23.1998 174.611 23.2107 174.458 23.2321C174.299 23.2542 174.141 23.2869 173.987 23.3296C173.771 23.3839 173.543 23.4326 173.315 23.476L172.979 23.5465L172.779 23.5899C172.551 23.6481 172.319 23.6932 172.086 23.7254L171.599 23.7688C171.441 23.7688 171.284 23.7688 171.132 23.7688C170.627 23.7831 170.121 23.7041 169.643 23.5357C169.266 23.4007 168.938 23.1552 168.701 22.831C168.483 22.519 168.318 22.1727 168.213 21.8066L168.209 21.8444ZM173.223 18.2125H168.045V18.1584C168.066 17.7018 168.147 17.25 168.284 16.8141C168.398 16.456 168.582 16.1243 168.825 15.8384C169.05 15.58 169.332 15.3777 169.649 15.2475C169.992 15.1061 170.361 15.0379 170.732 15.047C171.149 15.0355 171.564 15.1112 171.95 15.2692C172.272 15.4089 172.544 15.6458 172.725 15.9468C172.908 16.2571 173.046 16.5933 173.132 16.9442C173.228 17.3419 173.28 17.7491 173.288 18.1584V18.2125H173.223Z" fill="#D84F54"/>
<path fill-rule="evenodd" clip-rule="evenodd" d="M177.992 6.80471C178.455 6.8024 178.904 6.96091 179.262 7.25322C179.622 7.54552 179.868 7.95349 179.96 8.40746C180.053 8.86145 179.984 9.3333 179.768 9.74248C179.55 10.1517 179.198 10.4728 178.772 10.6511C178.344 10.8294 177.869 10.8537 177.425 10.72C176.982 10.5863 176.6 10.3028 176.342 9.91792C176.084 9.53304 175.968 9.07063 176.013 8.60962C176.058 8.14863 176.262 7.71761 176.589 7.39015C176.772 7.20429 176.991 7.0568 177.231 6.95629C177.473 6.85577 177.731 6.80425 177.992 6.80471ZM178.707 9.66684L178.322 8.94046C178.439 8.89221 178.538 8.8112 178.61 8.70727C178.68 8.60335 178.721 8.48097 178.724 8.35503C178.725 8.17805 178.659 8.00695 178.538 7.8783C178.416 7.74965 178.25 7.67366 178.073 7.66661H177.396C177.351 7.6693 177.309 7.6886 177.279 7.7207C177.248 7.75281 177.23 7.79538 177.228 7.84007V9.759C177.236 9.80042 177.257 9.83794 177.29 9.86499C177.321 9.89203 177.362 9.90685 177.404 9.90685C177.446 9.90685 177.488 9.89203 177.519 9.86499C177.551 9.83794 177.573 9.80042 177.581 9.759V9.00009H177.959L178.392 9.82946C178.407 9.8589 178.43 9.88368 178.457 9.90096C178.485 9.91822 178.517 9.92725 178.55 9.92703C178.577 9.93442 178.604 9.93442 178.631 9.92703C178.673 9.9051 178.703 9.86785 178.718 9.82326C178.731 9.77867 178.728 9.7303 178.707 9.68853V9.66684ZM177.581 8.04064V8.67486H178.052C178.133 8.67636 178.212 8.64612 178.271 8.59048C178.331 8.53485 178.367 8.45819 178.371 8.37671C178.373 8.29402 178.343 8.2138 178.287 8.15237C178.232 8.09095 178.155 8.05294 178.073 8.04605L177.581 8.04064ZM179.102 7.68829C178.842 7.42884 178.5 7.26747 178.136 7.23166C177.771 7.19585 177.404 7.2878 177.099 7.49187C176.795 7.69593 176.57 7.99951 176.463 8.3509C176.357 8.70232 176.375 9.07983 176.514 9.41921C176.655 9.75859 176.909 10.0389 177.231 10.2123C177.555 10.3857 177.929 10.4417 178.289 10.3705C178.649 10.2994 178.973 10.1056 179.205 9.82213C179.439 9.53865 179.567 9.18303 179.568 8.81579C179.573 8.60485 179.535 8.39514 179.457 8.19879C179.381 8.00245 179.265 7.82341 179.118 7.67202L179.102 7.68829Z" fill="#D84F54"/>
</svg>
