<svg width="40" height="21" viewBox="0 0 40 21" fill="none" xmlns="http://www.w3.org/2000/svg">
<g opacity="0.5">
<path d="M13.0664 13.9531H11.3125V20.8764H13.0664V13.9531Z" fill="#6D6969"/>
<path d="M27.2088 15.9387C27.1382 15.9022 26.5743 15.5691 25.7354 15.5691C24.5993 15.5691 23.8132 16.3554 23.8132 17.4157C23.8132 18.4444 24.5665 19.2639 25.7354 19.2639C26.5599 19.2639 27.1332 18.938 27.2088 18.8965V20.7547C26.991 20.8162 26.3927 21.001 25.6093 21.001C23.6377 21.001 21.9082 19.6463 21.9082 17.4157C21.9082 15.3483 23.4749 13.832 25.6093 13.832C26.4349 13.832 27.0438 14.0318 27.2088 14.0805V15.9387Z" fill="#6D6969"/>
<path d="M8.90213 15.9387C8.83157 15.9022 8.26768 15.5691 7.42879 15.5691C6.29268 15.5691 5.50657 16.3554 5.50657 17.4157C5.50657 18.4444 6.2599 19.2639 7.42879 19.2639C8.25324 19.2639 8.82657 18.938 8.90213 18.8965V20.7547C8.68435 20.8162 8.08602 21.001 7.30268 21.001C5.33101 21.001 3.60156 19.6463 3.60156 17.4157C3.60156 15.3483 5.16823 13.832 7.30268 13.832C8.12824 13.832 8.73713 14.0318 8.90213 14.0805V15.9387Z" fill="#6D6969"/>
<path d="M32.7272 15.5951C31.6866 15.5951 30.9139 16.4108 30.9139 17.4157C30.9139 18.4228 31.6866 19.2379 32.7272 19.2379C33.7667 19.2379 34.5417 18.4228 34.5417 17.4157C34.5417 16.4108 33.7667 15.5951 32.7272 15.5951ZM36.4 17.4157C36.4 19.3962 34.865 21.001 32.7272 21.001C30.5894 21.001 29.0566 19.3962 29.0566 17.4157C29.0566 15.4385 30.5894 13.832 32.7272 13.832C34.865 13.832 36.4 15.4385 36.4 17.4157Z" fill="#6D6969"/>
<path d="M19.7194 15.5264C19.6933 15.5181 18.9549 15.315 18.3483 15.315C17.6455 15.315 17.2633 15.5497 17.2633 15.8822C17.2633 16.3039 17.7788 16.4511 18.0672 16.5419L18.551 16.6952C19.6894 17.056 20.2083 17.8323 20.2083 18.6757C20.2083 20.4149 18.6727 20.9993 17.3305 20.9993C16.3977 20.9993 15.5238 20.8283 15.4377 20.81V19.2169C15.5921 19.2556 16.3277 19.4742 17.0938 19.4742C17.9666 19.4742 18.3677 19.2202 18.3677 18.8279C18.3677 18.477 18.0205 18.2745 17.5855 18.1384C17.4794 18.1029 17.3199 18.0531 17.211 18.0177C16.2344 17.71 15.4199 17.1384 15.4199 15.9924C15.4199 14.6975 16.3933 13.8281 18.0099 13.8281C18.8638 13.8281 19.6672 14.0345 19.7194 14.0484V15.5264Z" fill="#6D6969"/>
<path d="M1.74167 6.51616C1.74167 6.03915 1.35056 5.65234 0.871113 5.65234C0.391667 5.65234 0 6.03915 0 6.51616V8.33344C0 8.81322 0.391667 9.20058 0.871113 9.20058C1.35056 9.20058 1.74167 8.81322 1.74167 8.33344V6.51616Z" fill="#6D6969"/>
<path d="M6.52487 4.12664C6.52487 3.64963 6.13376 3.26172 5.65432 3.26172C5.17432 3.26172 4.7832 3.64963 4.7832 4.12664V8.32952C4.7832 8.80929 5.17432 9.1961 5.65432 9.1961C6.13376 9.1961 6.52487 8.80929 6.52487 8.32952V4.12664Z" fill="#6D6969"/>
<path d="M11.3081 0.86437C11.3081 0.387362 10.917 0 10.4375 0C9.95752 0 9.56641 0.387362 9.56641 0.86437V10.0576C9.56641 10.5373 9.95752 10.9247 10.4375 10.9247C10.917 10.9247 11.3081 10.5373 11.3081 10.0576V0.86437Z" fill="#6D6969"/>
<path d="M16.0913 4.12664C16.0913 3.64963 15.7002 3.26172 15.2207 3.26172C14.7407 3.26172 14.3496 3.64963 14.3496 4.12664V8.32952C14.3496 8.80929 14.7407 9.1961 15.2207 9.1961C15.7002 9.1961 16.0913 8.80929 16.0913 8.32952V4.12664Z" fill="#6D6969"/>
<path d="M20.8689 6.51616C20.8689 6.03915 20.4806 5.65234 20.0034 5.65234C19.5239 5.65234 19.1328 6.03915 19.1328 6.51616V8.33344C19.1328 8.81322 19.5239 9.20058 20.0034 9.20058C20.4806 9.20058 20.8689 8.81322 20.8689 8.33344V6.51616Z" fill="#6D6969"/>
<path d="M20.8706 6.51616C20.8706 6.03915 20.4795 5.65234 20 5.65234C19.5206 5.65234 19.1289 6.03915 19.1289 6.51616V8.33344C19.1289 8.81322 19.5206 9.20058 20 9.20058C20.4795 9.20058 20.8706 8.81322 20.8706 8.33344V6.51616Z" fill="#6D6969"/>
<path d="M25.6538 4.12664C25.6538 3.64963 25.2627 3.26172 24.7832 3.26172C24.3032 3.26172 23.9121 3.64963 23.9121 4.12664V8.32952C23.9121 8.80929 24.3032 9.1961 24.7832 9.1961C25.2627 9.1961 25.6538 8.80929 25.6538 8.32952V4.12664Z" fill="#6D6969"/>
<path d="M30.437 0.86437C30.437 0.387362 30.0459 0 29.5664 0C29.0864 0 28.6953 0.387362 28.6953 0.86437V10.0576C28.6953 10.5373 29.0864 10.9247 29.5664 10.9247C30.0459 10.9247 30.437 10.5373 30.437 10.0576V0.86437Z" fill="#6D6969"/>
<path d="M35.2202 4.12664C35.2202 3.64963 34.8291 3.26172 34.3496 3.26172C33.8696 3.26172 33.4785 3.64963 33.4785 4.12664V8.32952C33.4785 8.80929 33.8696 9.1961 34.3496 9.1961C34.8291 9.1961 35.2202 8.80929 35.2202 8.32952V4.12664Z" fill="#6D6969"/>
<path d="M39.9978 6.51616C39.9978 6.03915 39.6095 5.65234 39.1323 5.65234C38.6528 5.65234 38.2617 6.03915 38.2617 6.51616V8.33344C38.2617 8.81322 38.6528 9.20058 39.1323 9.20058C39.6095 9.20058 39.9978 8.81322 39.9978 8.33344V6.51616Z" fill="#6D6969"/>
<path d="M38.9969 19.9648V20.0733H38.6869V20.8763H38.5597V20.0733H38.248V19.9648H38.9969Z" fill="#6D6969"/>
<path d="M39.0625 19.9648H39.2619L39.5358 20.7125H39.5403L39.8053 19.9648H40.0008V20.8763H39.8703V20.1292H39.8658L39.5881 20.8763H39.4675L39.1964 20.1292H39.1903V20.8763H39.0625V19.9648Z" fill="#6D6969"/>
</g>
</svg>
