<svg width="40" height="40" viewBox="0 0 40 40" fill="none" xmlns="http://www.w3.org/2000/svg">
<g opacity="0.5">
<path d="M6.66602 19.9974C6.66602 12.6336 12.6357 6.66406 19.9993 6.66406C27.363 6.66406 33.3326 12.6336 33.3326 19.9974C33.3326 27.3611 27.363 33.3306 19.9993 33.3306C12.6357 33.3306 6.66602 27.3611 6.66602 19.9974Z" fill="#F8F7F7"/>
<path d="M19.9999 39.9999C15.03 39.8799 13.0626 36.5576 12.462 33.3489C12.136 31.6047 12.279 28.7045 12.462 27.6693C12.7593 25.9822 13.24 23.5573 13.7716 20.7434C14.5323 16.7114 16.5513 14.418 20.9093 13.6002L28.0376 12.2389C28.2262 11.1808 28.5842 8.37857 28.2582 6.65138C27.6522 3.40862 25.1529 0.0514725 20.0799 0C9.03063 9.6597e-07 0 8.95051 0 19.9999C0 31.0494 8.9503 39.9999 19.9999 39.9999Z" fill="url(#paint0_linear_1_135476)"/>
<path d="M20.0006 0C24.9706 0.120103 27.4296 3.44866 28.0303 6.65711C28.3563 8.40147 27.7213 11.2954 27.5383 12.3305C27.241 14.0177 26.7606 16.4426 26.2286 19.2564C25.468 23.2885 23.4493 25.5819 19.0913 26.3997L12.4577 27.7021C12.269 28.7601 11.6457 31.6197 11.9717 33.3469C12.5777 36.5896 14.8477 39.9485 19.9206 39.9999C30.9699 39.9999 40.0006 31.0494 40.0006 19.9999C40.0006 8.95051 31.0499 0 20.0006 0Z" fill="url(#paint1_linear_1_135476)"/>
</g>
<defs>
<linearGradient id="paint0_linear_1_135476" x1="7.03297e-07" y1="39.9999" x2="31.4772" y2="2.24192" gradientUnits="userSpaceOnUse">
<stop stop-color="#9E9E9E"/>
<stop offset="1" stop-color="#6B6B6B"/>
</linearGradient>
<linearGradient id="paint1_linear_1_135476" x1="40.0006" y1="-9.52787e-07" x2="8.03035" y2="36.6422" gradientUnits="userSpaceOnUse">
<stop stop-color="#9E9E9E"/>
<stop offset="1" stop-color="#6B6B6B"/>
</linearGradient>
</defs>
</svg>
