<svg width="45" height="44" viewBox="0 0 45 44" fill="none" xmlns="http://www.w3.org/2000/svg">
<g opacity="0.5">
<path d="M43.8978 26.6249C43.7811 26.6036 43.6326 26.5612 43.5265 26.5399C43.0809 26.4656 42.7202 26.4762 42.3064 26.4337C41.4046 26.3488 40.6831 26.2638 40.0147 26.0514C39.7495 25.9452 39.5585 25.6266 39.463 25.4991L38.9431 25.3505C39.2084 23.4176 39.1341 21.3997 38.6779 19.3819C38.2111 17.3428 37.3835 15.4843 36.2907 13.8381C36.4287 13.7107 36.6727 13.4983 36.7363 13.4346C36.7576 13.2115 36.7363 12.9673 36.9698 12.7124C37.479 12.2451 38.105 11.8522 38.8689 11.3743C39.2296 11.1618 39.5691 11.0238 39.9405 10.7583C40.0147 10.7052 40.1314 10.599 40.2163 10.5353C40.8317 10.0361 40.9696 9.19711 40.5346 8.64485C40.0996 8.0926 39.2402 8.0395 38.6249 8.52803C38.54 8.59175 38.4233 8.68734 38.349 8.75106C37.9989 9.04842 37.7973 9.33517 37.5109 9.65378C36.8849 10.291 36.3544 10.8326 35.7921 11.2149C35.5481 11.3636 35.1873 11.2999 35.0176 11.2999L34.5402 11.6504C31.771 8.74044 27.994 6.8819 23.9305 6.51019C23.9199 6.34027 23.9093 6.03228 23.8987 5.9367C23.729 5.7774 23.5274 5.63933 23.4849 5.29949C23.4319 4.60917 23.5168 3.87638 23.6335 2.98428C23.6865 2.57009 23.7926 2.21962 23.8138 1.77358V1.41249C23.8138 0.626593 23.2409 0 22.5301 0C21.8192 0 21.2463 0.637213 21.2463 1.41249V1.44435C21.2463 1.55055 21.2357 1.67799 21.2463 1.77358C21.2569 2.21962 21.363 2.57009 21.4267 2.98428C21.5434 3.87638 21.6282 4.60917 21.5752 5.29949C21.5221 5.55437 21.3312 5.79864 21.1614 5.95794L21.1296 6.49957C20.3657 6.56329 19.5912 6.68012 18.8167 6.86066C15.4959 7.61469 12.6419 9.32455 10.4669 11.6398C10.3184 11.5336 10.0744 11.3743 10.0107 11.3105C9.7879 11.3424 9.55449 11.4167 9.24681 11.2362C8.67389 10.8539 8.15402 10.3122 7.52805 9.67502C7.23098 9.36703 7.0294 9.08028 6.68989 8.7723C6.61563 8.70858 6.48831 8.613 6.41404 8.54927C6.1488 8.33687 5.83051 8.22005 5.52284 8.20943C5.13028 8.19881 4.74833 8.34749 4.50431 8.65548C4.06932 9.20773 4.19663 10.0467 4.8226 10.5459C4.83321 10.5459 4.83321 10.5565 4.84382 10.5565C4.9287 10.6202 5.03479 10.7158 5.10906 10.7689C5.46979 11.0344 5.8093 11.1725 6.15941 11.3849C6.92331 11.8522 7.55988 12.2451 8.05853 12.723C8.24951 12.9354 8.29195 13.2965 8.31317 13.4664L8.71633 13.8381C6.50953 17.1198 5.4804 21.198 6.08514 25.3611L5.54405 25.5204C5.39552 25.7009 5.20455 25.9877 4.99235 26.0726C4.33456 26.2744 3.59188 26.3488 2.70068 26.455C2.2869 26.4868 1.91556 26.4656 1.48057 26.5612C1.37447 26.5824 1.24716 26.6143 1.14106 26.6355H1.10923C0.355948 26.816 -0.121485 27.517 0.0270501 28.1967C0.175585 28.8764 0.918258 29.3012 1.68215 29.1313H1.70337C1.71398 29.1313 1.71398 29.1206 1.72459 29.1206C1.83069 29.0994 1.958 29.0781 2.05349 29.0463C2.48848 28.9295 2.80677 28.7489 3.19933 28.6109C4.03749 28.3029 4.74833 28.048 5.42735 27.963C5.7032 27.9418 6.01088 28.1436 6.15941 28.2179L6.72172 28.1117C8.00549 32.0943 10.6897 35.3016 14.0848 37.3301L13.8514 37.8929C13.9257 38.1053 14.0318 38.4027 13.9681 38.6151C13.7241 39.2523 13.2997 39.9426 12.8116 40.6967C12.5782 41.0471 12.3448 41.3126 12.122 41.7162C12.069 41.8224 12.0053 41.9605 11.9523 42.0667C11.6234 42.7782 11.8674 43.5854 12.4934 43.8827C13.1299 44.1907 13.915 43.8721 14.2546 43.1606C14.297 43.0544 14.3713 42.9269 14.4137 42.8313C14.5941 42.4171 14.6471 42.0561 14.785 41.6631C15.1245 40.8135 15.3155 39.9214 15.7717 39.3585C15.899 39.1992 16.1112 39.1461 16.3234 39.093L16.6205 38.562C19.5806 39.6984 22.912 40.0064 26.2222 39.2629C26.9755 39.093 27.7076 38.87 28.4078 38.6045C28.4821 38.7532 28.6412 39.0293 28.673 39.1036C28.8852 39.1674 29.1292 39.2205 29.3202 39.4966C29.6703 40.0913 29.9037 40.8029 30.2008 41.6419C30.3281 42.0454 30.3918 42.3959 30.5722 42.8101C30.6146 42.8951 30.6889 43.0331 30.7313 43.1393C31.0708 43.8509 31.8665 44.1695 32.4925 43.8615C33.1185 43.5535 33.3731 42.7464 33.0336 42.0454C32.9911 41.9392 32.9169 41.8012 32.8638 41.695C32.6516 41.2914 32.4182 41.0259 32.1742 40.6754C31.6968 39.9214 31.283 39.2948 31.039 38.6363C30.9329 38.2965 31.0602 38.0947 31.1451 37.8823C31.1026 37.8292 30.9859 37.5106 30.9329 37.3619C34.4659 35.2697 37.0759 31.935 38.296 28.0799C38.4657 28.1011 38.7416 28.1542 38.8477 28.1861C39.0386 28.0586 39.219 27.8887 39.5691 27.9205C40.2587 28.0268 40.9484 28.271 41.7971 28.5684C42.1897 28.7171 42.508 28.8976 42.943 29.0038C43.0279 29.025 43.1658 29.0463 43.2719 29.0675C43.2825 29.0675 43.2825 29.0782 43.2931 29.0782H43.3143C44.0676 29.2481 44.8103 28.8339 44.9694 28.1436C45.1286 27.5064 44.6511 26.8054 43.8978 26.6249ZM34.4871 14.7196V19.966H10.4881V14.7196H34.4871ZM30.9117 23.5981C31.0284 23.6725 31.1769 23.7256 31.3573 23.7256C31.4846 23.7256 31.5907 23.7149 31.718 23.6937C31.8347 23.6725 31.9302 23.6406 32.0151 23.6087L32.0999 24.1716C32.0681 24.1929 32.0257 24.2035 31.9514 24.2247C31.8984 24.246 31.8241 24.2566 31.7498 24.2672C31.6756 24.2778 31.6013 24.2884 31.5164 24.2991C31.4421 24.3097 31.3467 24.3097 31.2724 24.3097C31.0602 24.3097 30.8798 24.2778 30.7207 24.2035C30.5615 24.1291 30.4448 24.0442 30.3281 23.938C30.222 23.8211 30.1478 23.6937 30.1053 23.545C30.0629 23.3857 30.0311 23.2264 30.0311 23.0459C30.0311 22.8335 30.0629 22.6423 30.1372 22.483C30.2008 22.3237 30.2857 22.1856 30.3812 22.0794C30.4873 21.9626 30.604 21.8883 30.7419 21.8352C30.8798 21.7821 31.0071 21.7608 31.1557 21.7608C31.4952 21.7608 31.7498 21.867 31.9408 22.0794C32.1318 22.2918 32.2379 22.5998 32.2379 23.014V23.1521C32.2379 23.1946 32.2273 23.237 32.2273 23.2795H30.7313C30.7313 23.407 30.795 23.5132 30.9117 23.5981ZM28.8958 21.113V21.8352H29.6916V22.4087H28.8958V23.2583C28.8958 23.407 28.9171 23.5132 28.9701 23.6087C29.0125 23.6937 29.1186 23.7362 29.2672 23.7362C29.3308 23.7362 29.4157 23.7256 29.49 23.7149C29.5642 23.7043 29.6385 23.6831 29.6916 23.6618L29.7764 24.2035C29.7022 24.2353 29.6067 24.2672 29.5112 24.2884C29.4051 24.3097 29.299 24.3203 29.1505 24.3203C28.9701 24.3203 28.811 24.2991 28.7049 24.246C28.5775 24.1929 28.4927 24.1185 28.429 24.0335C28.3654 23.9486 28.3017 23.8318 28.2805 23.7043C28.2486 23.5769 28.238 23.4388 28.238 23.2795V21.2404L28.8958 21.113ZM32.7259 23.6087C32.8426 23.6512 32.9487 23.6831 33.076 23.7256C33.2033 23.7468 33.3094 23.7574 33.4261 23.7574C33.5535 23.7574 33.6383 23.7468 33.6808 23.7256C33.7232 23.7043 33.755 23.6618 33.755 23.5769C33.755 23.5238 33.7232 23.4707 33.6489 23.4282C33.5853 23.3857 33.4792 23.3432 33.3413 23.2901C33.2352 23.2477 33.1397 23.2158 33.0654 23.1627C32.9805 23.1202 32.9063 23.0777 32.8532 23.0034C32.8002 22.929 32.7471 22.8653 32.7153 22.791C32.6835 22.7166 32.6729 22.6104 32.6729 22.483C32.6729 22.26 32.7471 22.0794 32.9169 21.9414C33.0866 21.8033 33.3094 21.7396 33.5853 21.7396C33.7338 21.7396 33.8611 21.7502 33.9991 21.7714C34.137 21.7927 34.2325 21.8245 34.3174 21.8564L34.2006 22.398C34.1264 22.3768 34.0415 22.3449 33.9566 22.3237C33.8717 22.3025 33.7657 22.2918 33.6489 22.2918C33.4368 22.2918 33.3307 22.3449 33.3307 22.4724C33.3307 22.4936 33.3307 22.5255 33.3413 22.5467C33.3519 22.568 33.3625 22.5892 33.3943 22.6104C33.4261 22.6317 33.458 22.6529 33.511 22.6742C33.5535 22.6954 33.6171 22.7166 33.6914 22.7485C33.8399 22.8016 33.9566 22.8653 34.0521 22.9184C34.137 22.9715 34.2219 23.0352 34.2749 23.099C34.328 23.1627 34.3598 23.237 34.3916 23.3114C34.4128 23.3857 34.4235 23.4813 34.4235 23.5769C34.4235 23.8105 34.3386 23.9911 34.1688 24.1185C33.9991 24.246 33.755 24.2991 33.4261 24.2991C33.214 24.2991 33.0442 24.2778 32.9063 24.246C32.7683 24.2141 32.6729 24.1822 32.6092 24.161L32.7259 23.6087ZM26.4132 23.5981C26.5299 23.6725 26.6784 23.7256 26.8588 23.7256C26.9861 23.7256 27.0922 23.7149 27.2195 23.6937C27.3362 23.6725 27.4317 23.6406 27.5166 23.6087L27.6015 24.1716C27.5696 24.1929 27.5272 24.2035 27.4529 24.2247C27.3999 24.246 27.3256 24.2566 27.2513 24.2672C27.1771 24.2778 27.1028 24.2884 27.0179 24.2991C26.9437 24.3097 26.8482 24.3097 26.7739 24.3097C26.5617 24.3097 26.3814 24.2778 26.2222 24.2035C26.0631 24.1291 25.9464 24.0442 25.8297 23.938C25.7236 23.8211 25.6493 23.6937 25.6069 23.545C25.5644 23.3857 25.5326 23.2264 25.5326 23.0459C25.5326 22.8335 25.5644 22.6423 25.6387 22.483C25.7023 22.3237 25.7872 22.1856 25.8827 22.0794C25.9782 21.9732 26.1055 21.8883 26.2434 21.8352C26.3814 21.7821 26.5087 21.7608 26.6572 21.7608C26.9967 21.7608 27.2513 21.867 27.4423 22.0794C27.6333 22.2918 27.7394 22.5998 27.7394 23.014V23.1521C27.7394 23.1946 27.7288 23.237 27.7288 23.2795H26.2328C26.2434 23.407 26.3071 23.5132 26.4132 23.5981ZM24.3867 24.246V22.9609C24.3867 22.7379 24.3549 22.5786 24.3019 22.4936C24.2488 22.4087 24.1427 22.3556 23.9836 22.3556C23.9411 22.3556 23.8775 22.3556 23.835 22.3662C23.782 22.3662 23.729 22.3768 23.6865 22.3768V24.246H23.0287V21.9095C23.1454 21.8776 23.2833 21.8458 23.4637 21.8245C23.6441 21.8033 23.835 21.7821 24.026 21.7821C24.2276 21.7821 24.3867 21.8033 24.5247 21.8564C24.6626 21.9095 24.7581 21.9945 24.843 22.0794C24.9172 22.1856 24.9809 22.2918 25.0127 22.4299C25.0445 22.568 25.0552 22.706 25.0552 22.8759V24.246H24.3867ZM19.3153 23.5981C19.4321 23.6725 19.5806 23.7256 19.761 23.7256C19.8883 23.7256 19.9944 23.7149 20.1217 23.6937C20.2384 23.6725 20.3339 23.6406 20.4187 23.6087L20.5036 24.1716C20.4718 24.1929 20.4294 24.2035 20.3551 24.2247C20.302 24.246 20.2278 24.2566 20.1535 24.2672C20.0792 24.2778 20.005 24.2884 19.9201 24.2991C19.8458 24.3097 19.7503 24.3097 19.6761 24.3097C19.4639 24.3097 19.2835 24.2778 19.1244 24.2035C18.9652 24.1291 18.8485 24.0442 18.7318 23.938C18.6257 23.8211 18.5515 23.6937 18.509 23.545C18.4666 23.3857 18.4347 23.2264 18.4347 23.0459C18.4347 22.8335 18.4666 22.6423 18.5408 22.483C18.6045 22.3237 18.6894 22.1856 18.7849 22.0794C18.8804 21.9732 19.0077 21.8883 19.1456 21.8352C19.2835 21.7821 19.4108 21.7608 19.5594 21.7608C19.8989 21.7608 20.1535 21.867 20.3445 22.0794C20.5355 22.2918 20.6416 22.5998 20.6416 23.014V23.1521C20.6416 23.1946 20.6309 23.237 20.6309 23.2795H19.1244C19.135 23.407 19.1986 23.5132 19.3153 23.5981ZM21.9465 22.3662C21.8935 22.3768 21.8404 22.3768 21.8086 22.3874V24.246H21.1508V21.952C21.2781 21.9095 21.4054 21.8776 21.5752 21.8245C21.7343 21.7927 21.9147 21.7714 22.1163 21.7714C22.1481 21.7714 22.1906 21.7714 22.2542 21.7821C22.2966 21.7821 22.3603 21.7927 22.4027 21.8033C22.4452 21.8139 22.5088 21.8245 22.5513 21.8245C22.5937 21.8352 22.6362 21.8458 22.6892 21.8564L22.5725 22.4193C22.5195 22.4087 22.4346 22.3874 22.3603 22.3768C22.286 22.3662 22.1906 22.3556 22.1057 22.3556C22.0526 22.3556 22.0102 22.3556 21.9465 22.3662ZM12.4827 23.5344C12.5676 23.6618 12.6525 23.7787 12.7268 23.9061C12.801 24.0335 12.8647 24.1397 12.9177 24.246H12.1538C12.1114 24.1716 12.0478 24.076 11.9947 23.9804C11.9417 23.8849 11.8674 23.7893 11.8037 23.6831C11.7401 23.5769 11.6658 23.4919 11.5915 23.407C11.5173 23.322 11.443 23.237 11.3687 23.1839V24.2566H10.7109V20.7838L11.3687 20.6669V22.6848C11.4324 22.6104 11.5067 22.5361 11.5703 22.4618C11.634 22.3874 11.7082 22.3025 11.7719 22.2281C11.8356 22.1538 11.8992 22.0688 11.9523 22.0051C12.0053 21.9414 12.069 21.867 12.1008 21.8245H12.8859C12.7268 22.0157 12.5676 22.1962 12.4297 22.3662C12.2812 22.5361 12.1114 22.7166 11.931 22.8972C12.0159 22.9715 12.1114 23.0777 12.2069 23.1945C12.3024 23.2901 12.3979 23.4176 12.4827 23.5344ZM13.2042 23.1627V21.8139H13.862V23.0883C13.862 23.3114 13.8938 23.4707 13.9469 23.5663C13.9999 23.6725 14.106 23.7149 14.2652 23.7149C14.3076 23.7149 14.3713 23.7149 14.4137 23.7043C14.4667 23.7043 14.5198 23.6937 14.5622 23.6937V21.8245H15.22V24.1504C15.1033 24.1822 14.9654 24.2141 14.785 24.2353C14.6047 24.2566 14.4137 24.2778 14.2227 24.2778C14.0211 24.2778 13.862 24.2566 13.7241 24.2035C13.5862 24.1504 13.4907 24.0654 13.4058 23.9698C13.3315 23.8636 13.2679 23.7574 13.236 23.6087C13.2254 23.4813 13.2042 23.3326 13.2042 23.1627ZM15.8566 20.7731L16.5144 20.6563V21.8564C16.5887 21.8245 16.6629 21.8033 16.7478 21.7821C16.8221 21.7608 16.9176 21.7608 17.0024 21.7608C17.1722 21.7608 17.3207 21.7927 17.4374 21.8458C17.5541 21.8989 17.6709 21.9945 17.7663 22.1007C17.8512 22.2175 17.9149 22.3449 17.9573 22.4936C17.9998 22.6423 18.021 22.8228 18.021 23.014C18.021 23.2052 17.9998 23.3857 17.9467 23.545C17.8937 23.7043 17.8088 23.8424 17.7133 23.9486C17.6072 24.0654 17.4799 24.1397 17.3313 24.2035C17.1722 24.2566 17.0024 24.2884 16.8115 24.2884C16.7372 24.2884 16.6417 24.2884 16.5675 24.2778L16.3128 24.246C16.2279 24.2353 16.1431 24.2247 16.0688 24.2035C15.9945 24.1929 15.9203 24.1716 15.8672 24.1504V20.7731H15.8566ZM10.4881 25.2867H34.4871V30.5331H10.4881V25.2867ZM30.6676 12.6487H24.2488L24.0897 9.90866C26.5193 10.1954 28.7897 11.1618 30.6676 12.6487ZM19.5275 10.1317C19.9838 10.0255 20.44 9.95114 20.8856 9.89804L20.7264 12.6381H14.2439C15.7505 11.4698 17.5435 10.5884 19.5275 10.1317ZM15.358 34.2183C14.6047 33.7404 13.915 33.1882 13.2679 32.551H16.037L15.358 34.2183ZM25.4689 35.9919C22.9757 36.5548 20.5036 36.3849 18.265 35.6202L19.9519 32.5616H25.087L26.7845 35.6308C26.3389 35.7689 25.9039 35.8857 25.4689 35.9919ZM29.6491 34.2502L28.9489 32.5616H31.771C31.1345 33.1882 30.413 33.751 29.6491 34.2502Z" fill="#6D6969"/>
<path d="M31.5687 22.6216C31.5581 22.5685 31.5263 22.5154 31.4945 22.4729C31.4626 22.4304 31.4202 22.3986 31.3565 22.3667C31.3035 22.3455 31.2398 22.3242 31.1656 22.3242C31.0913 22.3242 31.0276 22.3348 30.9746 22.3561C30.9215 22.3773 30.8685 22.4092 30.8367 22.4623C30.8048 22.5048 30.773 22.5472 30.7624 22.611C30.7412 22.6641 30.7306 22.7278 30.72 22.7809H31.6006L31.5687 22.6216ZM19.8981 22.4729C19.8663 22.4304 19.8239 22.3986 19.7602 22.3667C19.7072 22.3455 19.6435 22.3242 19.5692 22.3242C19.495 22.3242 19.4313 22.3348 19.3783 22.3561C19.3252 22.3773 19.2722 22.4092 19.2403 22.4623C19.2085 22.5048 19.1767 22.5472 19.1661 22.611C19.1449 22.6641 19.1342 22.7278 19.1236 22.7809H20.0042C20.0042 22.7278 19.9936 22.6641 19.9724 22.611C19.9406 22.5472 19.93 22.5154 19.8981 22.4729ZM26.996 22.4729C26.9642 22.4304 26.9217 22.3986 26.8581 22.3667C26.805 22.3455 26.7413 22.3242 26.6671 22.3242C26.5928 22.3242 26.5292 22.3348 26.4761 22.3561C26.4231 22.3773 26.37 22.4092 26.3382 22.4623C26.3064 22.5048 26.2745 22.5472 26.2639 22.611C26.2427 22.6641 26.2321 22.7278 26.2215 22.7809H27.1021C27.1021 22.7278 27.0915 22.6641 27.0702 22.611C27.049 22.5472 27.0384 22.5154 26.996 22.4729ZM16.5137 23.6942C16.5455 23.7048 16.5879 23.7048 16.641 23.7048C16.694 23.7048 16.7471 23.7155 16.8107 23.7155C16.9911 23.7155 17.129 23.6517 17.2245 23.5243C17.3094 23.3969 17.3624 23.2163 17.3624 23.0039C17.3624 22.5685 17.2033 22.3455 16.8956 22.3455C16.832 22.3455 16.7577 22.3561 16.694 22.3667C16.6304 22.3879 16.5667 22.4092 16.5349 22.4304V23.6942H16.5137Z" fill="#6D6969"/>
<path d="M31.7716 18.2147C32.249 18.2147 32.5673 17.8855 32.5673 17.4182V17.4076C32.5673 16.9403 32.2384 16.6111 31.7716 16.6111H31.326V18.2147H31.7716ZM18.5414 17.3651C18.8173 17.3651 18.987 17.2058 18.987 16.9828V16.9722C18.987 16.7279 18.8066 16.5898 18.5308 16.5898H17.9473V17.3545H18.5414V17.3651Z" fill="#ECEAEA"/>
<path d="M10.4883 14.7188V19.9651H34.4872V14.7188H10.4883ZM13.0664 18.7863C12.2813 18.7863 11.6978 18.1809 11.6978 17.4163V17.4057C11.6978 16.6516 12.2707 16.025 13.0876 16.025C13.5969 16.025 13.8834 16.195 14.1274 16.4392L13.756 16.864C13.5545 16.6729 13.3423 16.556 13.0664 16.556C12.6208 16.556 12.2919 16.9278 12.2919 17.3844V17.395C12.2919 17.8517 12.6102 18.2234 13.0664 18.2234C13.3741 18.2234 13.5651 18.096 13.7667 17.9048L14.138 18.2871C13.8834 18.5951 13.5757 18.7863 13.0664 18.7863ZM16.7373 18.7438H14.7215V16.0781H16.7267V16.5985H15.305V17.1402H16.5676V17.6606H15.305V18.2234H16.748V18.7544H16.7373V18.7438ZM18.976 18.7438L18.4031 17.8942H17.9468V18.7438H17.3633V16.0781H18.5728C18.9123 16.0781 19.167 16.1631 19.3473 16.3436C19.4959 16.4923 19.5701 16.7047 19.5701 16.949V16.9596C19.5701 17.3844 19.3367 17.6606 18.9972 17.7774L19.6444 18.7332H18.976V18.7438ZM22.2225 16.6198H21.4162V18.7438H20.8327V16.6198H20.0263V16.0781H22.2225V16.6198ZM23.379 18.7438H22.7954V16.0781H23.379V18.7438ZM30.7421 16.0781H31.7712C32.5987 16.0781 33.1823 16.6516 33.1823 17.4057V17.4163C33.1823 18.1703 32.6093 18.7544 31.7712 18.7544H30.7421V16.0781ZM30.1055 16.0781V16.5985H28.6838V17.1402H29.9463V17.6606H28.6838V18.2234H30.1267V18.7438H28.1109V16.0781H30.1055ZM27.3364 16.0781V18.7438H26.7528V16.0781H27.3364ZM26.1587 16.6091H24.7264V17.172H25.9995V17.703H24.7264V18.7332H24.1429V16.0675H26.1587V16.6091ZM30.5086 27.3674C30.201 27.3674 29.9888 27.6117 29.9888 27.9091C29.9888 28.2064 30.201 28.4507 30.5192 28.4507C30.8269 28.4507 31.0391 28.2064 31.0391 27.9091C31.0285 27.6117 30.8163 27.3674 30.5086 27.3674ZM27.4106 28.0577L27.1772 27.4949L26.9438 28.0577H27.4106Z" fill="#ECEAEA"/>
<path d="M34.4872 30.5433V25.2969H10.4883V30.5433H34.4872ZM15.3899 27.9094C15.3899 28.3874 15.0186 28.7697 14.4669 28.7697H13.7985V27.0492H14.4669C15.008 27.0492 15.3899 27.4103 15.3899 27.9094ZM16.5888 28.3767L16.1114 27.6439V28.7697H15.74V27.0492H16.1538L16.5994 27.782L17.045 27.0492H17.4588V28.7803H17.0769V27.6439L16.5888 28.3767ZM29.4477 27.3891H28.9172V28.7697H28.5352V27.3891H28.0154V27.0492H29.4477V27.3997V27.3891ZM31.4211 27.9094C31.4211 28.4086 31.0285 28.8122 30.498 28.8122C29.9569 28.8122 29.575 28.4192 29.575 27.9201C29.575 27.4209 29.9675 27.0174 30.498 27.0174C31.0391 27.0174 31.4211 27.4103 31.4211 27.9094ZM33.0656 27.2191C33.1717 27.3253 33.2141 27.4528 33.2141 27.6121C33.2141 27.8882 33.0656 28.0581 32.8428 28.1537L33.2671 28.7697H32.8215L32.4502 28.2174H32.1531V28.7697H31.7712V27.0492H32.5563C32.7685 27.0492 32.9489 27.1129 33.0656 27.2191ZM26.9969 27.028H27.347L28.0896 28.7697H27.6971L27.5379 28.3767H26.8059L26.6467 28.7697H26.2542L26.9969 27.028ZM24.6203 27.0492H25.4054C25.6282 27.0492 25.798 27.1023 25.9147 27.2298C26.0208 27.336 26.0632 27.4634 26.0632 27.6227C26.0632 27.8988 25.9147 28.0688 25.6919 28.1643L26.1163 28.7803H25.6707L25.2993 28.2281H25.0022V28.7803H24.6203V27.0492ZM22.9015 27.0492H24.3338V27.3997H23.8034V28.7803H23.432V27.3997H22.9015V27.0492ZM22.0103 28.0794C21.6602 27.9944 21.4374 27.8882 21.4374 27.5484C21.4374 27.2298 21.6814 27.028 22.0422 27.028C22.2862 27.028 22.509 27.1023 22.6787 27.251L22.4772 27.5484C22.318 27.4422 22.1695 27.3784 22.0316 27.3784C21.883 27.3784 21.8087 27.4422 21.8087 27.5271C21.8087 27.6439 21.883 27.6758 22.1801 27.7501C22.5302 27.8351 22.7318 27.9625 22.7318 28.2705C22.7318 28.621 22.4772 28.8122 22.0952 28.8122C21.8406 28.8122 21.5647 28.7272 21.3631 28.536L21.5859 28.2705C21.7451 28.398 21.9042 28.4829 22.1058 28.4829C22.265 28.4829 22.3498 28.4298 22.3498 28.313C22.3498 28.2068 22.2968 28.1537 22.0103 28.0794ZM20.6735 27.0492H21.0555V28.7803H20.6735V27.0492ZM18.7107 27.0492H19.0609L19.8672 28.1219V27.0492H20.2385V28.7803H19.9096L19.0715 27.6758V28.7803H18.7107V27.0492ZM18.2651 27.0492V28.7803H17.8832V27.0492H18.2651ZM12.4405 27.028H12.7906L13.5332 28.7697H13.1407L12.9815 28.3767H12.2495L12.0903 28.7697H11.6978L12.4405 27.028Z" fill="#ECEAEA"/>
<path d="M12.6095 27.4968L12.3867 28.0597H12.8323L12.6095 27.4968ZM32.5238 27.3906H32.1418V27.8898H32.5238C32.7042 27.8898 32.8209 27.7836 32.8209 27.6455C32.8315 27.4756 32.7148 27.3906 32.5238 27.3906ZM14.4768 27.3906H14.1797V28.4314H14.4768C14.7951 28.4314 14.9967 28.219 14.9967 27.911C14.9861 27.603 14.7845 27.3906 14.4768 27.3906ZM25.6912 27.6455C25.6912 27.4756 25.5745 27.4012 25.3835 27.4012H25.0016V27.9004H25.3835C25.5745 27.8898 25.6912 27.7836 25.6912 27.6455Z" fill="#ECEAEA"/>
<path d="M14.1595 18.3012L13.7882 17.9188C13.576 18.11 13.3956 18.2374 13.088 18.2374C12.6318 18.2374 12.3135 17.8551 12.3135 17.4091V17.3985C12.3135 16.9418 12.6424 16.5701 13.088 16.5701C13.3532 16.5701 13.5548 16.6869 13.7776 16.8781L14.1489 16.4533C13.9049 16.209 13.5972 16.0391 13.1092 16.0391C12.2922 16.0391 11.7193 16.655 11.7193 17.4197V17.4303C11.7193 18.195 12.3029 18.8003 13.088 18.8003C13.576 18.7897 13.8837 18.5985 14.1595 18.3012ZM15.3054 17.664H16.5467V17.1329H15.3054V16.5913H16.7271V16.0815H14.7219V18.7472H16.7377V18.2162H15.3054V17.664ZM19.5811 16.963C19.5811 16.7081 19.5068 16.4957 19.3583 16.347C19.1779 16.1665 18.9233 16.0815 18.5838 16.0815H17.3636V18.7472H17.9472V17.8976H18.4034L18.9763 18.7472H19.6659L19.0187 17.7914C19.3476 17.664 19.5811 17.3984 19.5811 16.963ZM17.9472 17.3666V16.6019H18.5307C18.8066 16.6019 18.9869 16.74 18.9869 16.9843V16.9949C18.9869 17.2179 18.8172 17.3772 18.5413 17.3772H17.9472V17.3666ZM20.0161 16.0815V16.6232H20.833V18.7472H21.4165V16.6232H22.2229V16.0815H20.0161ZM22.7958 16.0815H23.3793V18.7472H22.7958V16.0815ZM24.1432 16.0815V18.7472H24.7267V17.7064H25.9893V17.1754H24.7267V16.6126H26.159V16.0815H24.1432ZM26.7532 16.0815H27.3367V18.7472H26.7532V16.0815ZM28.09 18.7472H30.127V18.2162H28.6735V17.664H29.9361V17.1329H28.6735V16.5913H30.1058V16.0815H28.09V18.7472ZM31.7715 18.7472C32.5991 18.7472 33.1826 18.1631 33.1826 17.4091V17.3985C33.1826 16.6444 32.6097 16.0709 31.7715 16.0709H30.7424V18.7366H31.7715V18.7472ZM31.3259 16.6126H31.7715C32.249 16.6126 32.5672 16.9418 32.5672 17.4091V17.4197C32.5672 17.887 32.2383 18.2162 31.7715 18.2162H31.3259V16.6126ZM12.0801 28.7727L12.2392 28.3798H12.9713L13.1304 28.7727H13.523L12.7803 27.031H12.4302L11.6875 28.7727H12.0801ZM12.6105 27.4983L12.8333 28.0611H12.3771L12.6105 27.4983ZM14.4778 27.0522H13.8094V28.7833H14.4778C15.0189 28.7833 15.4009 28.401 15.4009 27.9231C15.3903 27.4133 15.0083 27.0522 14.4778 27.0522ZM14.9871 27.9231C14.9871 28.2311 14.7749 28.4435 14.4672 28.4435H14.1702V27.4027H14.4672C14.7855 27.3921 14.9871 27.6045 14.9871 27.9231ZM17.0772 28.7727H17.4591V27.0522H17.0454L16.5998 27.7744L16.1329 27.0522H15.7298V28.7727H16.1011V27.6576L16.5891 28.3798H16.5998L17.0772 27.6576V28.7727ZM17.8835 27.0522H18.2655V28.7833H17.8835V27.0522ZM19.0718 27.6788L19.9206 28.7727H20.2495V27.0522H19.8675V28.1142L19.0506 27.0522H18.7111V28.7727H19.0718V27.6788ZM20.6739 27.0522H21.0558V28.7833H20.6739V27.0522ZM22.1062 28.4647C21.9046 28.4647 21.7454 28.3904 21.5863 28.2523L21.3635 28.5178C21.5651 28.709 21.8303 28.7939 22.0955 28.7939C22.4669 28.7939 22.7321 28.6028 22.7321 28.2523C22.7321 27.9443 22.5305 27.8275 22.1804 27.7319C21.8727 27.6576 21.8091 27.6151 21.8091 27.5089C21.8091 27.4346 21.8833 27.3602 22.0319 27.3602C22.1804 27.3602 22.329 27.4239 22.4775 27.5301L22.6791 27.2328C22.4987 27.0841 22.2865 27.0097 22.0425 27.0097C21.6924 27.0097 21.4377 27.2115 21.4377 27.5301C21.4377 27.8806 21.6605 27.9656 22.0107 28.0611C22.3077 28.1355 22.3608 28.1886 22.3608 28.2842C22.3502 28.4116 22.2653 28.4647 22.1062 28.4647ZM23.4324 28.7727H23.8143V27.3921H24.3448V27.0522H22.9019V27.3921H23.4324V28.7727ZM25.0026 28.2311H25.2996L25.671 28.7833H26.1166L25.6922 28.1673C25.915 28.093 26.0635 27.9125 26.0635 27.6257C26.0635 27.4558 26.0105 27.3177 25.915 27.2328C25.7983 27.1159 25.6392 27.0522 25.4057 27.0522H24.6206V28.7833H25.0026V28.2311ZM25.0026 27.3921H25.3845C25.5755 27.3921 25.6922 27.4664 25.6922 27.6363C25.6922 27.785 25.5861 27.8806 25.3951 27.8806H25.0132V27.3815H25.0026V27.3921ZM26.8062 28.3904H27.5383L27.6974 28.7833H28.09L27.3473 27.0416H26.9972L26.2545 28.7833H26.6471L26.8062 28.3904ZM27.1776 27.4983L27.4004 28.0611H26.9441L27.1776 27.4983ZM28.0263 27.3921H28.5356V28.7727H28.9175V27.3921H29.448V27.0522H28.0263V27.3921ZM30.5196 27.0204C29.9785 27.0204 29.5965 27.4239 29.5965 27.9231C29.5965 28.4222 29.9785 28.8152 30.5196 28.8152C31.0607 28.8152 31.4426 28.4116 31.4426 27.9125C31.4214 27.4133 31.0395 27.0204 30.5196 27.0204ZM31.0288 27.9231C31.0288 28.2205 30.8167 28.4647 30.509 28.4647C30.2013 28.4647 29.9785 28.2205 29.9785 27.9231C29.9785 27.6257 30.1907 27.3815 30.4984 27.3815C30.8167 27.3708 31.0288 27.6151 31.0288 27.9231ZM31.7609 27.0522V28.7833H32.1429V28.2311H32.4399L32.8113 28.7833H33.2569L32.8325 28.1673C33.0553 28.093 33.2038 27.9125 33.2038 27.6257C33.2038 27.4558 33.1508 27.3177 33.0553 27.2328C32.9386 27.1159 32.7794 27.0522 32.546 27.0522H31.7609ZM32.8325 27.647C32.8325 27.7956 32.7264 27.8912 32.5354 27.8912H32.1535V27.3921H32.5354C32.7158 27.3921 32.8325 27.477 32.8325 27.647Z" fill="#6D6969"/>
<path d="M11.9408 22.8865C12.1212 22.706 12.2803 22.5254 12.4395 22.3555C12.588 22.1856 12.7471 22.005 12.8957 21.8139H12.1106C12.0681 21.867 12.0257 21.9307 11.962 21.9944C11.909 22.0581 11.8347 22.1431 11.7817 22.2174C11.718 22.2918 11.6437 22.3767 11.5801 22.4511C11.5164 22.5254 11.4422 22.6104 11.3785 22.6741V20.6562L10.7207 20.7731V24.2353H11.3785V23.1626C11.4528 23.2157 11.527 23.3007 11.6013 23.3856C11.6756 23.4706 11.7498 23.5662 11.8135 23.6618C11.8772 23.768 11.9514 23.8529 12.0045 23.9591C12.0575 24.0653 12.1212 24.1503 12.1636 24.2246H12.9275C12.8745 24.1184 12.8108 24.0122 12.7365 23.8848C12.6623 23.7574 12.5774 23.6405 12.4925 23.5131C12.4076 23.3856 12.3121 23.2688 12.2167 23.152C12.1106 23.067 12.0257 22.9608 11.9408 22.8865ZM13.4155 23.991C13.4898 24.0972 13.5959 24.1715 13.7338 24.2246C13.8718 24.2777 14.0415 24.299 14.2325 24.299C14.4235 24.299 14.6144 24.2884 14.7948 24.2565C14.9752 24.2246 15.1237 24.2034 15.2298 24.1715V21.8351H14.572V23.7043C14.5296 23.7149 14.4871 23.7149 14.4235 23.7149C14.3704 23.7149 14.3174 23.7255 14.2749 23.7255C14.1158 23.7255 14.0203 23.683 13.9566 23.5768C13.893 23.4706 13.8718 23.3219 13.8718 23.0989V21.8245H13.214V23.1732C13.214 23.3432 13.2246 23.4918 13.2564 23.6299C13.2988 23.768 13.3519 23.8848 13.4155 23.991ZM16.3014 24.2565L16.556 24.2884C16.6409 24.299 16.7258 24.299 16.8 24.299C16.991 24.299 17.1714 24.2671 17.3199 24.214C17.4684 24.1609 17.5957 24.0653 17.7018 23.9591C17.8079 23.8529 17.8822 23.7149 17.9352 23.5556C17.9883 23.3963 18.0095 23.2157 18.0095 23.0246C18.0095 22.8334 17.9883 22.6635 17.9459 22.5042C17.9034 22.3449 17.8292 22.2068 17.7549 22.1112C17.67 21.9944 17.5639 21.9201 17.426 21.8563C17.2987 21.8032 17.1607 21.7714 16.991 21.7714C16.9061 21.7714 16.8106 21.782 16.7364 21.7926C16.6621 21.8139 16.5772 21.8351 16.5029 21.867V20.6775L15.8452 20.7943V24.1715C15.8982 24.1928 15.9725 24.2034 16.0467 24.2246C16.1316 24.2353 16.2271 24.2459 16.3014 24.2565ZM16.6833 22.3767C16.747 22.3555 16.8212 22.3555 16.8849 22.3555C17.2032 22.3555 17.3517 22.5785 17.3517 23.0139C17.3517 23.2263 17.3093 23.3963 17.2138 23.5343C17.1289 23.6618 16.991 23.7255 16.8 23.7255C16.747 23.7255 16.6833 23.7255 16.6303 23.7149C16.5772 23.7149 16.5454 23.7043 16.5029 23.7043V22.4617C16.556 22.4192 16.6197 22.3873 16.6833 22.3767ZM20.6195 23.2582C20.6195 23.2263 20.6301 23.1839 20.6301 23.1308V22.9927C20.6301 22.5891 20.524 22.2705 20.333 22.0581C20.142 21.8457 19.8768 21.7395 19.5479 21.7395C19.3994 21.7395 19.2721 21.7608 19.1341 21.8139C18.9962 21.867 18.8795 21.9519 18.7734 22.0581C18.6673 22.1749 18.5824 22.3024 18.5294 22.4617C18.4657 22.621 18.4233 22.8122 18.4233 23.0246C18.4233 23.2051 18.4445 23.375 18.4976 23.5237C18.54 23.683 18.6249 23.7998 18.7204 23.9167C18.8265 24.0335 18.9538 24.1184 19.1129 24.1822C19.2721 24.2459 19.4524 24.2884 19.6646 24.2884C19.7389 24.2884 19.8344 24.2884 19.9086 24.2777C19.9829 24.2671 20.0678 24.2565 20.142 24.2459C20.2163 24.2353 20.28 24.214 20.3436 24.2034C20.3967 24.1822 20.4603 24.1715 20.4922 24.1503L20.4073 23.5874C20.333 23.6193 20.2375 23.6511 20.1102 23.6724C19.9935 23.6936 19.8768 23.7043 19.7495 23.7043C19.5585 23.7043 19.41 23.6618 19.3039 23.5768C19.1872 23.5025 19.1235 23.3856 19.1129 23.237L20.6195 23.2582ZM19.1235 22.7803C19.1341 22.7272 19.1447 22.6635 19.166 22.6104C19.1872 22.5573 19.2084 22.5042 19.2402 22.4617C19.2721 22.4192 19.3145 22.3873 19.3782 22.3555C19.4312 22.3342 19.4949 22.3236 19.5691 22.3236C19.6434 22.3236 19.7177 22.3342 19.7601 22.3661C19.8132 22.3873 19.845 22.4298 19.898 22.4723C19.9405 22.5042 19.9511 22.5573 19.9723 22.621C19.9935 22.6741 19.9935 22.7378 20.0041 22.7909H19.1129V22.7803H19.1235ZM22.5717 22.4298L22.6884 21.867C22.6565 21.8563 22.6141 21.8351 22.5504 21.8351C22.4974 21.8245 22.4443 21.8139 22.4019 21.8139C22.3489 21.8032 22.2958 21.8032 22.2534 21.7926C22.2003 21.7926 22.1685 21.782 22.1154 21.782C21.9139 21.782 21.7335 21.8032 21.5743 21.8351C21.4152 21.867 21.2667 21.9094 21.15 21.9625V24.2565H21.8078V22.398C21.8396 22.3873 21.882 22.3767 21.9457 22.3767C21.9987 22.3661 22.0624 22.3661 22.0942 22.3661C22.1791 22.3661 22.2746 22.3767 22.3489 22.3873C22.4337 22.3873 22.4974 22.4192 22.5717 22.4298ZM25.0543 22.8759C25.0543 22.706 25.0437 22.5573 25.0119 22.4298C24.98 22.2918 24.927 22.1856 24.8421 22.0794C24.7678 21.9732 24.6617 21.8988 24.5238 21.8563C24.3859 21.8032 24.2161 21.782 24.0252 21.782C23.8342 21.782 23.6432 21.7926 23.4629 21.8245C23.2825 21.8563 23.134 21.8776 23.0279 21.9094V24.2459H23.6857V22.3767C23.7281 22.3661 23.7705 22.3661 23.8342 22.3661C23.8979 22.3661 23.9403 22.3555 23.9827 22.3555C24.1419 22.3555 24.2374 22.398 24.301 22.4935C24.3541 22.5785 24.3859 22.7378 24.3859 22.9608V24.2459H25.0437L25.0543 22.8759ZM27.7385 23.1308V22.9927C27.7385 22.5891 27.6324 22.2705 27.4415 22.0581C27.2505 21.8457 26.9853 21.7395 26.6564 21.7395C26.5078 21.7395 26.3805 21.7608 26.2426 21.8139C26.1047 21.867 25.988 21.9519 25.8819 22.0581C25.7758 22.1643 25.6909 22.3024 25.6378 22.4617C25.5742 22.621 25.5317 22.8122 25.5317 23.0246C25.5317 23.2051 25.553 23.375 25.606 23.5237C25.6484 23.683 25.7333 23.7998 25.8288 23.9167C25.9349 24.0335 26.0622 24.1184 26.2214 24.1822C26.3805 24.2459 26.5609 24.2884 26.7731 24.2884C26.8473 24.2884 26.9428 24.2884 27.0171 24.2777C27.0914 24.2671 27.1762 24.2565 27.2505 24.2459C27.3248 24.2353 27.3884 24.214 27.4521 24.2034C27.5051 24.1822 27.5688 24.1715 27.6006 24.1503L27.5157 23.5874C27.4415 23.6193 27.346 23.6511 27.2187 23.6724C27.102 23.6936 26.9853 23.7043 26.8579 23.7043C26.667 23.7043 26.5184 23.6618 26.4123 23.5768C26.2956 23.5025 26.232 23.3856 26.2214 23.237H27.7279C27.7279 23.2263 27.7385 23.1839 27.7385 23.1308ZM26.2214 22.7803C26.232 22.7272 26.2426 22.6635 26.2638 22.6104C26.285 22.5573 26.3062 22.5042 26.3381 22.4617C26.3699 22.4192 26.4123 22.3873 26.476 22.3555C26.529 22.3342 26.5927 22.3236 26.667 22.3236C26.7412 22.3236 26.8155 22.3342 26.8579 22.3661C26.911 22.3873 26.9428 22.4298 26.9959 22.4723C27.0383 22.5042 27.0489 22.5573 27.0701 22.621C27.0914 22.6847 27.0914 22.7378 27.102 22.7909H26.2108V22.7803H26.2214ZM28.2372 23.2582C28.2372 23.4175 28.2478 23.5662 28.2796 23.683C28.3115 23.8105 28.3539 23.9167 28.4282 24.0122C28.4918 24.0972 28.5979 24.1715 28.704 24.2246C28.8313 24.2777 28.9693 24.299 29.1496 24.299C29.2982 24.299 29.4042 24.2884 29.5103 24.2671C29.6164 24.2459 29.7013 24.214 29.7756 24.1822L29.6907 23.6405C29.6271 23.6618 29.5528 23.683 29.4891 23.6936C29.4255 23.7043 29.3406 23.7149 29.2663 23.7149C29.1178 23.7149 29.0223 23.6724 28.9693 23.5874C28.9268 23.5025 28.895 23.3856 28.895 23.237V22.3873H29.6907V21.8139H28.895V21.1023L28.2372 21.2191V23.2582ZM32.2264 23.2582C32.2264 23.2263 32.237 23.1839 32.237 23.1308V22.9927C32.237 22.5891 32.1309 22.2705 31.94 22.0581C31.749 21.8457 31.4837 21.7395 31.1548 21.7395C31.0063 21.7395 30.879 21.7608 30.7411 21.8139C30.6031 21.867 30.4864 21.9519 30.3803 22.0581C30.2742 22.1749 30.1894 22.3024 30.1363 22.4617C30.0727 22.621 30.0302 22.8122 30.0302 23.0246C30.0302 23.2051 30.0514 23.375 30.1045 23.5237C30.1469 23.683 30.2318 23.7998 30.3273 23.9167C30.4334 24.0335 30.5607 24.1184 30.7198 24.1822C30.879 24.2459 31.0594 24.2884 31.2715 24.2884C31.3458 24.2884 31.4413 24.2884 31.5156 24.2777C31.5898 24.2671 31.6747 24.2565 31.749 24.2459C31.8232 24.2353 31.8869 24.214 31.9506 24.2034C32.0036 24.1822 32.0673 24.1715 32.0991 24.1503L32.0142 23.5874C31.94 23.6193 31.8445 23.6511 31.7171 23.6724C31.6004 23.6936 31.4837 23.7043 31.3564 23.7043C31.1654 23.7043 31.0169 23.6618 30.9108 23.5768C30.7941 23.5025 30.7305 23.3856 30.7198 23.237L32.2264 23.2582ZM30.7623 22.621C30.7835 22.5679 30.8047 22.5148 30.8365 22.4723C30.8684 22.4298 30.9108 22.398 30.9745 22.3661C31.0275 22.3449 31.0912 22.3342 31.1654 22.3342C31.2397 22.3342 31.314 22.3449 31.3564 22.3767C31.4095 22.398 31.4413 22.4404 31.4943 22.4829C31.5368 22.5148 31.5474 22.5679 31.5686 22.6316C31.5898 22.6953 31.5898 22.7484 31.6004 22.8015H30.7092C30.7305 22.7272 30.7411 22.6741 30.7623 22.621ZM33.4253 24.299C33.7436 24.299 33.9876 24.2459 34.168 24.1184C34.3377 23.991 34.4226 23.8105 34.4226 23.5768C34.4226 23.4706 34.412 23.3856 34.3908 23.3113C34.3696 23.237 34.3377 23.1626 34.2741 23.0989C34.221 23.0352 34.1361 22.9715 34.0513 22.9184C33.9664 22.8653 33.8391 22.8015 33.6905 22.7484C33.6269 22.7272 33.5526 22.6953 33.5102 22.6741C33.4677 22.6529 33.4359 22.6316 33.3935 22.6104C33.3616 22.5891 33.351 22.5679 33.3404 22.5466C33.3298 22.5254 33.3298 22.5042 33.3298 22.4723C33.3298 22.3449 33.4359 22.2918 33.6481 22.2918C33.7648 22.2918 33.8603 22.3024 33.9558 22.3236C34.0407 22.3449 34.1361 22.3661 34.1998 22.398L34.3165 21.8563C34.2422 21.8245 34.1361 21.8032 33.9982 21.7714C33.8603 21.7501 33.733 21.7395 33.5844 21.7395C33.3086 21.7395 33.0752 21.8032 32.916 21.9413C32.7463 22.0794 32.672 22.2599 32.672 22.4829C32.672 22.5997 32.6826 22.6953 32.7145 22.7909C32.7463 22.8653 32.7887 22.9502 32.8524 23.0033C32.916 23.0564 32.9903 23.1201 33.0646 23.1626C33.1494 23.2051 33.2449 23.2476 33.3404 23.2901C33.4783 23.3432 33.5738 23.3963 33.6481 23.4281C33.7118 23.4706 33.7542 23.5131 33.7542 23.5768C33.7542 23.6405 33.733 23.7043 33.6799 23.7255C33.6269 23.7467 33.542 23.7574 33.4253 23.7574C33.3086 23.7574 33.1919 23.7467 33.0752 23.7255C32.9479 23.7043 32.8418 23.6618 32.7251 23.6087L32.6084 24.1715C32.6614 24.1928 32.7569 24.2246 32.9054 24.2565C33.0434 24.2884 33.2131 24.299 33.4253 24.299Z" fill="#ECEAEA"/>
</g>
</svg>
