<svg width="44" height="55" viewBox="0 0 44 55" fill="none" xmlns="http://www.w3.org/2000/svg">
<g opacity="0.5">
<path d="M4.04092 33.0625L2.38293 35.8805V38.0391H1.72809V35.9013L0.0566406 33.0625H0.793395L2.07593 35.3253L3.38584 33.0625H4.04092Z" fill="#6D6969"/>
<path d="M6.41048 36.6518V36.3881H5.81017C5.45096 36.3881 5.18944 36.4412 5.02561 36.5477C4.86643 36.6542 4.78683 36.809 4.78683 37.0128C4.78683 37.1747 4.83464 37.3065 4.93001 37.4084C5.03025 37.5102 5.18016 37.561 5.38041 37.561C5.56675 37.561 5.72594 37.5241 5.85797 37.45C5.98978 37.3714 6.09675 37.2788 6.17866 37.1724C6.26034 37.0614 6.31952 36.9573 6.35595 36.86C6.39238 36.7628 6.41048 36.6934 6.41048 36.6518ZM5.56466 34.9097C5.35071 34.9097 5.14395 34.9466 4.9437 35.0207C4.74808 35.0901 4.57312 35.1711 4.41834 35.2637V34.7152C4.54574 34.6366 4.71629 34.5604 4.93001 34.4862C5.14837 34.4076 5.38715 34.3682 5.64634 34.3682C6.09211 34.3682 6.4309 34.4631 6.66295 34.6529C6.895 34.8425 7.01079 35.1317 7.01079 35.5205V37.4568C7.01079 37.5357 7.01311 37.6374 7.01775 37.7623C7.0268 37.8827 7.03585 37.9752 7.0449 38.04H6.49912C6.48566 37.9752 6.47197 37.8849 6.45828 37.7692C6.44923 37.649 6.44459 37.5449 6.44459 37.4568L6.43786 37.3527C6.38333 37.4639 6.30815 37.5796 6.21277 37.6998C6.11717 37.8155 5.98977 37.9127 5.83059 37.9913C5.67604 38.07 5.48275 38.1094 5.2507 38.1094C4.93233 38.1094 4.67545 38.0168 4.47983 37.8317C4.28422 37.6467 4.18652 37.3853 4.18652 37.0475C4.18652 36.6542 4.32297 36.365 4.59586 36.1799C4.86875 35.9948 5.25302 35.9023 5.74868 35.9023H6.41048V35.6038C6.41048 35.3538 6.3469 35.1758 6.2195 35.0694C6.09211 34.9629 5.87375 34.9097 5.56466 34.9097Z" fill="#6D6969"/>
<path d="M9.70166 34.9088C9.42877 34.9088 9.20596 34.9736 9.03308 35.1032C8.86485 35.228 8.7284 35.39 8.62375 35.589V38.0391H8.02344V34.4367H8.58964L8.6101 35.0823H8.62375C8.71917 34.8786 8.8693 34.7098 9.07397 34.5755C9.27864 34.4367 9.53784 34.3673 9.85175 34.3673C10.202 34.3673 10.4794 34.4622 10.6841 34.652C10.8932 34.8416 10.9979 35.1286 10.9979 35.5125V38.0391H10.3975V35.5751C10.3975 35.3298 10.3338 35.1586 10.2066 35.0614C10.0836 34.9596 9.91538 34.9088 9.70166 34.9088Z" fill="#6D6969"/>
<path d="M13.4416 37.561C13.7509 37.561 14.0101 37.4524 14.2194 37.2349C14.4286 37.0173 14.5332 36.6842 14.5332 36.2354C14.5332 35.7866 14.4286 35.4534 14.2194 35.2358C14.0101 35.0184 13.7509 34.9097 13.4416 34.9097C13.1325 34.9097 12.878 35.0231 12.6777 35.2497C12.4777 35.4719 12.3777 35.8005 12.3777 36.2354C12.3777 36.6749 12.4777 37.0057 12.6777 37.2278C12.878 37.45 13.1325 37.561 13.4416 37.561ZM13.3529 38.1094C13.0713 38.1094 12.8074 38.0423 12.5617 37.908C12.3208 37.7692 12.1275 37.561 11.9818 37.2833C11.8363 37.0057 11.7637 36.6565 11.7637 36.2354C11.7637 35.8142 11.8363 35.4672 11.9818 35.1942C12.1275 34.9166 12.3208 34.7108 12.5617 34.5764C12.8074 34.4376 13.0734 34.3682 13.3598 34.3682C13.6281 34.3682 13.8601 34.426 14.0556 34.5417C14.2512 34.6529 14.4081 34.8125 14.5264 35.0207V33.0634H15.1267V38.04H14.6014L14.5536 37.332C14.4445 37.568 14.2899 37.7576 14.0897 37.9012C13.8942 38.04 13.6486 38.1094 13.3529 38.1094Z" fill="#6D6969"/>
<path d="M17.5865 34.9097C17.3273 34.9097 17.1044 34.9907 16.9179 35.1526C16.7314 35.3146 16.6132 35.5597 16.5632 35.8883H18.4666C18.4848 35.5552 18.4097 35.3099 18.2414 35.1526C18.0732 34.9907 17.8548 34.9097 17.5865 34.9097ZM17.7434 38.1094C17.1522 38.1094 16.6996 37.9451 16.3858 37.6166C16.0765 37.2833 15.9219 36.823 15.9219 36.2354C15.9219 35.8421 15.9946 35.5066 16.1402 35.229C16.2857 34.9513 16.4858 34.7384 16.7405 34.5904C16.9952 34.4423 17.2818 34.3682 17.6001 34.3682C17.9413 34.3682 18.2301 34.447 18.4666 34.6043C18.7076 34.757 18.8805 34.9837 18.9851 35.2844C19.0897 35.5852 19.1079 35.9577 19.0396 36.402H16.5427C16.5927 37.1747 17.0112 37.561 17.798 37.561C18.0709 37.561 18.3051 37.5218 18.5007 37.4431C18.7008 37.3598 18.8645 37.2741 18.9919 37.1863V37.7345C18.8964 37.8039 18.7463 37.8849 18.5416 37.9774C18.337 38.0655 18.0709 38.1094 17.7434 38.1094Z" fill="#6D6969"/>
<path d="M19.5876 34.4367H20.2835L21.1294 35.707L21.9822 34.4367H22.603L21.4296 36.1582L22.6644 38.0391H21.9686L21.0203 36.6093L20.0651 38.0391H19.4375L20.7201 36.1719L19.5876 34.4367Z" fill="#6D6969"/>
<path d="M26.9639 38.1094C26.4818 38.1094 26.0588 38.0076 25.695 37.8039C25.3357 37.6004 25.056 37.3088 24.8558 36.9294C24.6557 36.5453 24.5557 36.0873 24.5557 35.5552C24.5557 34.7547 24.7626 34.13 25.1765 33.6812C25.5904 33.2277 26.1816 33.001 26.9503 33.001C27.2823 33.001 27.5734 33.0379 27.8235 33.112C28.0782 33.1814 28.2829 33.2648 28.4375 33.3618V33.9865C28.2328 33.8524 27.9963 33.7529 27.728 33.6881C27.4642 33.6234 27.2027 33.591 26.9434 33.591C26.3704 33.591 25.9451 33.7551 25.6677 34.0837C25.3902 34.4123 25.2515 34.9027 25.2515 35.5552C25.2515 36.2122 25.4016 36.7049 25.7018 37.0336C26.002 37.3575 26.4409 37.5194 27.0185 37.5194C27.2686 37.5194 27.512 37.4847 27.7485 37.4153C27.9895 37.3459 28.2192 37.2278 28.4375 37.0614V37.686C28.3056 37.7923 28.1123 37.8896 27.8576 37.9774C27.6075 38.0655 27.3096 38.1094 26.9639 38.1094Z" fill="#6D6969"/>
<path d="M29.4062 33.0625H30.0066V38.0391H29.4062V33.0625Z" fill="#6D6969"/>
<path d="M32.5063 37.561C32.8247 37.561 33.0885 37.4547 33.2977 37.2418C33.5069 37.0243 33.6115 36.6889 33.6115 36.2354C33.6115 35.7819 33.5069 35.4487 33.2977 35.2358C33.0885 35.0184 32.8247 34.9097 32.5063 34.9097C32.1925 34.9097 31.931 35.0184 31.7218 35.2358C31.5171 35.4487 31.4148 35.7819 31.4148 36.2354C31.4148 36.6889 31.5171 37.0243 31.7218 37.2418C31.931 37.4547 32.1925 37.561 32.5063 37.561ZM32.5063 38.1094C32.1834 38.1094 31.8923 38.0376 31.6331 37.8943C31.3784 37.746 31.176 37.5333 31.0255 37.2557C30.8754 36.9734 30.8008 36.6333 30.8008 36.2354C30.8008 35.8373 30.8754 35.4997 31.0255 35.2221C31.176 34.9444 31.3784 34.7339 31.6331 34.5904C31.8923 34.4423 32.1834 34.3682 32.5063 34.3682C32.8338 34.3682 33.1272 34.4423 33.3864 34.5904C33.6457 34.7339 33.8499 34.9444 34.0004 35.2221C34.1505 35.4997 34.2255 35.8373 34.2255 36.2354C34.2255 36.6333 34.1505 36.9734 34.0004 37.2557C33.8499 37.5333 33.6457 37.746 33.3864 37.8943C33.1272 38.0376 32.8338 38.1094 32.5063 38.1094Z" fill="#6D6969"/>
<path d="M37.2971 37.3945C37.2016 37.5935 37.0538 37.7623 36.8537 37.9012C36.6581 38.04 36.4011 38.1094 36.0828 38.1094C35.7553 38.1094 35.4892 38.0145 35.2846 37.8248C35.0844 37.6351 34.9844 37.3459 34.9844 36.9573V34.4376H35.5916V36.9573C35.5916 37.1931 35.6552 37.3527 35.7826 37.4361C35.9099 37.5194 36.0668 37.561 36.2533 37.561C36.5171 37.561 36.7286 37.5009 36.8878 37.3806C37.047 37.2602 37.1834 37.0961 37.2971 36.8878V34.4376H37.8975V38.04H37.3653L37.3108 37.3945H37.2971Z" fill="#6D6969"/>
<path d="M40.3765 37.561C40.6858 37.561 40.945 37.4524 41.1542 37.2349C41.3635 37.0173 41.4681 36.6842 41.4681 36.2354C41.4681 35.7866 41.3635 35.4534 41.1542 35.2358C40.945 35.0184 40.6858 34.9097 40.3765 34.9097C40.0672 34.9097 39.8125 35.0231 39.6124 35.2497C39.4123 35.4719 39.3122 35.8005 39.3122 36.2354C39.3122 36.6749 39.4123 37.0057 39.6124 37.2278C39.8125 37.45 40.0672 37.561 40.3765 37.561ZM40.2878 38.1094C40.0058 38.1094 39.742 38.0423 39.4964 37.908C39.2554 37.7692 39.0621 37.561 38.9166 37.2833C38.771 37.0057 38.6982 36.6565 38.6982 36.2354C38.6982 35.8142 38.771 35.4672 38.9166 35.1942C39.0621 34.9166 39.2554 34.7108 39.4964 34.5764C39.742 34.4376 40.0081 34.3682 40.2946 34.3682C40.563 34.3682 40.7949 34.426 40.9905 34.5417C41.1861 34.6529 41.343 34.8125 41.4612 35.0207V33.0634H42.0616V38.04H41.5363L41.4885 37.332C41.3794 37.568 41.2247 37.7576 41.0246 37.9012C40.8291 38.04 40.5835 38.1094 40.2878 38.1094Z" fill="#6D6969"/>
<path d="M4.96368 43.3797C5.30943 43.3797 5.58905 43.3035 5.80277 43.1507C6.01648 42.998 6.12346 42.7413 6.12346 42.3804C6.12346 42.0796 6.02785 41.8621 5.83688 41.7279C5.6459 41.5938 5.37301 41.5267 5.01821 41.5267H4.09721V43.3797H4.96368ZM3.45605 40.9297H5.01821C5.57304 40.9297 6.00302 41.0477 6.3077 41.2837C6.61703 41.5151 6.77157 41.8782 6.77157 42.3733C6.77157 42.7482 6.6943 43.0536 6.53952 43.2895C6.38962 43.5256 6.17799 43.6991 5.9051 43.8101C5.63685 43.9166 5.32289 43.9697 4.96368 43.9697H4.09721V45.9062H3.45605V40.9297Z" fill="#6D6969"/>
<path d="M9.32563 42.9148C9.07548 42.9333 8.84575 42.998 8.63649 43.1092C8.42737 43.2201 8.27264 43.3891 8.17258 43.6158V45.9062H7.57227V42.3039H8.09762L8.15893 43.0883H8.17258C8.27264 42.8754 8.416 42.6904 8.60238 42.5331C8.79336 42.371 9.03445 42.2715 9.32563 42.2345V42.9148Z" fill="#6D6969"/>
<path d="M11.4058 45.4281C11.7241 45.4281 11.988 45.3217 12.1973 45.109C12.4063 44.8915 12.511 44.5561 12.511 44.1026C12.511 43.649 12.4063 43.3159 12.1973 43.103C11.988 42.8856 11.7241 42.7768 11.4058 42.7768C11.092 42.7768 10.8305 42.8856 10.6212 43.103C10.4165 43.3159 10.3142 43.649 10.3142 44.1026C10.3142 44.5561 10.4165 44.8915 10.6212 45.109C10.8305 45.3217 11.092 45.4281 11.4058 45.4281ZM11.4058 45.9766C11.083 45.9766 10.7918 45.9048 10.5326 45.7614C10.278 45.6132 10.0754 45.4005 9.92551 45.1229C9.77538 44.8405 9.7002 44.5005 9.7002 44.1026C9.7002 43.7045 9.77538 43.3669 9.92551 43.0892C10.0754 42.8116 10.278 42.6011 10.5326 42.4575C10.7918 42.3095 11.083 42.2354 11.4058 42.2354C11.7334 42.2354 12.0267 42.3095 12.2859 42.4575C12.5451 42.6011 12.7498 42.8116 12.8999 43.0892C13.05 43.3669 13.125 43.7045 13.125 44.1026C13.125 44.5005 13.05 44.8405 12.8999 45.1229C12.7498 45.4005 12.5451 45.6132 12.2859 45.7614C12.0267 45.9048 11.7334 45.9766 11.4058 45.9766Z" fill="#6D6969"/>
<path d="M14.0706 45.9062V42.8245H13.6406V42.3039H14.0706V42.2137C14.0706 41.7881 14.182 41.4573 14.4048 41.2212C14.6278 40.9851 14.9324 40.8673 15.319 40.8673C15.4919 40.8673 15.6418 40.8881 15.7692 40.9297V41.4849C15.7284 41.4665 15.6692 41.4502 15.5919 41.4363C15.5146 41.4226 15.4327 41.4155 15.3462 41.4155C15.1371 41.4155 14.971 41.4804 14.8482 41.6098C14.7301 41.7394 14.6709 41.9408 14.6709 42.2137V42.3039H15.6943V42.8245H14.6709V45.9062H14.0706Z" fill="#6D6969"/>
<path d="M17.6702 42.7768C17.4109 42.7768 17.1881 42.8579 17.0016 43.0198C16.8151 43.1818 16.6969 43.4269 16.6468 43.7555H18.5502C18.5684 43.4224 18.4934 43.1771 18.3251 43.0198C18.1568 42.8579 17.9385 42.7768 17.6702 42.7768ZM17.8271 45.9766C17.2358 45.9766 16.7833 45.8123 16.4695 45.4838C16.1604 45.1505 16.0059 44.6902 16.0059 44.1026C16.0059 43.7092 16.0785 43.3738 16.2239 43.0961C16.3694 42.8185 16.5695 42.6056 16.8242 42.4575C17.0789 42.3095 17.3654 42.2354 17.6838 42.2354C18.0249 42.2354 18.3137 42.3141 18.5502 42.4715C18.7913 42.6242 18.9641 42.8509 19.0687 43.1516C19.1733 43.4524 19.1915 43.8249 19.1233 44.2692H16.6264C16.6764 45.0419 17.0948 45.4281 17.8817 45.4281C18.1545 45.4281 18.3888 45.389 18.5843 45.3103C18.7845 45.227 18.9482 45.1413 19.0755 45.0535V45.6017C18.98 45.6711 18.8299 45.7521 18.6253 45.8446C18.4206 45.9327 18.1545 45.9766 17.8271 45.9766Z" fill="#6D6969"/>
<path d="M21.0774 45.9766C20.8318 45.9766 20.6204 45.9534 20.443 45.9072C20.2701 45.8562 20.1292 45.7983 20.02 45.7336C19.9108 45.6642 19.8267 45.604 19.7676 45.5532V45.0049C19.8313 45.0651 19.9199 45.1321 20.0336 45.2062C20.1519 45.2756 20.2974 45.3356 20.4703 45.3866C20.6431 45.4375 20.8432 45.4629 21.0706 45.4629C21.3253 45.4629 21.5277 45.4213 21.6778 45.338C21.8279 45.2546 21.9029 45.1136 21.9029 44.9147C21.9029 44.7711 21.862 44.6647 21.7801 44.5953C21.6983 44.5214 21.5891 44.468 21.4527 44.4357C21.3208 44.4033 21.1752 44.371 21.016 44.3386C20.866 44.3061 20.7181 44.2692 20.5726 44.2274C20.4271 44.1859 20.2952 44.1304 20.1769 44.061C20.0587 43.9869 19.9631 43.8874 19.8904 43.7624C19.8176 43.6375 19.7812 43.4755 19.7812 43.2765C19.7812 42.9526 19.9063 42.6981 20.1564 42.513C20.4066 42.3279 20.7523 42.2354 21.1934 42.2354C21.4436 42.2354 21.6664 42.2609 21.862 42.3119C22.0576 42.3626 22.2054 42.4183 22.3055 42.4783V43.0267C22.1917 42.9481 22.0462 42.8832 21.8688 42.8324C21.6914 42.7768 21.4731 42.7491 21.2139 42.7491C20.9501 42.7491 20.7454 42.7885 20.5999 42.8671C20.4544 42.941 20.3816 43.073 20.3816 43.2628C20.3816 43.3922 20.4157 43.4894 20.4839 43.5541C20.5567 43.6143 20.6499 43.6582 20.7636 43.6861C20.8819 43.7138 21.007 43.7439 21.1388 43.7763C21.298 43.8086 21.4572 43.8457 21.6164 43.8874C21.7756 43.9243 21.9211 43.98 22.053 44.0539C22.1895 44.128 22.2986 44.2322 22.3805 44.3663C22.4624 44.5005 22.5033 44.6786 22.5033 44.9007C22.5033 45.1784 22.4328 45.3958 22.2918 45.5532C22.1508 45.7058 21.9712 45.8146 21.7528 45.8793C21.5391 45.9442 21.314 45.9766 21.0774 45.9766Z" fill="#6D6969"/>
<path d="M24.4427 45.9766C24.1971 45.9766 23.9856 45.9534 23.8082 45.9072C23.6354 45.8562 23.4944 45.7983 23.3852 45.7336C23.2761 45.6642 23.1919 45.604 23.1328 45.5532V45.0049C23.1965 45.0651 23.2852 45.1321 23.3989 45.2062C23.5171 45.2756 23.6627 45.3356 23.8355 45.3866C24.0083 45.4375 24.2085 45.4629 24.4359 45.4629C24.6906 45.4629 24.8929 45.4213 25.043 45.338C25.1931 45.2546 25.2682 45.1136 25.2682 44.9147C25.2682 44.7711 25.2272 44.6647 25.1454 44.5953C25.0635 44.5214 24.9544 44.468 24.8179 44.4357C24.686 44.4033 24.5405 44.371 24.3813 44.3386C24.2312 44.3061 24.0834 44.2692 23.9378 44.2274C23.7923 44.1859 23.6604 44.1304 23.5421 44.061C23.4239 43.9869 23.3284 43.8874 23.2556 43.7624C23.1828 43.6375 23.1465 43.4755 23.1465 43.2765C23.1465 42.9526 23.2715 42.6981 23.5217 42.513C23.7718 42.3279 24.1175 42.2354 24.5587 42.2354C24.8088 42.2354 25.0317 42.2609 25.2272 42.3119C25.4228 42.3626 25.5706 42.4183 25.6707 42.4783V43.0267C25.557 42.9481 25.4114 42.8832 25.2341 42.8324C25.0567 42.7768 24.8384 42.7491 24.5791 42.7491C24.3153 42.7491 24.1107 42.7885 23.9651 42.8671C23.8196 42.941 23.7468 43.073 23.7468 43.2628C23.7468 43.3922 23.7809 43.4894 23.8491 43.5541C23.9219 43.6143 24.0152 43.6582 24.1289 43.6861C24.2471 43.7138 24.3722 43.7439 24.5041 43.7763C24.6633 43.8086 24.8225 43.8457 24.9816 43.8874C25.1408 43.9243 25.2864 43.98 25.4183 44.0539C25.5547 44.128 25.6639 44.2322 25.7457 44.3663C25.8276 44.5005 25.8685 44.6786 25.8685 44.9007C25.8685 45.1784 25.798 45.3958 25.657 45.5532C25.516 45.7058 25.3364 45.8146 25.1181 45.8793C24.9043 45.9442 24.6792 45.9766 24.4427 45.9766Z" fill="#6D6969"/>
<path d="M26.6766 42.3039H27.2769V45.9062H26.6766V42.3039ZM26.9836 41.7765C26.8608 41.7765 26.763 41.7394 26.6902 41.6655C26.6174 41.5867 26.5811 41.492 26.5811 41.3808C26.5811 41.2699 26.6174 41.175 26.6902 41.0963C26.763 41.0177 26.8608 40.9783 26.9836 40.9783C27.1018 40.9783 27.1951 41.0177 27.2633 41.0963C27.3315 41.175 27.3656 41.2699 27.3656 41.3808C27.3656 41.492 27.3315 41.5867 27.2633 41.6655C27.1951 41.7394 27.1018 41.7765 26.9836 41.7765Z" fill="#6D6969"/>
<path d="M29.7768 45.4281C30.0952 45.4281 30.359 45.3217 30.5682 45.109C30.7774 44.8915 30.8821 44.5561 30.8821 44.1026C30.8821 43.649 30.7774 43.3159 30.5682 43.103C30.359 42.8856 30.0952 42.7768 29.7768 42.7768C29.463 42.7768 29.2015 42.8856 28.9923 43.103C28.7876 43.3159 28.6853 43.649 28.6853 44.1026C28.6853 44.5561 28.7876 44.8915 28.9923 45.109C29.2015 45.3217 29.463 45.4281 29.7768 45.4281ZM29.7768 45.9766C29.4539 45.9766 29.1628 45.9048 28.9036 45.7614C28.6489 45.6132 28.4465 45.4005 28.2964 45.1229C28.1463 44.8405 28.0713 44.5005 28.0713 44.1026C28.0713 43.7045 28.1463 43.3669 28.2964 43.0892C28.4465 42.8116 28.6489 42.6011 28.9036 42.4575C29.1628 42.3095 29.4539 42.2354 29.7768 42.2354C30.1043 42.2354 30.3977 42.3095 30.6569 42.4575C30.9162 42.6011 31.1208 42.8116 31.2709 43.0892C31.421 43.3669 31.4961 43.7045 31.4961 44.1026C31.4961 44.5005 31.421 44.8405 31.2709 45.1229C31.1208 45.4005 30.9162 45.6132 30.6569 45.7614C30.3977 45.9048 30.1043 45.9766 29.7768 45.9766Z" fill="#6D6969"/>
<path d="M33.9751 42.7759C33.7023 42.7759 33.4794 42.8407 33.3066 42.9703C33.1383 43.0952 33.0018 43.2572 32.8972 43.4562V45.9062H32.2969V42.3039H32.8631L32.8836 42.9494H32.8972C32.9927 42.7458 33.1428 42.577 33.3475 42.4427C33.5522 42.3039 33.8114 42.2345 34.1252 42.2345C34.4754 42.2345 34.7529 42.3294 34.9575 42.5192C35.1668 42.7088 35.2714 42.9958 35.2714 43.3797V45.9062H34.671V43.4423C34.671 43.197 34.6073 43.0258 34.48 42.9286C34.3572 42.8268 34.1889 42.7759 33.9751 42.7759Z" fill="#6D6969"/>
<path d="M38.3354 44.519V44.2553H37.735C37.3757 44.2553 37.1142 44.3084 36.9505 44.4149C36.7913 44.5214 36.7117 44.6762 36.7117 44.88C36.7117 45.0419 36.7594 45.1737 36.855 45.2756C36.955 45.3774 37.1051 45.4281 37.3052 45.4281C37.4917 45.4281 37.6509 45.3913 37.7828 45.3172C37.9147 45.2386 38.0216 45.146 38.1034 45.0396C38.1853 44.9286 38.2444 44.8244 38.2808 44.7272C38.3172 44.63 38.3354 44.5606 38.3354 44.519ZM37.4894 42.7768C37.2757 42.7768 37.0687 42.8138 36.8686 42.8879C36.673 42.9573 36.4979 43.0383 36.3433 43.1308V42.5824C36.4706 42.5038 36.6412 42.4276 36.855 42.3534C37.0733 42.2748 37.312 42.2354 37.5713 42.2354C38.017 42.2354 38.3558 42.3303 38.5878 42.5201C38.8198 42.7097 38.9357 42.9989 38.9357 43.3877V45.324C38.9357 45.4028 38.938 45.5046 38.9426 45.6295C38.9517 45.7499 38.9607 45.8424 38.9698 45.9072H38.4241C38.4104 45.8424 38.3968 45.7521 38.3831 45.6364C38.374 45.5162 38.3695 45.4121 38.3695 45.324L38.3627 45.2199C38.3081 45.3311 38.233 45.4468 38.1375 45.567C38.042 45.6826 37.9147 45.7799 37.7555 45.8585C37.6009 45.9371 37.4076 45.9766 37.1756 45.9766C36.8572 45.9766 36.6003 45.884 36.4047 45.6989C36.2091 45.5138 36.1113 45.2525 36.1113 44.9147C36.1113 44.5214 36.2478 44.2322 36.5207 44.0471C36.7936 43.862 37.1779 43.7694 37.6736 43.7694H38.3354V43.471C38.3354 43.221 38.2717 43.043 38.1444 42.9365C38.017 42.8301 37.7987 42.7768 37.4894 42.7768Z" fill="#6D6969"/>
<path d="M39.9482 40.9297H40.5486V45.9062H39.9482V40.9297Z" fill="#6D6969"/>
<path d="M0 48.7969H0.641153V53.7734H0V48.7969Z" fill="#6D6969"/>
<path d="M3.44306 50.6432C3.17017 50.6432 2.94717 50.7079 2.7743 50.8375C2.60606 50.9624 2.46961 51.1244 2.36496 51.3234V53.7734H1.76465V50.1711H2.33085L2.3515 50.8167H2.36496C2.46056 50.613 2.6107 50.4442 2.81537 50.3099C3.02003 50.1711 3.27923 50.1017 3.59296 50.1017C3.94335 50.1017 4.22065 50.1966 4.42532 50.3864C4.63463 50.576 4.73928 50.863 4.73928 51.2469V53.7734H4.13874V51.3095C4.13874 51.0642 4.07516 50.893 3.94776 50.7957C3.82501 50.694 3.65677 50.6432 3.44306 50.6432Z" fill="#6D6969"/>
<path d="M5.96882 53.7734V50.6916H5.53906V50.1711H5.96882V50.0809C5.96882 49.6552 6.08038 49.3243 6.30315 49.0884C6.52597 48.8523 6.83083 48.7345 7.21743 48.7345C7.39012 48.7345 7.54025 48.7553 7.6676 48.7969V49.3521C7.62676 49.3337 7.56759 49.3174 7.49031 49.3035C7.41286 49.2897 7.33113 49.2827 7.24462 49.2827C7.0355 49.2827 6.8694 49.3476 6.7466 49.477C6.6283 49.6066 6.56931 49.808 6.56931 50.0809V50.1711H7.59265V50.6916H6.56931V53.7734H5.96882Z" fill="#6D6969"/>
<path d="M10.1166 50.782C9.86649 50.8005 9.63676 50.8652 9.42764 50.9763C9.21838 51.0873 9.06379 51.2562 8.96359 51.483V53.7734H8.36328V50.1711H8.88864L8.95008 50.9555H8.96359C9.06379 50.7426 9.20701 50.5575 9.39353 50.4003C9.58455 50.2383 9.82561 50.1387 10.1166 50.1017V50.782Z" fill="#6D6969"/>
<path d="M12.8972 52.3823V52.1186H12.2967C11.9373 52.1186 11.6758 52.1717 11.5122 52.2782C11.353 52.3846 11.2734 52.5395 11.2734 52.7432C11.2734 52.9052 11.321 53.0369 11.4166 53.1387C11.5166 53.2407 11.6667 53.2914 11.8667 53.2914C12.0533 53.2914 12.2125 53.2544 12.3443 53.1805C12.4763 53.1019 12.5831 53.0093 12.665 52.9028C12.7469 52.7917 12.8063 52.6877 12.8426 52.5905C12.879 52.4932 12.8972 52.4238 12.8972 52.3823ZM12.051 50.6402C11.8373 50.6402 11.6303 50.6771 11.4303 50.7512C11.2346 50.8206 11.0594 50.9016 10.9049 50.9941V50.4457C11.0323 50.3671 11.2028 50.2908 11.4166 50.2167C11.6349 50.1381 11.8737 50.0987 12.1329 50.0987C12.5787 50.0987 12.9177 50.1936 13.1496 50.3834C13.3816 50.573 13.4976 50.8622 13.4976 51.251V53.1873C13.4976 53.2661 13.4999 53.3679 13.5044 53.4928C13.5135 53.6132 13.5226 53.7057 13.5317 53.7704H12.9859C12.9723 53.7057 12.9586 53.6153 12.945 53.4997C12.9359 53.3795 12.9313 53.2754 12.9313 53.1873L12.9245 53.0832C12.8695 53.1944 12.7949 53.3101 12.6991 53.4302C12.6037 53.5459 12.4763 53.6432 12.3171 53.7218C12.1624 53.8004 11.9691 53.8398 11.7373 53.8398C11.4189 53.8398 11.1618 53.7473 10.9664 53.5622C10.7708 53.3771 10.6729 53.1157 10.6729 52.778C10.6729 52.3846 10.8093 52.0954 11.0822 51.9104C11.3551 51.7253 11.7396 51.6327 12.2352 51.6327H12.8972V51.3343C12.8972 51.0843 12.8335 50.9061 12.7061 50.7998C12.5787 50.6934 12.3603 50.6402 12.051 50.6402Z" fill="#6D6969"/>
<path d="M14.8318 52.4031C14.8318 52.6715 14.9273 52.8866 15.1183 53.0485C15.3139 53.2105 15.5982 53.2914 15.9711 53.2914C16.194 53.2914 16.3964 53.2614 16.5783 53.2012C16.7602 53.141 16.9262 53.0624 17.0763 52.9652C16.9853 52.8821 16.8921 52.7964 16.7966 52.7085C16.7011 52.6205 16.601 52.5279 16.4964 52.4309L15.5345 51.4939C15.3207 51.5864 15.1502 51.7044 15.0228 51.8478C14.8955 51.9913 14.8318 52.1764 14.8318 52.4031ZM15.2684 49.953C15.2684 50.1381 15.323 50.3093 15.4321 50.4667C15.5413 50.6192 15.6664 50.7651 15.8074 50.9039C16.0848 50.7883 16.3145 50.6587 16.4964 50.5151C16.6829 50.3718 16.7761 50.182 16.7761 49.9461C16.7761 49.7379 16.7079 49.5758 16.5715 49.4601C16.435 49.3399 16.2485 49.2797 16.012 49.2797C15.7755 49.2797 15.5913 49.3423 15.4594 49.4672C15.3321 49.5875 15.2684 49.7495 15.2684 49.953ZM18.5499 53.7079C18.3634 53.7079 18.1861 53.6732 18.0178 53.6038C17.854 53.5344 17.6858 53.4396 17.5129 53.3193C17.3174 53.4765 17.0877 53.6038 16.8239 53.701C16.5646 53.7936 16.2713 53.8398 15.9438 53.8398C15.5618 53.8398 15.2434 53.7773 14.9887 53.6524C14.734 53.5275 14.543 53.3587 14.4156 53.1458C14.2883 52.9328 14.2246 52.6923 14.2246 52.4238C14.2246 52.0815 14.3133 51.8084 14.4907 51.6049C14.6681 51.4014 14.8909 51.2394 15.1593 51.119C14.8181 50.7349 14.6476 50.3463 14.6476 49.953C14.6476 49.7309 14.6999 49.5274 14.8045 49.3423C14.9091 49.1572 15.0615 49.0091 15.2616 48.898C15.4663 48.787 15.7141 48.7315 16.0052 48.7315C16.3008 48.7315 16.551 48.787 16.7557 48.898C16.9603 49.0044 17.115 49.1501 17.2196 49.3352C17.3287 49.5158 17.3833 49.7193 17.3833 49.9461C17.3833 50.2051 17.3265 50.4181 17.2127 50.5845C17.099 50.7512 16.9512 50.89 16.7693 51.001C16.5874 51.1074 16.3964 51.2023 16.1962 51.2857L17.0695 52.1325C17.1514 52.2064 17.2287 52.2782 17.3014 52.3476C17.3742 52.417 17.4447 52.484 17.5129 52.5489C17.6585 52.3684 17.7744 52.1717 17.8609 51.9589C17.9473 51.7413 18.0064 51.5309 18.0382 51.3272L18.5772 51.48C18.5272 51.7159 18.4498 51.9589 18.3452 52.2088C18.2406 52.454 18.1042 52.6854 17.9359 52.9028C18.0496 52.9815 18.1656 53.044 18.2838 53.0903C18.4021 53.1366 18.5272 53.1597 18.6591 53.1597C18.7728 53.1597 18.8705 53.1481 18.9524 53.125C19.0343 53.1019 19.0752 53.0903 19.0752 53.0903V53.6038C19.0252 53.6224 18.957 53.6455 18.8706 53.6732C18.7887 53.6963 18.6818 53.7079 18.5499 53.7079Z" fill="#6D6969"/>
<path d="M21.4119 53.1835C21.7485 53.1835 22.0441 53.1141 22.2988 52.9752C22.5535 52.8317 22.7513 52.6119 22.8923 52.3159C23.0379 52.0151 23.1106 51.631 23.1106 51.1637C23.1106 50.6964 23.0401 50.3354 22.8991 50.0809C22.7581 49.8264 22.5648 49.6483 22.3192 49.5464C22.0782 49.4447 21.8008 49.3939 21.4869 49.3939H20.4841V53.1835H21.4119ZM19.8428 48.7969H21.4869C21.8144 48.7969 22.1191 48.8363 22.4011 48.9149C22.6831 48.9935 22.9287 49.1231 23.1379 49.3035C23.3471 49.4794 23.5109 49.7154 23.6291 50.0115C23.7474 50.3076 23.8065 50.6756 23.8065 51.1152C23.8065 51.6981 23.7019 52.1886 23.4927 52.5866C23.288 52.9799 23.006 53.276 22.6467 53.475C22.2874 53.674 21.8758 53.7734 21.4119 53.7734H19.8428V48.7969Z" fill="#6D6969"/>
<path d="M26.0924 50.6402C25.8331 50.6402 25.6103 50.7212 25.4238 50.883C25.2373 51.0449 25.1191 51.2902 25.069 51.6188H26.9724C26.9906 51.2857 26.9156 51.0404 26.7473 50.883C26.579 50.7212 26.3607 50.6402 26.0924 50.6402ZM26.2493 53.8398C25.658 53.8398 25.2055 53.6755 24.8916 53.3471C24.5824 53.0138 24.4277 52.5534 24.4277 51.9658C24.4277 51.5725 24.5005 51.2371 24.646 50.9594C24.7916 50.6818 24.9917 50.4688 25.2464 50.3208C25.5011 50.1728 25.7876 50.0987 26.106 50.0987C26.4471 50.0987 26.7359 50.1775 26.9724 50.3347C27.2135 50.4875 27.3863 50.7141 27.4909 51.0149C27.5955 51.3157 27.6137 51.6882 27.5455 52.1325H25.0486C25.0986 52.9052 25.517 53.2914 26.3038 53.2914C26.5767 53.2914 26.811 53.2522 27.0065 53.1736C27.2067 53.0903 27.3704 53.0046 27.4977 52.9168V53.4649C27.4022 53.5344 27.2521 53.6153 27.0475 53.7079C26.8428 53.7959 26.5767 53.8398 26.2493 53.8398Z" fill="#6D6969"/>
<path d="M27.9434 50.1711H28.5915L29.6694 53.4472L30.7405 50.1711H31.3408L30.1265 53.7734H29.1577L27.9434 50.1711Z" fill="#6D6969"/>
<path d="M34.0998 53.2499C34.4136 53.2499 34.6956 53.185 34.9457 53.0556C35.1959 52.926 35.3915 52.7178 35.5325 52.4309C35.678 52.1394 35.7508 51.7576 35.7508 51.2857C35.7508 50.809 35.678 50.4273 35.5325 50.1405C35.3915 49.8536 35.1959 49.6453 34.9457 49.5158C34.6956 49.3862 34.4136 49.3213 34.0998 49.3213C33.786 49.3213 33.504 49.3862 33.2538 49.5158C33.0082 49.6453 32.8127 49.8536 32.6671 50.1405C32.5216 50.4273 32.4488 50.809 32.4488 51.2857C32.4488 51.7576 32.5216 52.1394 32.6671 52.4309C32.8127 52.7178 33.0082 52.926 33.2538 53.0556C33.504 53.185 33.786 53.2499 34.0998 53.2499ZM34.0998 53.8398C33.6632 53.8398 33.2675 53.7404 32.9127 53.5414C32.558 53.3424 32.276 53.0532 32.0668 52.6738C31.8621 52.2897 31.7598 51.8201 31.7598 51.2649C31.7598 50.7095 31.8621 50.2446 32.0668 49.8697C32.276 49.4903 32.558 49.2056 32.9127 49.016C33.2675 48.8262 33.6632 48.7315 34.0998 48.7315C34.5455 48.7315 34.9435 48.8286 35.2937 49.0228C35.6484 49.2127 35.9282 49.4948 36.1328 49.8697C36.3375 50.2446 36.4398 50.7118 36.4398 51.2718C36.4398 51.8223 36.3375 52.2897 36.1328 52.6738C35.9282 53.0532 35.6484 53.3424 35.2937 53.5414C34.9435 53.7404 34.5455 53.8398 34.0998 53.8398Z" fill="#6D6969"/>
<path d="M38.9751 53.2924C39.2844 53.2924 39.5368 53.1815 39.7324 52.9593C39.928 52.7372 40.0257 52.4064 40.0257 51.9668C40.0257 51.5319 39.928 51.2033 39.7324 50.9812C39.5368 50.7546 39.2844 50.6412 38.9751 50.6412C38.6658 50.6412 38.4043 50.7522 38.1906 50.9743C37.9813 51.1918 37.8767 51.5225 37.8767 51.9668C37.8767 52.4156 37.9813 52.7487 38.1906 52.9662C38.4043 53.1838 38.6658 53.2924 38.9751 53.2924ZM37.8836 55H37.2832V50.1691H37.8085L37.8699 50.8702C37.9836 50.6389 38.1405 50.4538 38.3406 50.315C38.5453 50.1714 38.7955 50.0997 39.0911 50.0997C39.3685 50.0997 39.6232 50.1691 39.8552 50.3079C40.0917 50.4422 40.2827 50.6481 40.4283 50.9257C40.5738 51.1986 40.6466 51.5457 40.6466 51.9668C40.6466 52.3878 40.5715 52.7372 40.4214 53.0148C40.2759 53.2924 40.0826 53.5007 39.8415 53.6395C39.605 53.7738 39.3458 53.8408 39.0638 53.8408C38.7955 53.8408 38.5612 53.776 38.3611 53.6465C38.161 53.5169 38.0018 53.3387 37.8836 53.1121V55Z" fill="#6D6969"/>
<path d="M42.5735 53.8398C42.3279 53.8398 42.1165 53.8167 41.9391 53.7704C41.7662 53.7194 41.6253 53.6616 41.5161 53.5969C41.4069 53.5275 41.3228 53.4673 41.2637 53.4165V52.8681C41.3273 52.9283 41.416 52.9954 41.5297 53.0695C41.648 53.1389 41.7935 53.1989 41.9664 53.2499C42.1392 53.3008 42.3393 53.3261 42.5667 53.3261C42.8214 53.3261 43.0238 53.2846 43.1739 53.2012C43.324 53.1179 43.399 52.9769 43.399 52.778C43.399 52.6344 43.3581 52.5279 43.2762 52.4585C43.1944 52.3846 43.0852 52.3313 42.9488 52.2989C42.8169 52.2666 42.6713 52.2343 42.5121 52.2019C42.362 52.1693 42.2142 52.1325 42.0687 52.0907C41.9232 52.0492 41.7913 51.9936 41.673 51.9241C41.5548 51.8502 41.4592 51.7506 41.3865 51.6256C41.3137 51.5008 41.2773 51.3388 41.2773 51.1398C41.2773 50.8159 41.4024 50.5614 41.6525 50.3763C41.9027 50.1912 42.2483 50.0987 42.6895 50.0987C42.9397 50.0987 43.1625 50.1242 43.3581 50.1752C43.5537 50.2259 43.7015 50.2816 43.8015 50.3416V50.89C43.6878 50.8114 43.5423 50.7465 43.3649 50.6957C43.1875 50.6402 42.9692 50.6124 42.71 50.6124C42.4462 50.6124 42.2415 50.6518 42.096 50.7304C41.9504 50.8043 41.8777 50.9363 41.8777 51.126C41.8777 51.2555 41.9118 51.3527 41.98 51.4174C42.0528 51.4776 42.146 51.5215 42.2597 51.5494C42.378 51.5772 42.503 51.6072 42.6349 51.6396C42.7941 51.6719 42.9533 51.709 43.1125 51.7506C43.2717 51.7876 43.4172 51.8433 43.5491 51.9172C43.6856 51.9913 43.7947 52.0954 43.8766 52.2295C43.9585 52.3638 43.9994 52.5419 43.9994 52.764C43.9994 53.0417 43.9289 53.2591 43.7879 53.4165C43.6469 53.5691 43.4673 53.6779 43.2489 53.7426C43.0352 53.8075 42.81 53.8398 42.5735 53.8398Z" fill="#6D6969"/>
<path fill-rule="evenodd" clip-rule="evenodd" d="M25.2801 9.13239L22.7684 9.62534C20.6272 10.036 19.6389 11.0216 19.2271 13.1572C19.1314 13.6346 19.0482 14.0872 18.9675 14.5248C18.9442 14.652 18.921 14.7778 18.8979 14.9023C18.8361 15.231 18.7744 15.5595 18.7125 15.8676L21.2038 15.3747C23.3447 14.964 24.3537 13.9784 24.7654 11.8428C24.8558 11.392 24.9392 10.9399 25.0227 10.4878C25.1063 10.0357 25.1897 9.58364 25.2801 9.13239ZM34.5 12.5C34.5 19.3959 28.8958 25 21.9999 25C15.1042 25 9.5 19.3959 9.5 12.5C9.5 5.60415 15.1042 0 21.9999 0C28.8958 0 34.5 5.60415 34.5 12.5ZM21.9999 2.20835C16.3125 2.20835 11.7083 6.81239 11.7083 12.5C11.7083 16.3565 13.8253 19.715 16.9614 21.4777C16.1992 20.4697 15.9236 19.021 16.2627 17.0585C16.3353 16.659 16.4226 16.1883 16.5197 15.6632C16.5874 15.2972 16.66 14.9048 16.7361 14.4918C16.7659 14.3366 16.7978 14.1766 16.83 14.0126C16.909 13.6119 16.9925 13.1896 17.0655 12.767C17.6421 9.7279 19.3097 8.0442 22.336 7.48977L25.6763 6.83261C25.8678 5.23102 25.7113 4.12222 25.1556 3.4446C24.5997 2.76699 23.4883 2.20835 21.9999 2.20835ZM32.2917 12.5C32.2917 18.1876 27.6875 22.7916 21.9999 22.7916C20.5117 22.7916 19.4003 22.233 18.8443 21.5554C18.2884 20.8778 18.1321 19.769 18.3234 18.1674L21.6359 17.5102C24.6625 16.9558 26.3301 15.2721 26.927 12.2536C27.0001 11.8311 27.0836 11.4085 27.1625 11.0081C27.195 10.844 27.2266 10.6838 27.2565 10.5287C27.3466 10.0389 27.4339 9.57318 27.5137 9.14619C27.5978 8.69631 27.6738 8.28926 27.7373 7.94148C28.0761 5.97898 27.8007 4.53034 27.0385 3.52227C30.1747 5.285 32.2917 8.64347 32.2917 12.5Z" fill="#6D6969"/>
</g>
</svg>
