<svg width="40" height="30" viewBox="0 0 40 30" fill="none" xmlns="http://www.w3.org/2000/svg">
<g opacity="0.5">
<path d="M26.6947 17.2917C29.3221 17.2917 33.1266 16.75 33.1266 13.6458C33.1265 13.4083 33.1054 13.1713 33.0636 12.9375L31.5081 6.1875C31.1508 4.70833 30.8355 4.02083 28.2081 2.72917C26.1692 1.6875 21.7341 0 20.4099 0C19.1697 0 18.8124 1.5625 17.3621 1.5625C15.9538 1.5625 14.9238 0.395833 13.5996 0.395833C12.3384 0.395833 11.5187 1.25 10.8881 3C10.8881 3 9.12244 7.9375 8.89122 8.66667C8.85649 8.79563 8.84231 8.92919 8.84918 9.0625C8.82817 10.9792 16.4582 17.2708 26.6947 17.2917ZM33.526 14.9167C33.8833 16.625 33.8833 16.8125 33.8833 17.0208C33.8833 19.9375 30.5833 21.5625 26.2323 21.5625C16.3952 21.5625 7.79821 15.8542 7.79821 12.0833C7.79725 11.5603 7.90456 11.0427 8.1135 10.5625C4.58224 10.7292 0 11.3542 0 15.3542C0 21.9167 15.6805 30 28.082 30C37.6038 30 40 25.7292 40 22.3542C40 19.7083 37.6879 16.7083 33.526 14.9167Z" fill="#6D6969"/>
<path d="M33.5266 14.918C33.884 16.6263 33.884 16.8138 33.884 17.0221C33.884 19.9388 30.5839 21.5638 26.2329 21.5638C16.3958 21.5638 7.79883 15.8555 7.79883 12.0846C7.79787 11.5617 7.90518 11.044 8.11413 10.5638L8.89185 8.66797C8.85711 8.79694 8.84293 8.93049 8.84981 9.0638C8.84981 10.9805 16.4799 17.2721 26.6953 17.2721C29.3227 17.2721 33.1273 16.7305 33.1273 13.6263C33.1271 13.3888 33.106 13.1518 33.0642 12.918L33.5266 14.918Z" fill="#363636"/>
</g>
</svg>
