<svg width="40" height="29" viewBox="0 0 40 29" fill="none" xmlns="http://www.w3.org/2000/svg">
<path opacity="0.5" d="M39.6191 10.9671C39.5084 10.875 38.5057 10.1053 36.3538 10.1053C35.7971 10.1053 35.2208 10.1612 34.6642 10.2566C34.2572 7.38816 31.9002 6 31.8058 5.92763L31.2295 5.58882L30.8584 6.13158C30.3961 6.86184 30.0413 7.6875 29.8394 8.5296C29.4488 10.1612 29.6897 11.6974 30.5068 13.0099C29.5236 13.5724 27.9284 13.7039 27.5931 13.7237H1.24589C0.558973 13.7237 0.00227361 14.2862 0.00227361 14.9803C-0.0335375 17.3059 0.353873 19.6283 1.15148 21.8224C2.05978 24.2204 3.41409 26.0033 5.15907 27.0888C7.12542 28.3059 10.3354 29 13.9523 29C15.5834 29 17.2176 28.8487 18.8324 28.5493C21.0787 28.1382 23.2306 27.3487 25.2133 26.2072C26.8476 25.25 28.3126 24.0329 29.5562 22.6086C31.6528 20.227 32.8964 17.5658 33.8047 15.2039C33.9349 15.2039 34.0456 15.2039 34.1758 15.2039C36.458 15.2039 37.8676 14.2862 38.6457 13.4967C39.1666 13.0099 39.554 12.4079 39.834 11.7336L40 11.2467L39.6191 10.9671ZM23.312 12.9539H26.8378C27.0038 12.9539 27.1536 12.8224 27.1536 12.6349V9.44737C27.1536 9.2796 27.0234 9.12829 26.8378 9.12829H23.312C23.146 9.12829 22.9962 9.25987 22.9962 9.44737V12.6349C23.0158 12.8224 23.146 12.9539 23.312 12.9539ZM18.3962 3.82566H21.9219C22.0879 3.82566 22.2377 3.69408 22.2377 3.50658V0.319079C22.2377 0.151316 22.0879 0 21.9219 0H18.3962C18.2301 0 18.0804 0.131579 18.0804 0.319079V3.50658C18.0804 3.67434 18.2269 3.82566 18.3962 3.82566ZM18.3962 8.39803H21.9219C22.0879 8.39803 22.2377 8.24671 22.2377 8.07895V4.89145C22.2377 4.72368 22.0879 4.57237 21.9219 4.57237H18.3962C18.2301 4.57237 18.0804 4.70395 18.0804 4.89145V8.07895C18.0804 8.25 18.2269 8.39803 18.3962 8.39803ZM13.5161 8.39803H17.0418C17.2079 8.39803 17.3576 8.24671 17.3576 8.07895V4.89145C17.3576 4.72368 17.2274 4.57237 17.0418 4.57237H13.5161C13.35 4.57237 13.2003 4.70395 13.2003 4.89145V8.07895C13.2003 8.25 13.3305 8.39803 13.5161 8.39803ZM8.56112 8.39803H12.0869C12.2529 8.39803 12.4027 8.24671 12.4027 8.07895V4.89145C12.4027 4.72368 12.2725 4.57237 12.0869 4.57237H8.56112C8.39509 4.57237 8.24533 4.70395 8.24533 4.89145V8.07895C8.26487 8.25 8.39509 8.39803 8.56112 8.39803ZM18.3962 12.9539H21.9219C22.0879 12.9539 22.2377 12.8224 22.2377 12.6349V9.44737C22.2377 9.2796 22.1075 9.12829 21.9219 9.12829H18.3962C18.2301 9.12829 18.0804 9.25987 18.0804 9.44737V12.6349C18.0804 12.8224 18.2269 12.9539 18.3962 12.9539ZM13.5161 12.9539H17.0418C17.2079 12.9539 17.3576 12.8224 17.3576 12.6349V9.44737C17.3576 9.2796 17.2274 9.12829 17.0418 9.12829H13.5161C13.35 9.12829 13.2003 9.25987 13.2003 9.44737V12.6349C13.2003 12.8224 13.3305 12.9539 13.5161 12.9539ZM8.56112 12.9539H12.0869C12.2529 12.9539 12.4027 12.8224 12.4027 12.6349V9.44737C12.4027 9.2796 12.2725 9.12829 12.0869 9.12829H8.56112C8.39509 9.12829 8.24533 9.25987 8.24533 9.44737V12.6349C8.26487 12.8224 8.39509 12.9539 8.56112 12.9539ZM3.70058 12.9539H7.22635C7.39238 12.9539 7.54213 12.8224 7.54213 12.6349V9.44737C7.54213 9.2796 7.41191 9.12829 7.22635 9.12829H3.70058C3.53455 9.12829 3.38479 9.25987 3.38479 9.44737V12.6349C3.40433 12.8224 3.53455 12.9539 3.70058 12.9539Z" fill="#6D6969"/>
</svg>
