<svg width="680" height="300" viewBox="0 0 680 300" fill="none" xmlns="http://www.w3.org/2000/svg">
<g opacity="0.2">
<path opacity="0.5" d="M297.143 123.503C296.313 122.812 288.793 117.039 272.653 117.039C268.478 117.039 264.156 117.459 259.981 118.174C256.929 96.6612 239.251 86.25 238.543 85.7072L234.222 83.1661L231.438 87.2368C227.971 92.7138 225.309 98.9062 223.796 105.222C220.866 117.459 222.672 128.98 228.801 138.824C221.427 143.043 209.463 144.03 206.948 144.178H9.34421C4.1923 144.178 0.0170521 148.396 0.0170521 153.602C-0.251531 171.044 2.65405 188.462 8.63613 204.918C15.4484 222.903 25.6057 236.275 38.693 244.416C53.4407 253.544 77.5155 258.75 104.642 258.75C116.875 258.75 129.132 257.615 141.243 255.37C158.09 252.286 174.23 246.365 189.1 237.804C201.357 230.625 212.344 221.497 221.671 210.814C237.396 192.952 246.723 172.993 253.535 155.28C254.512 155.28 255.342 155.28 256.319 155.28C273.435 155.28 284.007 148.396 289.843 142.475C293.749 138.824 296.655 134.309 298.755 129.252L300 125.6L297.143 123.503ZM174.84 138.405H201.283C202.529 138.405 203.652 137.418 203.652 136.012V112.105C203.652 110.847 202.675 109.712 201.283 109.712H174.84C173.595 109.712 172.472 110.699 172.472 112.105V136.012C172.618 137.418 173.595 138.405 174.84 138.405ZM137.971 69.9424H164.414C165.66 69.9424 166.783 68.9556 166.783 67.5493V43.6431C166.783 42.3849 165.66 41.25 164.414 41.25H137.971C136.726 41.25 135.603 42.2368 135.603 43.6431V67.5493C135.603 68.8076 136.701 69.9424 137.971 69.9424ZM137.971 104.235H164.414C165.66 104.235 166.783 103.1 166.783 101.842V77.9359C166.783 76.6776 165.66 75.5428 164.414 75.5428H137.971C136.726 75.5428 135.603 76.5296 135.603 77.9359V101.842C135.603 103.125 136.701 104.235 137.971 104.235ZM101.371 104.235H127.814C129.059 104.235 130.182 103.1 130.182 101.842V77.9359C130.182 76.6776 129.206 75.5428 127.814 75.5428H101.371C100.125 75.5428 99.0021 76.5296 99.0021 77.9359V101.842C99.0021 103.125 99.9788 104.235 101.371 104.235ZM64.2084 104.235H90.6517C91.8969 104.235 93.0201 103.1 93.0201 101.842V77.9359C93.0201 76.6776 92.0434 75.5428 90.6517 75.5428H64.2084C62.9632 75.5428 61.84 76.5296 61.84 77.9359V101.842C61.9865 103.125 62.9632 104.235 64.2084 104.235ZM137.971 138.405H164.414C165.66 138.405 166.783 137.418 166.783 136.012V112.105C166.783 110.847 165.806 109.712 164.414 109.712H137.971C136.726 109.712 135.603 110.699 135.603 112.105V136.012C135.603 137.418 136.701 138.405 137.971 138.405ZM101.371 138.405H127.814C129.059 138.405 130.182 137.418 130.182 136.012V112.105C130.182 110.847 129.206 109.712 127.814 109.712H101.371C100.125 109.712 99.0021 110.699 99.0021 112.105V136.012C99.0021 137.418 99.9788 138.405 101.371 138.405ZM64.2084 138.405H90.6517C91.8969 138.405 93.0201 137.418 93.0201 136.012V112.105C93.0201 110.847 92.0434 109.712 90.6517 109.712H64.2084C62.9632 109.712 61.84 110.699 61.84 112.105V136.012C61.9865 137.418 62.9632 138.405 64.2084 138.405ZM27.7544 138.405H54.1976C55.4428 138.405 56.566 137.418 56.566 136.012V112.105C56.566 110.847 55.5893 109.712 54.1976 109.712H27.7544C26.5091 109.712 25.386 110.699 25.386 112.105V136.012C25.5325 137.418 26.5091 138.405 27.7544 138.405Z" fill="#6D6969"/>
<path opacity="0.5" fill-rule="evenodd" clip-rule="evenodd" d="M569.361 109.589L539.221 115.504C513.526 120.432 501.666 132.259 496.726 157.886C495.576 163.615 494.578 169.046 493.61 174.298C493.33 175.824 493.052 177.334 492.775 178.828C492.033 182.772 491.293 186.715 490.549 190.411L520.445 184.496C546.137 179.568 558.244 167.741 563.185 142.114C564.269 136.705 565.27 131.279 566.272 125.854C567.276 120.429 568.277 115.004 569.361 109.589ZM680 150C680 232.75 612.749 300 529.998 300C447.25 300 380 232.75 380 150C380 67.2498 447.25 0 529.998 0C612.749 0 680 67.2498 680 150ZM529.998 26.5002C461.75 26.5002 406.499 81.7486 406.499 150C406.499 196.278 431.903 236.58 469.537 257.733C460.391 245.636 457.083 228.252 461.153 204.702C462.024 199.908 463.071 194.26 464.236 187.958C465.049 183.566 465.921 178.857 466.833 173.901C467.191 172.039 467.573 170.119 467.96 168.151C468.908 163.343 469.909 158.275 470.786 153.204C477.705 116.735 497.716 96.5305 534.033 89.8773L574.116 81.9913C576.414 62.7723 574.536 49.4666 567.867 41.3352C561.196 33.2039 547.859 26.5002 529.998 26.5002ZM653.501 150C653.501 218.251 598.249 273.5 529.998 273.5C512.14 273.5 498.803 266.796 492.132 258.665C485.461 250.533 483.585 237.228 485.881 218.009L525.631 210.123C561.95 203.47 581.961 183.265 589.124 147.044C590.002 141.973 591.003 136.902 591.95 132.097C592.34 130.128 592.719 128.206 593.078 126.344C594.159 120.466 595.206 114.878 596.164 109.754C597.173 104.356 598.085 99.4711 598.847 95.2977C602.913 71.7477 599.609 54.3641 590.462 42.2673C628.097 63.42 653.501 103.722 653.501 150Z" fill="#6D6969"/>
</g>
</svg>
