<svg width="678" height="298" viewBox="0 0 678 298" fill="none" xmlns="http://www.w3.org/2000/svg">
<g opacity="0.2">
<path opacity="0.5" d="M126.696 179.071L126.783 179.199L114.379 210.077C102.475 202.224 93.4186 190.542 88.6135 176.845L120.624 171.253L120.674 171.317C121.646 171.132 122.648 171.223 123.574 171.58C124.499 171.936 125.314 172.545 125.931 173.34C126.547 174.136 126.943 175.089 127.076 176.099C127.208 177.108 127.073 178.135 126.684 179.071H126.696ZM116.353 151.828C117.306 151.559 118.17 151.029 118.854 150.294C119.538 149.558 120.015 148.646 120.236 147.653C120.456 146.661 120.411 145.625 120.106 144.656C119.8 143.688 119.246 142.823 118.501 142.154L118.526 142.013L94.1762 119.568C86.7482 132.029 83.5589 146.684 85.1119 161.22L116.328 151.943L116.353 151.828ZM130.57 126.491C131.369 127.092 132.311 127.458 133.297 127.55C134.282 127.643 135.273 127.458 136.164 127.015C137.055 126.572 137.812 125.888 138.356 125.037C138.899 124.185 139.208 123.197 139.25 122.179L139.374 122.115L141.236 88.5885C127.134 90.2874 113.983 96.78 103.861 107.041L130.52 126.53L130.57 126.504V126.491ZM140.007 161.681L148.984 166.147L157.949 161.707L160.184 151.725L153.976 143.753H143.993L137.784 151.725L140.007 161.694V161.681ZM158.632 122.076C158.674 123.096 158.984 124.085 159.529 124.937C160.074 125.788 160.834 126.472 161.727 126.913C162.619 127.355 163.612 127.538 164.598 127.444C165.584 127.349 166.526 126.98 167.324 126.376L167.423 126.414L193.921 107.054C183.834 96.8734 170.781 90.3903 156.77 88.6013L158.607 122.064L158.632 122.076ZM293.678 198.47L221.996 290.361C220.128 292.741 217.767 294.659 215.085 295.974C212.403 297.29 209.469 297.969 206.499 297.962L91.5066 298C88.5367 298.002 85.604 297.318 82.9244 295.999C80.2448 294.679 77.8864 292.757 76.0228 290.373L4.30282 198.496C2.45746 196.117 1.15638 193.34 0.4964 190.371C-0.163583 187.402 -0.165485 184.318 0.490836 181.349L26.0696 66.758C27.4106 60.7437 31.3468 55.702 36.7854 53.0275L140.367 2.00867C143.052 0.686331 145.99 0 148.966 0C151.942 0 154.88 0.686331 157.564 2.00867L261.183 53.002C266.622 55.6764 270.558 60.7309 271.899 66.7324L297.503 181.323C298.844 187.338 297.441 193.646 293.678 198.47ZM252.839 172.148C252.318 172.02 251.56 171.816 251.039 171.713C248.878 171.291 247.127 171.393 245.091 171.227C240.745 170.754 237.169 170.37 233.978 169.333C232.674 168.821 231.743 167.222 231.296 166.569L228.8 165.814C230.13 155.868 229.688 145.756 227.496 135.973C225.301 126.091 221.361 116.709 215.874 108.295C216.52 107.693 217.737 106.593 218.072 106.26C218.171 105.108 218.084 103.918 219.239 102.652C221.685 100.284 224.752 98.3265 228.465 95.9719C230.228 94.8971 231.855 94.2188 233.618 92.8752C234.015 92.5681 234.562 92.0819 234.984 91.7364C237.964 89.2923 238.647 85.0823 236.511 82.3183C234.375 79.5543 230.228 79.2984 227.26 81.7425C226.838 82.088 226.267 82.5358 225.882 82.8685C224.218 84.3529 223.188 85.8117 221.785 87.3472C218.73 90.5463 216.197 93.2079 213.428 95.1402C212.224 95.8568 210.46 95.6136 209.666 95.5625L207.306 97.29C193.725 82.6023 175.432 73.4946 155.826 71.659L155.677 68.8054C154.87 68.012 153.901 67.3338 153.653 65.6063C153.38 62.1769 153.839 58.4788 154.361 54.0257C154.646 51.9399 155.118 50.2124 155.205 47.9474C155.218 47.4356 155.193 46.6806 155.193 46.1303C155.193 42.2147 152.411 39.0284 148.984 39.0284C145.57 39.0284 142.788 42.2147 142.788 46.1303L142.801 46.3095C142.801 46.8341 142.776 47.4867 142.801 47.9474C142.875 50.2124 143.347 51.9399 143.633 54.0257C144.154 58.4788 144.601 62.1769 144.328 65.6191C143.976 66.8943 143.278 68.0395 142.316 68.9206L142.167 71.6206C122.436 73.2535 103.998 82.3891 90.4388 97.2516C89.6868 96.7158 88.9417 96.1697 88.2037 95.6136C87.0862 95.7672 85.9687 96.1255 84.5159 95.2426C81.7469 93.3231 79.2139 90.6615 76.1593 87.4624C74.7562 85.9268 73.738 84.4681 72.0742 82.9965C71.7017 82.6638 71.1181 82.2031 70.6959 81.8704C69.4683 80.8449 67.9536 80.2528 66.3748 80.1813C65.4373 80.13 64.5012 80.3072 63.6426 80.6985C62.784 81.0898 62.0269 81.6842 61.4329 82.4334C59.2972 85.1975 59.9801 89.4202 62.9602 91.8643L63.0471 91.9283L64.3385 92.9904C66.1017 94.334 67.7159 95.025 69.4791 96.0871C73.1917 98.4544 76.2587 100.412 78.7048 102.767C79.6485 103.816 79.8223 105.659 79.9465 106.452L81.9332 108.282C70.9609 125.237 66.4507 145.77 69.268 165.942L66.6852 166.71C66.0023 167.631 65.0338 169.064 64.0156 169.487C60.8245 170.523 57.236 170.894 52.9025 171.368C50.8661 171.547 49.1154 171.445 46.9424 171.867C46.483 171.956 45.8249 172.123 45.291 172.251L45.2413 172.276L45.1544 172.302C41.4914 173.21 39.1446 176.678 39.902 180.082C40.6595 183.499 44.2355 185.572 47.9109 184.753L47.9978 184.74L48.122 184.702L49.7238 184.33C51.8347 183.742 53.3744 182.884 55.2866 182.129C59.3841 180.619 62.7864 179.353 66.0892 178.854C67.4799 178.738 68.9451 179.737 69.6653 180.146L72.3598 179.673C78.4286 198.996 91.1484 215.364 108.12 225.688L107.003 228.478C107.413 229.553 107.86 231.024 107.549 232.086C106.345 235.311 104.284 238.702 101.937 242.49C100.807 244.23 99.6397 245.586 98.6091 247.595C98.3607 248.069 98.0503 248.811 97.8144 249.31C96.225 252.829 97.3922 256.873 100.459 258.395C103.539 259.931 107.363 258.306 109.027 254.787V254.761C109.275 254.262 109.598 253.61 109.797 253.136C110.666 251.063 110.964 249.284 111.585 247.275C113.224 243.027 114.13 238.574 116.39 235.797C117.011 235.029 118.004 234.748 119.06 234.454L120.463 231.83C138.87 239.14 159.248 239.195 177.692 231.984L179.008 234.441C180.076 234.799 181.243 234.978 182.187 236.424C183.876 239.393 185.031 242.912 186.434 247.173C187.055 249.169 187.353 250.948 188.234 253.021C188.433 253.494 188.768 254.173 189.004 254.672C190.655 258.203 194.492 259.816 197.572 258.28C200.639 256.77 201.806 252.714 200.216 249.195C199.968 248.696 199.658 247.966 199.409 247.48C198.379 245.484 197.212 244.14 196.082 242.387C193.722 238.6 191.785 235.464 190.581 232.24C190.084 230.576 190.668 229.553 191.053 228.478C190.829 228.196 190.32 226.635 190.022 225.893C207.057 215.488 219.784 198.992 225.783 179.545C226.577 179.673 227.968 179.928 228.428 180.031C229.359 179.391 230.216 178.572 231.904 178.7C235.207 179.199 238.609 180.466 242.707 181.976C244.619 182.744 246.146 183.614 248.27 184.19C248.717 184.318 249.362 184.433 249.884 184.548L249.996 184.586L250.083 184.599C253.77 185.418 257.334 183.345 258.092 179.928C258.837 176.525 256.502 173.057 252.839 172.148ZM203.631 119.581L179.418 141.923V141.987C178.67 142.656 178.112 143.522 177.805 144.492C177.497 145.462 177.451 146.5 177.672 147.495C177.893 148.49 178.372 149.404 179.057 150.141C179.743 150.877 180.611 151.407 181.566 151.674L181.604 151.802L212.969 161.118C213.65 153.95 213.197 146.715 211.628 139.697C210.05 132.581 207.348 125.781 203.631 119.568V119.581ZM153.802 187.721C153.323 186.789 152.597 186.016 151.71 185.491C150.822 184.965 149.808 184.71 148.786 184.753C147.83 184.79 146.9 185.084 146.09 185.607C145.279 186.131 144.616 186.864 144.167 187.734H144.142L128.397 217.063C141.783 221.77 156.302 221.783 169.696 217.102L153.926 187.721H153.802ZM177.245 171.176C176.109 170.96 174.935 171.121 173.893 171.636C172.617 172.265 171.627 173.379 171.131 174.744C170.636 176.109 170.673 177.619 171.235 178.956L171.198 179.007L183.739 210.205C195.722 202.321 204.814 190.546 209.579 176.742L177.295 171.112L177.245 171.176Z" fill="#6D6969"/>
<g opacity="0.5">
<path d="M578.21 166.188C597.916 166.188 626.45 162.125 626.45 138.844C626.449 137.063 626.291 135.285 625.977 133.531L614.311 82.9062C611.631 71.8125 609.266 66.6562 589.561 56.9688C574.269 49.1563 541.006 36.5 531.074 36.5C521.773 36.5 519.093 48.2188 508.215 48.2188C497.653 48.2188 489.929 39.4688 479.997 39.4688C470.538 39.4688 464.39 45.875 459.661 59C459.661 59 446.418 96.0312 444.684 101.5C444.424 102.467 444.317 103.469 444.369 104.469C444.211 118.844 501.437 166.031 578.21 166.188ZM629.445 148.375C632.125 161.188 632.125 162.594 632.125 164.156C632.125 186.031 607.375 198.219 574.742 198.219C500.964 198.219 436.487 155.406 436.487 127.125C436.479 123.203 437.284 119.32 438.851 115.719C412.367 116.969 378 121.656 378 151.656C378 200.875 495.604 261.5 588.615 261.5C660.028 261.5 678 229.469 678 204.156C678 184.312 660.659 161.812 629.445 148.375Z" fill="#6D6969"/>
<path d="M629.443 148.375C632.123 161.188 632.123 162.594 632.123 164.156C632.123 186.031 607.373 198.219 574.74 198.219C500.962 198.219 436.484 155.406 436.484 127.125C436.477 123.203 437.282 119.32 438.849 115.719L444.682 101.5C444.422 102.467 444.315 103.469 444.367 104.469C444.367 118.844 501.592 166.031 578.208 166.031C597.914 166.031 626.448 161.969 626.448 138.688C626.447 136.906 626.289 135.129 625.975 133.375L629.443 148.375Z" fill="#363636"/>
</g>
</g>
</svg>
