<svg width="260" height="80" viewBox="0 0 260 80" fill="none" xmlns="http://www.w3.org/2000/svg">
<rect x="0.5" y="0.5" width="79" height="79" fill="#F8F7F7" stroke="#ECEAEA"/>
<g opacity="0.5">
<path d="M68.5305 44.8358C68.3749 44.8075 68.1768 44.7508 68.0353 44.7225C67.4412 44.6234 66.9602 44.6375 66.4085 44.5809C65.2061 44.4676 64.2442 44.3543 63.353 44.0711C62.9993 43.9295 62.7447 43.5047 62.6174 43.3348L61.9242 43.1365C62.2779 40.5594 62.1788 37.8689 61.5705 35.1785C60.9481 32.4597 59.8447 29.9816 58.3877 27.7868C58.5716 27.6169 58.8969 27.3337 58.9818 27.2487C59.0101 26.9513 58.9818 26.6256 59.293 26.2858C59.972 25.6627 60.8067 25.1388 61.8252 24.5016C62.3061 24.2184 62.7588 24.0343 63.2539 23.6803C63.353 23.6095 63.5086 23.4679 63.6217 23.3829C64.4422 22.7174 64.6261 21.5987 64.0461 20.8624C63.4661 20.1261 62.3203 20.0553 61.4998 20.7066C61.3867 20.7916 61.231 20.9191 61.132 21.004C60.6652 21.4005 60.3964 21.7828 60.0145 22.2076C59.1798 23.0573 58.4725 23.7794 57.7228 24.2892C57.3974 24.4874 56.9165 24.4025 56.6901 24.4025L56.0535 24.8698C52.3614 20.9899 47.3254 18.5118 41.9074 18.0162C41.8932 17.7896 41.8791 17.379 41.8649 17.2515C41.6386 17.0391 41.3698 16.855 41.3132 16.4019C41.2425 15.4815 41.3557 14.5044 41.5113 13.315C41.582 12.7627 41.7235 12.2954 41.7518 11.7007V11.2193C41.7518 10.1714 40.9879 9.33594 40.0401 9.33594C39.0923 9.33594 38.3284 10.1856 38.3284 11.2193V11.2617C38.3284 11.4033 38.3143 11.5733 38.3284 11.7007C38.3425 12.2954 38.484 12.7627 38.5689 13.315C38.7245 14.5044 38.8377 15.4815 38.7669 16.4019C38.6962 16.7418 38.4416 17.0675 38.2152 17.2799L38.1728 18.002C37.1543 18.087 36.1216 18.2428 35.0889 18.4835C30.6612 19.4889 26.8559 21.7687 23.9559 24.8556C23.7578 24.714 23.4325 24.5016 23.3476 24.4166C23.0505 24.4591 22.7393 24.5582 22.3291 24.3175C21.5652 23.8077 20.872 23.0856 20.0374 22.236C19.6413 21.8253 19.3725 21.443 18.9199 21.0323C18.8208 20.9474 18.6511 20.8199 18.5521 20.735C18.1984 20.4518 17.774 20.296 17.3638 20.2818C16.8404 20.2677 16.3311 20.4659 16.0057 20.8766C15.4258 21.6129 15.5955 22.7316 16.4301 23.3971C16.4443 23.3971 16.4443 23.4113 16.4584 23.4113C16.5716 23.4962 16.7131 23.6237 16.8121 23.6945C17.293 24.0485 17.7457 24.2326 18.2126 24.5158C19.2311 25.1388 20.0798 25.6627 20.7447 26.3C20.9993 26.5832 21.0559 27.0646 21.0842 27.2912L21.6218 27.7868C18.6794 32.1623 17.3072 37.5999 18.1135 43.1507L17.3921 43.3631C17.194 43.6038 16.9394 43.9862 16.6565 44.0994C15.7794 44.3685 14.7892 44.4676 13.6009 44.6092C13.0492 44.6517 12.5541 44.6234 11.9741 44.7508C11.8326 44.7791 11.6629 44.8216 11.5214 44.8499H11.479C10.4746 45.0907 9.83802 46.0252 10.0361 46.9315C10.2341 47.8378 11.2243 48.4042 12.2429 48.1776H12.2712C12.2853 48.1776 12.2853 48.1634 12.2995 48.1634C12.4409 48.1351 12.6107 48.1068 12.738 48.0643C13.318 47.9086 13.7424 47.6678 14.2658 47.4837C15.3833 47.0731 16.3311 46.7333 17.2365 46.62C17.6043 46.5917 18.0145 46.8607 18.2126 46.9598L18.9623 46.8182C20.674 52.1283 24.253 56.4047 28.7797 59.1093L28.4685 59.8598C28.5675 60.143 28.709 60.5395 28.6241 60.8227C28.2988 61.6724 27.7329 62.5928 27.0822 63.5982C26.771 64.0654 26.4598 64.4195 26.1627 64.9575C26.092 65.0991 26.0071 65.2832 25.9364 65.4248C25.4978 66.3736 25.8232 67.4498 26.6578 67.8462C27.5066 68.2569 28.5534 67.8321 29.0061 66.8833C29.0627 66.7417 29.1617 66.5718 29.2183 66.4444C29.4588 65.8921 29.5295 65.4107 29.7134 64.8867C30.1661 63.7539 30.4207 62.5645 31.029 61.814C31.1987 61.6016 31.4817 61.5308 31.7646 61.4599L32.1607 60.7519C36.1075 62.2671 40.5493 62.6777 44.963 61.6865C45.9673 61.46 46.9434 61.1626 47.8771 60.8086C47.9761 61.0068 48.1883 61.375 48.2307 61.4741C48.5136 61.5591 48.839 61.6299 49.0936 61.998C49.5605 62.791 49.8717 63.7398 50.2678 64.8584C50.4375 65.3965 50.5224 65.8638 50.7629 66.416C50.8195 66.5293 50.9185 66.7134 50.9751 66.855C51.4277 67.8038 52.4887 68.2286 53.3233 67.8179C54.158 67.4073 54.4975 66.3311 54.0448 65.3965C53.9882 65.2549 53.8892 65.0708 53.8184 64.9292C53.5355 64.3911 53.2243 64.0371 52.8989 63.5698C52.2624 62.5645 51.7107 61.729 51.3853 60.8511C51.2438 60.3979 51.4136 60.1289 51.5268 59.8457C51.4702 59.7749 51.3146 59.3501 51.2438 59.1518C55.9545 56.3623 59.4345 51.9159 61.0613 46.7757C61.2876 46.8041 61.6554 46.8749 61.7969 46.9173C62.0515 46.7474 62.292 46.5209 62.7588 46.5633C63.6783 46.7049 64.5978 47.0306 65.7295 47.4271C66.2529 47.6254 66.6773 47.8661 67.2573 48.0077C67.3705 48.036 67.5544 48.0643 67.6958 48.0926C67.71 48.0926 67.71 48.1068 67.7241 48.1068H67.7524C68.7568 48.3334 69.747 47.7811 69.9592 46.8607C70.1714 46.0111 69.5348 45.0765 68.5305 44.8358ZM55.9828 28.9621V35.9573H23.9842V28.9621H55.9828ZM51.2156 40.8001C51.3712 40.8992 51.5692 40.97 51.8097 40.97C51.9794 40.97 52.1209 40.9559 52.2907 40.9275C52.4463 40.8992 52.5736 40.8567 52.6868 40.8143L52.7999 41.5647C52.7575 41.5931 52.7009 41.6072 52.6019 41.6355C52.5311 41.6639 52.4321 41.678 52.3331 41.6922C52.2341 41.7064 52.1351 41.7205 52.0219 41.7347C51.9229 41.7488 51.7955 41.7488 51.6965 41.7488C51.4136 41.7488 51.1731 41.7063 50.9609 41.6072C50.7487 41.5081 50.5931 41.3948 50.4375 41.2532C50.2961 41.0975 50.197 40.9275 50.1404 40.7293C50.0839 40.5169 50.0414 40.3045 50.0414 40.0638C50.0414 39.7806 50.0839 39.5257 50.1829 39.3133C50.2678 39.1009 50.3809 38.9168 50.5082 38.7752C50.6497 38.6194 50.8053 38.5203 50.9892 38.4495C51.1731 38.3787 51.3429 38.3504 51.5409 38.3504C51.9936 38.3504 52.3331 38.492 52.5877 38.7752C52.8424 39.0584 52.9838 39.469 52.9838 40.0213V40.2054C52.9838 40.262 52.9697 40.3186 52.9697 40.3753H50.9751C50.9751 40.5452 51.0599 40.6868 51.2156 40.8001ZM48.5278 37.4866V38.4495H49.5887V39.2141H48.5278V40.347C48.5278 40.5452 48.5561 40.6868 48.6268 40.8143C48.6834 40.9275 48.8249 40.9842 49.0229 40.9842C49.1078 40.9842 49.2209 40.97 49.32 40.9559C49.419 40.9417 49.518 40.9134 49.5887 40.8851L49.7019 41.6072C49.6029 41.6497 49.4756 41.6922 49.3483 41.7205C49.2068 41.7488 49.0653 41.763 48.8673 41.763C48.6268 41.763 48.4146 41.7347 48.2732 41.6639C48.1034 41.5931 47.9902 41.4939 47.9054 41.3807C47.8205 41.2674 47.7356 41.1116 47.7073 40.9417C47.6649 40.7718 47.6507 40.5877 47.6507 40.3753V37.6565L48.5278 37.4866ZM53.6345 40.8143C53.7902 40.8709 53.9316 40.9134 54.1014 40.97C54.2711 40.9983 54.4126 41.0125 54.5682 41.0125C54.7379 41.0125 54.8511 40.9983 54.9077 40.97C54.9643 40.9417 55.0067 40.8851 55.0067 40.7718C55.0067 40.701 54.9643 40.6302 54.8653 40.5735C54.7804 40.5169 54.6389 40.4602 54.455 40.3894C54.3136 40.3328 54.1862 40.2903 54.0872 40.2195C53.9741 40.1629 53.875 40.1062 53.8043 40.0071C53.7336 39.908 53.6628 39.823 53.6204 39.7239C53.578 39.6248 53.5638 39.4832 53.5638 39.3133C53.5638 39.0159 53.6628 38.7752 53.8892 38.5911C54.1155 38.407 54.4126 38.322 54.7804 38.322C54.9784 38.322 55.1482 38.3362 55.3321 38.3645C55.516 38.3928 55.6433 38.4353 55.7565 38.4778L55.6009 39.2C55.5018 39.1717 55.3887 39.1292 55.2755 39.1009C55.1623 39.0725 55.0209 39.0584 54.8653 39.0584C54.5823 39.0584 54.4409 39.1292 54.4409 39.2991C54.4409 39.3274 54.4409 39.3699 54.455 39.3982C54.4692 39.4265 54.4833 39.4549 54.5258 39.4832C54.5682 39.5115 54.6106 39.5398 54.6814 39.5681C54.7379 39.5965 54.8228 39.6248 54.9219 39.6673C55.1199 39.7381 55.2755 39.823 55.4028 39.8938C55.516 39.9646 55.6292 40.0496 55.6999 40.1346C55.7706 40.2195 55.8131 40.3186 55.8555 40.4178C55.8838 40.5169 55.8979 40.6443 55.8979 40.7718C55.8979 41.0833 55.7848 41.324 55.5584 41.4939C55.3321 41.6639 55.0067 41.7347 54.5682 41.7347C54.2853 41.7347 54.0589 41.7064 53.875 41.6639C53.6911 41.6214 53.5638 41.5789 53.4789 41.5506L53.6345 40.8143ZM45.2176 40.8001C45.3732 40.8992 45.5712 40.97 45.8117 40.97C45.9815 40.97 46.1229 40.9559 46.2927 40.9275C46.4483 40.8992 46.5756 40.8567 46.6888 40.8143L46.8019 41.5647C46.7595 41.5931 46.7029 41.6072 46.6039 41.6355C46.5332 41.6639 46.4342 41.678 46.3351 41.6922C46.2361 41.7064 46.1371 41.7205 46.0239 41.7347C45.9249 41.7488 45.7976 41.7488 45.6986 41.7488C45.4156 41.7488 45.1751 41.7063 44.963 41.6072C44.7508 41.5081 44.5951 41.3948 44.4395 41.2532C44.2981 41.0975 44.1991 40.9275 44.1425 40.7293C44.0859 40.5169 44.0434 40.3045 44.0434 40.0638C44.0434 39.7806 44.0859 39.5257 44.1849 39.3133C44.2698 39.1009 44.383 38.9168 44.5103 38.7752C44.6376 38.6336 44.8073 38.5203 44.9912 38.4495C45.1751 38.3787 45.3449 38.3504 45.5429 38.3504C45.9956 38.3504 46.3351 38.492 46.5898 38.7752C46.8444 39.0584 46.9859 39.469 46.9859 40.0213V40.2054C46.9859 40.262 46.9717 40.3186 46.9717 40.3753H44.9771C44.9912 40.5452 45.0761 40.6868 45.2176 40.8001ZM42.5157 41.6639V39.9505C42.5157 39.6531 42.4732 39.4407 42.4025 39.3274C42.3318 39.2141 42.1903 39.1433 41.9781 39.1433C41.9215 39.1433 41.8366 39.1433 41.7801 39.1575C41.7093 39.1575 41.6386 39.1717 41.582 39.1717V41.6639H40.705V38.5486C40.8606 38.5061 41.0445 38.4636 41.2849 38.4353C41.5254 38.407 41.7801 38.3787 42.0347 38.3787C42.3035 38.3787 42.5157 38.407 42.6996 38.4778C42.8835 38.5486 43.0108 38.6619 43.124 38.7752C43.223 38.9168 43.3078 39.0584 43.3503 39.2425C43.3927 39.4265 43.4069 39.6106 43.4069 39.8372V41.6639H42.5157ZM35.7538 40.8001C35.9094 40.8992 36.1075 40.97 36.3479 40.97C36.5177 40.97 36.6592 40.9559 36.8289 40.9275C36.9845 40.8992 37.1118 40.8567 37.225 40.8143L37.3382 41.5647C37.2957 41.5931 37.2391 41.6072 37.1401 41.6355C37.0694 41.6639 36.9704 41.678 36.8713 41.6922C36.7723 41.7064 36.6733 41.7205 36.5601 41.7347C36.4611 41.7488 36.3338 41.7488 36.2348 41.7488C35.9518 41.7488 35.7114 41.7063 35.4992 41.6072C35.287 41.5081 35.1314 41.3948 34.9758 41.2532C34.8343 41.0975 34.7353 40.9275 34.6787 40.7293C34.6221 40.5169 34.5797 40.3045 34.5797 40.0638C34.5797 39.7806 34.6221 39.5257 34.7211 39.3133C34.806 39.1009 34.9192 38.9168 35.0465 38.7752C35.1738 38.6336 35.3436 38.5203 35.5275 38.4495C35.7114 38.3787 35.8811 38.3504 36.0792 38.3504C36.5318 38.3504 36.8713 38.492 37.126 38.7752C37.3806 39.0584 37.5221 39.469 37.5221 40.0213V40.2054C37.5221 40.262 37.5079 40.3186 37.5079 40.3753H35.4992C35.5133 40.5452 35.5982 40.6868 35.7538 40.8001ZM39.262 39.1575C39.1913 39.1717 39.1206 39.1717 39.0781 39.1858V41.6639H38.2011V38.6052C38.3708 38.5486 38.5406 38.5061 38.7669 38.4353C38.9791 38.3928 39.2196 38.3645 39.4884 38.3645C39.5308 38.3645 39.5874 38.3645 39.6723 38.3787C39.7289 38.3787 39.8137 38.3928 39.8703 38.407C39.9269 38.4212 40.0118 38.4353 40.0684 38.4353C40.125 38.4495 40.1815 38.4636 40.2523 38.4778L40.0967 39.2283C40.0259 39.2141 39.9128 39.1858 39.8137 39.1717C39.7147 39.1575 39.5874 39.1433 39.4742 39.1433C39.4035 39.1433 39.3469 39.1433 39.262 39.1575ZM26.6437 40.7151C26.7568 40.8851 26.87 41.0408 26.969 41.2107C27.0681 41.3807 27.1529 41.5223 27.2237 41.6639H26.2051C26.1485 41.5647 26.0637 41.4373 25.9929 41.3099C25.9222 41.1824 25.8232 41.055 25.7383 40.9134C25.6534 40.7718 25.5544 40.6585 25.4554 40.5452C25.3564 40.4319 25.2573 40.3186 25.1583 40.2478V41.678H24.2813V37.0476L25.1583 36.8919V39.5823C25.2432 39.4832 25.3422 39.3841 25.4271 39.2849C25.512 39.1858 25.611 39.0725 25.6959 38.9734C25.7807 38.8743 25.8656 38.761 25.9364 38.6761C26.0071 38.5911 26.092 38.492 26.1344 38.4353H27.1812C26.969 38.6902 26.7568 38.9309 26.5729 39.1575C26.3749 39.3841 26.1485 39.6248 25.9081 39.8655C26.0212 39.9646 26.1485 40.1062 26.2759 40.262C26.4032 40.3894 26.5305 40.5594 26.6437 40.7151ZM27.6056 40.2195V38.4212H28.4827V40.1204C28.4827 40.4178 28.5251 40.6302 28.5958 40.7576C28.6666 40.8992 28.808 40.9559 29.0202 40.9559C29.0768 40.9559 29.1617 40.9559 29.2183 40.9417C29.289 40.9417 29.3597 40.9275 29.4163 40.9275V38.4353H30.2934V41.5364C30.1378 41.5789 29.9539 41.6214 29.7134 41.6497C29.4729 41.678 29.2183 41.7063 28.9636 41.7063C28.6949 41.7063 28.4827 41.678 28.2988 41.6072C28.1149 41.5364 27.9876 41.4231 27.8744 41.2957C27.7754 41.1541 27.6905 41.0125 27.648 40.8143C27.6339 40.6443 27.6056 40.4461 27.6056 40.2195ZM31.1421 37.0335L32.0192 36.8777V38.4778C32.1182 38.4353 32.2173 38.407 32.3304 38.3787C32.4294 38.3504 32.5568 38.3504 32.6699 38.3504C32.8963 38.3504 33.0943 38.3928 33.2499 38.4636C33.4055 38.5344 33.5611 38.6619 33.6885 38.8035C33.8016 38.9593 33.8865 39.1292 33.9431 39.3274C33.9997 39.5257 34.028 39.7664 34.028 40.0213C34.028 40.2762 33.9997 40.5169 33.9289 40.7293C33.8582 40.9417 33.745 41.1258 33.6177 41.2674C33.4763 41.4231 33.3065 41.5223 33.1085 41.6072C32.8963 41.678 32.6699 41.7205 32.4153 41.7205C32.3163 41.7205 32.189 41.7205 32.0899 41.7063L31.7504 41.6639C31.6373 41.6497 31.5241 41.6355 31.4251 41.6072C31.326 41.5931 31.227 41.5647 31.1563 41.5364V37.0335H31.1421ZM23.9842 43.0516H55.9828V50.0468H23.9842V43.0516ZM50.8902 26.2008H42.3318L42.1196 22.5475C45.359 22.9298 48.3863 24.2184 50.8902 26.2008ZM36.0367 22.8448C36.645 22.7032 37.2533 22.6041 37.8474 22.5333L37.6352 26.1867H28.9919C31.0007 24.629 33.3914 23.4537 36.0367 22.8448ZM30.4773 54.9604C29.4729 54.3232 28.5534 53.5868 27.6905 52.7372H31.3826L30.4773 54.9604ZM43.9586 57.3251C40.6342 58.0756 37.3382 57.8491 34.3533 56.8295L36.6026 52.7514H43.4493L45.7127 56.8437C45.1186 57.0278 44.5386 57.1835 43.9586 57.3251ZM49.5322 55.0029L48.5985 52.7514H52.3614C51.5126 53.5868 50.5507 54.3373 49.5322 55.0029Z" fill="#6D6969"/>
<path d="M52.0929 39.4981C52.0788 39.4272 52.0364 39.3564 51.9939 39.2998C51.9515 39.2432 51.8949 39.2007 51.81 39.1582C51.7393 39.1299 51.6544 39.1016 51.5554 39.1016C51.4564 39.1016 51.3715 39.1157 51.3008 39.144C51.23 39.1724 51.1593 39.2148 51.1169 39.2856C51.0744 39.3423 51.032 39.3989 51.0178 39.4839C50.9895 39.5547 50.9754 39.6397 50.9613 39.7105H52.1354L52.0929 39.4981ZM36.5322 39.2998C36.4897 39.2432 36.4331 39.2007 36.3483 39.1582C36.2775 39.1299 36.1927 39.1016 36.0936 39.1016C35.9946 39.1016 35.9097 39.1157 35.839 39.144C35.7683 39.1724 35.6975 39.2148 35.6551 39.2856C35.6127 39.3423 35.5702 39.3989 35.5561 39.4839C35.5278 39.5547 35.5136 39.6397 35.4995 39.7105H36.6736C36.6736 39.6397 36.6595 39.5547 36.6312 39.4839C36.5887 39.3989 36.5746 39.3564 36.5322 39.2998ZM45.9959 39.2998C45.9535 39.2432 45.8969 39.2007 45.812 39.1582C45.7413 39.1299 45.6564 39.1016 45.5574 39.1016C45.4584 39.1016 45.3735 39.1157 45.3028 39.144C45.232 39.1724 45.1613 39.2148 45.1189 39.2856C45.0764 39.3423 45.034 39.3989 45.0199 39.4839C44.9916 39.5547 44.9774 39.6397 44.9633 39.7105H46.1374C46.1374 39.6397 46.1233 39.5547 46.095 39.4839C46.0667 39.3989 46.0525 39.3564 45.9959 39.2998ZM32.0195 40.9282C32.062 40.9424 32.1186 40.9424 32.1893 40.9424C32.26 40.9424 32.3307 40.9566 32.4156 40.9566C32.6561 40.9566 32.84 40.8716 32.9673 40.7017C33.0805 40.5318 33.1512 40.291 33.1512 40.0078C33.1512 39.4272 32.939 39.1299 32.5288 39.1299C32.4439 39.1299 32.3449 39.144 32.26 39.1582C32.1751 39.1865 32.0903 39.2148 32.0478 39.2432V40.9282H32.0195Z" fill="#6D6969"/>
<path d="M52.3612 33.6196C52.9977 33.6196 53.4221 33.1807 53.4221 32.5576V32.5435C53.4221 31.9204 52.9836 31.4814 52.3612 31.4814H51.767V33.6196H52.3612ZM34.7209 32.4868C35.0887 32.4868 35.315 32.2744 35.315 31.9771V31.9629C35.315 31.6372 35.0746 31.4531 34.7068 31.4531H33.9287V32.4727H34.7209V32.4868Z" fill="#ECEAEA"/>
<path d="M23.9844 28.9609V35.9561H55.983V28.9609H23.9844ZM27.4219 34.3843C26.3751 34.3843 25.597 33.5772 25.597 32.5577V32.5435C25.597 31.5381 26.3609 30.7027 27.4502 30.7027C28.1292 30.7027 28.5111 30.9292 28.8365 31.2549L28.3414 31.8213C28.0726 31.5664 27.7897 31.4107 27.4219 31.4107C26.8278 31.4107 26.3892 31.9063 26.3892 32.5152V32.5293C26.3892 33.1382 26.8136 33.6338 27.4219 33.6338C27.8321 33.6338 28.0868 33.4639 28.3555 33.209L28.8507 33.7188C28.5111 34.1294 28.1009 34.3843 27.4219 34.3843ZM32.3165 34.3277H29.6287V30.7735H32.3023V31.4673H30.4067V32.1895H32.0901V32.8833H30.4067V33.6338H32.3306V34.3418H32.3165V34.3277ZM35.3013 34.3277L34.5374 33.1949H33.9291V34.3277H33.1511V30.7735H34.7637C35.2164 30.7735 35.5559 30.8867 35.7964 31.1275C35.9945 31.3257 36.0935 31.6089 36.0935 31.9346V31.9488C36.0935 32.5152 35.7823 32.8833 35.3296 33.0391L36.1925 34.3135H35.3013V34.3277ZM39.63 31.4956H38.5549V34.3277H37.7769V31.4956H36.7018V30.7735H39.63V31.4956ZM41.172 34.3277H40.3939V30.7735H41.172V34.3277ZM50.9894 30.7735H52.3616C53.465 30.7735 54.243 31.5381 54.243 32.5435V32.5577C54.243 33.563 53.4791 34.3418 52.3616 34.3418H50.9894V30.7735ZM50.1406 30.7735V31.4673H48.245V32.1895H49.9284V32.8833H48.245V33.6338H50.1689V34.3277H47.4811V30.7735H50.1406ZM46.4485 30.7735V34.3277H45.6704V30.7735H46.4485ZM44.8783 31.4815H42.9685V32.232H44.6661V32.94H42.9685V34.3135H42.1905V30.7593H44.8783V31.4815ZM50.6782 45.8258C50.2679 45.8258 49.985 46.1515 49.985 46.548C49.985 46.9445 50.2679 47.2702 50.6923 47.2702C51.1026 47.2702 51.3855 46.9445 51.3855 46.548C51.3713 46.1515 51.0884 45.8258 50.6782 45.8258ZM46.5475 46.7463L46.2363 45.9958L45.9251 46.7463H46.5475Z" fill="#ECEAEA"/>
<path d="M55.983 50.0616V43.0664H23.9844V50.0616H55.983ZM30.5199 46.5498C30.5199 47.1871 30.0248 47.6968 29.2892 47.6968H28.398V45.4029H29.2892C30.0106 45.4029 30.5199 45.8843 30.5199 46.5498ZM32.1184 47.1729L31.4818 46.1958V47.6968H30.9867V45.4029H31.5384L32.1326 46.3799L32.7267 45.4029H33.2784V47.711H32.7691V46.1958L32.1184 47.1729ZM49.2636 45.856H48.5563V47.6968H48.047V45.856H47.3538V45.4029H49.2636V45.8701V45.856ZM51.8947 46.5498C51.8947 47.2154 51.3713 47.7535 50.664 47.7535C49.9426 47.7535 49.4333 47.2295 49.4333 46.564C49.4333 45.8985 49.9567 45.3604 50.664 45.3604C51.3855 45.3604 51.8947 45.8843 51.8947 46.5498ZM54.0874 45.6294C54.2289 45.771 54.2855 45.9409 54.2855 46.1533C54.2855 46.5215 54.0874 46.7481 53.7903 46.8755L54.3562 47.6968H53.762L53.2669 46.9605H52.8708V47.6968H52.3616V45.4029H53.4084C53.6913 45.4029 53.9318 45.4878 54.0874 45.6294ZM45.9958 45.3745H46.4626L47.4529 47.6968H46.9294L46.7173 47.1729H45.7412L45.529 47.6968H45.0056L45.9958 45.3745ZM42.8271 45.4029H43.8739C44.1709 45.4029 44.3973 45.4737 44.5529 45.6436C44.6944 45.7852 44.7509 45.9551 44.7509 46.1675C44.7509 46.5357 44.5529 46.7622 44.2558 46.8897L44.8217 47.711H44.2275L43.7324 46.9746H43.3363V47.711H42.8271V45.4029ZM40.5354 45.4029H42.4451V45.8701H41.7378V47.711H41.2427V45.8701H40.5354V45.4029ZM39.3471 46.7764C38.8803 46.6631 38.5832 46.5215 38.5832 46.0684C38.5832 45.6436 38.9086 45.3745 39.3895 45.3745C39.7149 45.3745 40.012 45.4737 40.2383 45.6719L39.9695 46.0684C39.7573 45.9268 39.5593 45.8418 39.3754 45.8418C39.1774 45.8418 39.0783 45.9268 39.0783 46.0401C39.0783 46.1958 39.1774 46.2383 39.5734 46.3374C40.0403 46.4507 40.309 46.6206 40.309 47.0313C40.309 47.4986 39.9695 47.7535 39.4603 47.7535C39.1208 47.7535 38.753 47.6402 38.4842 47.3853L38.7813 47.0313C38.9935 47.2012 39.2056 47.3145 39.4744 47.3145C39.6866 47.3145 39.7998 47.2437 39.7998 47.0879C39.7998 46.9463 39.7291 46.8755 39.3471 46.7764ZM37.5647 45.4029H38.074V47.711H37.5647V45.4029ZM34.9476 45.4029H35.4145L36.4896 46.833V45.4029H36.9847V47.711H36.5462L35.4286 46.2383V47.711H34.9476V45.4029ZM34.3535 45.4029V47.711H33.8442V45.4029H34.3535ZM26.5873 45.3745H27.0541L28.0443 47.6968H27.5209L27.3087 47.1729H26.3326L26.1204 47.6968H25.597L26.5873 45.3745Z" fill="#ECEAEA"/>
<path d="M26.8137 45.9971L26.5166 46.7476H27.1107L26.8137 45.9971ZM53.366 45.8555H52.8568V46.521H53.366C53.6065 46.521 53.7621 46.3794 53.7621 46.1953C53.7763 45.9688 53.6207 45.8555 53.366 45.8555ZM29.3034 45.8555H28.9073V47.2432H29.3034C29.7278 47.2432 29.9966 46.96 29.9966 46.5493C29.9824 46.1387 29.7136 45.8555 29.3034 45.8555ZM44.2559 46.1953C44.2559 45.9688 44.1003 45.8696 43.8457 45.8696H43.3364V46.5352H43.8457C44.1003 46.521 44.2559 46.3794 44.2559 46.1953Z" fill="#ECEAEA"/>
<path d="M28.8791 33.7349L28.3839 33.2251C28.101 33.48 27.8605 33.6499 27.4503 33.6499C26.842 33.6499 26.4176 33.1402 26.4176 32.5454V32.5313C26.4176 31.9224 26.8562 31.4268 27.4503 31.4268C27.804 31.4268 28.0727 31.5825 28.3698 31.8374L28.8649 31.271C28.5396 30.9453 28.1293 30.7188 27.4786 30.7188C26.3893 30.7188 25.6254 31.54 25.6254 32.5596V32.5737C25.6254 33.5933 26.4035 34.4004 27.4503 34.4004C28.101 34.3863 28.5113 34.1314 28.8791 33.7349ZM30.4068 32.8853H32.062V32.1773H30.4068V31.4551H32.3024V30.7754H29.6288V34.3296H32.3166V33.6216H30.4068V32.8853ZM36.1078 31.9507C36.1078 31.6108 36.0087 31.3276 35.8107 31.1294C35.5702 30.8887 35.2307 30.7754 34.778 30.7754H33.1512V34.3296H33.9292V33.1968H34.5375L35.3014 34.3296H36.2209L35.358 33.0552C35.7965 32.8853 36.1078 32.5313 36.1078 31.9507ZM33.9292 32.4888V31.4692H34.7073C35.0751 31.4692 35.3156 31.6533 35.3156 31.979V31.9932C35.3156 32.2905 35.0892 32.5029 34.7214 32.5029H33.9292V32.4888ZM36.6877 30.7754V31.4976H37.777V34.3296H38.555V31.4976H39.6302V30.7754H36.6877ZM40.394 30.7754H41.1721V34.3296H40.394V30.7754ZM42.1906 30.7754V34.3296H42.9686V32.9419H44.652V32.2339H42.9686V31.4834H44.8784V30.7754H42.1906ZM45.6706 30.7754H46.4486V34.3296H45.6706V30.7754ZM47.453 34.3296H50.169V33.6216H48.231V32.8853H49.9144V32.1773H48.231V31.4551H50.1407V30.7754H47.453V34.3296ZM52.3617 34.3296C53.4651 34.3296 54.2431 33.5508 54.2431 32.5454V32.5313C54.2431 31.5259 53.4792 30.7612 52.3617 30.7612H50.9895V34.3155H52.3617V34.3296ZM51.7676 31.4834H52.3617C52.9983 31.4834 53.4227 31.9224 53.4227 32.5454V32.5596C53.4227 33.1826 52.9841 33.6216 52.3617 33.6216H51.7676V31.4834ZM26.1064 47.6969L26.3186 47.173H27.2947L27.5069 47.6969H28.0303L27.0401 45.3746H26.5732L25.583 47.6969H26.1064ZM26.8137 45.9977L27.1108 46.7482H26.5025L26.8137 45.9977ZM29.3034 45.403H28.4122V47.7111H29.3034C30.0249 47.7111 30.5342 47.2013 30.5342 46.5641C30.52 45.8844 30.0108 45.403 29.3034 45.403ZM29.9825 46.5641C29.9825 46.9748 29.6995 47.258 29.2893 47.258H28.8932V45.8703H29.2893C29.7137 45.8561 29.9825 46.1393 29.9825 46.5641ZM32.7693 47.6969H33.2785V45.403H32.7268L32.1327 46.3659L31.5103 45.403H30.9727V47.6969H31.4678V46.2101L32.1185 47.173H32.1327L32.7693 46.2101V47.6969ZM33.8444 45.403H34.3536V47.7111H33.8444V45.403ZM35.4287 46.2384L36.5604 47.6969H36.999V45.403H36.4897V46.819L35.4004 45.403H34.9478V47.6969H35.4287V46.2384ZM37.5648 45.403H38.0741V47.7111H37.5648V45.403ZM39.4745 47.2863C39.2058 47.2863 38.9936 47.1872 38.7814 47.0031L38.4843 47.3571C38.7531 47.612 39.1067 47.7253 39.4604 47.7253C39.9555 47.7253 40.3092 47.4704 40.3092 47.0031C40.3092 46.5924 40.0404 46.4367 39.5736 46.3092C39.1633 46.2101 39.0784 46.1535 39.0784 46.0119C39.0784 45.9127 39.1775 45.8136 39.3755 45.8136C39.5736 45.8136 39.7716 45.8986 39.9697 46.0402L40.2384 45.6437C39.9979 45.4455 39.715 45.3463 39.3897 45.3463C38.9228 45.3463 38.5833 45.6154 38.5833 46.0402C38.5833 46.5075 38.8804 46.6208 39.3472 46.7482C39.7433 46.8473 39.814 46.9181 39.814 47.0456C39.7999 47.2155 39.6867 47.2863 39.4745 47.2863ZM41.2428 47.6969H41.7521V45.8561H42.4594V45.403H40.5355V45.8561H41.2428V47.6969ZM43.3364 46.9748H43.7325L44.2277 47.7111H44.8218L44.2559 46.8898C44.553 46.7907 44.7511 46.55 44.7511 46.1676C44.7511 45.9411 44.6803 45.757 44.553 45.6437C44.3974 45.4879 44.1852 45.403 43.874 45.403H42.8272V47.7111H43.3364V46.9748ZM43.3364 45.8561H43.8457C44.1003 45.8561 44.2559 45.9552 44.2559 46.1818C44.2559 46.38 44.1145 46.5075 43.8599 46.5075H43.3506V45.8419H43.3364V45.8561ZM45.7413 47.1872H46.7174L46.9296 47.7111H47.453L46.4627 45.3888H45.9959L45.0057 47.7111H45.5291L45.7413 47.1872ZM46.2364 45.9977L46.5335 46.7482H45.9252L46.2364 45.9977ZM47.3681 45.8561H48.0471V47.6969H48.5564V45.8561H49.2637V45.403H47.3681V45.8561ZM50.6924 45.3605C49.971 45.3605 49.4617 45.8986 49.4617 46.5641C49.4617 47.2296 49.971 47.7536 50.6924 47.7536C51.4139 47.7536 51.9232 47.2155 51.9232 46.55C51.8949 45.8844 51.3856 45.3605 50.6924 45.3605ZM51.3715 46.5641C51.3715 46.9606 51.0885 47.2863 50.6783 47.2863C50.2681 47.2863 49.971 46.9606 49.971 46.5641C49.971 46.1676 50.2539 45.8419 50.6642 45.8419C51.0885 45.8278 51.3715 46.1535 51.3715 46.5641ZM52.3476 45.403V47.7111H52.8568V46.9748H53.2529L53.748 47.7111H54.3422L53.7763 46.8898C54.0734 46.7907 54.2714 46.55 54.2714 46.1676C54.2714 45.9411 54.2007 45.757 54.0734 45.6437C53.9178 45.4879 53.7056 45.403 53.3944 45.403H52.3476ZM53.7763 46.1959C53.7763 46.3942 53.6349 46.5216 53.3802 46.5216H52.871V45.8561H53.3802C53.6207 45.8561 53.7763 45.9694 53.7763 46.1959Z" fill="#6D6969"/>
<path d="M25.9227 39.8526C26.1632 39.6118 26.3754 39.3711 26.5876 39.1446C26.7856 38.918 26.9978 38.6773 27.1959 38.4224H26.149C26.0925 38.4932 26.0359 38.5781 25.951 38.6631C25.8803 38.7481 25.7812 38.8613 25.7105 38.9605C25.6256 39.0596 25.5266 39.1729 25.4417 39.272C25.3569 39.3711 25.2578 39.4844 25.173 39.5694V36.8789L24.2959 37.0347V41.6509H25.173V40.2207C25.272 40.2915 25.371 40.4048 25.47 40.5181C25.5691 40.6314 25.6681 40.7588 25.753 40.8863C25.8378 41.0279 25.9369 41.1411 26.0076 41.2828C26.0783 41.4244 26.1632 41.5376 26.2198 41.6368H27.2383C27.1676 41.4952 27.0827 41.3536 26.9837 41.1836C26.8846 41.0137 26.7715 40.8579 26.6583 40.688C26.5451 40.5181 26.4178 40.3623 26.2905 40.2066C26.149 40.0933 26.0359 39.9517 25.9227 39.8526ZM27.889 41.3252C27.988 41.4668 28.1295 41.566 28.3134 41.6368C28.4973 41.7076 28.7236 41.7359 28.9783 41.7359C29.2329 41.7359 29.4875 41.7217 29.728 41.6792C29.9685 41.6368 30.1666 41.6084 30.308 41.566V38.4507H29.431V40.9429C29.3744 40.9571 29.3178 40.9571 29.2329 40.9571C29.1622 40.9571 29.0914 40.9712 29.0349 40.9712C28.8227 40.9712 28.6954 40.9146 28.6105 40.773C28.5256 40.6314 28.4973 40.4331 28.4973 40.1358V38.4365H27.6202V40.2349C27.6202 40.4615 27.6344 40.6597 27.6768 40.8438C27.7334 41.0279 27.8041 41.1836 27.889 41.3252ZM31.7368 41.6792L32.0763 41.7217C32.1895 41.7359 32.3026 41.7359 32.4017 41.7359C32.6563 41.7359 32.8968 41.6934 33.0948 41.6226C33.2929 41.5518 33.4626 41.4244 33.6041 41.2828C33.7455 41.1411 33.8446 40.9571 33.9153 40.7447C33.986 40.5323 34.0143 40.2915 34.0143 40.0366C34.0143 39.7818 33.986 39.5552 33.9294 39.3428C33.8729 39.1304 33.7738 38.9463 33.6748 38.8189C33.5616 38.6631 33.4202 38.564 33.2363 38.479C33.0665 38.4082 32.8826 38.3657 32.6563 38.3657C32.5431 38.3657 32.4158 38.3799 32.3168 38.3941C32.2178 38.4224 32.1046 38.4507 32.0056 38.4932V36.9072L31.1285 37.063V41.566C31.1992 41.5943 31.2982 41.6084 31.3973 41.6368C31.5104 41.6509 31.6378 41.6651 31.7368 41.6792ZM32.246 39.1729C32.3309 39.1446 32.4299 39.1446 32.5148 39.1446C32.9392 39.1446 33.1373 39.4419 33.1373 40.0225C33.1373 40.3057 33.0807 40.5323 32.9534 40.7163C32.8402 40.8863 32.6563 40.9712 32.4017 40.9712C32.3309 40.9712 32.246 40.9712 32.1753 40.9571C32.1046 40.9571 32.0621 40.9429 32.0056 40.9429V39.2862C32.0763 39.2295 32.1612 39.187 32.246 39.1729ZM37.4943 40.3482C37.4943 40.3057 37.5084 40.2491 37.5084 40.1783V39.9942C37.5084 39.4561 37.367 39.0313 37.1123 38.7481C36.8577 38.4649 36.504 38.3233 36.0655 38.3233C35.8675 38.3233 35.6977 38.3516 35.5138 38.4224C35.3299 38.4932 35.1743 38.6065 35.0328 38.7481C34.8914 38.9038 34.7782 39.0738 34.7075 39.2862C34.6226 39.4986 34.566 39.7534 34.566 40.0366C34.566 40.2774 34.5943 40.5039 34.665 40.7022C34.7216 40.9146 34.8348 41.0703 34.9621 41.2261C35.1036 41.3819 35.2733 41.4952 35.4855 41.5801C35.6977 41.6651 35.9382 41.7217 36.2211 41.7217C36.3201 41.7217 36.4475 41.7217 36.5465 41.7076C36.6455 41.6934 36.7587 41.6792 36.8577 41.6651C36.9567 41.6509 37.0416 41.6226 37.1265 41.6084C37.1972 41.5801 37.2821 41.566 37.3245 41.5376L37.2113 40.7871C37.1123 40.8296 36.985 40.8721 36.8153 40.9004C36.6596 40.9287 36.504 40.9429 36.3343 40.9429C36.0797 40.9429 35.8816 40.8863 35.7401 40.773C35.5845 40.6739 35.4997 40.5181 35.4855 40.3199L37.4943 40.3482ZM35.4997 39.711C35.5138 39.6402 35.528 39.5552 35.5562 39.4844C35.5845 39.4136 35.6128 39.3428 35.6553 39.2862C35.6977 39.2295 35.7543 39.187 35.8392 39.1446C35.9099 39.1162 35.9948 39.1021 36.0938 39.1021C36.1928 39.1021 36.2918 39.1162 36.3484 39.1587C36.4192 39.187 36.4616 39.2437 36.5323 39.3003C36.5889 39.3428 36.6031 39.4136 36.6314 39.4986C36.6596 39.5694 36.6596 39.6543 36.6738 39.7251H35.4855V39.711H35.4997ZM40.0972 39.2437L40.2528 38.4932C40.2103 38.479 40.1537 38.4507 40.0689 38.4507C39.9981 38.4365 39.9274 38.4224 39.8708 38.4224C39.8001 38.4082 39.7294 38.4082 39.6728 38.3941C39.602 38.3941 39.5596 38.3799 39.4889 38.3799C39.2201 38.3799 38.9796 38.4082 38.7674 38.4507C38.5552 38.4932 38.3572 38.5498 38.2016 38.6206V41.6792H39.0786V39.2012C39.1211 39.187 39.1777 39.1729 39.2625 39.1729C39.3333 39.1587 39.4181 39.1587 39.4606 39.1587C39.5738 39.1587 39.7011 39.1729 39.8001 39.187C39.9133 39.187 39.9981 39.2295 40.0972 39.2437ZM43.4074 39.8384C43.4074 39.6118 43.3932 39.4136 43.3508 39.2437C43.3083 39.0596 43.2376 38.918 43.1244 38.7764C43.0254 38.6348 42.884 38.5357 42.7001 38.479C42.5162 38.4082 42.2898 38.3799 42.0352 38.3799C41.7806 38.3799 41.5259 38.3941 41.2854 38.4365C41.045 38.479 40.8469 38.5073 40.7054 38.5498V41.6651H41.5825V39.1729C41.6391 39.1587 41.6957 39.1587 41.7806 39.1587C41.8654 39.1587 41.922 39.1446 41.9786 39.1446C42.1908 39.1446 42.3181 39.2012 42.403 39.3286C42.4737 39.4419 42.5162 39.6543 42.5162 39.9517V41.6651H43.3932L43.4074 39.8384ZM46.9863 40.1783V39.9942C46.9863 39.4561 46.8449 39.0313 46.5903 38.7481C46.3356 38.4649 45.982 38.3233 45.5434 38.3233C45.3454 38.3233 45.1756 38.3516 44.9917 38.4224C44.8078 38.4932 44.6522 38.6065 44.5108 38.7481C44.3693 38.8897 44.2561 39.0738 44.1854 39.2862C44.1005 39.4986 44.0439 39.7534 44.0439 40.0366C44.0439 40.2774 44.0722 40.5039 44.143 40.7022C44.1996 40.9146 44.3127 41.0703 44.44 41.2261C44.5815 41.3819 44.7513 41.4952 44.9634 41.5801C45.1756 41.6651 45.4161 41.7217 45.699 41.7217C45.7981 41.7217 45.9254 41.7217 46.0244 41.7076C46.1234 41.6934 46.2366 41.6792 46.3356 41.6651C46.4346 41.6509 46.5195 41.6226 46.6044 41.6084C46.6751 41.5801 46.76 41.566 46.8024 41.5376L46.6893 40.7871C46.5903 40.8296 46.4629 40.8721 46.2932 40.9004C46.1376 40.9287 45.982 40.9429 45.8122 40.9429C45.5576 40.9429 45.3595 40.8863 45.2181 40.773C45.0625 40.6739 44.9776 40.5181 44.9634 40.3199H46.9722C46.9722 40.3057 46.9863 40.2491 46.9863 40.1783ZM44.9634 39.711C44.9776 39.6402 44.9917 39.5552 45.02 39.4844C45.0483 39.4136 45.0766 39.3428 45.1191 39.2862C45.1615 39.2295 45.2181 39.187 45.303 39.1446C45.3737 39.1162 45.4586 39.1021 45.5576 39.1021C45.6566 39.1021 45.7556 39.1162 45.8122 39.1587C45.8829 39.187 45.9254 39.2437 45.9961 39.3003C46.0527 39.3428 46.0668 39.4136 46.0951 39.4986C46.1234 39.5835 46.1234 39.6543 46.1376 39.7251H44.9493V39.711H44.9634ZM47.6512 40.3482C47.6512 40.5606 47.6654 40.7588 47.7078 40.9146C47.7502 41.0845 47.8068 41.2261 47.9058 41.3536C47.9907 41.4668 48.1322 41.566 48.2736 41.6368C48.4434 41.7076 48.6273 41.7359 48.8678 41.7359C49.0658 41.7359 49.2073 41.7217 49.3488 41.6934C49.4902 41.6651 49.6034 41.6226 49.7024 41.5801L49.5892 40.8579C49.5044 40.8863 49.4053 40.9146 49.3205 40.9287C49.2356 40.9429 49.1224 40.9571 49.0234 40.9571C48.8253 40.9571 48.698 40.9004 48.6273 40.7871C48.5707 40.6739 48.5283 40.5181 48.5283 40.3199V39.187H49.5892V38.4224H48.5283V37.4736L47.6512 37.6294V40.3482ZM52.9702 40.3482C52.9702 40.3057 52.9843 40.2491 52.9843 40.1783V39.9942C52.9843 39.4561 52.8429 39.0313 52.5882 38.7481C52.3336 38.4649 51.9799 38.3233 51.5414 38.3233C51.3434 38.3233 51.1736 38.3516 50.9897 38.4224C50.8058 38.4932 50.6502 38.6065 50.5087 38.7481C50.3673 38.9038 50.2541 39.0738 50.1834 39.2862C50.0985 39.4986 50.0419 39.7534 50.0419 40.0366C50.0419 40.2774 50.0702 40.5039 50.1409 40.7022C50.1975 40.9146 50.3107 41.0703 50.438 41.2261C50.5795 41.3819 50.7492 41.4952 50.9614 41.5801C51.1736 41.6651 51.4141 41.7217 51.697 41.7217C51.796 41.7217 51.9234 41.7217 52.0224 41.7076C52.1214 41.6934 52.2346 41.6792 52.3336 41.6651C52.4326 41.6509 52.5175 41.6226 52.6024 41.6084C52.6731 41.5801 52.758 41.566 52.8004 41.5376L52.6873 40.7871C52.5882 40.8296 52.4609 40.8721 52.2912 40.9004C52.1356 40.9287 51.9799 40.9429 51.8102 40.9429C51.5556 40.9429 51.3575 40.8863 51.216 40.773C51.0604 40.6739 50.9756 40.5181 50.9614 40.3199L52.9702 40.3482ZM51.018 39.4986C51.0463 39.4278 51.0746 39.357 51.117 39.3003C51.1595 39.2437 51.216 39.2012 51.3009 39.1587C51.3717 39.1304 51.4565 39.1162 51.5556 39.1162C51.6546 39.1162 51.7536 39.1304 51.8102 39.1729C51.8809 39.2012 51.9234 39.2578 51.9941 39.3145C52.0507 39.357 52.0648 39.4278 52.0931 39.5127C52.1214 39.5977 52.1214 39.6685 52.1355 39.7393H50.9473C50.9756 39.6402 50.9897 39.5694 51.018 39.4986ZM54.5687 41.7359C54.9931 41.7359 55.3184 41.6651 55.5589 41.4952C55.7853 41.3252 55.8984 41.0845 55.8984 40.773C55.8984 40.6314 55.8843 40.5181 55.856 40.419C55.8277 40.3199 55.7853 40.2207 55.7004 40.1358C55.6297 40.0508 55.5165 39.9658 55.4033 39.895C55.2901 39.8242 55.1204 39.7393 54.9223 39.6685C54.8375 39.6402 54.7384 39.5977 54.6819 39.5694C54.6253 39.541 54.5828 39.5127 54.5263 39.4844C54.4838 39.4561 54.4697 39.4278 54.4555 39.3994C54.4414 39.3711 54.4414 39.3428 54.4414 39.3003C54.4414 39.1304 54.5828 39.0596 54.8658 39.0596C55.0214 39.0596 55.1487 39.0737 55.276 39.1021C55.3892 39.1304 55.5165 39.1587 55.6014 39.2012L55.757 38.479C55.6579 38.4365 55.5165 38.4082 55.3326 38.3657C55.1487 38.3374 54.9789 38.3233 54.7809 38.3233C54.4131 38.3233 54.1019 38.4082 53.8897 38.5923C53.6633 38.7764 53.5643 39.0171 53.5643 39.3145C53.5643 39.4702 53.5785 39.5977 53.6209 39.7251C53.6633 39.8242 53.7199 39.9375 53.8048 40.0083C53.8897 40.0791 53.9887 40.1641 54.0877 40.2207C54.2009 40.2774 54.3282 40.334 54.4555 40.3907C54.6394 40.4615 54.7667 40.5323 54.8658 40.5747C54.9506 40.6314 55.0072 40.688 55.0072 40.773C55.0072 40.8579 54.9789 40.9429 54.9082 40.9712C54.8375 40.9995 54.7243 41.0137 54.5687 41.0137C54.4131 41.0137 54.2575 40.9995 54.1019 40.9712C53.9321 40.9429 53.7907 40.8863 53.635 40.8155L53.4794 41.566C53.5502 41.5943 53.6775 41.6368 53.8755 41.6792C54.0594 41.7217 54.2858 41.7359 54.5687 41.7359Z" fill="#ECEAEA"/>
</g>
<rect x="90.5" y="0.5" width="79" height="79" fill="#F8F7F7" stroke="#ECEAEA"/>
<g opacity="0.5">
<path d="M158.8 35.127C158.645 35 157.241 33.9383 154.228 33.9383C153.449 33.9383 152.642 34.0154 151.863 34.147C151.293 30.1906 147.993 28.2759 147.861 28.176L147.054 27.7087L146.535 28.4573C145.888 29.4646 145.391 30.6034 145.108 31.765C144.561 34.0154 144.899 36.1343 146.043 37.9446C144.666 38.7205 142.433 38.902 141.963 38.9292H105.077C104.116 38.9292 103.336 39.7051 103.336 40.6624C103.286 43.8702 103.828 47.0735 104.945 50.0998C106.217 53.4074 108.113 55.8666 110.556 57.3639C113.309 59.0426 117.803 60 122.866 60C125.15 60 127.438 59.7913 129.698 59.3784C132.843 58.8112 135.856 57.7223 138.632 56.1479C140.92 54.8276 142.971 53.1488 144.712 51.1842C147.647 47.8993 149.388 44.2287 150.66 40.971C150.842 40.971 150.997 40.971 151.179 40.971C154.374 40.971 156.348 39.7051 157.437 38.6161C158.166 37.9446 158.709 37.1143 159.101 36.1842L159.333 35.5127L158.8 35.127ZM135.97 37.8675H140.906C141.138 37.8675 141.348 37.686 141.348 37.4274V33.0309C141.348 32.7995 141.166 32.5907 140.906 32.5907H135.97C135.737 32.5907 135.528 32.7722 135.528 33.0309V37.4274C135.555 37.686 135.737 37.8675 135.97 37.8675ZM129.088 25.2768H134.024C134.256 25.2768 134.466 25.0953 134.466 24.8367V20.4401C134.466 20.2087 134.256 20 134.024 20H129.088C128.855 20 128.646 20.1815 128.646 20.4401V24.8367C128.646 25.0681 128.851 25.2768 129.088 25.2768ZM129.088 31.5835H134.024C134.256 31.5835 134.466 31.3748 134.466 31.1434V26.7468C134.466 26.5154 134.256 26.3067 134.024 26.3067H129.088C128.855 26.3067 128.646 26.4882 128.646 26.7468V31.1434C128.646 31.3793 128.851 31.5835 129.088 31.5835ZM122.256 31.5835H127.192C127.424 31.5835 127.634 31.3748 127.634 31.1434V26.7468C127.634 26.5154 127.451 26.3067 127.192 26.3067H122.256C122.023 26.3067 121.813 26.4882 121.813 26.7468V31.1434C121.813 31.3793 121.996 31.5835 122.256 31.5835ZM115.319 31.5835H120.255C120.487 31.5835 120.697 31.3748 120.697 31.1434V26.7468C120.697 26.5154 120.514 26.3067 120.255 26.3067H115.319C115.086 26.3067 114.876 26.4882 114.876 26.7468V31.1434C114.904 31.3793 115.086 31.5835 115.319 31.5835ZM129.088 37.8675H134.024C134.256 37.8675 134.466 37.686 134.466 37.4274V33.0309C134.466 32.7995 134.283 32.5907 134.024 32.5907H129.088C128.855 32.5907 128.646 32.7722 128.646 33.0309V37.4274C128.646 37.686 128.851 37.8675 129.088 37.8675ZM122.256 37.8675H127.192C127.424 37.8675 127.634 37.686 127.634 37.4274V33.0309C127.634 32.7995 127.451 32.5907 127.192 32.5907H122.256C122.023 32.5907 121.813 32.7722 121.813 33.0309V37.4274C121.813 37.686 121.996 37.8675 122.256 37.8675ZM115.319 37.8675H120.255C120.487 37.8675 120.697 37.686 120.697 37.4274V33.0309C120.697 32.7995 120.514 32.5907 120.255 32.5907H115.319C115.086 32.5907 114.876 32.7722 114.876 33.0309V37.4274C114.904 37.686 115.086 37.8675 115.319 37.8675ZM108.514 37.8675H113.45C113.682 37.8675 113.892 37.686 113.892 37.4274V33.0309C113.892 32.7995 113.71 32.5907 113.45 32.5907H108.514C108.281 32.5907 108.072 32.7722 108.072 33.0309V37.4274C108.099 37.686 108.281 37.8675 108.514 37.8675Z" fill="#6D6969"/>
</g>
<rect x="180.5" y="0.5" width="79" height="79" fill="#F8F7F7" stroke="#ECEAEA"/>
<g opacity="0.5">
<path fill-rule="evenodd" clip-rule="evenodd" d="M223.28 22.1324L220.768 22.6253C218.627 23.036 217.639 24.0216 217.227 26.1572C217.131 26.6346 217.048 27.0872 216.967 27.5248C216.944 27.652 216.921 27.7778 216.898 27.9023C216.836 28.231 216.774 28.5595 216.712 28.8676L219.204 28.3747C221.345 27.964 222.354 26.9784 222.765 24.8428C222.856 24.392 222.939 23.9399 223.023 23.4878C223.106 23.0357 223.19 22.5836 223.28 22.1324ZM232.5 25.5C232.5 32.3959 226.896 38 220 38C213.104 38 207.5 32.3959 207.5 25.5C207.5 18.6041 213.104 13 220 13C226.896 13 232.5 18.6041 232.5 25.5ZM220 15.2084C214.312 15.2084 209.708 19.8124 209.708 25.5C209.708 29.3565 211.825 32.715 214.961 34.4777C214.199 33.4697 213.924 32.021 214.263 30.0585C214.335 29.659 214.423 29.1883 214.52 28.6632C214.587 28.2972 214.66 27.9048 214.736 27.4918C214.766 27.3366 214.798 27.1766 214.83 27.0126C214.909 26.6119 214.992 26.1896 215.066 25.767C215.642 22.7279 217.31 21.0442 220.336 20.4898L223.676 19.8326C223.868 18.231 223.711 17.1222 223.156 16.4446C222.6 15.767 221.488 15.2084 220 15.2084ZM230.292 25.5C230.292 31.1876 225.687 35.7916 220 35.7916C218.512 35.7916 217.4 35.233 216.844 34.5554C216.288 33.8778 216.132 32.769 216.323 31.1674L219.636 30.5102C222.662 29.9558 224.33 28.2721 224.927 25.2536C225 24.8311 225.084 24.4085 225.162 24.0081C225.195 23.844 225.227 23.6838 225.256 23.5287C225.347 23.0389 225.434 22.5732 225.514 22.1462C225.598 21.6963 225.674 21.2893 225.737 20.9415C226.076 18.979 225.801 17.5303 225.038 16.5223C228.175 18.285 230.292 21.6435 230.292 25.5Z" fill="#6D6969"/>
</g>
<g opacity="0.5">
<path d="M200.831 48.9031V51.0781H200.175V48.9241L198.5 46.0635H199.238L200.523 48.3436L201.836 46.0635H202.492L200.831 48.9031Z" fill="#6D6969"/>
<path d="M203.835 50.5958C204.022 50.5958 204.181 50.5563 204.314 50.4771C204.446 50.3977 204.553 50.3068 204.635 50.2043C204.717 50.097 204.776 49.9945 204.813 49.8965C204.849 49.7939 204.867 49.7216 204.867 49.6797V49.414H204.266C203.906 49.414 203.644 49.4676 203.479 49.5748C203.32 49.6774 203.24 49.8337 203.24 50.0435C203.24 50.2067 203.288 50.3394 203.384 50.4421C203.479 50.5447 203.63 50.5958 203.835 50.5958ZM204.895 50.386C204.853 50.47 204.801 50.5587 204.737 50.6519C204.673 50.7405 204.594 50.8221 204.498 50.8967C204.402 50.9712 204.288 51.0319 204.156 51.0785C204.029 51.1251 203.878 51.1484 203.705 51.1484C203.386 51.1484 203.129 51.0576 202.933 50.8756C202.737 50.6891 202.639 50.4234 202.639 50.0784C202.639 49.6821 202.773 49.3907 203.042 49.2042C203.315 49.0177 203.703 48.9245 204.204 48.9245H204.867V48.6237C204.867 48.3719 204.803 48.1924 204.676 48.0852C204.548 47.9779 204.329 47.9243 204.02 47.9243C203.801 47.9243 203.593 47.9615 203.397 48.0362C203.201 48.1061 203.026 48.1877 202.871 48.281V47.7284C202.999 47.6492 203.17 47.5723 203.384 47.4976C203.602 47.4184 203.842 47.3787 204.101 47.3787C204.548 47.3787 204.888 47.4743 205.12 47.6656C205.353 47.8521 205.469 48.1435 205.469 48.5398V50.4909C205.469 50.533 205.469 50.582 205.469 50.6379C205.473 50.6891 205.476 50.7428 205.476 50.7987C205.48 50.8547 205.485 50.9084 205.489 50.9596C205.494 51.0062 205.498 51.0459 205.503 51.0785H204.956C204.942 51.0133 204.929 50.9222 204.915 50.8056C204.906 50.6846 204.901 50.5797 204.901 50.4909L204.895 50.386Z" fill="#6D6969"/>
<path d="M208.164 47.924C207.891 47.924 207.667 47.9892 207.494 48.1198C207.326 48.2456 207.189 48.4088 207.084 48.6094V51.0781H206.482V47.4483H207.05L207.07 48.0988H207.084C207.18 47.889 207.33 47.7164 207.535 47.5812C207.74 47.4461 208 47.3783 208.314 47.3783C208.665 47.3783 208.943 47.4739 209.149 47.6652C209.358 47.8517 209.463 48.1407 209.463 48.5323V51.0781H208.861V48.5953C208.861 48.3436 208.8 48.1688 208.677 48.0708C208.554 47.9728 208.383 47.924 208.164 47.924Z" fill="#6D6969"/>
<path d="M211.912 50.5958C212.067 50.5958 212.21 50.5703 212.343 50.519C212.475 50.4631 212.589 50.3791 212.684 50.2673C212.785 50.1553 212.862 50.0154 212.917 49.8476C212.976 49.6797 213.006 49.484 213.006 49.2601C213.006 49.0363 212.976 48.8405 212.917 48.6725C212.862 48.5048 212.785 48.365 212.684 48.2529C212.589 48.1411 212.475 48.0595 212.343 48.0081C212.21 47.9522 212.067 47.9243 211.912 47.9243C211.598 47.9243 211.34 48.0386 211.14 48.2669C210.944 48.4908 210.846 48.8219 210.846 49.2601C210.846 49.7031 210.946 50.0363 211.146 50.2602C211.347 50.484 211.602 50.5958 211.912 50.5958ZM213.026 50.3651C212.917 50.603 212.764 50.794 212.568 50.9386C212.372 51.0785 212.124 51.1484 211.823 51.1484C211.609 51.1484 211.406 51.1111 211.215 51.0366C211.023 50.9572 210.855 50.8406 210.709 50.6869C210.563 50.5283 210.447 50.3325 210.36 50.0994C210.274 49.8615 210.23 49.5817 210.23 49.2601C210.23 48.943 210.274 48.668 210.36 48.4349C210.447 48.197 210.563 48.0012 210.709 47.8473C210.855 47.6889 211.023 47.5723 211.215 47.4976C211.411 47.4184 211.616 47.3787 211.83 47.3787C212.099 47.3787 212.331 47.437 212.527 47.5535C212.723 47.6656 212.88 47.8264 212.999 48.0362V46.0639H213.6V51.0785H213.074L213.026 50.3651Z" fill="#6D6969"/>
<path d="M216.066 47.9243C215.807 47.9243 215.583 48.0059 215.397 48.1691C215.21 48.3323 215.091 48.5793 215.041 48.9104H216.948C216.967 48.5748 216.891 48.3276 216.723 48.1691C216.554 48.0059 216.335 47.9243 216.066 47.9243ZM217.475 50.7707C217.425 50.808 217.363 50.8478 217.29 50.8896C217.217 50.9317 217.128 50.9736 217.024 51.0155C216.919 51.0528 216.8 51.0832 216.668 51.1065C216.536 51.1344 216.388 51.1484 216.224 51.1484C215.627 51.1484 215.173 50.9829 214.863 50.6519C214.553 50.3208 214.398 49.857 214.398 49.2601C214.398 48.9663 214.439 48.703 214.521 48.4699C214.608 48.2367 214.727 48.0409 214.877 47.8823C215.027 47.7191 215.205 47.5956 215.41 47.5117C215.615 47.4231 215.839 47.3787 216.08 47.3787C216.335 47.3787 216.563 47.4231 216.764 47.5117C216.964 47.6002 217.128 47.7308 217.256 47.9032C217.388 48.0759 217.477 48.2903 217.523 48.5467C217.573 48.7986 217.573 49.0922 217.523 49.428H215.021C215.043 49.8196 215.157 50.1134 215.362 50.3092C215.567 50.5004 215.873 50.5958 216.278 50.5958C216.552 50.5958 216.787 50.5563 216.982 50.4771C217.178 50.3977 217.343 50.3116 217.475 50.2183V50.7707Z" fill="#6D6969"/>
<path d="M219.506 49.6375L218.549 51.0781H217.92L219.205 49.1967L218.07 47.4483H218.768L219.615 48.7283L220.47 47.4483H221.092L219.916 49.1829L221.153 51.0781H220.456L219.506 49.6375Z" fill="#6D6969"/>
<path d="M225.596 51.1484C225.231 51.1484 224.901 51.0902 224.605 50.9736C224.308 50.857 224.053 50.6891 223.839 50.47C223.629 50.2461 223.467 49.9759 223.354 49.6588C223.24 49.337 223.183 48.9756 223.183 48.5748C223.183 48.1691 223.235 47.8078 223.34 47.4907C223.445 47.1736 223.6 46.9055 223.805 46.6864C224.01 46.4626 224.26 46.2925 224.557 46.1759C224.857 46.0593 225.199 46.0011 225.582 46.0011C225.915 46.0011 226.206 46.0382 226.457 46.1129C226.708 46.1828 226.913 46.2668 227.072 46.3646V46.994C226.867 46.8589 226.63 46.7587 226.361 46.6933C226.097 46.6282 225.835 46.5955 225.575 46.5955C224.996 46.5955 224.568 46.7609 224.29 47.092C224.017 47.4184 223.88 47.9127 223.88 48.5748C223.88 49.2415 224.028 49.738 224.324 50.0644C224.625 50.3908 225.067 50.554 225.65 50.554C225.901 50.554 226.145 50.519 226.382 50.4491C226.623 50.3791 226.854 50.2602 227.072 50.0924V50.7219C226.94 50.829 226.747 50.927 226.491 51.0155C226.241 51.1042 225.942 51.1484 225.596 51.1484Z" fill="#6D6969"/>
<path d="M228.643 46.0635V51.0781H228.042V46.0635H228.643Z" fill="#6D6969"/>
<path d="M231.148 50.5958C231.308 50.5958 231.454 50.5703 231.586 50.519C231.723 50.4631 231.841 50.3815 231.941 50.2742C232.042 50.1624 232.119 50.0225 232.174 49.8546C232.229 49.6866 232.256 49.4885 232.256 49.2601C232.256 49.0317 232.229 48.8335 232.174 48.6656C232.119 48.4977 232.042 48.3602 231.941 48.2529C231.841 48.1411 231.723 48.0595 231.586 48.0081C231.454 47.9522 231.308 47.9243 231.148 47.9243C230.989 47.9243 230.843 47.9522 230.711 48.0081C230.579 48.0595 230.463 48.1411 230.362 48.2529C230.267 48.3602 230.191 48.4977 230.137 48.6656C230.082 48.8335 230.055 49.0317 230.055 49.2601C230.055 49.4885 230.082 49.6866 230.137 49.8546C230.191 50.0225 230.267 50.1624 230.362 50.2742C230.463 50.3815 230.579 50.4631 230.711 50.519C230.843 50.5703 230.989 50.5958 231.148 50.5958ZM231.148 51.1484C230.907 51.1484 230.681 51.1065 230.472 51.0226C230.262 50.9386 230.08 50.8173 229.925 50.6589C229.774 50.4957 229.656 50.2975 229.569 50.0644C229.483 49.8313 229.439 49.5632 229.439 49.2601C229.439 48.9618 229.483 48.6959 229.569 48.4627C229.656 48.2251 229.774 48.0269 229.925 47.8683C230.08 47.7098 230.262 47.5885 230.472 47.5047C230.681 47.4208 230.907 47.3787 231.148 47.3787C231.395 47.3787 231.622 47.4208 231.832 47.5047C232.042 47.5885 232.222 47.7098 232.372 47.8683C232.527 48.0269 232.648 48.2251 232.734 48.4627C232.826 48.6959 232.871 48.9618 232.871 49.2601C232.871 49.5632 232.826 49.8313 232.734 50.0644C232.648 50.2975 232.527 50.4957 232.372 50.6589C232.222 50.8173 232.042 50.9386 231.832 51.0226C231.622 51.1065 231.395 51.1484 231.148 51.1484Z" fill="#6D6969"/>
<path d="M235.949 50.4281C235.854 50.6332 235.705 50.8056 235.505 50.9455C235.309 51.0809 235.051 51.1484 234.732 51.1484C234.404 51.1484 234.138 51.0552 233.933 50.8687C233.732 50.6774 233.632 50.3838 233.632 49.9875V47.4486H234.24V49.9875C234.24 50.1086 234.256 50.209 234.288 50.2882C234.325 50.3627 234.372 50.4234 234.432 50.47C234.491 50.5166 234.559 50.5492 234.637 50.568C234.719 50.5866 234.808 50.5958 234.903 50.5958C235.168 50.5958 235.38 50.5354 235.539 50.4141C235.699 50.2928 235.835 50.1274 235.949 49.9176V47.4486H236.551V51.0785H236.018L235.963 50.4281H235.949Z" fill="#6D6969"/>
<path d="M239.035 50.5958C239.19 50.5958 239.334 50.5703 239.466 50.519C239.598 50.4631 239.712 50.3791 239.808 50.2673C239.908 50.1553 239.985 50.0154 240.04 49.8476C240.099 49.6797 240.129 49.484 240.129 49.2601C240.129 49.0363 240.099 48.8405 240.04 48.6725C239.985 48.5048 239.908 48.365 239.808 48.2529C239.712 48.1411 239.598 48.0595 239.466 48.0081C239.334 47.9522 239.19 47.9243 239.035 47.9243C238.721 47.9243 238.463 48.0386 238.263 48.2669C238.067 48.4908 237.969 48.8219 237.969 49.2601C237.969 49.7031 238.069 50.0363 238.27 50.2602C238.47 50.484 238.725 50.5958 239.035 50.5958ZM240.149 50.3651C240.04 50.603 239.887 50.794 239.691 50.9386C239.495 51.0785 239.247 51.1484 238.946 51.1484C238.732 51.1484 238.529 51.1111 238.338 51.0366C238.147 50.9572 237.978 50.8406 237.832 50.6869C237.686 50.5283 237.57 50.3325 237.483 50.0994C237.397 49.8615 237.354 49.5817 237.354 49.2601C237.354 48.943 237.397 48.668 237.483 48.4349C237.57 48.197 237.686 48.0012 237.832 47.8473C237.978 47.6889 238.147 47.5723 238.338 47.4976C238.534 47.4184 238.739 47.3787 238.953 47.3787C239.222 47.3787 239.454 47.437 239.65 47.5535C239.846 47.6656 240.004 47.8264 240.122 48.0362V46.0639H240.724V51.0785H240.197L240.149 50.3651Z" fill="#6D6969"/>
<path d="M202.074 54.5909V56.4581H202.942C203.116 56.4581 203.273 56.4395 203.414 56.4022C203.555 56.3648 203.676 56.3065 203.776 56.2273C203.881 56.1481 203.961 56.0456 204.016 55.9197C204.075 55.7891 204.104 55.6329 204.104 55.4511C204.104 55.148 204.009 54.9289 203.817 54.7936C203.626 54.6585 203.353 54.5909 202.997 54.5909H202.074ZM201.432 53.9893H202.997C203.553 53.9893 203.984 54.1083 204.289 54.3461C204.599 54.5792 204.754 54.9451 204.754 55.444C204.754 55.7285 204.708 55.9733 204.617 56.1783C204.531 56.3789 204.407 56.5444 204.248 56.675C204.088 56.8056 203.897 56.901 203.674 56.9617C203.455 57.0223 203.211 57.0525 202.942 57.0525H202.074V59.0039H201.432V53.9893Z" fill="#6D6969"/>
<path d="M207.347 55.9896C207.092 56.0129 206.86 56.0805 206.65 56.1924C206.445 56.2996 206.293 56.4675 206.192 56.696V59.0039H205.591V55.374H206.117L206.179 56.1645H206.192C206.293 55.95 206.436 55.7634 206.623 55.605C206.814 55.4416 207.056 55.3414 207.347 55.3041V55.9896Z" fill="#6D6969"/>
<path d="M209.505 58.5216C209.664 58.5216 209.81 58.4961 209.943 58.4448C210.079 58.3889 210.198 58.3073 210.298 58.2C210.398 58.0881 210.476 57.9483 210.53 57.7804C210.585 57.6124 210.612 57.4143 210.612 57.1859C210.612 56.9575 210.585 56.7593 210.53 56.5914C210.476 56.4235 210.398 56.286 210.298 56.1787C210.198 56.0669 210.079 55.9853 209.943 55.9339C209.81 55.878 209.664 55.85 209.505 55.85C209.345 55.85 209.2 55.878 209.068 55.9339C208.935 55.9853 208.819 56.0669 208.719 56.1787C208.623 56.286 208.548 56.4235 208.493 56.5914C208.439 56.7593 208.411 56.9575 208.411 57.1859C208.411 57.4143 208.439 57.6124 208.493 57.7804C208.548 57.9483 208.623 58.0881 208.719 58.2C208.819 58.3073 208.935 58.3889 209.068 58.4448C209.2 58.4961 209.345 58.5216 209.505 58.5216ZM209.505 59.0742C209.264 59.0742 209.038 59.0323 208.828 58.9484C208.619 58.8644 208.436 58.7431 208.281 58.5847C208.131 58.4215 208.012 58.2233 207.926 57.9902C207.839 57.7571 207.796 57.489 207.796 57.1859C207.796 56.8875 207.839 56.6216 207.926 56.3885C208.012 56.1509 208.131 55.9527 208.281 55.794C208.436 55.6356 208.619 55.5143 208.828 55.4305C209.038 55.3466 209.264 55.3045 209.505 55.3045C209.751 55.3045 209.979 55.3466 210.189 55.4305C210.398 55.5143 210.578 55.6356 210.729 55.794C210.884 55.9527 211.004 56.1509 211.091 56.3885C211.182 56.6216 211.228 56.8875 211.228 57.1859C211.228 57.489 211.182 57.7571 211.091 57.9902C211.004 58.2233 210.884 58.4215 210.729 58.5847C210.578 58.7431 210.398 58.8644 210.189 58.9484C209.979 59.0323 209.751 59.0742 209.505 59.0742Z" fill="#6D6969"/>
<path d="M212.776 55.8986V59.0039H212.175V55.8986H211.744V55.374H212.175V55.2832C212.175 54.8543 212.287 54.5209 212.51 54.2831C212.733 54.0452 213.038 53.9265 213.426 53.9265C213.594 53.9265 213.745 53.9474 213.877 53.9893V54.5488C213.836 54.5303 213.776 54.5138 213.699 54.4998C213.622 54.486 213.54 54.4789 213.453 54.4789C213.243 54.4789 213.077 54.5442 212.954 54.6747C212.836 54.8053 212.776 55.0082 212.776 55.2832V55.374H213.802V55.8986H212.776Z" fill="#6D6969"/>
<path d="M215.856 55.85C215.597 55.85 215.373 55.9317 215.187 56.0949C215 56.2581 214.881 56.5051 214.831 56.8362H216.738C216.757 56.5005 216.681 56.2534 216.513 56.0949C216.344 55.9317 216.125 55.85 215.856 55.85ZM217.265 58.6965C217.215 58.7338 217.153 58.7735 217.08 58.8154C217.007 58.8575 216.918 58.8994 216.814 58.9412C216.709 58.9786 216.59 59.009 216.458 59.0323C216.326 59.0602 216.178 59.0742 216.014 59.0742C215.417 59.0742 214.963 58.9087 214.653 58.5777C214.343 58.2466 214.188 57.7827 214.188 57.1859C214.188 56.8921 214.229 56.6288 214.312 56.3956C214.398 56.1625 214.517 55.9667 214.667 55.8081C214.817 55.6449 214.995 55.5214 215.2 55.4374C215.405 55.3488 215.629 55.3045 215.87 55.3045C216.125 55.3045 216.353 55.3488 216.554 55.4374C216.754 55.5259 216.918 55.6565 217.046 55.829C217.178 56.0017 217.267 56.216 217.313 56.4725C217.363 56.7242 217.363 57.018 217.313 57.3538H214.811C214.833 57.7454 214.947 58.0392 215.152 58.235C215.357 58.4262 215.663 58.5216 216.068 58.5216C216.342 58.5216 216.577 58.4821 216.773 58.4029C216.968 58.3235 217.133 58.2373 217.265 58.1441V58.6965Z" fill="#6D6969"/>
<path d="M219.269 59.0742C219.082 59.0742 218.915 59.0578 218.77 59.0252C218.628 58.9973 218.503 58.9624 218.394 58.9203C218.289 58.8737 218.2 58.8271 218.127 58.7804C218.054 58.7292 217.997 58.6848 217.956 58.6476V58.0951C218.002 58.1417 218.063 58.1929 218.141 58.249C218.218 58.3001 218.312 58.3491 218.421 58.3958C218.53 58.4424 218.653 58.4821 218.79 58.5147C218.931 58.5427 219.089 58.5566 219.262 58.5566C219.517 58.5566 219.72 58.5147 219.87 58.4307C220.021 58.3468 220.096 58.2047 220.096 58.0042C220.096 57.8969 220.071 57.8106 220.021 57.7454C219.975 57.6802 219.911 57.6288 219.829 57.5915C219.747 57.5496 219.651 57.517 219.542 57.4937C219.437 57.4704 219.326 57.447 219.207 57.4237C219.057 57.391 218.909 57.356 218.763 57.3188C218.617 57.2768 218.485 57.2185 218.366 57.144C218.248 57.0646 218.152 56.9644 218.079 56.8431C218.006 56.7173 217.97 56.5541 217.97 56.3535C217.97 56.0272 218.093 55.7707 218.339 55.5842C218.59 55.3977 218.938 55.3045 219.385 55.3045C219.635 55.3045 219.856 55.3302 220.048 55.3815C220.244 55.4327 220.394 55.4888 220.499 55.5493V56.1019C220.381 56.0226 220.232 55.9572 220.055 55.9061C219.882 55.85 219.665 55.8221 219.405 55.8221C219.136 55.8221 218.929 55.8595 218.783 55.9339C218.642 56.0086 218.571 56.1437 218.571 56.3397C218.571 56.4375 218.592 56.5167 218.633 56.5774C218.674 56.6333 218.729 56.6799 218.797 56.7173C218.87 56.7499 218.952 56.7755 219.043 56.7943C219.134 56.8129 219.23 56.8338 219.33 56.8571C219.485 56.8897 219.645 56.9247 219.809 56.962C219.973 56.9994 220.119 57.0577 220.246 57.1369C220.378 57.2161 220.485 57.3234 220.567 57.4587C220.654 57.5891 220.697 57.7663 220.697 57.9902C220.697 58.2 220.656 58.3748 220.574 58.5147C220.492 58.6546 220.383 58.7664 220.246 58.8504C220.114 58.9296 219.961 58.9857 219.788 59.0183C219.62 59.0556 219.446 59.0742 219.269 59.0742Z" fill="#6D6969"/>
<path d="M222.643 59.0742C222.456 59.0742 222.289 59.0578 222.144 59.0252C222.002 58.9973 221.877 58.9624 221.768 58.9203C221.663 58.8737 221.574 58.8271 221.501 58.7804C221.428 58.7292 221.371 58.6848 221.33 58.6476V58.0951C221.376 58.1417 221.437 58.1929 221.515 58.249C221.592 58.3001 221.686 58.3491 221.795 58.3958C221.904 58.4424 222.027 58.4821 222.164 58.5147C222.305 58.5427 222.463 58.5566 222.636 58.5566C222.891 58.5566 223.094 58.5147 223.244 58.4307C223.395 58.3468 223.47 58.2047 223.47 58.0042C223.47 57.8969 223.445 57.8106 223.395 57.7454C223.349 57.6802 223.285 57.6288 223.203 57.5915C223.121 57.5496 223.025 57.517 222.916 57.4937C222.811 57.4704 222.7 57.447 222.581 57.4237C222.431 57.391 222.283 57.356 222.137 57.3188C221.991 57.2768 221.859 57.2185 221.74 57.144C221.622 57.0646 221.526 56.9644 221.453 56.8431C221.38 56.7173 221.344 56.5541 221.344 56.3535C221.344 56.0272 221.467 55.7707 221.713 55.5842C221.964 55.3977 222.312 55.3045 222.759 55.3045C223.009 55.3045 223.231 55.3302 223.422 55.3815C223.618 55.4327 223.768 55.4888 223.873 55.5493V56.1019C223.755 56.0226 223.607 55.9572 223.429 55.9061C223.256 55.85 223.039 55.8221 222.779 55.8221C222.51 55.8221 222.303 55.8595 222.157 55.9339C222.016 56.0086 221.945 56.1437 221.945 56.3397C221.945 56.4375 221.966 56.5167 222.007 56.5774C222.048 56.6333 222.103 56.6799 222.171 56.7173C222.244 56.7499 222.326 56.7755 222.417 56.7943C222.508 56.8129 222.604 56.8338 222.704 56.8571C222.859 56.8897 223.019 56.9247 223.183 56.962C223.347 56.9994 223.493 57.0577 223.62 57.1369C223.752 57.2161 223.859 57.3234 223.941 57.4587C224.028 57.5891 224.071 57.7663 224.071 57.9902C224.071 58.2 224.03 58.3748 223.948 58.5147C223.866 58.6546 223.757 58.7664 223.62 58.8504C223.488 58.9296 223.335 58.9857 223.162 59.0183C222.994 59.0556 222.82 59.0742 222.643 59.0742Z" fill="#6D6969"/>
<path d="M225.481 55.374V59.0039H224.88V55.374H225.481ZM225.187 54.8426C225.064 54.8426 224.966 54.8053 224.894 54.7307C224.821 54.6513 224.784 54.5559 224.784 54.4439C224.784 54.3321 224.821 54.2365 224.894 54.1573C224.966 54.078 225.064 54.0383 225.187 54.0383C225.306 54.0383 225.399 54.078 225.468 54.1573C225.536 54.2365 225.57 54.3321 225.57 54.4439C225.57 54.5559 225.536 54.6513 225.468 54.7307C225.399 54.8053 225.306 54.8426 225.187 54.8426Z" fill="#6D6969"/>
<path d="M227.986 58.5216C228.146 58.5216 228.292 58.4961 228.424 58.4448C228.561 58.3889 228.679 58.3073 228.779 58.2C228.88 58.0881 228.957 57.9483 229.012 57.7804C229.066 57.6124 229.094 57.4143 229.094 57.1859C229.094 56.9575 229.066 56.7593 229.012 56.5914C228.957 56.4235 228.88 56.286 228.779 56.1787C228.679 56.0669 228.561 55.9853 228.424 55.9339C228.292 55.878 228.146 55.85 227.986 55.85C227.827 55.85 227.681 55.878 227.549 55.9339C227.417 55.9853 227.3 56.0669 227.2 56.1787C227.105 56.286 227.029 56.4235 226.975 56.5914C226.92 56.7593 226.893 56.9575 226.893 57.1859C226.893 57.4143 226.92 57.6124 226.975 57.7804C227.029 57.9483 227.105 58.0881 227.2 58.2C227.3 58.3073 227.417 58.3889 227.549 58.4448C227.681 58.4961 227.827 58.5216 227.986 58.5216ZM227.986 59.0742C227.745 59.0742 227.519 59.0323 227.31 58.9484C227.1 58.8644 226.918 58.7431 226.763 58.5847C226.612 58.4215 226.494 58.2233 226.407 57.9902C226.321 57.7571 226.277 57.489 226.277 57.1859C226.277 56.8875 226.321 56.6216 226.407 56.3885C226.494 56.1509 226.612 55.9527 226.763 55.794C226.918 55.6356 227.1 55.5143 227.31 55.4305C227.519 55.3466 227.745 55.3045 227.986 55.3045C228.232 55.3045 228.46 55.3466 228.67 55.4305C228.88 55.5143 229.06 55.6356 229.21 55.794C229.365 55.9527 229.486 56.1509 229.572 56.3885C229.664 56.6216 229.709 56.8875 229.709 57.1859C229.709 57.489 229.664 57.7571 229.572 57.9902C229.486 58.2233 229.365 58.4215 229.21 58.5847C229.06 58.7431 228.88 58.8644 228.67 58.9484C228.46 59.0323 228.232 59.0742 227.986 59.0742Z" fill="#6D6969"/>
<path d="M232.192 55.8496C231.919 55.8496 231.696 55.915 231.522 56.0456C231.354 56.1714 231.217 56.3346 231.112 56.5351V59.0039H230.511V55.374H231.078L231.099 56.0245H231.112C231.208 55.8146 231.358 55.6421 231.564 55.507C231.769 55.3718 232.028 55.3041 232.343 55.3041C232.694 55.3041 232.972 55.3997 233.177 55.591C233.386 55.7775 233.491 56.0665 233.491 56.4581V59.0039H232.89V56.5211C232.89 56.2694 232.828 56.0944 232.705 55.9966C232.582 55.8986 232.411 55.8496 232.192 55.8496Z" fill="#6D6969"/>
<path d="M235.53 58.5216C235.717 58.5216 235.877 58.4821 236.009 58.4029C236.141 58.3235 236.248 58.2326 236.33 58.1301C236.412 58.0228 236.471 57.9202 236.508 57.8222C236.544 57.7197 236.563 57.6474 236.563 57.6055V57.3398H235.961C235.601 57.3398 235.339 57.3933 235.175 57.5006C235.015 57.6031 234.936 57.7594 234.936 57.9692C234.936 58.1324 234.983 58.2652 235.079 58.3679C235.175 58.4705 235.325 58.5216 235.53 58.5216ZM236.59 58.3118C236.549 58.3958 236.496 58.4843 236.433 58.5777C236.369 58.6662 236.289 58.7478 236.193 58.8225C236.098 58.897 235.984 58.9577 235.852 59.0043C235.724 59.0509 235.574 59.0742 235.4 59.0742C235.081 59.0742 234.824 58.9833 234.628 58.8014C234.432 58.6149 234.334 58.3491 234.334 58.0042C234.334 57.6079 234.468 57.3165 234.737 57.13C235.011 56.9435 235.398 56.8502 235.899 56.8502H236.563V56.5495C236.563 56.2976 236.499 56.1182 236.371 56.011C236.244 55.9037 236.025 55.85 235.715 55.85C235.496 55.85 235.289 55.8873 235.093 55.962C234.897 56.0319 234.721 56.1135 234.566 56.2068V55.6542C234.694 55.5749 234.865 55.4981 235.079 55.4234C235.298 55.3442 235.537 55.3045 235.797 55.3045C236.244 55.3045 236.583 55.4001 236.815 55.5914C237.048 55.7779 237.164 56.0693 237.164 56.4656V58.4167C237.164 58.4588 237.164 58.5078 237.164 58.5637C237.169 58.6149 237.171 58.6686 237.171 58.7245C237.176 58.7804 237.18 58.8341 237.185 58.8853C237.189 58.932 237.194 58.9717 237.198 59.0043H236.651C236.638 58.9391 236.624 58.848 236.61 58.7314C236.601 58.6103 236.597 58.5054 236.597 58.4167L236.59 58.3118Z" fill="#6D6969"/>
<path d="M238.78 53.9893V59.0039H238.179V53.9893H238.78Z" fill="#6D6969"/>
<path d="M199.58 62.5167V66.3352H200.51C200.76 66.3352 200.99 66.2955 201.2 66.2163C201.41 66.1371 201.59 66.0157 201.74 65.8526C201.891 65.6848 202.007 65.4726 202.089 65.2162C202.171 64.9598 202.212 64.6543 202.212 64.3001C202.212 63.9504 202.171 63.6612 202.089 63.4328C202.007 63.1997 201.893 63.0155 201.747 62.8802C201.606 62.7451 201.435 62.6518 201.234 62.6004C201.034 62.5445 200.817 62.5167 200.585 62.5167H199.58ZM198.938 61.9151H200.585C200.913 61.9151 201.218 61.9548 201.501 62.034C201.784 62.1132 202.03 62.2438 202.239 62.4256C202.449 62.6076 202.613 62.8476 202.732 63.146C202.85 63.4444 202.909 63.8127 202.909 64.2511C202.909 64.6941 202.848 65.0832 202.725 65.4189C202.606 65.75 202.44 66.0274 202.226 66.2512C202.016 66.4751 201.763 66.6452 201.467 66.7617C201.175 66.8738 200.856 66.9297 200.51 66.9297H198.938V61.9151Z" fill="#6D6969"/>
<path d="M204.769 66.4474C204.955 66.4474 205.115 66.4079 205.247 66.3286C205.379 66.2492 205.486 66.1584 205.568 66.0558C205.65 65.9486 205.71 65.846 205.746 65.748C205.783 65.6455 205.801 65.5732 205.801 65.5313V65.2656H205.199C204.839 65.2656 204.577 65.3191 204.413 65.4264C204.254 65.5289 204.174 65.6852 204.174 65.895C204.174 66.0582 204.222 66.191 204.317 66.2935C204.413 66.3962 204.564 66.4474 204.769 66.4474ZM205.828 66.2376C205.787 66.3216 205.735 66.4101 205.671 66.5035C205.607 66.592 205.527 66.6736 205.432 66.7483C205.336 66.8228 205.222 66.8834 205.09 66.9301C204.962 66.9767 204.812 67 204.639 67C204.32 67 204.062 66.9091 203.866 66.7271C203.67 66.5406 203.572 66.2749 203.572 65.93C203.572 65.5337 203.707 65.2423 203.975 65.0558C204.249 64.8693 204.636 64.776 205.138 64.776H205.801V64.4753C205.801 64.2234 205.737 64.0439 205.609 63.9368C205.482 63.8295 205.263 63.7759 204.953 63.7759C204.734 63.7759 204.527 63.8131 204.331 63.8878C204.135 63.9577 203.96 64.0393 203.805 64.1325V63.5799C203.932 63.5007 204.103 63.4239 204.317 63.3492C204.536 63.27 204.775 63.2303 205.035 63.2303C205.482 63.2303 205.821 63.3259 206.054 63.5171C206.286 63.7036 206.402 63.995 206.402 64.3914V66.3425C206.402 66.3846 206.402 66.4335 206.402 66.4895C206.407 66.5406 206.409 66.5944 206.409 66.6503C206.414 66.7062 206.418 66.7598 206.423 66.8111C206.427 66.8577 206.432 66.8975 206.436 66.9301H205.89C205.876 66.8648 205.862 66.7738 205.849 66.6572C205.84 66.5361 205.835 66.4312 205.835 66.3425L205.828 66.2376Z" fill="#6D6969"/>
<path d="M209.153 66.8532C209.08 66.8951 208.987 66.9301 208.873 66.9581C208.759 66.986 208.638 67 208.511 67C208.337 67 208.189 66.9743 208.066 66.9231C207.948 66.8718 207.85 66.8042 207.772 66.7202C207.695 66.6317 207.638 66.5337 207.602 66.4265C207.57 66.3147 207.554 66.2004 207.554 66.0839V63.8247H207.13V63.3002H207.554V62.538H208.155V63.3002H209.187V63.8247H208.155V66.0068C208.155 66.1607 208.192 66.2726 208.264 66.3425C208.342 66.4124 208.476 66.4474 208.668 66.4474C208.845 66.4474 209.007 66.3962 209.153 66.2935V66.8532Z" fill="#6D6969"/>
<path d="M211.041 66.4474C211.228 66.4474 211.387 66.4079 211.52 66.3286C211.652 66.2492 211.759 66.1584 211.841 66.0558C211.923 65.9486 211.982 65.846 212.019 65.748C212.055 65.6455 212.073 65.5732 212.073 65.5313V65.2656H211.472C211.112 65.2656 210.85 65.3191 210.686 65.4264C210.526 65.5289 210.446 65.6852 210.446 65.895C210.446 66.0582 210.494 66.191 210.59 66.2935C210.686 66.3962 210.836 66.4474 211.041 66.4474ZM212.101 66.2376C212.06 66.3216 212.007 66.4101 211.944 66.5035C211.88 66.592 211.8 66.6736 211.704 66.7483C211.609 66.8228 211.495 66.8834 211.362 66.9301C211.235 66.9767 211.084 67 210.911 67C210.592 67 210.335 66.9091 210.139 66.7271C209.943 66.5406 209.845 66.2749 209.845 65.93C209.845 65.5337 209.979 65.2423 210.248 65.0558C210.522 64.8693 210.909 64.776 211.41 64.776H212.073V64.4753C212.073 64.2234 212.01 64.0439 211.882 63.9368C211.754 63.8295 211.536 63.7759 211.226 63.7759C211.007 63.7759 210.8 63.8131 210.604 63.8878C210.408 63.9577 210.232 64.0393 210.077 64.1325V63.5799C210.205 63.5007 210.376 63.4239 210.59 63.3492C210.809 63.27 211.048 63.2303 211.308 63.2303C211.754 63.2303 212.094 63.3259 212.326 63.5171C212.559 63.7036 212.675 63.995 212.675 64.3914V66.3425C212.675 66.3846 212.675 66.4335 212.675 66.4895C212.68 66.5406 212.682 66.5944 212.682 66.6503C212.686 66.7062 212.691 66.7598 212.696 66.8111C212.7 66.8577 212.705 66.8975 212.709 66.9301H212.162C212.149 66.8648 212.135 66.7738 212.121 66.6572C212.112 66.5361 212.108 66.4312 212.108 66.3425L212.101 66.2376Z" fill="#6D6969"/>
<path d="M215.984 62.5167V64.3839H216.853C217.026 64.3839 217.183 64.3653 217.324 64.328C217.466 64.2906 217.586 64.2323 217.687 64.1531C217.791 64.0739 217.871 63.9714 217.926 63.8453C217.985 63.7149 218.015 63.5586 218.015 63.3769C218.015 63.0738 217.919 62.8545 217.728 62.7194C217.536 62.5843 217.263 62.5167 216.907 62.5167H215.984ZM215.342 61.9151H216.907C217.463 61.9151 217.894 62.034 218.199 62.2717C218.509 62.5049 218.664 62.8709 218.664 63.3698C218.664 63.6543 218.619 63.899 218.527 64.1041C218.441 64.3046 218.318 64.4702 218.158 64.6008C217.999 64.7314 217.807 64.8268 217.584 64.8875C217.365 64.9481 217.121 64.9783 216.853 64.9783H215.984V66.9297H215.342V61.9151Z" fill="#6D6969"/>
<path d="M220.101 61.9151V66.9297H219.5V61.9151H220.101Z" fill="#6D6969"/>
<path d="M222.169 66.4474C222.356 66.4474 222.515 66.4079 222.648 66.3286C222.78 66.2492 222.887 66.1584 222.969 66.0558C223.051 65.9486 223.11 65.846 223.147 65.748C223.183 65.6455 223.201 65.5732 223.201 65.5313V65.2656H222.6C222.24 65.2656 221.978 65.3191 221.814 65.4264C221.654 65.5289 221.574 65.6852 221.574 65.895C221.574 66.0582 221.622 66.191 221.718 66.2935C221.813 66.3962 221.964 66.4474 222.169 66.4474ZM223.229 66.2376C223.188 66.3216 223.135 66.4101 223.071 66.5035C223.008 66.592 222.928 66.6736 222.832 66.7483C222.736 66.8228 222.622 66.8834 222.49 66.9301C222.363 66.9767 222.212 67 222.039 67C221.72 67 221.463 66.9091 221.267 66.7271C221.071 66.5406 220.973 66.2749 220.973 65.93C220.973 65.5337 221.107 65.2423 221.376 65.0558C221.649 64.8693 222.037 64.776 222.538 64.776H223.201V64.4753C223.201 64.2234 223.137 64.0439 223.01 63.9368C222.882 63.8295 222.663 63.7759 222.354 63.7759C222.135 63.7759 221.927 63.8131 221.731 63.8878C221.535 63.9577 221.36 64.0393 221.205 64.1325V63.5799C221.333 63.5007 221.504 63.4239 221.718 63.3492C221.937 63.27 222.176 63.2303 222.436 63.2303C222.882 63.2303 223.222 63.3259 223.454 63.5171C223.687 63.7036 223.803 63.995 223.803 64.3914V66.3425C223.803 66.3846 223.803 66.4335 223.803 66.4895C223.807 66.5406 223.81 66.5944 223.81 66.6503C223.814 66.7062 223.819 66.7598 223.823 66.8111C223.828 66.8577 223.832 66.8975 223.837 66.9301H223.29C223.276 66.8648 223.263 66.7738 223.249 66.6572C223.24 66.5361 223.235 66.4312 223.235 66.3425L223.229 66.2376Z" fill="#6D6969"/>
<path d="M226.553 66.8532C226.48 66.8951 226.387 66.9301 226.273 66.9581C226.159 66.986 226.038 67 225.911 67C225.738 67 225.59 66.9743 225.467 66.9231C225.348 66.8718 225.25 66.8042 225.173 66.7202C225.095 66.6317 225.038 66.5337 225.002 66.4265C224.97 66.3147 224.954 66.2004 224.954 66.0839V63.8247H224.53V63.3002H224.954V62.538H225.555V63.3002H226.588V63.8247H225.555V66.0068C225.555 66.1607 225.592 66.2726 225.665 66.3425C225.742 66.4124 225.877 66.4474 226.068 66.4474C226.246 66.4474 226.408 66.3962 226.553 66.2935V66.8532Z" fill="#6D6969"/>
<path d="M228.203 63.8244V66.9297H227.601V63.8244H227.171V63.2998H227.601V63.2089C227.601 62.78 227.713 62.4466 227.936 62.2089C228.16 61.971 228.465 61.8522 228.852 61.8522C229.021 61.8522 229.171 61.8732 229.303 61.9151V62.4746C229.262 62.456 229.203 62.4396 229.126 62.4256C229.048 62.4117 228.966 62.4047 228.88 62.4047C228.67 62.4047 228.504 62.47 228.381 62.6004C228.262 62.731 228.203 62.9339 228.203 63.2089V63.2998H229.228V63.8244H228.203Z" fill="#6D6969"/>
<path d="M231.324 66.4474C231.484 66.4474 231.63 66.4219 231.762 66.3706C231.898 66.3147 232.017 66.2331 232.117 66.1258C232.218 66.0139 232.295 65.874 232.35 65.7061C232.404 65.5382 232.432 65.34 232.432 65.1117C232.432 64.8831 232.404 64.6851 232.35 64.5172C232.295 64.3493 232.218 64.2118 232.117 64.1045C232.017 63.9927 231.898 63.9111 231.762 63.8597C231.63 63.8038 231.484 63.7759 231.324 63.7759C231.165 63.7759 231.019 63.8038 230.887 63.8597C230.755 63.9111 230.638 63.9927 230.538 64.1045C230.442 64.2118 230.367 64.3493 230.313 64.5172C230.258 64.6851 230.23 64.8831 230.23 65.1117C230.23 65.34 230.258 65.5382 230.313 65.7061C230.367 65.874 230.442 66.0139 230.538 66.1258C230.638 66.2331 230.755 66.3147 230.887 66.3706C231.019 66.4219 231.165 66.4474 231.324 66.4474ZM231.324 67C231.083 67 230.857 66.9581 230.647 66.8742C230.438 66.7902 230.256 66.6689 230.101 66.5104C229.95 66.3472 229.832 66.1491 229.745 65.916C229.659 65.6828 229.615 65.4147 229.615 65.1117C229.615 64.8133 229.659 64.5474 229.745 64.3143C229.832 64.0766 229.95 63.8785 230.101 63.7198C230.256 63.5614 230.438 63.4401 230.647 63.3563C230.857 63.2724 231.083 63.2303 231.324 63.2303C231.57 63.2303 231.798 63.2724 232.008 63.3563C232.218 63.4401 232.398 63.5614 232.548 63.7198C232.703 63.8785 232.824 64.0766 232.91 64.3143C233.001 64.5474 233.047 64.8133 233.047 65.1117C233.047 65.4147 233.001 65.6828 232.91 65.916C232.824 66.1491 232.703 66.3472 232.548 66.5104C232.398 66.6689 232.218 66.7902 232.008 66.8742C231.798 66.9581 231.57 67 231.324 67Z" fill="#6D6969"/>
<path d="M235.605 63.9154C235.35 63.9387 235.118 64.0063 234.908 64.1181C234.703 64.2254 234.55 64.3932 234.45 64.6217V66.9297H233.849V63.2998H234.375L234.436 64.0903H234.45C234.55 63.8757 234.694 63.6892 234.881 63.5308C235.072 63.3676 235.314 63.2672 235.605 63.2299V63.9154Z" fill="#6D6969"/>
<path d="M237.008 66.9297H236.406V63.2998H236.933L236.994 63.9504H237.008C237.104 63.7451 237.247 63.575 237.439 63.4397C237.63 63.2998 237.881 63.2299 238.19 63.2299C238.464 63.2299 238.687 63.2976 238.86 63.4328C239.038 63.5634 239.157 63.7615 239.216 64.0273C239.316 63.7801 239.469 63.5867 239.674 63.4468C239.884 63.3022 240.136 63.2299 240.433 63.2299C240.761 63.2299 241.021 63.3255 241.212 63.5168C241.403 63.7033 241.499 63.9923 241.499 64.3839V66.9297H240.891V64.4609C240.891 64.223 240.834 64.0506 240.72 63.9433C240.606 63.8315 240.451 63.7755 240.255 63.7755C240.123 63.7755 240.007 63.7965 239.906 63.8384C239.806 63.8757 239.717 63.9293 239.64 63.9992C239.562 64.0691 239.492 64.1507 239.428 64.244C239.364 64.3372 239.305 64.4352 239.25 64.5378V66.9297H238.648V64.391C238.648 64.1579 238.592 63.997 238.478 63.9083C238.364 63.8198 238.209 63.7755 238.013 63.7755C237.885 63.7755 237.771 63.7918 237.671 63.8244C237.571 63.8571 237.48 63.9036 237.397 63.9642C237.32 64.0249 237.249 64.0996 237.186 64.1881C237.122 64.272 237.063 64.3653 237.008 64.4678V66.9297Z" fill="#6D6969"/>
</g>
</svg>
