<svg width="260" height="80" viewBox="0 0 260 80" fill="none" xmlns="http://www.w3.org/2000/svg">
<rect x="0.5" y="0.5" width="79" height="79" fill="#F8F7F7" stroke="#ECEAEA"/>
<g opacity="0.5">
<path d="M22.0409 46.0625L20.3829 48.8805V51.0391H19.7281V48.9013L18.0566 46.0625H18.7934L20.0759 48.3253L21.3858 46.0625H22.0409Z" fill="#6D6969"/>
<path d="M24.4105 49.6518V49.3881H23.8102C23.451 49.3881 23.1894 49.4412 23.0256 49.5477C22.8664 49.6542 22.7868 49.809 22.7868 50.0128C22.7868 50.1747 22.8346 50.3065 22.93 50.4084C23.0303 50.5102 23.1802 50.561 23.3804 50.561C23.5668 50.561 23.7259 50.5241 23.858 50.45C23.9898 50.3714 24.0967 50.2788 24.1787 50.1724C24.2603 50.0614 24.3195 49.9573 24.3559 49.86C24.3924 49.7628 24.4105 49.6934 24.4105 49.6518ZM23.5647 47.9097C23.3507 47.9097 23.144 47.9466 22.9437 48.0207C22.7481 48.0901 22.5731 48.1711 22.4183 48.2637V47.7152C22.5457 47.6366 22.7163 47.5604 22.93 47.4862C23.1484 47.4076 23.3871 47.3682 23.6463 47.3682C24.0921 47.3682 24.4309 47.4631 24.6629 47.6529C24.895 47.8425 25.0108 48.1317 25.0108 48.5205V50.4568C25.0108 50.5357 25.0131 50.6374 25.0178 50.7623C25.0268 50.8827 25.0359 50.9752 25.0449 51.04H24.4991C24.4857 50.9752 24.472 50.8849 24.4583 50.7692C24.4492 50.649 24.4446 50.5449 24.4446 50.4568L24.4379 50.3527C24.3833 50.4639 24.3081 50.5796 24.2128 50.6998C24.1172 50.8155 23.9898 50.9127 23.8306 50.9913C23.676 51.07 23.4827 51.1094 23.2507 51.1094C22.9323 51.1094 22.6754 51.0168 22.4798 50.8317C22.2842 50.6467 22.1865 50.3853 22.1865 50.0475C22.1865 49.6542 22.323 49.365 22.5959 49.1799C22.8687 48.9948 23.253 48.9023 23.7487 48.9023H24.4105V48.6038C24.4105 48.3538 24.3469 48.1758 24.2195 48.0694C24.0921 47.9629 23.8738 47.9097 23.5647 47.9097Z" fill="#6D6969"/>
<path d="M27.7017 47.9088C27.4288 47.9088 27.206 47.9736 27.0331 48.1032C26.8648 48.228 26.7284 48.39 26.6237 48.589V51.0391H26.0234V47.4367H26.5896L26.6101 48.0823H26.6237C26.7192 47.8786 26.8693 47.7098 27.074 47.5755C27.2786 47.4367 27.5378 47.3673 27.8517 47.3673C28.202 47.3673 28.4794 47.4622 28.6841 47.652C28.8932 47.8416 28.9979 48.1286 28.9979 48.5125V51.0391H28.3975V48.5751C28.3975 48.3298 28.3338 48.1586 28.2066 48.0614C28.0836 47.9596 27.9154 47.9088 27.7017 47.9088Z" fill="#6D6969"/>
<path d="M31.4416 50.561C31.7509 50.561 32.0101 50.4524 32.2194 50.2349C32.4286 50.0173 32.5332 49.6842 32.5332 49.2354C32.5332 48.7866 32.4286 48.4534 32.2194 48.2358C32.0101 48.0184 31.7509 47.9097 31.4416 47.9097C31.1325 47.9097 30.878 48.0231 30.6777 48.2497C30.4777 48.4719 30.3777 48.8005 30.3777 49.2354C30.3777 49.6749 30.4777 50.0057 30.6777 50.2278C30.878 50.45 31.1325 50.561 31.4416 50.561ZM31.3529 51.1094C31.0713 51.1094 30.8074 51.0423 30.5617 50.908C30.3208 50.7692 30.1275 50.561 29.9818 50.2833C29.8363 50.0057 29.7637 49.6565 29.7637 49.2354C29.7637 48.8142 29.8363 48.4672 29.9818 48.1942C30.1275 47.9166 30.3208 47.7108 30.5617 47.5764C30.8074 47.4376 31.0734 47.3682 31.3598 47.3682C31.6281 47.3682 31.8601 47.426 32.0556 47.5417C32.2512 47.6529 32.4081 47.8125 32.5264 48.0207V46.0634H33.1267V51.04H32.6014L32.5536 50.332C32.4445 50.568 32.2899 50.7576 32.0897 50.9012C31.8942 51.04 31.6486 51.1094 31.3529 51.1094Z" fill="#6D6969"/>
<path d="M35.5865 47.9097C35.3273 47.9097 35.1044 47.9907 34.9179 48.1526C34.7314 48.3146 34.6132 48.5597 34.5632 48.8883H36.4666C36.4848 48.5552 36.4097 48.3099 36.2414 48.1526C36.0732 47.9907 35.8548 47.9097 35.5865 47.9097ZM35.7434 51.1094C35.1522 51.1094 34.6996 50.9451 34.3858 50.6166C34.0765 50.2833 33.9219 49.823 33.9219 49.2354C33.9219 48.8421 33.9946 48.5066 34.1402 48.229C34.2857 47.9513 34.4858 47.7384 34.7405 47.5904C34.9952 47.4423 35.2818 47.3682 35.6001 47.3682C35.9413 47.3682 36.2301 47.447 36.4666 47.6043C36.7076 47.757 36.8805 47.9837 36.9851 48.2844C37.0897 48.5852 37.1079 48.9577 37.0396 49.402H34.5427C34.5927 50.1747 35.0112 50.561 35.798 50.561C36.0709 50.561 36.3051 50.5218 36.5007 50.4431C36.7008 50.3598 36.8645 50.2741 36.9919 50.1863V50.7345C36.8964 50.8039 36.7463 50.8849 36.5416 50.9774C36.337 51.0655 36.0709 51.1094 35.7434 51.1094Z" fill="#6D6969"/>
<path d="M37.5876 47.4367H38.2835L39.1294 48.707L39.9822 47.4367H40.603L39.4296 49.1582L40.6644 51.0391H39.9686L39.0203 49.6093L38.0651 51.0391H37.4375L38.7201 49.1719L37.5876 47.4367Z" fill="#6D6969"/>
<path d="M44.9639 51.1094C44.4818 51.1094 44.0588 51.0076 43.695 50.8039C43.3357 50.6004 43.056 50.3088 42.8558 49.9294C42.6557 49.5453 42.5557 49.0873 42.5557 48.5552C42.5557 47.7547 42.7626 47.13 43.1765 46.6812C43.5904 46.2277 44.1816 46.001 44.9503 46.001C45.2823 46.001 45.5734 46.0379 45.8235 46.112C46.0782 46.1814 46.2829 46.2648 46.4375 46.3618V46.9865C46.2328 46.8524 45.9963 46.7529 45.728 46.6881C45.4642 46.6234 45.2027 46.591 44.9434 46.591C44.3704 46.591 43.9451 46.7551 43.6677 47.0837C43.3902 47.4123 43.2515 47.9027 43.2515 48.5552C43.2515 49.2122 43.4016 49.7049 43.7018 50.0336C44.002 50.3575 44.4409 50.5194 45.0185 50.5194C45.2686 50.5194 45.512 50.4847 45.7485 50.4153C45.9895 50.3459 46.2192 50.2278 46.4375 50.0614V50.686C46.3056 50.7923 46.1123 50.8896 45.8576 50.9774C45.6075 51.0655 45.3096 51.1094 44.9639 51.1094Z" fill="#6D6969"/>
<path d="M47.4062 46.0625H48.0066V51.0391H47.4062V46.0625Z" fill="#6D6969"/>
<path d="M50.5063 50.561C50.8247 50.561 51.0885 50.4547 51.2977 50.2418C51.5069 50.0243 51.6115 49.6889 51.6115 49.2354C51.6115 48.7819 51.5069 48.4487 51.2977 48.2358C51.0885 48.0184 50.8247 47.9097 50.5063 47.9097C50.1925 47.9097 49.931 48.0184 49.7218 48.2358C49.5171 48.4487 49.4148 48.7819 49.4148 49.2354C49.4148 49.6889 49.5171 50.0243 49.7218 50.2418C49.931 50.4547 50.1925 50.561 50.5063 50.561ZM50.5063 51.1094C50.1834 51.1094 49.8923 51.0376 49.6331 50.8943C49.3784 50.746 49.176 50.5333 49.0255 50.2557C48.8754 49.9734 48.8008 49.6333 48.8008 49.2354C48.8008 48.8373 48.8754 48.4997 49.0255 48.2221C49.176 47.9444 49.3784 47.7339 49.6331 47.5904C49.8923 47.4423 50.1834 47.3682 50.5063 47.3682C50.8338 47.3682 51.1272 47.4423 51.3864 47.5904C51.6457 47.7339 51.8499 47.9444 52.0004 48.2221C52.1505 48.4997 52.2255 48.8373 52.2255 49.2354C52.2255 49.6333 52.1505 49.9734 52.0004 50.2557C51.8499 50.5333 51.6457 50.746 51.3864 50.8943C51.1272 51.0376 50.8338 51.1094 50.5063 51.1094Z" fill="#6D6969"/>
<path d="M55.2971 50.3945C55.2016 50.5935 55.0538 50.7623 54.8537 50.9012C54.6581 51.04 54.4011 51.1094 54.0828 51.1094C53.7553 51.1094 53.4892 51.0145 53.2846 50.8248C53.0844 50.6351 52.9844 50.3459 52.9844 49.9573V47.4376H53.5916V49.9573C53.5916 50.1931 53.6552 50.3527 53.7826 50.4361C53.9099 50.5194 54.0668 50.561 54.2533 50.561C54.5171 50.561 54.7286 50.5009 54.8878 50.3806C55.047 50.2602 55.1834 50.0961 55.2971 49.8878V47.4376H55.8975V51.04H55.3653L55.3108 50.3945H55.2971Z" fill="#6D6969"/>
<path d="M58.3765 50.561C58.6858 50.561 58.945 50.4524 59.1542 50.2349C59.3635 50.0173 59.4681 49.6842 59.4681 49.2354C59.4681 48.7866 59.3635 48.4534 59.1542 48.2358C58.945 48.0184 58.6858 47.9097 58.3765 47.9097C58.0672 47.9097 57.8125 48.0231 57.6124 48.2497C57.4123 48.4719 57.3122 48.8005 57.3122 49.2354C57.3122 49.6749 57.4123 50.0057 57.6124 50.2278C57.8125 50.45 58.0672 50.561 58.3765 50.561ZM58.2878 51.1094C58.0058 51.1094 57.742 51.0423 57.4964 50.908C57.2554 50.7692 57.0621 50.561 56.9166 50.2833C56.771 50.0057 56.6982 49.6565 56.6982 49.2354C56.6982 48.8142 56.771 48.4672 56.9166 48.1942C57.0621 47.9166 57.2554 47.7108 57.4964 47.5764C57.742 47.4376 58.0081 47.3682 58.2946 47.3682C58.563 47.3682 58.7949 47.426 58.9905 47.5417C59.1861 47.6529 59.343 47.8125 59.4612 48.0207V46.0634H60.0616V51.04H59.5363L59.4885 50.332C59.3794 50.568 59.2247 50.7576 59.0246 50.9012C58.8291 51.04 58.5835 51.1094 58.2878 51.1094Z" fill="#6D6969"/>
<path d="M22.9637 56.3797C23.3094 56.3797 23.589 56.3035 23.8028 56.1507C24.0165 55.998 24.1235 55.7413 24.1235 55.3804C24.1235 55.0796 24.0279 54.8621 23.8369 54.7279C23.6459 54.5938 23.373 54.5267 23.0182 54.5267H22.0972V56.3797H22.9637ZM21.4561 53.9297H23.0182C23.573 53.9297 24.003 54.0477 24.3077 54.2837C24.617 54.5151 24.7716 54.8782 24.7716 55.3733C24.7716 55.7482 24.6943 56.0536 24.5395 56.2895C24.3896 56.5256 24.178 56.6991 23.9051 56.8101C23.6368 56.9166 23.3229 56.9697 22.9637 56.9697H22.0972V58.9062H21.4561V53.9297Z" fill="#6D6969"/>
<path d="M27.3256 55.9148C27.0755 55.9333 26.8458 55.998 26.6365 56.1092C26.4274 56.2201 26.2726 56.3891 26.1726 56.6158V58.9062H25.5723V55.3039H26.0976L26.1589 56.0883H26.1726C26.2726 55.8754 26.416 55.6904 26.6024 55.5331C26.7934 55.371 27.0345 55.2715 27.3256 55.2345V55.9148Z" fill="#6D6969"/>
<path d="M29.4058 58.4281C29.7241 58.4281 29.988 58.3217 30.1973 58.109C30.4063 57.8915 30.511 57.5561 30.511 57.1026C30.511 56.649 30.4063 56.3159 30.1973 56.103C29.988 55.8856 29.7241 55.7768 29.4058 55.7768C29.092 55.7768 28.8305 55.8856 28.6212 56.103C28.4165 56.3159 28.3142 56.649 28.3142 57.1026C28.3142 57.5561 28.4165 57.8915 28.6212 58.109C28.8305 58.3217 29.092 58.4281 29.4058 58.4281ZM29.4058 58.9766C29.083 58.9766 28.7918 58.9048 28.5326 58.7614C28.278 58.6132 28.0754 58.4005 27.9255 58.1229C27.7754 57.8405 27.7002 57.5005 27.7002 57.1026C27.7002 56.7045 27.7754 56.3669 27.9255 56.0892C28.0754 55.8116 28.278 55.6011 28.5326 55.4575C28.7918 55.3095 29.083 55.2354 29.4058 55.2354C29.7334 55.2354 30.0267 55.3095 30.2859 55.4575C30.5451 55.6011 30.7498 55.8116 30.8999 56.0892C31.05 56.3669 31.125 56.7045 31.125 57.1026C31.125 57.5005 31.05 57.8405 30.8999 58.1229C30.7498 58.4005 30.5451 58.6132 30.2859 58.7614C30.0267 58.9048 29.7334 58.9766 29.4058 58.9766Z" fill="#6D6969"/>
<path d="M32.0706 58.9062V55.8245H31.6406V55.3039H32.0706V55.2137C32.0706 54.7881 32.182 54.4573 32.4048 54.2212C32.6278 53.9851 32.9324 53.8673 33.319 53.8673C33.4919 53.8673 33.6418 53.8881 33.7692 53.9297V54.4849C33.7284 54.4665 33.6692 54.4502 33.5919 54.4363C33.5146 54.4226 33.4327 54.4155 33.3462 54.4155C33.1371 54.4155 32.971 54.4804 32.8482 54.6098C32.7301 54.7394 32.6709 54.9408 32.6709 55.2137V55.3039H33.6943V55.8245H32.6709V58.9062H32.0706Z" fill="#6D6969"/>
<path d="M35.6702 55.7768C35.4109 55.7768 35.1881 55.8579 35.0016 56.0198C34.8151 56.1818 34.6969 56.4269 34.6468 56.7555H36.5502C36.5684 56.4224 36.4934 56.1771 36.3251 56.0198C36.1568 55.8579 35.9385 55.7768 35.6702 55.7768ZM35.8271 58.9766C35.2358 58.9766 34.7833 58.8123 34.4695 58.4838C34.1604 58.1505 34.0059 57.6902 34.0059 57.1026C34.0059 56.7092 34.0785 56.3738 34.2239 56.0961C34.3694 55.8185 34.5695 55.6056 34.8242 55.4575C35.0789 55.3095 35.3654 55.2354 35.6838 55.2354C36.0249 55.2354 36.3137 55.3141 36.5502 55.4715C36.7913 55.6242 36.9641 55.8509 37.0687 56.1516C37.1733 56.4524 37.1915 56.8249 37.1233 57.2692H34.6264C34.6764 58.0419 35.0948 58.4281 35.8817 58.4281C36.1545 58.4281 36.3888 58.389 36.5843 58.3103C36.7845 58.227 36.9482 58.1413 37.0755 58.0535V58.6017C36.98 58.6711 36.8299 58.7521 36.6253 58.8446C36.4206 58.9327 36.1545 58.9766 35.8271 58.9766Z" fill="#6D6969"/>
<path d="M39.0774 58.9766C38.8318 58.9766 38.6204 58.9534 38.443 58.9072C38.2701 58.8562 38.1292 58.7983 38.02 58.7336C37.9108 58.6642 37.8267 58.604 37.7676 58.5532V58.0049C37.8313 58.0651 37.9199 58.1321 38.0336 58.2062C38.1519 58.2756 38.2974 58.3356 38.4703 58.3866C38.6431 58.4375 38.8432 58.4629 39.0706 58.4629C39.3253 58.4629 39.5277 58.4213 39.6778 58.338C39.8279 58.2546 39.9029 58.1136 39.9029 57.9147C39.9029 57.7711 39.862 57.6647 39.7801 57.5953C39.6983 57.5214 39.5891 57.468 39.4527 57.4357C39.3208 57.4033 39.1752 57.371 39.016 57.3386C38.866 57.3061 38.7181 57.2692 38.5726 57.2274C38.4271 57.1859 38.2952 57.1304 38.1769 57.061C38.0587 56.9869 37.9631 56.8874 37.8904 56.7624C37.8176 56.6375 37.7812 56.4755 37.7812 56.2765C37.7812 55.9526 37.9063 55.6981 38.1564 55.513C38.4066 55.3279 38.7523 55.2354 39.1934 55.2354C39.4436 55.2354 39.6664 55.2609 39.862 55.3119C40.0576 55.3626 40.2054 55.4183 40.3055 55.4783V56.0267C40.1917 55.9481 40.0462 55.8832 39.8688 55.8324C39.6914 55.7768 39.4731 55.7491 39.2139 55.7491C38.9501 55.7491 38.7454 55.7885 38.5999 55.8671C38.4544 55.941 38.3816 56.073 38.3816 56.2628C38.3816 56.3922 38.4157 56.4894 38.4839 56.5541C38.5567 56.6143 38.6499 56.6582 38.7636 56.6861C38.8819 56.7138 39.007 56.7439 39.1388 56.7763C39.298 56.8086 39.4572 56.8457 39.6164 56.8874C39.7756 56.9243 39.9211 56.98 40.053 57.0539C40.1895 57.128 40.2986 57.2322 40.3805 57.3663C40.4624 57.5005 40.5033 57.6786 40.5033 57.9007C40.5033 58.1784 40.4328 58.3958 40.2918 58.5532C40.1508 58.7058 39.9712 58.8146 39.7528 58.8793C39.5391 58.9442 39.314 58.9766 39.0774 58.9766Z" fill="#6D6969"/>
<path d="M42.4427 58.9766C42.1971 58.9766 41.9856 58.9534 41.8082 58.9072C41.6354 58.8562 41.4944 58.7983 41.3852 58.7336C41.2761 58.6642 41.1919 58.604 41.1328 58.5532V58.0049C41.1965 58.0651 41.2852 58.1321 41.3989 58.2062C41.5171 58.2756 41.6627 58.3356 41.8355 58.3866C42.0083 58.4375 42.2085 58.4629 42.4359 58.4629C42.6906 58.4629 42.8929 58.4213 43.043 58.338C43.1931 58.2546 43.2682 58.1136 43.2682 57.9147C43.2682 57.7711 43.2272 57.6647 43.1454 57.5953C43.0635 57.5214 42.9544 57.468 42.8179 57.4357C42.686 57.4033 42.5405 57.371 42.3813 57.3386C42.2312 57.3061 42.0834 57.2692 41.9378 57.2274C41.7923 57.1859 41.6604 57.1304 41.5421 57.061C41.4239 56.9869 41.3284 56.8874 41.2556 56.7624C41.1828 56.6375 41.1465 56.4755 41.1465 56.2765C41.1465 55.9526 41.2715 55.6981 41.5217 55.513C41.7718 55.3279 42.1175 55.2354 42.5587 55.2354C42.8088 55.2354 43.0317 55.2609 43.2272 55.3119C43.4228 55.3626 43.5706 55.4183 43.6707 55.4783V56.0267C43.557 55.9481 43.4114 55.8832 43.2341 55.8324C43.0567 55.7768 42.8384 55.7491 42.5791 55.7491C42.3153 55.7491 42.1107 55.7885 41.9651 55.8671C41.8196 55.941 41.7468 56.073 41.7468 56.2628C41.7468 56.3922 41.7809 56.4894 41.8491 56.5541C41.9219 56.6143 42.0152 56.6582 42.1289 56.6861C42.2471 56.7138 42.3722 56.7439 42.5041 56.7763C42.6633 56.8086 42.8225 56.8457 42.9816 56.8874C43.1408 56.9243 43.2864 56.98 43.4183 57.0539C43.5547 57.128 43.6639 57.2322 43.7457 57.3663C43.8276 57.5005 43.8685 57.6786 43.8685 57.9007C43.8685 58.1784 43.798 58.3958 43.657 58.5532C43.516 58.7058 43.3364 58.8146 43.1181 58.8793C42.9043 58.9442 42.6792 58.9766 42.4427 58.9766Z" fill="#6D6969"/>
<path d="M44.6766 55.3039H45.2769V58.9062H44.6766V55.3039ZM44.9836 54.7765C44.8608 54.7765 44.763 54.7394 44.6902 54.6655C44.6174 54.5867 44.5811 54.492 44.5811 54.3808C44.5811 54.2699 44.6174 54.175 44.6902 54.0963C44.763 54.0177 44.8608 53.9783 44.9836 53.9783C45.1018 53.9783 45.1951 54.0177 45.2633 54.0963C45.3315 54.175 45.3656 54.2699 45.3656 54.3808C45.3656 54.492 45.3315 54.5867 45.2633 54.6655C45.1951 54.7394 45.1018 54.7765 44.9836 54.7765Z" fill="#6D6969"/>
<path d="M47.7768 58.4281C48.0952 58.4281 48.359 58.3217 48.5682 58.109C48.7774 57.8915 48.8821 57.5561 48.8821 57.1026C48.8821 56.649 48.7774 56.3159 48.5682 56.103C48.359 55.8856 48.0952 55.7768 47.7768 55.7768C47.463 55.7768 47.2015 55.8856 46.9923 56.103C46.7876 56.3159 46.6853 56.649 46.6853 57.1026C46.6853 57.5561 46.7876 57.8915 46.9923 58.109C47.2015 58.3217 47.463 58.4281 47.7768 58.4281ZM47.7768 58.9766C47.4539 58.9766 47.1628 58.9048 46.9036 58.7614C46.6489 58.6132 46.4465 58.4005 46.2964 58.1229C46.1463 57.8405 46.0713 57.5005 46.0713 57.1026C46.0713 56.7045 46.1463 56.3669 46.2964 56.0892C46.4465 55.8116 46.6489 55.6011 46.9036 55.4575C47.1628 55.3095 47.4539 55.2354 47.7768 55.2354C48.1043 55.2354 48.3977 55.3095 48.6569 55.4575C48.9162 55.6011 49.1208 55.8116 49.2709 56.0892C49.421 56.3669 49.4961 56.7045 49.4961 57.1026C49.4961 57.5005 49.421 57.8405 49.2709 58.1229C49.1208 58.4005 48.9162 58.6132 48.6569 58.7614C48.3977 58.9048 48.1043 58.9766 47.7768 58.9766Z" fill="#6D6969"/>
<path d="M51.9751 55.7759C51.7023 55.7759 51.4794 55.8407 51.3066 55.9703C51.1383 56.0952 51.0018 56.2572 50.8972 56.4562V58.9062H50.2969V55.3039H50.8631L50.8836 55.9494H50.8972C50.9927 55.7458 51.1428 55.577 51.3475 55.4427C51.5522 55.3039 51.8114 55.2345 52.1252 55.2345C52.4754 55.2345 52.7529 55.3294 52.9575 55.5192C53.1668 55.7088 53.2714 55.9958 53.2714 56.3797V58.9062H52.671V56.4423C52.671 56.197 52.6073 56.0258 52.48 55.9286C52.3572 55.8268 52.1889 55.7759 51.9751 55.7759Z" fill="#6D6969"/>
<path d="M56.3354 57.519V57.2553H55.735C55.3757 57.2553 55.1142 57.3084 54.9505 57.4149C54.7913 57.5214 54.7117 57.6762 54.7117 57.88C54.7117 58.0419 54.7594 58.1737 54.855 58.2756C54.955 58.3774 55.1051 58.4281 55.3052 58.4281C55.4917 58.4281 55.6509 58.3913 55.7828 58.3172C55.9147 58.2386 56.0216 58.146 56.1034 58.0396C56.1853 57.9286 56.2444 57.8244 56.2808 57.7272C56.3172 57.63 56.3354 57.5606 56.3354 57.519ZM55.4894 55.7768C55.2757 55.7768 55.0687 55.8138 54.8686 55.8879C54.673 55.9573 54.4979 56.0383 54.3433 56.1308V55.5824C54.4706 55.5038 54.6412 55.4276 54.855 55.3534C55.0733 55.2748 55.312 55.2354 55.5713 55.2354C56.017 55.2354 56.3558 55.3303 56.5878 55.5201C56.8198 55.7097 56.9357 55.9989 56.9357 56.3877V58.324C56.9357 58.4028 56.938 58.5046 56.9426 58.6295C56.9517 58.7499 56.9607 58.8424 56.9698 58.9072H56.4241C56.4104 58.8424 56.3968 58.7521 56.3831 58.6364C56.374 58.5162 56.3695 58.4121 56.3695 58.324L56.3627 58.2199C56.3081 58.3311 56.233 58.4468 56.1375 58.567C56.042 58.6826 55.9147 58.7799 55.7555 58.8585C55.6009 58.9371 55.4076 58.9766 55.1756 58.9766C54.8572 58.9766 54.6003 58.884 54.4047 58.6989C54.2091 58.5138 54.1113 58.2525 54.1113 57.9147C54.1113 57.5214 54.2478 57.2322 54.5207 57.0471C54.7936 56.862 55.1779 56.7694 55.6736 56.7694H56.3354V56.471C56.3354 56.221 56.2717 56.043 56.1444 55.9365C56.017 55.8301 55.7987 55.7768 55.4894 55.7768Z" fill="#6D6969"/>
<path d="M57.9482 53.9297H58.5486V58.9062H57.9482V53.9297Z" fill="#6D6969"/>
<path d="M18 61.7969H18.6412V66.7734H18V61.7969Z" fill="#6D6969"/>
<path d="M21.4431 63.6432C21.1702 63.6432 20.9472 63.7079 20.7743 63.8375C20.6061 63.9624 20.4696 64.1244 20.365 64.3234V66.7734H19.7646V63.1711H20.3309L20.3515 63.8167H20.365C20.4606 63.613 20.6107 63.4442 20.8154 63.3099C21.02 63.1711 21.2792 63.1017 21.593 63.1017C21.9434 63.1017 22.2207 63.1966 22.4253 63.3864C22.6346 63.576 22.7393 63.863 22.7393 64.2469V66.7734H22.1387V64.3095C22.1387 64.0642 22.0752 63.893 21.9478 63.7957C21.825 63.694 21.6568 63.6432 21.4431 63.6432Z" fill="#6D6969"/>
<path d="M23.9688 66.7734V63.6916H23.5391V63.1711H23.9688V63.0809C23.9688 62.6552 24.0804 62.3243 24.3032 62.0884C24.526 61.8523 24.8308 61.7345 25.2174 61.7345C25.3901 61.7345 25.5403 61.7553 25.6676 61.7969V62.3521C25.6268 62.3337 25.5676 62.3174 25.4903 62.3035C25.4129 62.2897 25.3311 62.2827 25.2446 62.2827C25.0355 62.2827 24.8694 62.3476 24.7466 62.477C24.6283 62.6066 24.5693 62.808 24.5693 63.0809V63.1711H25.5926V63.6916H24.5693V66.7734H23.9688Z" fill="#6D6969"/>
<path d="M28.1166 63.782C27.8665 63.8005 27.6368 63.8652 27.4276 63.9763C27.2184 64.0873 27.0638 64.2562 26.9636 64.483V66.7734H26.3633V63.1711H26.8886L26.9501 63.9555H26.9636C27.0638 63.7426 27.207 63.5575 27.3935 63.4003C27.5846 63.2383 27.8256 63.1387 28.1166 63.1017V63.782Z" fill="#6D6969"/>
<path d="M30.8972 65.3823V65.1186H30.2967C29.9373 65.1186 29.6758 65.1717 29.5122 65.2782C29.353 65.3846 29.2734 65.5395 29.2734 65.7432C29.2734 65.9052 29.321 66.0369 29.4166 66.1387C29.5166 66.2407 29.6667 66.2914 29.8667 66.2914C30.0533 66.2914 30.2125 66.2544 30.3443 66.1805C30.4763 66.1019 30.5831 66.0093 30.665 65.9028C30.7469 65.7917 30.8063 65.6877 30.8426 65.5905C30.879 65.4932 30.8972 65.4238 30.8972 65.3823ZM30.051 63.6402C29.8373 63.6402 29.6303 63.6771 29.4303 63.7512C29.2346 63.8206 29.0594 63.9016 28.9049 63.9941V63.4457C29.0323 63.3671 29.2028 63.2908 29.4166 63.2167C29.6349 63.1381 29.8737 63.0987 30.1329 63.0987C30.5787 63.0987 30.9177 63.1936 31.1496 63.3834C31.3816 63.573 31.4976 63.8622 31.4976 64.251V66.1873C31.4976 66.2661 31.4999 66.3679 31.5044 66.4928C31.5135 66.6132 31.5226 66.7057 31.5317 66.7704H30.9859C30.9723 66.7057 30.9586 66.6153 30.945 66.4997C30.9359 66.3795 30.9313 66.2754 30.9313 66.1873L30.9245 66.0832C30.8695 66.1944 30.7949 66.3101 30.6991 66.4302C30.6037 66.5459 30.4763 66.6432 30.3171 66.7218C30.1624 66.8004 29.9691 66.8398 29.7373 66.8398C29.4189 66.8398 29.1618 66.7473 28.9664 66.5622C28.7708 66.3771 28.6729 66.1157 28.6729 65.778C28.6729 65.3846 28.8093 65.0954 29.0822 64.9104C29.3551 64.7253 29.7396 64.6327 30.2352 64.6327H30.8972V64.3343C30.8972 64.0843 30.8335 63.9061 30.7061 63.7998C30.5787 63.6934 30.3603 63.6402 30.051 63.6402Z" fill="#6D6969"/>
<path d="M32.8318 65.4031C32.8318 65.6715 32.9273 65.8866 33.1183 66.0485C33.3139 66.2105 33.5982 66.2914 33.9711 66.2914C34.194 66.2914 34.3964 66.2614 34.5783 66.2012C34.7602 66.141 34.9262 66.0624 35.0763 65.9652C34.9853 65.8821 34.8921 65.7964 34.7966 65.7085C34.7011 65.6205 34.601 65.5279 34.4964 65.4309L33.5345 64.4939C33.3207 64.5864 33.1502 64.7044 33.0228 64.8478C32.8955 64.9913 32.8318 65.1764 32.8318 65.4031ZM33.2684 62.953C33.2684 63.1381 33.323 63.3093 33.4321 63.4667C33.5413 63.6192 33.6664 63.7651 33.8074 63.9039C34.0848 63.7883 34.3145 63.6587 34.4964 63.5151C34.6829 63.3718 34.7761 63.182 34.7761 62.9461C34.7761 62.7379 34.7079 62.5758 34.5715 62.4601C34.435 62.3399 34.2485 62.2797 34.012 62.2797C33.7755 62.2797 33.5913 62.3423 33.4594 62.4672C33.3321 62.5875 33.2684 62.7495 33.2684 62.953ZM36.5499 66.7079C36.3634 66.7079 36.1861 66.6732 36.0178 66.6038C35.854 66.5344 35.6858 66.4396 35.5129 66.3193C35.3174 66.4765 35.0877 66.6038 34.8239 66.701C34.5646 66.7936 34.2713 66.8398 33.9438 66.8398C33.5618 66.8398 33.2434 66.7773 32.9887 66.6524C32.734 66.5275 32.543 66.3587 32.4156 66.1458C32.2883 65.9328 32.2246 65.6923 32.2246 65.4238C32.2246 65.0815 32.3133 64.8084 32.4907 64.6049C32.6681 64.4014 32.8909 64.2394 33.1593 64.119C32.8181 63.7349 32.6476 63.3463 32.6476 62.953C32.6476 62.7309 32.6999 62.5274 32.8045 62.3423C32.9091 62.1572 33.0615 62.0091 33.2616 61.898C33.4663 61.787 33.7141 61.7315 34.0052 61.7315C34.3008 61.7315 34.551 61.787 34.7557 61.898C34.9603 62.0044 35.115 62.1501 35.2196 62.3352C35.3287 62.5158 35.3833 62.7193 35.3833 62.9461C35.3833 63.2051 35.3265 63.4181 35.2127 63.5845C35.099 63.7512 34.9512 63.89 34.7693 64.001C34.5874 64.1074 34.3964 64.2023 34.1962 64.2857L35.0695 65.1325C35.1514 65.2064 35.2287 65.2782 35.3014 65.3476C35.3742 65.417 35.4447 65.484 35.5129 65.5489C35.6585 65.3684 35.7744 65.1717 35.8609 64.9589C35.9473 64.7413 36.0064 64.5309 36.0382 64.3272L36.5772 64.48C36.5272 64.7159 36.4498 64.9589 36.3452 65.2088C36.2406 65.454 36.1042 65.6854 35.9359 65.9028C36.0496 65.9815 36.1656 66.044 36.2838 66.0903C36.4021 66.1366 36.5272 66.1597 36.6591 66.1597C36.7728 66.1597 36.8705 66.1481 36.9524 66.125C37.0343 66.1019 37.0752 66.0903 37.0752 66.0903V66.6038C37.0252 66.6224 36.957 66.6455 36.8706 66.6732C36.7887 66.6963 36.6818 66.7079 36.5499 66.7079Z" fill="#6D6969"/>
<path d="M39.4119 66.1835C39.7485 66.1835 40.0441 66.1141 40.2988 65.9752C40.5535 65.8317 40.7513 65.6119 40.8923 65.3159C41.0379 65.0151 41.1106 64.631 41.1106 64.1637C41.1106 63.6964 41.0401 63.3354 40.8991 63.0809C40.7581 62.8264 40.5648 62.6483 40.3192 62.5464C40.0782 62.4447 39.8008 62.3939 39.4869 62.3939H38.4841V66.1835H39.4119ZM37.8428 61.7969H39.4869C39.8144 61.7969 40.1191 61.8363 40.4011 61.9149C40.6831 61.9935 40.9287 62.1231 41.1379 62.3035C41.3471 62.4794 41.5109 62.7154 41.6291 63.0115C41.7474 63.3076 41.8065 63.6756 41.8065 64.1152C41.8065 64.6981 41.7019 65.1886 41.4927 65.5866C41.288 65.9799 41.006 66.276 40.6467 66.475C40.2874 66.674 39.8758 66.7734 39.4119 66.7734H37.8428V61.7969Z" fill="#6D6969"/>
<path d="M44.0924 63.6402C43.8331 63.6402 43.6103 63.7212 43.4238 63.883C43.2373 64.0449 43.1191 64.2902 43.069 64.6188H44.9724C44.9906 64.2857 44.9156 64.0404 44.7473 63.883C44.579 63.7212 44.3607 63.6402 44.0924 63.6402ZM44.2493 66.8398C43.658 66.8398 43.2055 66.6755 42.8916 66.3471C42.5824 66.0138 42.4277 65.5534 42.4277 64.9658C42.4277 64.5725 42.5005 64.2371 42.646 63.9594C42.7916 63.6818 42.9917 63.4688 43.2464 63.3208C43.5011 63.1728 43.7876 63.0987 44.106 63.0987C44.4471 63.0987 44.7359 63.1775 44.9724 63.3347C45.2135 63.4875 45.3863 63.7141 45.4909 64.0149C45.5955 64.3157 45.6137 64.6882 45.5455 65.1325H43.0486C43.0986 65.9052 43.517 66.2914 44.3038 66.2914C44.5767 66.2914 44.811 66.2522 45.0065 66.1736C45.2067 66.0903 45.3704 66.0046 45.4977 65.9168V66.4649C45.4022 66.5344 45.2521 66.6153 45.0475 66.7079C44.8428 66.7959 44.5767 66.8398 44.2493 66.8398Z" fill="#6D6969"/>
<path d="M45.9434 63.1711H46.5915L47.6694 66.4472L48.7405 63.1711H49.3408L48.1265 66.7734H47.1577L45.9434 63.1711Z" fill="#6D6969"/>
<path d="M52.0998 66.2499C52.4136 66.2499 52.6956 66.185 52.9457 66.0556C53.1959 65.926 53.3915 65.7178 53.5325 65.4309C53.678 65.1394 53.7508 64.7576 53.7508 64.2857C53.7508 63.809 53.678 63.4273 53.5325 63.1405C53.3915 62.8536 53.1959 62.6453 52.9457 62.5158C52.6956 62.3862 52.4136 62.3213 52.0998 62.3213C51.786 62.3213 51.504 62.3862 51.2538 62.5158C51.0082 62.6453 50.8127 62.8536 50.6671 63.1405C50.5216 63.4273 50.4488 63.809 50.4488 64.2857C50.4488 64.7576 50.5216 65.1394 50.6671 65.4309C50.8127 65.7178 51.0082 65.926 51.2538 66.0556C51.504 66.185 51.786 66.2499 52.0998 66.2499ZM52.0998 66.8398C51.6632 66.8398 51.2675 66.7404 50.9127 66.5414C50.558 66.3424 50.276 66.0532 50.0668 65.6738C49.8621 65.2897 49.7598 64.8201 49.7598 64.2649C49.7598 63.7095 49.8621 63.2446 50.0668 62.8697C50.276 62.4903 50.558 62.2056 50.9127 62.016C51.2675 61.8262 51.6632 61.7315 52.0998 61.7315C52.5455 61.7315 52.9435 61.8286 53.2937 62.0228C53.6484 62.2127 53.9282 62.4948 54.1328 62.8697C54.3375 63.2446 54.4398 63.7118 54.4398 64.2718C54.4398 64.8223 54.3375 65.2897 54.1328 65.6738C53.9282 66.0532 53.6484 66.3424 53.2937 66.5414C52.9435 66.7404 52.5455 66.8398 52.0998 66.8398Z" fill="#6D6969"/>
<path d="M56.9751 66.2924C57.2844 66.2924 57.5368 66.1815 57.7324 65.9593C57.928 65.7372 58.0257 65.4064 58.0257 64.9668C58.0257 64.5319 57.928 64.2033 57.7324 63.9812C57.5368 63.7546 57.2844 63.6412 56.9751 63.6412C56.6658 63.6412 56.4043 63.7522 56.1906 63.9743C55.9813 64.1918 55.8767 64.5225 55.8767 64.9668C55.8767 65.4156 55.9813 65.7487 56.1906 65.9662C56.4043 66.1838 56.6658 66.2924 56.9751 66.2924ZM55.8836 68H55.2832V63.1691H55.8085L55.8699 63.8702C55.9836 63.6389 56.1405 63.4538 56.3406 63.315C56.5453 63.1714 56.7955 63.0997 57.0911 63.0997C57.3685 63.0997 57.6232 63.1691 57.8552 63.3079C58.0917 63.4422 58.2827 63.6481 58.4283 63.9257C58.5738 64.1986 58.6466 64.5457 58.6466 64.9668C58.6466 65.3878 58.5715 65.7372 58.4214 66.0148C58.2759 66.2924 58.0826 66.5007 57.8415 66.6395C57.605 66.7738 57.3458 66.8408 57.0638 66.8408C56.7955 66.8408 56.5612 66.776 56.3611 66.6465C56.161 66.5169 56.0018 66.3387 55.8836 66.1121V68Z" fill="#6D6969"/>
<path d="M60.5735 66.8398C60.3279 66.8398 60.1165 66.8167 59.9391 66.7704C59.7662 66.7194 59.6253 66.6616 59.5161 66.5969C59.4069 66.5275 59.3228 66.4673 59.2637 66.4165V65.8681C59.3273 65.9283 59.416 65.9954 59.5297 66.0695C59.648 66.1389 59.7935 66.1989 59.9664 66.2499C60.1392 66.3008 60.3393 66.3261 60.5667 66.3261C60.8214 66.3261 61.0238 66.2846 61.1739 66.2012C61.324 66.1179 61.399 65.9769 61.399 65.778C61.399 65.6344 61.3581 65.5279 61.2762 65.4585C61.1944 65.3846 61.0852 65.3313 60.9488 65.2989C60.8169 65.2666 60.6713 65.2343 60.5121 65.2019C60.362 65.1693 60.2142 65.1325 60.0687 65.0907C59.9232 65.0492 59.7913 64.9936 59.673 64.9241C59.5548 64.8502 59.4592 64.7506 59.3865 64.6256C59.3137 64.5008 59.2773 64.3388 59.2773 64.1398C59.2773 63.8159 59.4024 63.5614 59.6525 63.3763C59.9027 63.1912 60.2483 63.0987 60.6895 63.0987C60.9397 63.0987 61.1625 63.1242 61.3581 63.1752C61.5537 63.2259 61.7015 63.2816 61.8015 63.3416V63.89C61.6878 63.8114 61.5423 63.7465 61.3649 63.6957C61.1875 63.6402 60.9692 63.6124 60.71 63.6124C60.4462 63.6124 60.2415 63.6518 60.096 63.7304C59.9504 63.8043 59.8777 63.9363 59.8777 64.126C59.8777 64.2555 59.9118 64.3527 59.98 64.4174C60.0528 64.4776 60.146 64.5215 60.2597 64.5494C60.378 64.5772 60.503 64.6072 60.6349 64.6396C60.7941 64.6719 60.9533 64.709 61.1125 64.7506C61.2717 64.7876 61.4172 64.8433 61.5491 64.9172C61.6856 64.9913 61.7947 65.0954 61.8766 65.2295C61.9585 65.3638 61.9994 65.5419 61.9994 65.764C61.9994 66.0417 61.9289 66.2591 61.7879 66.4165C61.6469 66.5691 61.4673 66.6779 61.2489 66.7426C61.0352 66.8075 60.81 66.8398 60.5735 66.8398Z" fill="#6D6969"/>
<path fill-rule="evenodd" clip-rule="evenodd" d="M43.2801 22.1324L40.7684 22.6253C38.6272 23.036 37.6389 24.0216 37.2271 26.1572C37.1314 26.6346 37.0482 27.0872 36.9675 27.5248C36.9442 27.652 36.921 27.7778 36.8979 27.9023C36.8361 28.231 36.7744 28.5595 36.7125 28.8676L39.2038 28.3747C41.3447 27.964 42.3537 26.9784 42.7654 24.8428C42.8558 24.392 42.9392 23.9399 43.0227 23.4878C43.1063 23.0357 43.1897 22.5836 43.2801 22.1324ZM52.5 25.5C52.5 32.3959 46.8958 38 39.9999 38C33.1042 38 27.5 32.3959 27.5 25.5C27.5 18.6041 33.1042 13 39.9999 13C46.8958 13 52.5 18.6041 52.5 25.5ZM39.9999 15.2084C34.3125 15.2084 29.7083 19.8124 29.7083 25.5C29.7083 29.3565 31.8253 32.715 34.9614 34.4777C34.1992 33.4697 33.9236 32.021 34.2627 30.0585C34.3353 29.659 34.4226 29.1883 34.5197 28.6632C34.5874 28.2972 34.66 27.9048 34.7361 27.4918C34.7659 27.3366 34.7978 27.1766 34.83 27.0126C34.909 26.6119 34.9925 26.1896 35.0655 25.767C35.6421 22.7279 37.3097 21.0442 40.336 20.4898L43.6763 19.8326C43.8678 18.231 43.7113 17.1222 43.1556 16.4446C42.5997 15.767 41.4883 15.2084 39.9999 15.2084ZM50.2917 25.5C50.2917 31.1876 45.6875 35.7916 39.9999 35.7916C38.5117 35.7916 37.4003 35.233 36.8443 34.5554C36.2884 33.8778 36.1321 32.769 36.3234 31.1674L39.6359 30.5102C42.6625 29.9558 44.3301 28.2721 44.927 25.2536C45.0001 24.8311 45.0836 24.4085 45.1625 24.0081C45.195 23.844 45.2266 23.6838 45.2565 23.5287C45.3466 23.0389 45.4339 22.5732 45.5137 22.1462C45.5978 21.6963 45.6738 21.2893 45.7373 20.9415C46.0761 18.979 45.8007 17.5303 45.0385 16.5223C48.1747 18.285 50.2917 21.6435 50.2917 25.5Z" fill="#6D6969"/>
</g>
<rect x="90.5" y="0.5" width="79" height="79" fill="#F8F7F7" stroke="#ECEAEA"/>
<g opacity="0.5">
<path d="M139.373 42.2083C143.051 42.2083 148.377 41.45 148.377 37.1042C148.377 36.7717 148.348 36.4399 148.289 36.1125L146.111 26.6625C145.611 24.5917 145.17 23.6292 141.491 21.8208C138.637 20.3625 132.428 18 130.574 18C128.838 18 128.337 20.1875 126.307 20.1875C124.335 20.1875 122.893 18.5542 121.039 18.5542C119.274 18.5542 118.126 19.75 117.243 22.2C117.243 22.2 114.771 29.1125 114.448 30.1333C114.399 30.3139 114.379 30.5009 114.389 30.6875C114.359 33.3708 125.042 42.1792 139.373 42.2083ZM148.936 38.8833C149.437 41.275 149.437 41.5375 149.437 41.8292C149.437 45.9125 144.817 48.1875 138.725 48.1875C124.953 48.1875 112.917 40.1958 112.917 34.9167C112.916 34.1845 113.066 33.4598 113.359 32.7875C108.415 33.0208 102 33.8958 102 39.4958C102 48.6833 123.953 60 141.315 60C154.645 60 158 54.0208 158 49.2958C158 45.5917 154.763 41.3917 148.936 38.8833Z" fill="#6D6969"/>
<path d="M148.936 38.8828C149.436 41.2745 149.436 41.537 149.436 41.8286C149.436 45.912 144.816 48.187 138.725 48.187C124.953 48.187 112.917 40.1953 112.917 34.9161C112.916 34.184 113.066 33.4593 113.358 32.787L114.447 30.1328C114.399 30.3134 114.379 30.5003 114.388 30.687C114.388 33.3703 125.07 42.1786 139.372 42.1786C143.05 42.1786 148.377 41.4203 148.377 37.0745C148.377 36.742 148.347 36.4102 148.289 36.0828L148.936 38.8828Z" fill="#363636"/>
</g>
<rect x="180.5" y="0.5" width="79" height="79" fill="#F8F7F7" stroke="#ECEAEA"/>
<g opacity="0.5">
<path d="M208.69 45.4844H205.913V56.4736H208.69V45.4844Z" fill="#6D6969"/>
<path d="M231.082 48.633C230.97 48.575 230.077 48.0463 228.749 48.0463C226.95 48.0463 225.706 49.2944 225.706 50.9774C225.706 52.6102 226.898 53.9111 228.749 53.9111C230.055 53.9111 230.962 53.3938 231.082 53.3279V56.2774C230.737 56.3749 229.79 56.6683 228.55 56.6683C225.428 56.6683 222.689 54.5181 222.689 50.9774C222.689 47.6958 225.17 45.2891 228.55 45.2891C229.857 45.2891 230.821 45.6062 231.082 45.6835V48.633Z" fill="#6D6969"/>
<path d="M202.095 48.633C201.983 48.575 201.09 48.0463 199.762 48.0463C197.963 48.0463 196.718 49.2944 196.718 50.9774C196.718 52.6102 197.911 53.9111 199.762 53.9111C201.067 53.9111 201.975 53.3938 202.095 53.3279V56.2774C201.75 56.3749 200.803 56.6683 199.562 56.6683C196.44 56.6683 193.702 54.5181 193.702 50.9774C193.702 47.6958 196.183 45.2891 199.562 45.2891C200.869 45.2891 201.833 45.6062 202.095 45.6835V48.633Z" fill="#6D6969"/>
<path d="M239.818 48.0875C238.17 48.0875 236.946 49.3823 236.946 50.9774C236.946 52.576 238.17 53.8698 239.818 53.8698C241.463 53.8698 242.69 52.576 242.69 50.9774C242.69 49.3823 241.463 48.0875 239.818 48.0875ZM245.633 50.9774C245.633 54.121 243.202 56.6683 239.818 56.6683C236.433 56.6683 234.006 54.121 234.006 50.9774C234.006 47.839 236.433 45.2891 239.818 45.2891C243.202 45.2891 245.633 47.839 245.633 50.9774Z" fill="#6D6969"/>
<path d="M219.222 47.9809C219.18 47.9677 218.011 47.6453 217.051 47.6453C215.938 47.6453 215.333 48.0178 215.333 48.5457C215.333 49.215 216.149 49.4486 216.606 49.5927L217.372 49.836C219.174 50.4087 219.996 51.641 219.996 52.9796C219.996 55.7404 217.564 56.6679 215.439 56.6679C213.962 56.6679 212.579 56.3965 212.442 56.3675V53.8387C212.687 53.9002 213.851 54.2471 215.064 54.2471C216.446 54.2471 217.081 53.844 217.081 53.2212C217.081 52.6643 216.532 52.3428 215.843 52.1268C215.675 52.0705 215.422 51.9915 215.25 51.9353C213.704 51.4469 212.414 50.5395 212.414 48.7204C212.414 46.6651 213.955 45.2852 216.515 45.2852C217.867 45.2852 219.139 45.6128 219.222 45.6347V47.9809Z" fill="#6D6969"/>
<path d="M190.758 33.6758C190.758 32.9187 190.138 32.3047 189.379 32.3047C188.62 32.3047 188 32.9187 188 33.6758V36.5604C188 37.3219 188.62 37.9368 189.379 37.9368C190.138 37.9368 190.758 37.3219 190.758 36.5604V33.6758Z" fill="#6D6969"/>
<path d="M198.331 29.8885C198.331 29.1314 197.712 28.5156 196.953 28.5156C196.193 28.5156 195.573 29.1314 195.573 29.8885V36.5597C195.573 37.3212 196.193 37.9352 196.953 37.9352C197.712 37.9352 198.331 37.3212 198.331 36.5597V29.8885Z" fill="#6D6969"/>
<path d="M205.904 24.7079C205.904 23.9508 205.285 23.3359 204.526 23.3359C203.766 23.3359 203.146 23.9508 203.146 24.7079V39.3002C203.146 40.0618 203.766 40.6766 204.526 40.6766C205.285 40.6766 205.904 40.0618 205.904 39.3002V24.7079Z" fill="#6D6969"/>
<path d="M213.477 29.8885C213.477 29.1314 212.858 28.5156 212.099 28.5156C211.339 28.5156 210.72 29.1314 210.72 29.8885V36.5597C210.72 37.3212 211.339 37.9352 212.099 37.9352C212.858 37.9352 213.477 37.3212 213.477 36.5597V29.8885Z" fill="#6D6969"/>
<path d="M221.042 33.6758C221.042 32.9187 220.427 32.3047 219.671 32.3047C218.912 32.3047 218.293 32.9187 218.293 33.6758V36.5604C218.293 37.3219 218.912 37.9368 219.671 37.9368C220.427 37.9368 221.042 37.3219 221.042 36.5604V33.6758Z" fill="#6D6969"/>
<path d="M221.045 33.6758C221.045 32.9187 220.425 32.3047 219.666 32.3047C218.907 32.3047 218.287 32.9187 218.287 33.6758V36.5604C218.287 37.3219 218.907 37.9368 219.666 37.9368C220.425 37.9368 221.045 37.3219 221.045 36.5604V33.6758Z" fill="#6D6969"/>
<path d="M228.618 29.8885C228.618 29.1314 227.999 28.5156 227.24 28.5156C226.48 28.5156 225.86 29.1314 225.86 29.8885V36.5597C225.86 37.3212 226.48 37.9352 227.24 37.9352C227.999 37.9352 228.618 37.3212 228.618 36.5597V29.8885Z" fill="#6D6969"/>
<path d="M236.191 24.7079C236.191 23.9508 235.572 23.3359 234.813 23.3359C234.053 23.3359 233.434 23.9508 233.434 24.7079V39.3002C233.434 40.0618 234.053 40.6766 234.813 40.6766C235.572 40.6766 236.191 40.0618 236.191 39.3002V24.7079Z" fill="#6D6969"/>
<path d="M243.764 29.8885C243.764 29.1314 243.145 28.5156 242.386 28.5156C241.626 28.5156 241.007 29.1314 241.007 29.8885V36.5597C241.007 37.3212 241.626 37.9352 242.386 37.9352C243.145 37.9352 243.764 37.3212 243.764 36.5597V29.8885Z" fill="#6D6969"/>
<path d="M251.328 33.6758C251.328 32.9187 250.713 32.3047 249.957 32.3047C249.198 32.3047 248.579 32.9187 248.579 33.6758V36.5604C248.579 37.3219 249.198 37.9368 249.957 37.9368C250.713 37.9368 251.328 37.3219 251.328 36.5604V33.6758Z" fill="#6D6969"/>
<path d="M249.744 55.0273V55.1995H249.254V56.474H249.052V55.1995H248.559V55.0273H249.744Z" fill="#6D6969"/>
<path d="M249.848 55.0273H250.163L250.597 56.214H250.604L251.024 55.0273H251.333V56.474H251.127V55.2882H251.12L250.68 56.474H250.489L250.06 55.2882H250.05V56.474H249.848V55.0273Z" fill="#6D6969"/>
</g>
</svg>
